G04 #@! TF.FileFunction,Soldermask,Top*
%FSLAX46Y46*%
G04 Gerber Fmt 4.6, Leading zero omitted, Abs format (unit mm)*
G04 Created by KiCad (PCBNEW 4.0.6) date 11/30/17 16:48:59*
%MOMM*%
%LPD*%
G01*
G04 APERTURE LIST*
%ADD10C,0.300000*%
%ADD11C,2.000000*%
%ADD12C,3.000000*%
%ADD13C,1.700000*%
%ADD14C,4.500000*%
%ADD15O,2.540000X1.524000*%
%ADD16R,0.800100X0.800100*%
%ADD17R,1.500000X0.600000*%
%ADD18R,1.550000X0.600000*%
%ADD19C,1.200000*%
%ADD20R,1.300000X1.500000*%
%ADD21R,1.500000X1.300000*%
%ADD22R,1.500000X1.250000*%
%ADD23C,1.000760*%
%ADD24R,1.524000X3.524000*%
%ADD25O,0.899160X1.501140*%
%ADD26R,1.300000X1.300000*%
%ADD27C,1.300000*%
%ADD28O,1.500000X2.000000*%
%ADD29R,1.500000X2.000000*%
G04 APERTURE END LIST*
D10*
D11*
X193171981Y-99298019D03*
X189990000Y-102480000D03*
X188575786Y-94701825D03*
X185393806Y-97883806D03*
D12*
X177810160Y-77978000D03*
X185409840Y-77978000D03*
D13*
X139192000Y-86360000D03*
X141732000Y-86360000D03*
X144272000Y-86360000D03*
X146812000Y-86360000D03*
X149352000Y-86360000D03*
X151892000Y-86360000D03*
X151892000Y-71120000D03*
X149352000Y-71120000D03*
X146812000Y-71120000D03*
X144272000Y-71120000D03*
X141732000Y-71120000D03*
X139192000Y-71120000D03*
D14*
X126492000Y-108966000D03*
D15*
X121412000Y-106426000D03*
X121412000Y-103886000D03*
X121412000Y-101346000D03*
X121412000Y-93726000D03*
X121412000Y-96266000D03*
X121412000Y-98806000D03*
X121412000Y-88646000D03*
X121412000Y-86106000D03*
X121412000Y-83566000D03*
X121412000Y-78486000D03*
X121412000Y-75946000D03*
X169672000Y-106426000D03*
X169672000Y-103886000D03*
X169672000Y-101346000D03*
X169672000Y-98806000D03*
X169672000Y-96266000D03*
X169672000Y-93726000D03*
X169672000Y-91186000D03*
X169672000Y-88646000D03*
X169672000Y-84582000D03*
X169672000Y-82042000D03*
X169672000Y-79502000D03*
X169672000Y-76962000D03*
X169672000Y-74422000D03*
X169672000Y-71882000D03*
X169672000Y-69342000D03*
X169672000Y-66802000D03*
X121412000Y-81026000D03*
D14*
X154432000Y-108966000D03*
D16*
X141798000Y-91678760D03*
X143698000Y-91678760D03*
X142748000Y-89679780D03*
D17*
X155288000Y-74549000D03*
X155288000Y-75819000D03*
X155288000Y-77089000D03*
X155288000Y-78359000D03*
X155288000Y-79629000D03*
X155288000Y-80899000D03*
X155288000Y-82169000D03*
X155288000Y-83439000D03*
X160688000Y-83439000D03*
X160688000Y-82169000D03*
X160688000Y-80899000D03*
X160688000Y-79629000D03*
X160688000Y-78359000D03*
X160688000Y-77089000D03*
X160688000Y-75819000D03*
X160688000Y-74549000D03*
D18*
X105504000Y-81407000D03*
X105504000Y-82677000D03*
X105504000Y-83947000D03*
X105504000Y-85217000D03*
X110904000Y-85217000D03*
X110904000Y-83947000D03*
X110904000Y-82677000D03*
X110904000Y-81407000D03*
D16*
X128082000Y-91678760D03*
X129982000Y-91678760D03*
X129032000Y-89679780D03*
D19*
X142810000Y-107950000D03*
X144588000Y-107950000D03*
X148144000Y-107950000D03*
X146366000Y-107950000D03*
D20*
X124968000Y-93298000D03*
X124968000Y-90598000D03*
X116332000Y-85678000D03*
X116332000Y-82978000D03*
X147828000Y-96694000D03*
X147828000Y-99394000D03*
X145542000Y-96694000D03*
X145542000Y-99394000D03*
X143256000Y-96694000D03*
X143256000Y-99394000D03*
X174300000Y-71650000D03*
X174300000Y-68950000D03*
D21*
X130382000Y-93472000D03*
X127682000Y-93472000D03*
X144098000Y-93472000D03*
X141398000Y-93472000D03*
X149432000Y-93472000D03*
X146732000Y-93472000D03*
X163402000Y-93472000D03*
X160702000Y-93472000D03*
X132000000Y-86106000D03*
X134700000Y-86106000D03*
X132000000Y-83566000D03*
X134700000Y-83566000D03*
X132000000Y-81026000D03*
X134700000Y-81026000D03*
X132000000Y-78486000D03*
X134700000Y-78486000D03*
X132000000Y-75946000D03*
X134700000Y-75946000D03*
X132000000Y-73406000D03*
X134700000Y-73406000D03*
X132000000Y-70866000D03*
X134700000Y-70866000D03*
X160500000Y-71250000D03*
X157800000Y-71250000D03*
D20*
X150114000Y-99394000D03*
X150114000Y-96694000D03*
X175200000Y-87600000D03*
X175200000Y-84900000D03*
D21*
X130382000Y-103632000D03*
X127682000Y-103632000D03*
D20*
X166116000Y-93298000D03*
X166116000Y-90598000D03*
D22*
X97290000Y-80400000D03*
X99790000Y-80400000D03*
D23*
X110050700Y-77600000D03*
X111549300Y-77600000D03*
D24*
X110800000Y-72012000D03*
D16*
X161102000Y-101838760D03*
X163002000Y-101838760D03*
X162052000Y-99839780D03*
X128082000Y-101838760D03*
X129982000Y-101838760D03*
X129032000Y-99839780D03*
X190312000Y-87360760D03*
X192212000Y-87360760D03*
X191262000Y-85361780D03*
X161102000Y-91678760D03*
X163002000Y-91678760D03*
X162052000Y-89679780D03*
X147132000Y-91678760D03*
X149032000Y-91678760D03*
X148082000Y-89679780D03*
D25*
X114830000Y-71810000D03*
X113560000Y-71810000D03*
X116100000Y-71810000D03*
D26*
X114808000Y-76962000D03*
D27*
X114808000Y-79462000D03*
D21*
X97260000Y-82640000D03*
X99960000Y-82640000D03*
D28*
X144100000Y-65550000D03*
X141600000Y-65550000D03*
X139000000Y-65550000D03*
D29*
X136500000Y-65550000D03*
D28*
X146600000Y-65550000D03*
X149200000Y-65550000D03*
X151700000Y-65550000D03*
X154300000Y-65550000D03*
D21*
X182350000Y-64750000D03*
X179650000Y-64750000D03*
D20*
X164000000Y-73400000D03*
X164000000Y-70700000D03*
X166500000Y-73250000D03*
X166500000Y-70550000D03*
D21*
X177100000Y-69500000D03*
X179800000Y-69500000D03*
X160036500Y-63754000D03*
X157336500Y-63754000D03*
X160700000Y-103630000D03*
X163400000Y-103630000D03*
X134880000Y-103630000D03*
X137580000Y-103630000D03*
X153730000Y-103770000D03*
X156430000Y-103770000D03*
D20*
X140930000Y-99450000D03*
X140930000Y-96750000D03*
D11*
X138570000Y-101420000D03*
X134070000Y-101420000D03*
X138570000Y-94920000D03*
X134070000Y-94920000D03*
X157140000Y-101420000D03*
X152640000Y-101420000D03*
X157140000Y-94920000D03*
X152640000Y-94920000D03*
X115648019Y-94428019D03*
X118830000Y-97610000D03*
X111051825Y-99024214D03*
X114233806Y-102206194D03*
X180211981Y-98908019D03*
X177030000Y-102090000D03*
X175615786Y-94311825D03*
X172433806Y-97493806D03*
X109108019Y-100868019D03*
X112290000Y-104050000D03*
X104511825Y-105464214D03*
X107693806Y-108646194D03*
X186711981Y-105558019D03*
X183530000Y-108740000D03*
X182115786Y-100961825D03*
X178933806Y-104143806D03*
X102768019Y-94548019D03*
X105950000Y-97730000D03*
X98171825Y-99144214D03*
X101353806Y-102326194D03*
X109438019Y-88028019D03*
X112620000Y-91210000D03*
X104841825Y-92624214D03*
X108023806Y-95806194D03*
X186451981Y-92668019D03*
X183270000Y-95850000D03*
X181855786Y-88071825D03*
X178673806Y-91253806D03*
D21*
X134720000Y-92680000D03*
X137420000Y-92680000D03*
X153580000Y-92430000D03*
X156280000Y-92430000D03*
D10*
G36*
X112905305Y-93155457D02*
X113824543Y-94074695D01*
X112763883Y-95135355D01*
X111844645Y-94216117D01*
X112905305Y-93155457D01*
X112905305Y-93155457D01*
G37*
G36*
X110996117Y-95064645D02*
X111915355Y-95983883D01*
X110854695Y-97044543D01*
X109935457Y-96125305D01*
X110996117Y-95064645D01*
X110996117Y-95064645D01*
G37*
G36*
X177305457Y-94084695D02*
X178224695Y-93165457D01*
X179285355Y-94226117D01*
X178366117Y-95145355D01*
X177305457Y-94084695D01*
X177305457Y-94084695D01*
G37*
G36*
X179214645Y-95993883D02*
X180133883Y-95074645D01*
X181194543Y-96135305D01*
X180275305Y-97054543D01*
X179214645Y-95993883D01*
X179214645Y-95993883D01*
G37*
G36*
X106545305Y-99835457D02*
X107464543Y-100754695D01*
X106403883Y-101815355D01*
X105484645Y-100896117D01*
X106545305Y-99835457D01*
X106545305Y-99835457D01*
G37*
G36*
X104636117Y-101744645D02*
X105555355Y-102663883D01*
X104494695Y-103724543D01*
X103575457Y-102805305D01*
X104636117Y-101744645D01*
X104636117Y-101744645D01*
G37*
G36*
X183795457Y-100774695D02*
X184714695Y-99855457D01*
X185775355Y-100916117D01*
X184856117Y-101835355D01*
X183795457Y-100774695D01*
X183795457Y-100774695D01*
G37*
G36*
X185704645Y-102683883D02*
X186623883Y-101764645D01*
X187684543Y-102825305D01*
X186765305Y-103744543D01*
X185704645Y-102683883D01*
X185704645Y-102683883D01*
G37*
G36*
X99735305Y-93335457D02*
X100654543Y-94254695D01*
X99593883Y-95315355D01*
X98674645Y-94396117D01*
X99735305Y-93335457D01*
X99735305Y-93335457D01*
G37*
G36*
X97826117Y-95244645D02*
X98745355Y-96163883D01*
X97684695Y-97224543D01*
X96765457Y-96305305D01*
X97826117Y-95244645D01*
X97826117Y-95244645D01*
G37*
G36*
X190425457Y-93924695D02*
X191344695Y-93005457D01*
X192405355Y-94066117D01*
X191486117Y-94985355D01*
X190425457Y-93924695D01*
X190425457Y-93924695D01*
G37*
G36*
X192334645Y-95833883D02*
X193253883Y-94914645D01*
X194314543Y-95975305D01*
X193395305Y-96894543D01*
X192334645Y-95833883D01*
X192334645Y-95833883D01*
G37*
G36*
X106665305Y-86545457D02*
X107584543Y-87464695D01*
X106523883Y-88525355D01*
X105604645Y-87606117D01*
X106665305Y-86545457D01*
X106665305Y-86545457D01*
G37*
G36*
X104756117Y-88454645D02*
X105675355Y-89373883D01*
X104614695Y-90434543D01*
X103695457Y-89515305D01*
X104756117Y-88454645D01*
X104756117Y-88454645D01*
G37*
G36*
X183715457Y-87794695D02*
X184634695Y-86875457D01*
X185695355Y-87936117D01*
X184776117Y-88855355D01*
X183715457Y-87794695D01*
X183715457Y-87794695D01*
G37*
G36*
X185624645Y-89703883D02*
X186543883Y-88784645D01*
X187604543Y-89845305D01*
X186685305Y-90764543D01*
X185624645Y-89703883D01*
X185624645Y-89703883D01*
G37*
D28*
X118940000Y-67020000D03*
X116440000Y-67020000D03*
X113840000Y-67020000D03*
D29*
X111340000Y-67020000D03*
D14*
X125349000Y-65786000D03*
X165544500Y-65786000D03*
D11*
X107270127Y-68900591D03*
X102940000Y-66400591D03*
X102190127Y-77699409D03*
X104730127Y-73300000D03*
X97860000Y-75199409D03*
X100400000Y-70800000D03*
X189209873Y-77899409D03*
X193540000Y-75399409D03*
X184129873Y-69100591D03*
X186669873Y-73500000D03*
X188460000Y-66600591D03*
X191000000Y-71000000D03*
M02*
