%FSLAX45Y45*%
G04 Gerber Fmt 4.5, Leading zero omitted, Abs format (unit mm)*
G04 Created by KiCad (PCBNEW 4.0.6) date 04/25/17 11:46:04*
%MOMM*%
%LPD*%
G01*
G04 APERTURE LIST*
%ADD10C,0.127000*%
%ADD11C,0.150000*%
%ADD12C,0.200000*%
%ADD13C,0.300000*%
G04 APERTURE END LIST*
D10*
D11*
X10845800Y-6146800D02*
X18262600Y-6146800D01*
X19532600Y-7416800D02*
X19532600Y-9880600D01*
X19532600Y-7416800D02*
G75*
G03X18262600Y-6146800I-1270000J0D01*
G01*
X10845800Y-11150600D02*
X18262600Y-11150600D01*
X18262600Y-11150600D02*
G75*
G03X19532600Y-9880600I0J1270000D01*
G01*
X9575800Y-7416800D02*
X9575800Y-9880600D01*
X9575800Y-9880600D02*
G75*
G03X10845800Y-11150600I1270000J0D01*
G01*
X10845800Y-6146800D02*
G75*
G03X9575800Y-7416800I0J-1270000D01*
G01*
D12*
X10283698Y-7894828D02*
X10343642Y-7954772D01*
X10343642Y-7894828D02*
X10283698Y-7954772D01*
X10433558Y-7894828D02*
X10493502Y-7954772D01*
X10493502Y-7894828D02*
X10433558Y-7954772D01*
X11383800Y-7213600D02*
G75*
G03X11383800Y-7213600I-30000J0D01*
G01*
X11510800Y-7213600D02*
G75*
G03X11510800Y-7213600I-30000J0D01*
G01*
X11637800Y-7213600D02*
G75*
G03X11637800Y-7213600I-30000J0D01*
G01*
X10820400Y-7435850D02*
X10820400Y-7499350D01*
X10788650Y-7467600D02*
X10852150Y-7467600D01*
X10820400Y-8553450D02*
X10820400Y-8616950D01*
X10788650Y-8585200D02*
X10852150Y-8585200D01*
X11252200Y-7435850D02*
X11252200Y-7499350D01*
X11220450Y-7467600D02*
X11283950Y-7467600D01*
X11353800Y-6877050D02*
X11353800Y-6940550D01*
X11322050Y-6908800D02*
X11385550Y-6908800D01*
X11607800Y-8096250D02*
X11607800Y-8159750D01*
X11576050Y-8128000D02*
X11639550Y-8128000D01*
X11760200Y-6877050D02*
X11760200Y-6940550D01*
X11728450Y-6908800D02*
X11791950Y-6908800D01*
X11811000Y-7105650D02*
X11811000Y-7169150D01*
X11779250Y-7137400D02*
X11842750Y-7137400D01*
X11836400Y-8197850D02*
X11836400Y-8261350D01*
X11804650Y-8229600D02*
X11868150Y-8229600D01*
X11836400Y-8934450D02*
X11836400Y-8997950D01*
X11804650Y-8966200D02*
X11868150Y-8966200D01*
X11887200Y-6826250D02*
X11887200Y-6889750D01*
X11855450Y-6858000D02*
X11918950Y-6858000D01*
X11963400Y-7334250D02*
X11963400Y-7397750D01*
X11931650Y-7366000D02*
X11995150Y-7366000D01*
X12090400Y-7258050D02*
X12090400Y-7321550D01*
X12058650Y-7289800D02*
X12122150Y-7289800D01*
X12319000Y-8705850D02*
X12319000Y-8769350D01*
X12287250Y-8737600D02*
X12350750Y-8737600D01*
X12344400Y-9290050D02*
X12344400Y-9353550D01*
X12312650Y-9321800D02*
X12376150Y-9321800D01*
X12496800Y-8070850D02*
X12496800Y-8134350D01*
X12465050Y-8102600D02*
X12528550Y-8102600D01*
X12496800Y-8858250D02*
X12496800Y-8921750D01*
X12465050Y-8890000D02*
X12528550Y-8890000D01*
X12573000Y-9848850D02*
X12573000Y-9912350D01*
X12541250Y-9880600D02*
X12604750Y-9880600D01*
X12623800Y-7689850D02*
X12623800Y-7753350D01*
X12592050Y-7721600D02*
X12655550Y-7721600D01*
X12649200Y-6953250D02*
X12649200Y-7016750D01*
X12617450Y-6985000D02*
X12680950Y-6985000D01*
X12674600Y-7258050D02*
X12674600Y-7321550D01*
X12642850Y-7289800D02*
X12706350Y-7289800D01*
X12725400Y-8197850D02*
X12725400Y-8261350D01*
X12693650Y-8229600D02*
X12757150Y-8229600D01*
X12750800Y-8451850D02*
X12750800Y-8515350D01*
X12719050Y-8483600D02*
X12782550Y-8483600D01*
X12776200Y-7689850D02*
X12776200Y-7753350D01*
X12744450Y-7721600D02*
X12807950Y-7721600D01*
X12903200Y-7943850D02*
X12903200Y-8007350D01*
X12871450Y-7975600D02*
X12934950Y-7975600D01*
X13004800Y-9696450D02*
X13004800Y-9759950D01*
X12973050Y-9728200D02*
X13036550Y-9728200D01*
X13030200Y-7943850D02*
X13030200Y-8007350D01*
X12998450Y-7975600D02*
X13061950Y-7975600D01*
X13030200Y-8197850D02*
X13030200Y-8261350D01*
X12998450Y-8229600D02*
X13061950Y-8229600D01*
X13055600Y-9950450D02*
X13055600Y-10013950D01*
X13023850Y-9982200D02*
X13087350Y-9982200D01*
X13106400Y-9594850D02*
X13106400Y-9658350D01*
X13074650Y-9626600D02*
X13138150Y-9626600D01*
X13182600Y-10890250D02*
X13182600Y-10953750D01*
X13150850Y-10922000D02*
X13214350Y-10922000D01*
X13208000Y-8756650D02*
X13208000Y-8820150D01*
X13176250Y-8788400D02*
X13239750Y-8788400D01*
X13208000Y-9213850D02*
X13208000Y-9277350D01*
X13176250Y-9245600D02*
X13239750Y-9245600D01*
X13284200Y-10331450D02*
X13284200Y-10394950D01*
X13252450Y-10363200D02*
X13315950Y-10363200D01*
X13284200Y-10636250D02*
X13284200Y-10699750D01*
X13252450Y-10668000D02*
X13315950Y-10668000D01*
X13309600Y-8934450D02*
X13309600Y-8997950D01*
X13277850Y-8966200D02*
X13341350Y-8966200D01*
X13360400Y-9061450D02*
X13360400Y-9124950D01*
X13328650Y-9093200D02*
X13392150Y-9093200D01*
X13385800Y-6877050D02*
X13385800Y-6940550D01*
X13354050Y-6908800D02*
X13417550Y-6908800D01*
X13487400Y-10763250D02*
X13487400Y-10826750D01*
X13455650Y-10795000D02*
X13519150Y-10795000D01*
X13614400Y-8934450D02*
X13614400Y-8997950D01*
X13582650Y-8966200D02*
X13646150Y-8966200D01*
X13614400Y-9391650D02*
X13614400Y-9455150D01*
X13582650Y-9423400D02*
X13646150Y-9423400D01*
X13614400Y-9874250D02*
X13614400Y-9937750D01*
X13582650Y-9906000D02*
X13646150Y-9906000D01*
X13741400Y-8832850D02*
X13741400Y-8896350D01*
X13709650Y-8864600D02*
X13773150Y-8864600D01*
X13843000Y-10534650D02*
X13843000Y-10598150D01*
X13811250Y-10566400D02*
X13874750Y-10566400D01*
X14173200Y-7334250D02*
X14173200Y-7397750D01*
X14141450Y-7366000D02*
X14204950Y-7366000D01*
X14173200Y-8324850D02*
X14173200Y-8388350D01*
X14141450Y-8356600D02*
X14204950Y-8356600D01*
X14198600Y-10102850D02*
X14198600Y-10166350D01*
X14166850Y-10134600D02*
X14230350Y-10134600D01*
X14427200Y-8070850D02*
X14427200Y-8134350D01*
X14395450Y-8102600D02*
X14458950Y-8102600D01*
X14427200Y-10102850D02*
X14427200Y-10166350D01*
X14395450Y-10134600D02*
X14458950Y-10134600D01*
X14503400Y-9163050D02*
X14503400Y-9226550D01*
X14471650Y-9194800D02*
X14535150Y-9194800D01*
X14554200Y-9467850D02*
X14554200Y-9531350D01*
X14522450Y-9499600D02*
X14585950Y-9499600D01*
X14681200Y-7816850D02*
X14681200Y-7880350D01*
X14649450Y-7848600D02*
X14712950Y-7848600D01*
X14681200Y-10128250D02*
X14681200Y-10191750D01*
X14649450Y-10160000D02*
X14712950Y-10160000D01*
X14909800Y-10153650D02*
X14909800Y-10217150D01*
X14878050Y-10185400D02*
X14941550Y-10185400D01*
X14909800Y-10534650D02*
X14909800Y-10598150D01*
X14878050Y-10566400D02*
X14941550Y-10566400D01*
X14935200Y-7562850D02*
X14935200Y-7626350D01*
X14903450Y-7594600D02*
X14966950Y-7594600D01*
X15062200Y-9137650D02*
X15062200Y-9201150D01*
X15030450Y-9169400D02*
X15093950Y-9169400D01*
X15341600Y-7410450D02*
X15341600Y-7473950D01*
X15309850Y-7442200D02*
X15373350Y-7442200D01*
X15341600Y-8324850D02*
X15341600Y-8388350D01*
X15309850Y-8356600D02*
X15373350Y-8356600D01*
X15341600Y-8909050D02*
X15341600Y-8972550D01*
X15309850Y-8940800D02*
X15373350Y-8940800D01*
X15367000Y-9798050D02*
X15367000Y-9861550D01*
X15335250Y-9829800D02*
X15398750Y-9829800D01*
X15417800Y-6546850D02*
X15417800Y-6610350D01*
X15386050Y-6578600D02*
X15449550Y-6578600D01*
X15443200Y-6978650D02*
X15443200Y-7042150D01*
X15411450Y-7010400D02*
X15474950Y-7010400D01*
X15443200Y-7181850D02*
X15443200Y-7245350D01*
X15411450Y-7213600D02*
X15474950Y-7213600D01*
X15443200Y-8451850D02*
X15443200Y-8515350D01*
X15411450Y-8483600D02*
X15474950Y-8483600D01*
X15443200Y-8731250D02*
X15443200Y-8794750D01*
X15411450Y-8763000D02*
X15474950Y-8763000D01*
X15494000Y-9823450D02*
X15494000Y-9886950D01*
X15462250Y-9855200D02*
X15525750Y-9855200D01*
X15570200Y-6927850D02*
X15570200Y-6991350D01*
X15538450Y-6959600D02*
X15601950Y-6959600D01*
X15570200Y-7283450D02*
X15570200Y-7346950D01*
X15538450Y-7315200D02*
X15601950Y-7315200D01*
X15570200Y-8502650D02*
X15570200Y-8566150D01*
X15538450Y-8534400D02*
X15601950Y-8534400D01*
X15697200Y-7943850D02*
X15697200Y-8007350D01*
X15665450Y-7975600D02*
X15728950Y-7975600D01*
X15697200Y-8502650D02*
X15697200Y-8566150D01*
X15665450Y-8534400D02*
X15728950Y-8534400D01*
X15798800Y-7816850D02*
X15798800Y-7880350D01*
X15767050Y-7848600D02*
X15830550Y-7848600D01*
X15798800Y-8832850D02*
X15798800Y-8896350D01*
X15767050Y-8864600D02*
X15830550Y-8864600D01*
X15798800Y-10763250D02*
X15798800Y-10826750D01*
X15767050Y-10795000D02*
X15830550Y-10795000D01*
X15824200Y-10331450D02*
X15824200Y-10394950D01*
X15792450Y-10363200D02*
X15855950Y-10363200D01*
X15875000Y-6851650D02*
X15875000Y-6915150D01*
X15843250Y-6883400D02*
X15906750Y-6883400D01*
X15875000Y-7537450D02*
X15875000Y-7600950D01*
X15843250Y-7569200D02*
X15906750Y-7569200D01*
X15900400Y-7689850D02*
X15900400Y-7753350D01*
X15868650Y-7721600D02*
X15932150Y-7721600D01*
X15900400Y-8426450D02*
X15900400Y-8489950D01*
X15868650Y-8458200D02*
X15932150Y-8458200D01*
X16052800Y-6851650D02*
X16052800Y-6915150D01*
X16021050Y-6883400D02*
X16084550Y-6883400D01*
X16052800Y-7080250D02*
X16052800Y-7143750D01*
X16021050Y-7112000D02*
X16084550Y-7112000D01*
X16078200Y-9950450D02*
X16078200Y-10013950D01*
X16046450Y-9982200D02*
X16109950Y-9982200D01*
X16078200Y-10661650D02*
X16078200Y-10725150D01*
X16046450Y-10693400D02*
X16109950Y-10693400D01*
X16230600Y-8172450D02*
X16230600Y-8235950D01*
X16198850Y-8204200D02*
X16262350Y-8204200D01*
X16243300Y-7423150D02*
X16243300Y-7486650D01*
X16211550Y-7454900D02*
X16275050Y-7454900D01*
X16357600Y-8629650D02*
X16357600Y-8693150D01*
X16325850Y-8661400D02*
X16389350Y-8661400D01*
X16357600Y-8934450D02*
X16357600Y-8997950D01*
X16325850Y-8966200D02*
X16389350Y-8966200D01*
X16383000Y-8426450D02*
X16383000Y-8489950D01*
X16351250Y-8458200D02*
X16414750Y-8458200D01*
X16433800Y-8045450D02*
X16433800Y-8108950D01*
X16402050Y-8077200D02*
X16465550Y-8077200D01*
X16467200Y-9028050D02*
X16467200Y-9091550D01*
X16435450Y-9059800D02*
X16498950Y-9059800D01*
X16484600Y-9569450D02*
X16484600Y-9632950D01*
X16452850Y-9601200D02*
X16516350Y-9601200D01*
X16484600Y-10153650D02*
X16484600Y-10217150D01*
X16452850Y-10185400D02*
X16516350Y-10185400D01*
X16522700Y-7677150D02*
X16522700Y-7740650D01*
X16490950Y-7708900D02*
X16554450Y-7708900D01*
X16535400Y-6419850D02*
X16535400Y-6483350D01*
X16503650Y-6451600D02*
X16567150Y-6451600D01*
X16535400Y-8426450D02*
X16535400Y-8489950D01*
X16503650Y-8458200D02*
X16567150Y-8458200D01*
X16535400Y-10331450D02*
X16535400Y-10394950D01*
X16503650Y-10363200D02*
X16567150Y-10363200D01*
X16535400Y-10763250D02*
X16535400Y-10826750D01*
X16503650Y-10795000D02*
X16567150Y-10795000D01*
X16662400Y-10509250D02*
X16662400Y-10572750D01*
X16630650Y-10541000D02*
X16694150Y-10541000D01*
X16764000Y-8197850D02*
X16764000Y-8261350D01*
X16732250Y-8229600D02*
X16795750Y-8229600D01*
X16764000Y-8324850D02*
X16764000Y-8388350D01*
X16732250Y-8356600D02*
X16795750Y-8356600D01*
X16764000Y-8528050D02*
X16764000Y-8591550D01*
X16732250Y-8559800D02*
X16795750Y-8559800D01*
X16789400Y-7562850D02*
X16789400Y-7626350D01*
X16757650Y-7594600D02*
X16821150Y-7594600D01*
X17145000Y-7283450D02*
X17145000Y-7346950D01*
X17113250Y-7315200D02*
X17176750Y-7315200D01*
X17170400Y-9467850D02*
X17170400Y-9531350D01*
X17138650Y-9499600D02*
X17202150Y-9499600D01*
X17272000Y-7943850D02*
X17272000Y-8007350D01*
X17240250Y-7975600D02*
X17303750Y-7975600D01*
X17272000Y-9086850D02*
X17272000Y-9150350D01*
X17240250Y-9118600D02*
X17303750Y-9118600D01*
X17373600Y-7512050D02*
X17373600Y-7575550D01*
X17341850Y-7543800D02*
X17405350Y-7543800D01*
X17475200Y-8782050D02*
X17475200Y-8845550D01*
X17443450Y-8813800D02*
X17506950Y-8813800D01*
X17983200Y-6419850D02*
X17983200Y-6483350D01*
X17951450Y-6451600D02*
X18014950Y-6451600D01*
X17983200Y-7385050D02*
X17983200Y-7448550D01*
X17951450Y-7416800D02*
X18014950Y-7416800D01*
X18338800Y-9899650D02*
X18338800Y-9963150D01*
X18307050Y-9931400D02*
X18370550Y-9931400D01*
X18364200Y-8045450D02*
X18364200Y-8108950D01*
X18332450Y-8077200D02*
X18395950Y-8077200D01*
X18364200Y-8629650D02*
X18364200Y-8693150D01*
X18332450Y-8661400D02*
X18395950Y-8661400D01*
X18542000Y-6775450D02*
X18542000Y-6838950D01*
X18510250Y-6807200D02*
X18573750Y-6807200D01*
X18542000Y-7080250D02*
X18542000Y-7143750D01*
X18510250Y-7112000D02*
X18573750Y-7112000D01*
X18846800Y-8401050D02*
X18846800Y-8464550D01*
X18815050Y-8432800D02*
X18878550Y-8432800D01*
X18999200Y-9264650D02*
X18999200Y-9328150D01*
X18967450Y-9296400D02*
X19030950Y-9296400D01*
X11509084Y-7724484D02*
X11509084Y-7667915D01*
X11452515Y-7667915D01*
X11452515Y-7724484D01*
X11509084Y-7724484D01*
X11509084Y-7974484D02*
X11509084Y-7917915D01*
X11452515Y-7917915D01*
X11452515Y-7974484D01*
X11509084Y-7974484D01*
X13947484Y-7140284D02*
X13947484Y-7083715D01*
X13890915Y-7083715D01*
X13890915Y-7140284D01*
X13947484Y-7140284D01*
X13947484Y-8664285D02*
X13947484Y-8607716D01*
X13890915Y-8607716D01*
X13890915Y-8664285D01*
X13947484Y-8664285D01*
X14201484Y-7140284D02*
X14201484Y-7083715D01*
X14144915Y-7083715D01*
X14144915Y-7140284D01*
X14201484Y-7140284D01*
X14201484Y-8664285D02*
X14201484Y-8607716D01*
X14144915Y-8607716D01*
X14144915Y-8664285D01*
X14201484Y-8664285D01*
X14455484Y-7140284D02*
X14455484Y-7083715D01*
X14398915Y-7083715D01*
X14398915Y-7140284D01*
X14455484Y-7140284D01*
X14455484Y-8664285D02*
X14455484Y-8607716D01*
X14398915Y-8607716D01*
X14398915Y-8664285D01*
X14455484Y-8664285D01*
X14709484Y-7140284D02*
X14709484Y-7083715D01*
X14652915Y-7083715D01*
X14652915Y-7140284D01*
X14709484Y-7140284D01*
X14709484Y-8664285D02*
X14709484Y-8607716D01*
X14652915Y-8607716D01*
X14652915Y-8664285D01*
X14709484Y-8664285D01*
X14963484Y-7140284D02*
X14963484Y-7083715D01*
X14906915Y-7083715D01*
X14906915Y-7140284D01*
X14963484Y-7140284D01*
X14963484Y-8664285D02*
X14963484Y-8607716D01*
X14906915Y-8607716D01*
X14906915Y-8664285D01*
X14963484Y-8664285D01*
X15217484Y-7140284D02*
X15217484Y-7083715D01*
X15160915Y-7083715D01*
X15160915Y-7140284D01*
X15217484Y-7140284D01*
X15217484Y-8664285D02*
X15217484Y-8607716D01*
X15160915Y-8607716D01*
X15160915Y-8664285D01*
X15217484Y-8664285D01*
X14325600Y-10835640D02*
X14366240Y-10795000D01*
X14325600Y-10754360D01*
X14284960Y-10795000D01*
X14325600Y-10835640D01*
X14503400Y-10835640D02*
X14544040Y-10795000D01*
X14503400Y-10754360D01*
X14462760Y-10795000D01*
X14503400Y-10835640D01*
X14681200Y-10835640D02*
X14721840Y-10795000D01*
X14681200Y-10754360D01*
X14640560Y-10795000D01*
X14681200Y-10835640D01*
X14859000Y-10835640D02*
X14899640Y-10795000D01*
X14859000Y-10754360D01*
X14818360Y-10795000D01*
X14859000Y-10835640D01*
X12091200Y-7544600D02*
X12191200Y-7644600D01*
X12191200Y-7544600D02*
X12091200Y-7644600D01*
X12191200Y-7594600D02*
G75*
G03X12191200Y-7594600I-50000J0D01*
G01*
X12091200Y-7798600D02*
X12191200Y-7898600D01*
X12191200Y-7798600D02*
X12091200Y-7898600D01*
X12191200Y-7848600D02*
G75*
G03X12191200Y-7848600I-50000J0D01*
G01*
X12091200Y-8052600D02*
X12191200Y-8152600D01*
X12191200Y-8052600D02*
X12091200Y-8152600D01*
X12191200Y-8102600D02*
G75*
G03X12191200Y-8102600I-50000J0D01*
G01*
X12091200Y-8306600D02*
X12191200Y-8406600D01*
X12191200Y-8306600D02*
X12091200Y-8406600D01*
X12191200Y-8356600D02*
G75*
G03X12191200Y-8356600I-50000J0D01*
G01*
X12091200Y-8560600D02*
X12191200Y-8660600D01*
X12191200Y-8560600D02*
X12091200Y-8660600D01*
X12191200Y-8610600D02*
G75*
G03X12191200Y-8610600I-50000J0D01*
G01*
X12091200Y-8814600D02*
X12191200Y-8914600D01*
X12191200Y-8814600D02*
X12091200Y-8914600D01*
X12191200Y-8864600D02*
G75*
G03X12191200Y-8864600I-50000J0D01*
G01*
X12091200Y-9322600D02*
X12191200Y-9422600D01*
X12191200Y-9322600D02*
X12091200Y-9422600D01*
X12191200Y-9372600D02*
G75*
G03X12191200Y-9372600I-50000J0D01*
G01*
X12091200Y-9576600D02*
X12191200Y-9676600D01*
X12191200Y-9576600D02*
X12091200Y-9676600D01*
X12191200Y-9626600D02*
G75*
G03X12191200Y-9626600I-50000J0D01*
G01*
X12091200Y-9830600D02*
X12191200Y-9930600D01*
X12191200Y-9830600D02*
X12091200Y-9930600D01*
X12191200Y-9880600D02*
G75*
G03X12191200Y-9880600I-50000J0D01*
G01*
X12091200Y-10084600D02*
X12191200Y-10184600D01*
X12191200Y-10084600D02*
X12091200Y-10184600D01*
X12191200Y-10134600D02*
G75*
G03X12191200Y-10134600I-50000J0D01*
G01*
X12091200Y-10338600D02*
X12191200Y-10438600D01*
X12191200Y-10338600D02*
X12091200Y-10438600D01*
X12191200Y-10388600D02*
G75*
G03X12191200Y-10388600I-50000J0D01*
G01*
X12091200Y-10592600D02*
X12191200Y-10692600D01*
X12191200Y-10592600D02*
X12091200Y-10692600D01*
X12191200Y-10642600D02*
G75*
G03X12191200Y-10642600I-50000J0D01*
G01*
X16917200Y-6630200D02*
X17017200Y-6730200D01*
X17017200Y-6630200D02*
X16917200Y-6730200D01*
X17017200Y-6680200D02*
G75*
G03X17017200Y-6680200I-50000J0D01*
G01*
X16917200Y-6884200D02*
X17017200Y-6984200D01*
X17017200Y-6884200D02*
X16917200Y-6984200D01*
X17017200Y-6934200D02*
G75*
G03X17017200Y-6934200I-50000J0D01*
G01*
X16917200Y-7138200D02*
X17017200Y-7238200D01*
X17017200Y-7138200D02*
X16917200Y-7238200D01*
X17017200Y-7188200D02*
G75*
G03X17017200Y-7188200I-50000J0D01*
G01*
X16917200Y-7392200D02*
X17017200Y-7492200D01*
X17017200Y-7392200D02*
X16917200Y-7492200D01*
X17017200Y-7442200D02*
G75*
G03X17017200Y-7442200I-50000J0D01*
G01*
X16917200Y-7646200D02*
X17017200Y-7746200D01*
X17017200Y-7646200D02*
X16917200Y-7746200D01*
X17017200Y-7696200D02*
G75*
G03X17017200Y-7696200I-50000J0D01*
G01*
X16917200Y-7900200D02*
X17017200Y-8000200D01*
X17017200Y-7900200D02*
X16917200Y-8000200D01*
X17017200Y-7950200D02*
G75*
G03X17017200Y-7950200I-50000J0D01*
G01*
X16917200Y-8154200D02*
X17017200Y-8254200D01*
X17017200Y-8154200D02*
X16917200Y-8254200D01*
X17017200Y-8204200D02*
G75*
G03X17017200Y-8204200I-50000J0D01*
G01*
X16917200Y-8408200D02*
X17017200Y-8508200D01*
X17017200Y-8408200D02*
X16917200Y-8508200D01*
X17017200Y-8458200D02*
G75*
G03X17017200Y-8458200I-50000J0D01*
G01*
X16917200Y-8814600D02*
X17017200Y-8914600D01*
X17017200Y-8814600D02*
X16917200Y-8914600D01*
X17017200Y-8864600D02*
G75*
G03X17017200Y-8864600I-50000J0D01*
G01*
X16917200Y-9068600D02*
X17017200Y-9168600D01*
X17017200Y-9068600D02*
X16917200Y-9168600D01*
X17017200Y-9118600D02*
G75*
G03X17017200Y-9118600I-50000J0D01*
G01*
X16917200Y-9322600D02*
X17017200Y-9422600D01*
X17017200Y-9322600D02*
X16917200Y-9422600D01*
X17017200Y-9372600D02*
G75*
G03X17017200Y-9372600I-50000J0D01*
G01*
X16917200Y-9576600D02*
X17017200Y-9676600D01*
X17017200Y-9576600D02*
X16917200Y-9676600D01*
X17017200Y-9626600D02*
G75*
G03X17017200Y-9626600I-50000J0D01*
G01*
X16917200Y-9830600D02*
X17017200Y-9930600D01*
X17017200Y-9830600D02*
X16917200Y-9930600D01*
X17017200Y-9880600D02*
G75*
G03X17017200Y-9880600I-50000J0D01*
G01*
X16917200Y-10084600D02*
X17017200Y-10184600D01*
X17017200Y-10084600D02*
X16917200Y-10184600D01*
X17017200Y-10134600D02*
G75*
G03X17017200Y-10134600I-50000J0D01*
G01*
X16917200Y-10338600D02*
X17017200Y-10438600D01*
X17017200Y-10338600D02*
X16917200Y-10438600D01*
X17017200Y-10388600D02*
G75*
G03X17017200Y-10388600I-50000J0D01*
G01*
X16917200Y-10592600D02*
X17017200Y-10692600D01*
X17017200Y-10592600D02*
X16917200Y-10692600D01*
X17017200Y-10642600D02*
G75*
G03X17017200Y-10642600I-50000J0D01*
G01*
X17730978Y-7747762D02*
X17831054Y-7847838D01*
X17831054Y-7747762D02*
X17730978Y-7847838D01*
X17781016Y-7747762D02*
X17781016Y-7847838D01*
X17730978Y-7797800D02*
X17831054Y-7797800D01*
X18490946Y-7747762D02*
X18591022Y-7847838D01*
X18591022Y-7747762D02*
X18490946Y-7847838D01*
X18540984Y-7747762D02*
X18540984Y-7847838D01*
X18490946Y-7797800D02*
X18591022Y-7797800D01*
X9758983Y-9865421D02*
X9868983Y-9975421D01*
X9868983Y-9865421D02*
X9758983Y-9975421D01*
X9852874Y-9959313D02*
X9852874Y-9881530D01*
X9775091Y-9881530D01*
X9775091Y-9959313D01*
X9852874Y-9959313D01*
X10077181Y-10183619D02*
X10187181Y-10293619D01*
X10187181Y-10183619D02*
X10077181Y-10293619D01*
X10171072Y-10277511D02*
X10171072Y-10199728D01*
X10093289Y-10199728D01*
X10093289Y-10277511D01*
X10171072Y-10277511D01*
X10218602Y-9405802D02*
X10328602Y-9515802D01*
X10328602Y-9405802D02*
X10218602Y-9515802D01*
X10312493Y-9499693D02*
X10312493Y-9421911D01*
X10234711Y-9421911D01*
X10234711Y-9499693D01*
X10312493Y-9499693D01*
X10393983Y-10500421D02*
X10503983Y-10610421D01*
X10503983Y-10500421D02*
X10393983Y-10610421D01*
X10487874Y-10594313D02*
X10487874Y-10516530D01*
X10410091Y-10516530D01*
X10410091Y-10594313D01*
X10487874Y-10594313D01*
X10419383Y-9205021D02*
X10529383Y-9315021D01*
X10529383Y-9205021D02*
X10419383Y-9315021D01*
X10513274Y-9298913D02*
X10513274Y-9221130D01*
X10435491Y-9221130D01*
X10435491Y-9298913D01*
X10513274Y-9298913D01*
X10536800Y-9724000D02*
X10646800Y-9834000D01*
X10646800Y-9724000D02*
X10536800Y-9834000D01*
X10630691Y-9817891D02*
X10630691Y-9740109D01*
X10552909Y-9740109D01*
X10552909Y-9817891D01*
X10630691Y-9817891D01*
X10712181Y-10818619D02*
X10822181Y-10928619D01*
X10822181Y-10818619D02*
X10712181Y-10928619D01*
X10806072Y-10912511D02*
X10806072Y-10834728D01*
X10728289Y-10834728D01*
X10728289Y-10912511D01*
X10806072Y-10912511D01*
X10737581Y-9523219D02*
X10847581Y-9633219D01*
X10847581Y-9523219D02*
X10737581Y-9633219D01*
X10831472Y-9617111D02*
X10831472Y-9539328D01*
X10753689Y-9539328D01*
X10753689Y-9617111D01*
X10831472Y-9617111D01*
X10853602Y-10040802D02*
X10963602Y-10150802D01*
X10963602Y-10040802D02*
X10853602Y-10150802D01*
X10947493Y-10134693D02*
X10947493Y-10056911D01*
X10869711Y-10056911D01*
X10869711Y-10134693D01*
X10947493Y-10134693D01*
X10879002Y-8745402D02*
X10989002Y-8855402D01*
X10989002Y-8745402D02*
X10879002Y-8855402D01*
X10972893Y-8839293D02*
X10972893Y-8761511D01*
X10895111Y-8761511D01*
X10895111Y-8839293D01*
X10972893Y-8839293D01*
X11054383Y-9840021D02*
X11164383Y-9950021D01*
X11164383Y-9840021D02*
X11054383Y-9950021D01*
X11148274Y-9933913D02*
X11148274Y-9856130D01*
X11070491Y-9856130D01*
X11070491Y-9933913D01*
X11148274Y-9933913D01*
X11171800Y-10359000D02*
X11281800Y-10469000D01*
X11281800Y-10359000D02*
X11171800Y-10469000D01*
X11265691Y-10452891D02*
X11265691Y-10375109D01*
X11187909Y-10375109D01*
X11187909Y-10452891D01*
X11265691Y-10452891D01*
X11197200Y-9063600D02*
X11307200Y-9173600D01*
X11307200Y-9063600D02*
X11197200Y-9173600D01*
X11291091Y-9157491D02*
X11291091Y-9079709D01*
X11213309Y-9079709D01*
X11213309Y-9157491D01*
X11291091Y-9157491D01*
X11372581Y-10158219D02*
X11482581Y-10268219D01*
X11482581Y-10158219D02*
X11372581Y-10268219D01*
X11466472Y-10252111D02*
X11466472Y-10174328D01*
X11388689Y-10174328D01*
X11388689Y-10252111D01*
X11466472Y-10252111D01*
X11514002Y-9380402D02*
X11624002Y-9490402D01*
X11624002Y-9380402D02*
X11514002Y-9490402D01*
X11607893Y-9474293D02*
X11607893Y-9396511D01*
X11530111Y-9396511D01*
X11530111Y-9474293D01*
X11607893Y-9474293D01*
X11832200Y-9698600D02*
X11942200Y-9808600D01*
X11942200Y-9698600D02*
X11832200Y-9808600D01*
X11926091Y-9792491D02*
X11926091Y-9714709D01*
X11848309Y-9714709D01*
X11848309Y-9792491D01*
X11926091Y-9792491D01*
X13330800Y-9429600D02*
X13440800Y-9539600D01*
X13440800Y-9429600D02*
X13330800Y-9539600D01*
X13424691Y-9523491D02*
X13424691Y-9445709D01*
X13346909Y-9445709D01*
X13346909Y-9523491D01*
X13424691Y-9523491D01*
X13330800Y-10079600D02*
X13440800Y-10189600D01*
X13440800Y-10079600D02*
X13330800Y-10189600D01*
X13424691Y-10173491D02*
X13424691Y-10095709D01*
X13346909Y-10095709D01*
X13346909Y-10173491D01*
X13424691Y-10173491D01*
X13780800Y-9429600D02*
X13890800Y-9539600D01*
X13890800Y-9429600D02*
X13780800Y-9539600D01*
X13874691Y-9523491D02*
X13874691Y-9445709D01*
X13796909Y-9445709D01*
X13796909Y-9523491D01*
X13874691Y-9523491D01*
X13780800Y-10079600D02*
X13890800Y-10189600D01*
X13890800Y-10079600D02*
X13780800Y-10189600D01*
X13874691Y-10173491D02*
X13874691Y-10095709D01*
X13796909Y-10095709D01*
X13796909Y-10173491D01*
X13874691Y-10173491D01*
X15210400Y-9429600D02*
X15320400Y-9539600D01*
X15320400Y-9429600D02*
X15210400Y-9539600D01*
X15304291Y-9523491D02*
X15304291Y-9445709D01*
X15226509Y-9445709D01*
X15226509Y-9523491D01*
X15304291Y-9523491D01*
X15210400Y-10079600D02*
X15320400Y-10189600D01*
X15320400Y-10079600D02*
X15210400Y-10189600D01*
X15304291Y-10173491D02*
X15304291Y-10095709D01*
X15226509Y-10095709D01*
X15226509Y-10173491D01*
X15304291Y-10173491D01*
X15660400Y-9429600D02*
X15770400Y-9539600D01*
X15770400Y-9429600D02*
X15660400Y-9539600D01*
X15754291Y-9523491D02*
X15754291Y-9445709D01*
X15676509Y-9445709D01*
X15676509Y-9523491D01*
X15754291Y-9523491D01*
X15660400Y-10079600D02*
X15770400Y-10189600D01*
X15770400Y-10079600D02*
X15660400Y-10189600D01*
X15754291Y-10173491D02*
X15754291Y-10095709D01*
X15676509Y-10095709D01*
X15676509Y-10173491D01*
X15754291Y-10173491D01*
X17189181Y-9696181D02*
X17299181Y-9806181D01*
X17299181Y-9696181D02*
X17189181Y-9806181D01*
X17283072Y-9790072D02*
X17283072Y-9712289D01*
X17205289Y-9712289D01*
X17205289Y-9790072D01*
X17283072Y-9790072D01*
X17507379Y-9377983D02*
X17617379Y-9487983D01*
X17617379Y-9377983D02*
X17507379Y-9487983D01*
X17601270Y-9471874D02*
X17601270Y-9394091D01*
X17523487Y-9394091D01*
X17523487Y-9471874D01*
X17601270Y-9471874D01*
X17648800Y-10155800D02*
X17758800Y-10265800D01*
X17758800Y-10155800D02*
X17648800Y-10265800D01*
X17742691Y-10249691D02*
X17742691Y-10171909D01*
X17664909Y-10171909D01*
X17664909Y-10249691D01*
X17742691Y-10249691D01*
X17824181Y-9061181D02*
X17934181Y-9171181D01*
X17934181Y-9061181D02*
X17824181Y-9171181D01*
X17918072Y-9155072D02*
X17918072Y-9077289D01*
X17840289Y-9077289D01*
X17840289Y-9155072D01*
X17918072Y-9155072D01*
X17849581Y-10356581D02*
X17959581Y-10466581D01*
X17959581Y-10356581D02*
X17849581Y-10466581D01*
X17943472Y-10450472D02*
X17943472Y-10372689D01*
X17865689Y-10372689D01*
X17865689Y-10450472D01*
X17943472Y-10450472D01*
X17966998Y-9837602D02*
X18076998Y-9947602D01*
X18076998Y-9837602D02*
X17966998Y-9947602D01*
X18060889Y-9931493D02*
X18060889Y-9853711D01*
X17983107Y-9853711D01*
X17983107Y-9931493D01*
X18060889Y-9931493D01*
X18142379Y-8742983D02*
X18252379Y-8852983D01*
X18252379Y-8742983D02*
X18142379Y-8852983D01*
X18236270Y-8836874D02*
X18236270Y-8759091D01*
X18158487Y-8759091D01*
X18158487Y-8836874D01*
X18236270Y-8836874D01*
X18167779Y-10038383D02*
X18277779Y-10148383D01*
X18277779Y-10038383D02*
X18167779Y-10148383D01*
X18261670Y-10132274D02*
X18261670Y-10054491D01*
X18183887Y-10054491D01*
X18183887Y-10132274D01*
X18261670Y-10132274D01*
X18283800Y-9520800D02*
X18393800Y-9630800D01*
X18393800Y-9520800D02*
X18283800Y-9630800D01*
X18377691Y-9614691D02*
X18377691Y-9536909D01*
X18299909Y-9536909D01*
X18299909Y-9614691D01*
X18377691Y-9614691D01*
X18309200Y-10816200D02*
X18419200Y-10926200D01*
X18419200Y-10816200D02*
X18309200Y-10926200D01*
X18403091Y-10910091D02*
X18403091Y-10832309D01*
X18325309Y-10832309D01*
X18325309Y-10910091D01*
X18403091Y-10910091D01*
X18484581Y-9721581D02*
X18594581Y-9831581D01*
X18594581Y-9721581D02*
X18484581Y-9831581D01*
X18578472Y-9815472D02*
X18578472Y-9737689D01*
X18500689Y-9737689D01*
X18500689Y-9815472D01*
X18578472Y-9815472D01*
X18601998Y-9202602D02*
X18711998Y-9312602D01*
X18711998Y-9202602D02*
X18601998Y-9312602D01*
X18695889Y-9296493D02*
X18695889Y-9218711D01*
X18618107Y-9218711D01*
X18618107Y-9296493D01*
X18695889Y-9296493D01*
X18627398Y-10498002D02*
X18737398Y-10608002D01*
X18737398Y-10498002D02*
X18627398Y-10608002D01*
X18721289Y-10591893D02*
X18721289Y-10514111D01*
X18643507Y-10514111D01*
X18643507Y-10591893D01*
X18721289Y-10591893D01*
X18802779Y-9403383D02*
X18912779Y-9513383D01*
X18912779Y-9403383D02*
X18802779Y-9513383D01*
X18896670Y-9497274D02*
X18896670Y-9419491D01*
X18818887Y-9419491D01*
X18818887Y-9497274D01*
X18896670Y-9497274D01*
X18944200Y-10181200D02*
X19054200Y-10291200D01*
X19054200Y-10181200D02*
X18944200Y-10291200D01*
X19038091Y-10275091D02*
X19038091Y-10197309D01*
X18960309Y-10197309D01*
X18960309Y-10275091D01*
X19038091Y-10275091D01*
X19262398Y-9863002D02*
X19372398Y-9973002D01*
X19372398Y-9863002D02*
X19262398Y-9973002D01*
X19356289Y-9956893D02*
X19356289Y-9879111D01*
X19278507Y-9879111D01*
X19278507Y-9956893D01*
X19356289Y-9956893D01*
X9693600Y-7491941D02*
X9813600Y-7611941D01*
X9813600Y-7491941D02*
X9693600Y-7611941D01*
X9753600Y-7611941D02*
X9813600Y-7551941D01*
X9753600Y-7491941D01*
X9693600Y-7551941D01*
X9753600Y-7611941D01*
X9947600Y-7052000D02*
X10067600Y-7172000D01*
X10067600Y-7052000D02*
X9947600Y-7172000D01*
X10007600Y-7172000D02*
X10067600Y-7112000D01*
X10007600Y-7052000D01*
X9947600Y-7112000D01*
X10007600Y-7172000D01*
X10201600Y-6612059D02*
X10321600Y-6732059D01*
X10321600Y-6612059D02*
X10201600Y-6732059D01*
X10261600Y-6732059D02*
X10321600Y-6672059D01*
X10261600Y-6612059D01*
X10201600Y-6672059D01*
X10261600Y-6732059D01*
X11319200Y-6544000D02*
X11439200Y-6664000D01*
X11439200Y-6544000D02*
X11319200Y-6664000D01*
X11379200Y-6664000D02*
X11439200Y-6604000D01*
X11379200Y-6544000D01*
X11319200Y-6604000D01*
X11379200Y-6664000D01*
X11572692Y-6543746D02*
X11692692Y-6663746D01*
X11692692Y-6543746D02*
X11572692Y-6663746D01*
X11632692Y-6663746D02*
X11692692Y-6603746D01*
X11632692Y-6543746D01*
X11572692Y-6603746D01*
X11632692Y-6663746D01*
X11827200Y-6544000D02*
X11947200Y-6664000D01*
X11947200Y-6544000D02*
X11827200Y-6664000D01*
X11887200Y-6664000D02*
X11947200Y-6604000D01*
X11887200Y-6544000D01*
X11827200Y-6604000D01*
X11887200Y-6664000D01*
X12081200Y-6544000D02*
X12201200Y-6664000D01*
X12201200Y-6544000D02*
X12081200Y-6664000D01*
X12141200Y-6664000D02*
X12201200Y-6604000D01*
X12141200Y-6544000D01*
X12081200Y-6604000D01*
X12141200Y-6664000D01*
X12335200Y-6544000D02*
X12455200Y-6664000D01*
X12455200Y-6544000D02*
X12335200Y-6664000D01*
X12395200Y-6664000D02*
X12455200Y-6604000D01*
X12395200Y-6544000D01*
X12335200Y-6604000D01*
X12395200Y-6664000D01*
X12589200Y-6544000D02*
X12709200Y-6664000D01*
X12709200Y-6544000D02*
X12589200Y-6664000D01*
X12649200Y-6664000D02*
X12709200Y-6604000D01*
X12649200Y-6544000D01*
X12589200Y-6604000D01*
X12649200Y-6664000D01*
X12843200Y-6544000D02*
X12963200Y-6664000D01*
X12963200Y-6544000D02*
X12843200Y-6664000D01*
X12903200Y-6664000D02*
X12963200Y-6604000D01*
X12903200Y-6544000D01*
X12843200Y-6604000D01*
X12903200Y-6664000D01*
X13097200Y-6544000D02*
X13217200Y-6664000D01*
X13217200Y-6544000D02*
X13097200Y-6664000D01*
X13157200Y-6664000D02*
X13217200Y-6604000D01*
X13157200Y-6544000D01*
X13097200Y-6604000D01*
X13157200Y-6664000D01*
X13351200Y-6544000D02*
X13471200Y-6664000D01*
X13471200Y-6544000D02*
X13351200Y-6664000D01*
X13411200Y-6664000D02*
X13471200Y-6604000D01*
X13411200Y-6544000D01*
X13351200Y-6604000D01*
X13411200Y-6664000D01*
X13605200Y-6544000D02*
X13725200Y-6664000D01*
X13725200Y-6544000D02*
X13605200Y-6664000D01*
X13665200Y-6664000D02*
X13725200Y-6604000D01*
X13665200Y-6544000D01*
X13605200Y-6604000D01*
X13665200Y-6664000D01*
X13859200Y-6544000D02*
X13979200Y-6664000D01*
X13979200Y-6544000D02*
X13859200Y-6664000D01*
X13919200Y-6664000D02*
X13979200Y-6604000D01*
X13919200Y-6544000D01*
X13859200Y-6604000D01*
X13919200Y-6664000D01*
X14113200Y-6544000D02*
X14233200Y-6664000D01*
X14233200Y-6544000D02*
X14113200Y-6664000D01*
X14173200Y-6664000D02*
X14233200Y-6604000D01*
X14173200Y-6544000D01*
X14113200Y-6604000D01*
X14173200Y-6664000D01*
X14367200Y-6544000D02*
X14487200Y-6664000D01*
X14487200Y-6544000D02*
X14367200Y-6664000D01*
X14427200Y-6664000D02*
X14487200Y-6604000D01*
X14427200Y-6544000D01*
X14367200Y-6604000D01*
X14427200Y-6664000D01*
X14621200Y-6544000D02*
X14741200Y-6664000D01*
X14741200Y-6544000D02*
X14621200Y-6664000D01*
X14681200Y-6664000D02*
X14741200Y-6604000D01*
X14681200Y-6544000D01*
X14621200Y-6604000D01*
X14681200Y-6664000D01*
X14874692Y-6543746D02*
X14994692Y-6663746D01*
X14994692Y-6543746D02*
X14874692Y-6663746D01*
X14934692Y-6663746D02*
X14994692Y-6603746D01*
X14934692Y-6543746D01*
X14874692Y-6603746D01*
X14934692Y-6663746D01*
X15129200Y-6544000D02*
X15249200Y-6664000D01*
X15249200Y-6544000D02*
X15129200Y-6664000D01*
X15189200Y-6664000D02*
X15249200Y-6604000D01*
X15189200Y-6544000D01*
X15129200Y-6604000D01*
X15189200Y-6664000D01*
X18786800Y-6612059D02*
X18906800Y-6732059D01*
X18906800Y-6612059D02*
X18786800Y-6732059D01*
X18846800Y-6732059D02*
X18906800Y-6672059D01*
X18846800Y-6612059D01*
X18786800Y-6672059D01*
X18846800Y-6732059D01*
X19040800Y-7052000D02*
X19160800Y-7172000D01*
X19160800Y-7052000D02*
X19040800Y-7172000D01*
X19100800Y-7172000D02*
X19160800Y-7112000D01*
X19100800Y-7052000D01*
X19040800Y-7112000D01*
X19100800Y-7172000D01*
X19294800Y-7491941D02*
X19414800Y-7611941D01*
X19414800Y-7491941D02*
X19294800Y-7611941D01*
X19354800Y-7611941D02*
X19414800Y-7551941D01*
X19354800Y-7491941D01*
X19294800Y-7551941D01*
X19354800Y-7611941D01*
X10608564Y-2728690D02*
X10608564Y-2978690D01*
X10483564Y-2853690D02*
X10733564Y-2853690D01*
X10733564Y-2853690D02*
G75*
G03X10733564Y-2853690I-125000J0D01*
G01*
X10758678Y-6328632D02*
X10758678Y-6578632D01*
X10633678Y-6453632D02*
X10883678Y-6453632D01*
X10883678Y-6453632D02*
G75*
G03X10883678Y-6453632I-125000J0D01*
G01*
X18358612Y-6328632D02*
X18358612Y-6578632D01*
X18233612Y-6453632D02*
X18483612Y-6453632D01*
X18483612Y-6453632D02*
G75*
G03X18483612Y-6453632I-125000J0D01*
G01*
X18508726Y-2728690D02*
X18508726Y-2978690D01*
X18383726Y-2853690D02*
X18633726Y-2853690D01*
X18633726Y-2853690D02*
G75*
G03X18633726Y-2853690I-125000J0D01*
G01*
X12783552Y-11030952D02*
X12783552Y-10762248D01*
X12514848Y-10762248D01*
X12514848Y-11030952D01*
X12783552Y-11030952D01*
X12839200Y-10896600D02*
G75*
G03X12839200Y-10896600I-190000J0D01*
G01*
X15577552Y-11030952D02*
X15577552Y-10762248D01*
X15308848Y-10762248D01*
X15308848Y-11030952D01*
X15577552Y-11030952D01*
X15633200Y-10896600D02*
G75*
G03X15633200Y-10896600I-190000J0D01*
G01*
D13*
X9839729Y-11623814D02*
X9839729Y-11323814D01*
X9911157Y-11323814D01*
X9954014Y-11338100D01*
X9982586Y-11366671D01*
X9996871Y-11395243D01*
X10011157Y-11452386D01*
X10011157Y-11495243D01*
X9996871Y-11552386D01*
X9982586Y-11580957D01*
X9954014Y-11609529D01*
X9911157Y-11623814D01*
X9839729Y-11623814D01*
X10139729Y-11623814D02*
X10139729Y-11423814D01*
X10139729Y-11480957D02*
X10154014Y-11452386D01*
X10168300Y-11438100D01*
X10196871Y-11423814D01*
X10225443Y-11423814D01*
X10325443Y-11623814D02*
X10325443Y-11423814D01*
X10325443Y-11323814D02*
X10311157Y-11338100D01*
X10325443Y-11352386D01*
X10339729Y-11338100D01*
X10325443Y-11323814D01*
X10325443Y-11352386D01*
X10511157Y-11623814D02*
X10482586Y-11609529D01*
X10468300Y-11580957D01*
X10468300Y-11323814D01*
X10668300Y-11623814D02*
X10639729Y-11609529D01*
X10625443Y-11580957D01*
X10625443Y-11323814D01*
X11011157Y-11623814D02*
X11011157Y-11323814D01*
X11111157Y-11538100D01*
X11211157Y-11323814D01*
X11211157Y-11623814D01*
X11482586Y-11623814D02*
X11482586Y-11466671D01*
X11468300Y-11438100D01*
X11439728Y-11423814D01*
X11382586Y-11423814D01*
X11354014Y-11438100D01*
X11482586Y-11609529D02*
X11454014Y-11623814D01*
X11382586Y-11623814D01*
X11354014Y-11609529D01*
X11339728Y-11580957D01*
X11339728Y-11552386D01*
X11354014Y-11523814D01*
X11382586Y-11509529D01*
X11454014Y-11509529D01*
X11482586Y-11495243D01*
X11625443Y-11423814D02*
X11625443Y-11723814D01*
X11625443Y-11438100D02*
X11654014Y-11423814D01*
X11711157Y-11423814D01*
X11739728Y-11438100D01*
X11754014Y-11452386D01*
X11768300Y-11480957D01*
X11768300Y-11566671D01*
X11754014Y-11595243D01*
X11739728Y-11609529D01*
X11711157Y-11623814D01*
X11654014Y-11623814D01*
X11625443Y-11609529D01*
X11896871Y-11595243D02*
X11911157Y-11609529D01*
X11896871Y-11623814D01*
X11882586Y-11609529D01*
X11896871Y-11595243D01*
X11896871Y-11623814D01*
X11896871Y-11438100D02*
X11911157Y-11452386D01*
X11896871Y-11466671D01*
X11882586Y-11452386D01*
X11896871Y-11438100D01*
X11896871Y-11466671D01*
X9508356Y-12088128D02*
X9568300Y-12148072D01*
X9568300Y-12088128D02*
X9508356Y-12148072D01*
X9896871Y-11953814D02*
X9925443Y-11953814D01*
X9954014Y-11968100D01*
X9968300Y-11982386D01*
X9982586Y-12010957D01*
X9996871Y-12068100D01*
X9996871Y-12139529D01*
X9982586Y-12196671D01*
X9968300Y-12225243D01*
X9954014Y-12239529D01*
X9925443Y-12253814D01*
X9896871Y-12253814D01*
X9868300Y-12239529D01*
X9854014Y-12225243D01*
X9839729Y-12196671D01*
X9825443Y-12139529D01*
X9825443Y-12068100D01*
X9839729Y-12010957D01*
X9854014Y-11982386D01*
X9868300Y-11968100D01*
X9896871Y-11953814D01*
X10125443Y-12225243D02*
X10139729Y-12239529D01*
X10125443Y-12253814D01*
X10111157Y-12239529D01*
X10125443Y-12225243D01*
X10125443Y-12253814D01*
X10396871Y-11953814D02*
X10339728Y-11953814D01*
X10311157Y-11968100D01*
X10296871Y-11982386D01*
X10268300Y-12025243D01*
X10254014Y-12082386D01*
X10254014Y-12196671D01*
X10268300Y-12225243D01*
X10282586Y-12239529D01*
X10311157Y-12253814D01*
X10368300Y-12253814D01*
X10396871Y-12239529D01*
X10411157Y-12225243D01*
X10425443Y-12196671D01*
X10425443Y-12125243D01*
X10411157Y-12096671D01*
X10396871Y-12082386D01*
X10368300Y-12068100D01*
X10311157Y-12068100D01*
X10282586Y-12082386D01*
X10268300Y-12096671D01*
X10254014Y-12125243D01*
X10611157Y-11953814D02*
X10639729Y-11953814D01*
X10668300Y-11968100D01*
X10682586Y-11982386D01*
X10696871Y-12010957D01*
X10711157Y-12068100D01*
X10711157Y-12139529D01*
X10696871Y-12196671D01*
X10682586Y-12225243D01*
X10668300Y-12239529D01*
X10639729Y-12253814D01*
X10611157Y-12253814D01*
X10582586Y-12239529D01*
X10568300Y-12225243D01*
X10554014Y-12196671D01*
X10539729Y-12139529D01*
X10539729Y-12068100D01*
X10554014Y-12010957D01*
X10568300Y-11982386D01*
X10582586Y-11968100D01*
X10611157Y-11953814D01*
X10839729Y-12253814D02*
X10839729Y-12053814D01*
X10839729Y-12082386D02*
X10854014Y-12068100D01*
X10882586Y-12053814D01*
X10925443Y-12053814D01*
X10954014Y-12068100D01*
X10968300Y-12096671D01*
X10968300Y-12253814D01*
X10968300Y-12096671D02*
X10982586Y-12068100D01*
X11011157Y-12053814D01*
X11054014Y-12053814D01*
X11082586Y-12068100D01*
X11096871Y-12096671D01*
X11096871Y-12253814D01*
X11239728Y-12253814D02*
X11239728Y-12053814D01*
X11239728Y-12082386D02*
X11254014Y-12068100D01*
X11282586Y-12053814D01*
X11325443Y-12053814D01*
X11354014Y-12068100D01*
X11368300Y-12096671D01*
X11368300Y-12253814D01*
X11368300Y-12096671D02*
X11382586Y-12068100D01*
X11411157Y-12053814D01*
X11454014Y-12053814D01*
X11482586Y-12068100D01*
X11496871Y-12096671D01*
X11496871Y-12253814D01*
X12082586Y-11939529D02*
X11825443Y-12325243D01*
X12468300Y-11953814D02*
X12496871Y-11953814D01*
X12525443Y-11968100D01*
X12539728Y-11982386D01*
X12554014Y-12010957D01*
X12568300Y-12068100D01*
X12568300Y-12139529D01*
X12554014Y-12196671D01*
X12539728Y-12225243D01*
X12525443Y-12239529D01*
X12496871Y-12253814D01*
X12468300Y-12253814D01*
X12439728Y-12239529D01*
X12425443Y-12225243D01*
X12411157Y-12196671D01*
X12396871Y-12139529D01*
X12396871Y-12068100D01*
X12411157Y-12010957D01*
X12425443Y-11982386D01*
X12439728Y-11968100D01*
X12468300Y-11953814D01*
X12696871Y-12225243D02*
X12711157Y-12239529D01*
X12696871Y-12253814D01*
X12682586Y-12239529D01*
X12696871Y-12225243D01*
X12696871Y-12253814D01*
X12896871Y-11953814D02*
X12925443Y-11953814D01*
X12954014Y-11968100D01*
X12968300Y-11982386D01*
X12982585Y-12010957D01*
X12996871Y-12068100D01*
X12996871Y-12139529D01*
X12982585Y-12196671D01*
X12968300Y-12225243D01*
X12954014Y-12239529D01*
X12925443Y-12253814D01*
X12896871Y-12253814D01*
X12868300Y-12239529D01*
X12854014Y-12225243D01*
X12839728Y-12196671D01*
X12825443Y-12139529D01*
X12825443Y-12068100D01*
X12839728Y-12010957D01*
X12854014Y-11982386D01*
X12868300Y-11968100D01*
X12896871Y-11953814D01*
X13111157Y-11982386D02*
X13125443Y-11968100D01*
X13154014Y-11953814D01*
X13225443Y-11953814D01*
X13254014Y-11968100D01*
X13268300Y-11982386D01*
X13282585Y-12010957D01*
X13282585Y-12039529D01*
X13268300Y-12082386D01*
X13096871Y-12253814D01*
X13282585Y-12253814D01*
X13539728Y-12053814D02*
X13539728Y-12253814D01*
X13468300Y-11939529D02*
X13396871Y-12153814D01*
X13582585Y-12153814D01*
X13682586Y-11953814D02*
X13682586Y-12010957D01*
X13796871Y-11953814D02*
X13796871Y-12010957D01*
X14239728Y-12368100D02*
X14225443Y-12353814D01*
X14196871Y-12310957D01*
X14182585Y-12282386D01*
X14168300Y-12239529D01*
X14154014Y-12168100D01*
X14154014Y-12110957D01*
X14168300Y-12039529D01*
X14182585Y-11996671D01*
X14196871Y-11968100D01*
X14225443Y-11925243D01*
X14239728Y-11910957D01*
X14339728Y-11982386D02*
X14354014Y-11968100D01*
X14382585Y-11953814D01*
X14454014Y-11953814D01*
X14482585Y-11968100D01*
X14496871Y-11982386D01*
X14511157Y-12010957D01*
X14511157Y-12039529D01*
X14496871Y-12082386D01*
X14325443Y-12253814D01*
X14511157Y-12253814D01*
X14868300Y-12253814D02*
X14868300Y-11953814D01*
X14996871Y-12253814D02*
X14996871Y-12096671D01*
X14982585Y-12068100D01*
X14954014Y-12053814D01*
X14911157Y-12053814D01*
X14882585Y-12068100D01*
X14868300Y-12082386D01*
X15182585Y-12253814D02*
X15154014Y-12239529D01*
X15139728Y-12225243D01*
X15125443Y-12196671D01*
X15125443Y-12110957D01*
X15139728Y-12082386D01*
X15154014Y-12068100D01*
X15182585Y-12053814D01*
X15225443Y-12053814D01*
X15254014Y-12068100D01*
X15268300Y-12082386D01*
X15282585Y-12110957D01*
X15282585Y-12196671D01*
X15268300Y-12225243D01*
X15254014Y-12239529D01*
X15225443Y-12253814D01*
X15182585Y-12253814D01*
X15454014Y-12253814D02*
X15425443Y-12239529D01*
X15411157Y-12210957D01*
X15411157Y-11953814D01*
X15682586Y-12239529D02*
X15654014Y-12253814D01*
X15596871Y-12253814D01*
X15568300Y-12239529D01*
X15554014Y-12210957D01*
X15554014Y-12096671D01*
X15568300Y-12068100D01*
X15596871Y-12053814D01*
X15654014Y-12053814D01*
X15682586Y-12068100D01*
X15696871Y-12096671D01*
X15696871Y-12125243D01*
X15554014Y-12153814D01*
X15811157Y-12239529D02*
X15839728Y-12253814D01*
X15896871Y-12253814D01*
X15925443Y-12239529D01*
X15939728Y-12210957D01*
X15939728Y-12196671D01*
X15925443Y-12168100D01*
X15896871Y-12153814D01*
X15854014Y-12153814D01*
X15825443Y-12139529D01*
X15811157Y-12110957D01*
X15811157Y-12096671D01*
X15825443Y-12068100D01*
X15854014Y-12053814D01*
X15896871Y-12053814D01*
X15925443Y-12068100D01*
X16039728Y-12368100D02*
X16054014Y-12353814D01*
X16082586Y-12310957D01*
X16096871Y-12282386D01*
X16111157Y-12239529D01*
X16125443Y-12168100D01*
X16125443Y-12110957D01*
X16111157Y-12039529D01*
X16096871Y-11996671D01*
X16082586Y-11968100D01*
X16054014Y-11925243D01*
X16039728Y-11910957D01*
X9568300Y-12514100D02*
G75*
G03X9568300Y-12514100I-30000J0D01*
G01*
X9896871Y-12349814D02*
X9925443Y-12349814D01*
X9954014Y-12364100D01*
X9968300Y-12378386D01*
X9982586Y-12406957D01*
X9996871Y-12464100D01*
X9996871Y-12535529D01*
X9982586Y-12592671D01*
X9968300Y-12621243D01*
X9954014Y-12635529D01*
X9925443Y-12649814D01*
X9896871Y-12649814D01*
X9868300Y-12635529D01*
X9854014Y-12621243D01*
X9839729Y-12592671D01*
X9825443Y-12535529D01*
X9825443Y-12464100D01*
X9839729Y-12406957D01*
X9854014Y-12378386D01*
X9868300Y-12364100D01*
X9896871Y-12349814D01*
X10125443Y-12621243D02*
X10139729Y-12635529D01*
X10125443Y-12649814D01*
X10111157Y-12635529D01*
X10125443Y-12621243D01*
X10125443Y-12649814D01*
X10396871Y-12349814D02*
X10339728Y-12349814D01*
X10311157Y-12364100D01*
X10296871Y-12378386D01*
X10268300Y-12421243D01*
X10254014Y-12478386D01*
X10254014Y-12592671D01*
X10268300Y-12621243D01*
X10282586Y-12635529D01*
X10311157Y-12649814D01*
X10368300Y-12649814D01*
X10396871Y-12635529D01*
X10411157Y-12621243D01*
X10425443Y-12592671D01*
X10425443Y-12521243D01*
X10411157Y-12492671D01*
X10396871Y-12478386D01*
X10368300Y-12464100D01*
X10311157Y-12464100D01*
X10282586Y-12478386D01*
X10268300Y-12492671D01*
X10254014Y-12521243D01*
X10611157Y-12349814D02*
X10639729Y-12349814D01*
X10668300Y-12364100D01*
X10682586Y-12378386D01*
X10696871Y-12406957D01*
X10711157Y-12464100D01*
X10711157Y-12535529D01*
X10696871Y-12592671D01*
X10682586Y-12621243D01*
X10668300Y-12635529D01*
X10639729Y-12649814D01*
X10611157Y-12649814D01*
X10582586Y-12635529D01*
X10568300Y-12621243D01*
X10554014Y-12592671D01*
X10539729Y-12535529D01*
X10539729Y-12464100D01*
X10554014Y-12406957D01*
X10568300Y-12378386D01*
X10582586Y-12364100D01*
X10611157Y-12349814D01*
X10839729Y-12649814D02*
X10839729Y-12449814D01*
X10839729Y-12478386D02*
X10854014Y-12464100D01*
X10882586Y-12449814D01*
X10925443Y-12449814D01*
X10954014Y-12464100D01*
X10968300Y-12492671D01*
X10968300Y-12649814D01*
X10968300Y-12492671D02*
X10982586Y-12464100D01*
X11011157Y-12449814D01*
X11054014Y-12449814D01*
X11082586Y-12464100D01*
X11096871Y-12492671D01*
X11096871Y-12649814D01*
X11239728Y-12649814D02*
X11239728Y-12449814D01*
X11239728Y-12478386D02*
X11254014Y-12464100D01*
X11282586Y-12449814D01*
X11325443Y-12449814D01*
X11354014Y-12464100D01*
X11368300Y-12492671D01*
X11368300Y-12649814D01*
X11368300Y-12492671D02*
X11382586Y-12464100D01*
X11411157Y-12449814D01*
X11454014Y-12449814D01*
X11482586Y-12464100D01*
X11496871Y-12492671D01*
X11496871Y-12649814D01*
X12082586Y-12335529D02*
X11825443Y-12721243D01*
X12468300Y-12349814D02*
X12496871Y-12349814D01*
X12525443Y-12364100D01*
X12539728Y-12378386D01*
X12554014Y-12406957D01*
X12568300Y-12464100D01*
X12568300Y-12535529D01*
X12554014Y-12592671D01*
X12539728Y-12621243D01*
X12525443Y-12635529D01*
X12496871Y-12649814D01*
X12468300Y-12649814D01*
X12439728Y-12635529D01*
X12425443Y-12621243D01*
X12411157Y-12592671D01*
X12396871Y-12535529D01*
X12396871Y-12464100D01*
X12411157Y-12406957D01*
X12425443Y-12378386D01*
X12439728Y-12364100D01*
X12468300Y-12349814D01*
X12696871Y-12621243D02*
X12711157Y-12635529D01*
X12696871Y-12649814D01*
X12682586Y-12635529D01*
X12696871Y-12621243D01*
X12696871Y-12649814D01*
X12896871Y-12349814D02*
X12925443Y-12349814D01*
X12954014Y-12364100D01*
X12968300Y-12378386D01*
X12982585Y-12406957D01*
X12996871Y-12464100D01*
X12996871Y-12535529D01*
X12982585Y-12592671D01*
X12968300Y-12621243D01*
X12954014Y-12635529D01*
X12925443Y-12649814D01*
X12896871Y-12649814D01*
X12868300Y-12635529D01*
X12854014Y-12621243D01*
X12839728Y-12592671D01*
X12825443Y-12535529D01*
X12825443Y-12464100D01*
X12839728Y-12406957D01*
X12854014Y-12378386D01*
X12868300Y-12364100D01*
X12896871Y-12349814D01*
X13111157Y-12378386D02*
X13125443Y-12364100D01*
X13154014Y-12349814D01*
X13225443Y-12349814D01*
X13254014Y-12364100D01*
X13268300Y-12378386D01*
X13282585Y-12406957D01*
X13282585Y-12435529D01*
X13268300Y-12478386D01*
X13096871Y-12649814D01*
X13282585Y-12649814D01*
X13539728Y-12449814D02*
X13539728Y-12649814D01*
X13468300Y-12335529D02*
X13396871Y-12549814D01*
X13582585Y-12549814D01*
X13682586Y-12349814D02*
X13682586Y-12406957D01*
X13796871Y-12349814D02*
X13796871Y-12406957D01*
X14239728Y-12764100D02*
X14225443Y-12749814D01*
X14196871Y-12706957D01*
X14182585Y-12678386D01*
X14168300Y-12635529D01*
X14154014Y-12564100D01*
X14154014Y-12506957D01*
X14168300Y-12435529D01*
X14182585Y-12392671D01*
X14196871Y-12364100D01*
X14225443Y-12321243D01*
X14239728Y-12306957D01*
X14325443Y-12349814D02*
X14511157Y-12349814D01*
X14411157Y-12464100D01*
X14454014Y-12464100D01*
X14482585Y-12478386D01*
X14496871Y-12492671D01*
X14511157Y-12521243D01*
X14511157Y-12592671D01*
X14496871Y-12621243D01*
X14482585Y-12635529D01*
X14454014Y-12649814D01*
X14368300Y-12649814D01*
X14339728Y-12635529D01*
X14325443Y-12621243D01*
X14868300Y-12649814D02*
X14868300Y-12349814D01*
X14996871Y-12649814D02*
X14996871Y-12492671D01*
X14982585Y-12464100D01*
X14954014Y-12449814D01*
X14911157Y-12449814D01*
X14882585Y-12464100D01*
X14868300Y-12478386D01*
X15182585Y-12649814D02*
X15154014Y-12635529D01*
X15139728Y-12621243D01*
X15125443Y-12592671D01*
X15125443Y-12506957D01*
X15139728Y-12478386D01*
X15154014Y-12464100D01*
X15182585Y-12449814D01*
X15225443Y-12449814D01*
X15254014Y-12464100D01*
X15268300Y-12478386D01*
X15282585Y-12506957D01*
X15282585Y-12592671D01*
X15268300Y-12621243D01*
X15254014Y-12635529D01*
X15225443Y-12649814D01*
X15182585Y-12649814D01*
X15454014Y-12649814D02*
X15425443Y-12635529D01*
X15411157Y-12606957D01*
X15411157Y-12349814D01*
X15682586Y-12635529D02*
X15654014Y-12649814D01*
X15596871Y-12649814D01*
X15568300Y-12635529D01*
X15554014Y-12606957D01*
X15554014Y-12492671D01*
X15568300Y-12464100D01*
X15596871Y-12449814D01*
X15654014Y-12449814D01*
X15682586Y-12464100D01*
X15696871Y-12492671D01*
X15696871Y-12521243D01*
X15554014Y-12549814D01*
X15811157Y-12635529D02*
X15839728Y-12649814D01*
X15896871Y-12649814D01*
X15925443Y-12635529D01*
X15939728Y-12606957D01*
X15939728Y-12592671D01*
X15925443Y-12564100D01*
X15896871Y-12549814D01*
X15854014Y-12549814D01*
X15825443Y-12535529D01*
X15811157Y-12506957D01*
X15811157Y-12492671D01*
X15825443Y-12464100D01*
X15854014Y-12449814D01*
X15896871Y-12449814D01*
X15925443Y-12464100D01*
X16039728Y-12764100D02*
X16054014Y-12749814D01*
X16082586Y-12706957D01*
X16096871Y-12678386D01*
X16111157Y-12635529D01*
X16125443Y-12564100D01*
X16125443Y-12506957D01*
X16111157Y-12435529D01*
X16096871Y-12392671D01*
X16082586Y-12364100D01*
X16054014Y-12321243D01*
X16039728Y-12306957D01*
X9536550Y-12878350D02*
X9536550Y-12941850D01*
X9504800Y-12910100D02*
X9568300Y-12910100D01*
X9896871Y-12745814D02*
X9925443Y-12745814D01*
X9954014Y-12760100D01*
X9968300Y-12774386D01*
X9982586Y-12802957D01*
X9996871Y-12860100D01*
X9996871Y-12931529D01*
X9982586Y-12988671D01*
X9968300Y-13017243D01*
X9954014Y-13031529D01*
X9925443Y-13045814D01*
X9896871Y-13045814D01*
X9868300Y-13031529D01*
X9854014Y-13017243D01*
X9839729Y-12988671D01*
X9825443Y-12931529D01*
X9825443Y-12860100D01*
X9839729Y-12802957D01*
X9854014Y-12774386D01*
X9868300Y-12760100D01*
X9896871Y-12745814D01*
X10125443Y-13017243D02*
X10139729Y-13031529D01*
X10125443Y-13045814D01*
X10111157Y-13031529D01*
X10125443Y-13017243D01*
X10125443Y-13045814D01*
X10396871Y-12745814D02*
X10339728Y-12745814D01*
X10311157Y-12760100D01*
X10296871Y-12774386D01*
X10268300Y-12817243D01*
X10254014Y-12874386D01*
X10254014Y-12988671D01*
X10268300Y-13017243D01*
X10282586Y-13031529D01*
X10311157Y-13045814D01*
X10368300Y-13045814D01*
X10396871Y-13031529D01*
X10411157Y-13017243D01*
X10425443Y-12988671D01*
X10425443Y-12917243D01*
X10411157Y-12888671D01*
X10396871Y-12874386D01*
X10368300Y-12860100D01*
X10311157Y-12860100D01*
X10282586Y-12874386D01*
X10268300Y-12888671D01*
X10254014Y-12917243D01*
X10682586Y-12845814D02*
X10682586Y-13045814D01*
X10611157Y-12731529D02*
X10539729Y-12945814D01*
X10725443Y-12945814D01*
X10839729Y-13045814D02*
X10839729Y-12845814D01*
X10839729Y-12874386D02*
X10854014Y-12860100D01*
X10882586Y-12845814D01*
X10925443Y-12845814D01*
X10954014Y-12860100D01*
X10968300Y-12888671D01*
X10968300Y-13045814D01*
X10968300Y-12888671D02*
X10982586Y-12860100D01*
X11011157Y-12845814D01*
X11054014Y-12845814D01*
X11082586Y-12860100D01*
X11096871Y-12888671D01*
X11096871Y-13045814D01*
X11239728Y-13045814D02*
X11239728Y-12845814D01*
X11239728Y-12874386D02*
X11254014Y-12860100D01*
X11282586Y-12845814D01*
X11325443Y-12845814D01*
X11354014Y-12860100D01*
X11368300Y-12888671D01*
X11368300Y-13045814D01*
X11368300Y-12888671D02*
X11382586Y-12860100D01*
X11411157Y-12845814D01*
X11454014Y-12845814D01*
X11482586Y-12860100D01*
X11496871Y-12888671D01*
X11496871Y-13045814D01*
X12082586Y-12731529D02*
X11825443Y-13117243D01*
X12468300Y-12745814D02*
X12496871Y-12745814D01*
X12525443Y-12760100D01*
X12539728Y-12774386D01*
X12554014Y-12802957D01*
X12568300Y-12860100D01*
X12568300Y-12931529D01*
X12554014Y-12988671D01*
X12539728Y-13017243D01*
X12525443Y-13031529D01*
X12496871Y-13045814D01*
X12468300Y-13045814D01*
X12439728Y-13031529D01*
X12425443Y-13017243D01*
X12411157Y-12988671D01*
X12396871Y-12931529D01*
X12396871Y-12860100D01*
X12411157Y-12802957D01*
X12425443Y-12774386D01*
X12439728Y-12760100D01*
X12468300Y-12745814D01*
X12696871Y-13017243D02*
X12711157Y-13031529D01*
X12696871Y-13045814D01*
X12682586Y-13031529D01*
X12696871Y-13017243D01*
X12696871Y-13045814D01*
X12896871Y-12745814D02*
X12925443Y-12745814D01*
X12954014Y-12760100D01*
X12968300Y-12774386D01*
X12982585Y-12802957D01*
X12996871Y-12860100D01*
X12996871Y-12931529D01*
X12982585Y-12988671D01*
X12968300Y-13017243D01*
X12954014Y-13031529D01*
X12925443Y-13045814D01*
X12896871Y-13045814D01*
X12868300Y-13031529D01*
X12854014Y-13017243D01*
X12839728Y-12988671D01*
X12825443Y-12931529D01*
X12825443Y-12860100D01*
X12839728Y-12802957D01*
X12854014Y-12774386D01*
X12868300Y-12760100D01*
X12896871Y-12745814D01*
X13111157Y-12774386D02*
X13125443Y-12760100D01*
X13154014Y-12745814D01*
X13225443Y-12745814D01*
X13254014Y-12760100D01*
X13268300Y-12774386D01*
X13282585Y-12802957D01*
X13282585Y-12831529D01*
X13268300Y-12874386D01*
X13096871Y-13045814D01*
X13282585Y-13045814D01*
X13554014Y-12745814D02*
X13411157Y-12745814D01*
X13396871Y-12888671D01*
X13411157Y-12874386D01*
X13439728Y-12860100D01*
X13511157Y-12860100D01*
X13539728Y-12874386D01*
X13554014Y-12888671D01*
X13568300Y-12917243D01*
X13568300Y-12988671D01*
X13554014Y-13017243D01*
X13539728Y-13031529D01*
X13511157Y-13045814D01*
X13439728Y-13045814D01*
X13411157Y-13031529D01*
X13396871Y-13017243D01*
X13682586Y-12745814D02*
X13682586Y-12802957D01*
X13796871Y-12745814D02*
X13796871Y-12802957D01*
X14239728Y-13160100D02*
X14225443Y-13145814D01*
X14196871Y-13102957D01*
X14182585Y-13074386D01*
X14168300Y-13031529D01*
X14154014Y-12960100D01*
X14154014Y-12902957D01*
X14168300Y-12831529D01*
X14182585Y-12788671D01*
X14196871Y-12760100D01*
X14225443Y-12717243D01*
X14239728Y-12702957D01*
X14511157Y-13045814D02*
X14339728Y-13045814D01*
X14425443Y-13045814D02*
X14425443Y-12745814D01*
X14396871Y-12788671D01*
X14368300Y-12817243D01*
X14339728Y-12831529D01*
X14796871Y-13045814D02*
X14625443Y-13045814D01*
X14711157Y-13045814D02*
X14711157Y-12745814D01*
X14682585Y-12788671D01*
X14654014Y-12817243D01*
X14625443Y-12831529D01*
X14896871Y-12745814D02*
X15096871Y-12745814D01*
X14968300Y-13045814D01*
X15439728Y-13045814D02*
X15439728Y-12745814D01*
X15568300Y-13045814D02*
X15568300Y-12888671D01*
X15554014Y-12860100D01*
X15525443Y-12845814D01*
X15482585Y-12845814D01*
X15454014Y-12860100D01*
X15439728Y-12874386D01*
X15754014Y-13045814D02*
X15725443Y-13031529D01*
X15711157Y-13017243D01*
X15696871Y-12988671D01*
X15696871Y-12902957D01*
X15711157Y-12874386D01*
X15725443Y-12860100D01*
X15754014Y-12845814D01*
X15796871Y-12845814D01*
X15825443Y-12860100D01*
X15839728Y-12874386D01*
X15854014Y-12902957D01*
X15854014Y-12988671D01*
X15839728Y-13017243D01*
X15825443Y-13031529D01*
X15796871Y-13045814D01*
X15754014Y-13045814D01*
X16025443Y-13045814D02*
X15996871Y-13031529D01*
X15982586Y-13002957D01*
X15982586Y-12745814D01*
X16254014Y-13031529D02*
X16225443Y-13045814D01*
X16168300Y-13045814D01*
X16139728Y-13031529D01*
X16125443Y-13002957D01*
X16125443Y-12888671D01*
X16139728Y-12860100D01*
X16168300Y-12845814D01*
X16225443Y-12845814D01*
X16254014Y-12860100D01*
X16268300Y-12888671D01*
X16268300Y-12917243D01*
X16125443Y-12945814D01*
X16382586Y-13031529D02*
X16411157Y-13045814D01*
X16468300Y-13045814D01*
X16496871Y-13031529D01*
X16511157Y-13002957D01*
X16511157Y-12988671D01*
X16496871Y-12960100D01*
X16468300Y-12945814D01*
X16425443Y-12945814D01*
X16396871Y-12931529D01*
X16382586Y-12902957D01*
X16382586Y-12888671D01*
X16396871Y-12860100D01*
X16425443Y-12845814D01*
X16468300Y-12845814D01*
X16496871Y-12860100D01*
X16611157Y-13160100D02*
X16625443Y-13145814D01*
X16654014Y-13102957D01*
X16668300Y-13074386D01*
X16682586Y-13031529D01*
X16696871Y-12960100D01*
X16696871Y-12902957D01*
X16682586Y-12831529D01*
X16668300Y-12788671D01*
X16654014Y-12760100D01*
X16625443Y-12717243D01*
X16611157Y-12702957D01*
X9556584Y-13334385D02*
X9556584Y-13277816D01*
X9500015Y-13277816D01*
X9500015Y-13334385D01*
X9556584Y-13334385D01*
X9896871Y-13141814D02*
X9925443Y-13141814D01*
X9954014Y-13156100D01*
X9968300Y-13170386D01*
X9982586Y-13198957D01*
X9996871Y-13256100D01*
X9996871Y-13327529D01*
X9982586Y-13384671D01*
X9968300Y-13413243D01*
X9954014Y-13427529D01*
X9925443Y-13441814D01*
X9896871Y-13441814D01*
X9868300Y-13427529D01*
X9854014Y-13413243D01*
X9839729Y-13384671D01*
X9825443Y-13327529D01*
X9825443Y-13256100D01*
X9839729Y-13198957D01*
X9854014Y-13170386D01*
X9868300Y-13156100D01*
X9896871Y-13141814D01*
X10125443Y-13413243D02*
X10139729Y-13427529D01*
X10125443Y-13441814D01*
X10111157Y-13427529D01*
X10125443Y-13413243D01*
X10125443Y-13441814D01*
X10311157Y-13270386D02*
X10282586Y-13256100D01*
X10268300Y-13241814D01*
X10254014Y-13213243D01*
X10254014Y-13198957D01*
X10268300Y-13170386D01*
X10282586Y-13156100D01*
X10311157Y-13141814D01*
X10368300Y-13141814D01*
X10396871Y-13156100D01*
X10411157Y-13170386D01*
X10425443Y-13198957D01*
X10425443Y-13213243D01*
X10411157Y-13241814D01*
X10396871Y-13256100D01*
X10368300Y-13270386D01*
X10311157Y-13270386D01*
X10282586Y-13284671D01*
X10268300Y-13298957D01*
X10254014Y-13327529D01*
X10254014Y-13384671D01*
X10268300Y-13413243D01*
X10282586Y-13427529D01*
X10311157Y-13441814D01*
X10368300Y-13441814D01*
X10396871Y-13427529D01*
X10411157Y-13413243D01*
X10425443Y-13384671D01*
X10425443Y-13327529D01*
X10411157Y-13298957D01*
X10396871Y-13284671D01*
X10368300Y-13270386D01*
X10611157Y-13141814D02*
X10639729Y-13141814D01*
X10668300Y-13156100D01*
X10682586Y-13170386D01*
X10696871Y-13198957D01*
X10711157Y-13256100D01*
X10711157Y-13327529D01*
X10696871Y-13384671D01*
X10682586Y-13413243D01*
X10668300Y-13427529D01*
X10639729Y-13441814D01*
X10611157Y-13441814D01*
X10582586Y-13427529D01*
X10568300Y-13413243D01*
X10554014Y-13384671D01*
X10539729Y-13327529D01*
X10539729Y-13256100D01*
X10554014Y-13198957D01*
X10568300Y-13170386D01*
X10582586Y-13156100D01*
X10611157Y-13141814D01*
X10839729Y-13441814D02*
X10839729Y-13241814D01*
X10839729Y-13270386D02*
X10854014Y-13256100D01*
X10882586Y-13241814D01*
X10925443Y-13241814D01*
X10954014Y-13256100D01*
X10968300Y-13284671D01*
X10968300Y-13441814D01*
X10968300Y-13284671D02*
X10982586Y-13256100D01*
X11011157Y-13241814D01*
X11054014Y-13241814D01*
X11082586Y-13256100D01*
X11096871Y-13284671D01*
X11096871Y-13441814D01*
X11239728Y-13441814D02*
X11239728Y-13241814D01*
X11239728Y-13270386D02*
X11254014Y-13256100D01*
X11282586Y-13241814D01*
X11325443Y-13241814D01*
X11354014Y-13256100D01*
X11368300Y-13284671D01*
X11368300Y-13441814D01*
X11368300Y-13284671D02*
X11382586Y-13256100D01*
X11411157Y-13241814D01*
X11454014Y-13241814D01*
X11482586Y-13256100D01*
X11496871Y-13284671D01*
X11496871Y-13441814D01*
X12082586Y-13127529D02*
X11825443Y-13513243D01*
X12468300Y-13141814D02*
X12496871Y-13141814D01*
X12525443Y-13156100D01*
X12539728Y-13170386D01*
X12554014Y-13198957D01*
X12568300Y-13256100D01*
X12568300Y-13327529D01*
X12554014Y-13384671D01*
X12539728Y-13413243D01*
X12525443Y-13427529D01*
X12496871Y-13441814D01*
X12468300Y-13441814D01*
X12439728Y-13427529D01*
X12425443Y-13413243D01*
X12411157Y-13384671D01*
X12396871Y-13327529D01*
X12396871Y-13256100D01*
X12411157Y-13198957D01*
X12425443Y-13170386D01*
X12439728Y-13156100D01*
X12468300Y-13141814D01*
X12696871Y-13413243D02*
X12711157Y-13427529D01*
X12696871Y-13441814D01*
X12682586Y-13427529D01*
X12696871Y-13413243D01*
X12696871Y-13441814D01*
X12896871Y-13141814D02*
X12925443Y-13141814D01*
X12954014Y-13156100D01*
X12968300Y-13170386D01*
X12982585Y-13198957D01*
X12996871Y-13256100D01*
X12996871Y-13327529D01*
X12982585Y-13384671D01*
X12968300Y-13413243D01*
X12954014Y-13427529D01*
X12925443Y-13441814D01*
X12896871Y-13441814D01*
X12868300Y-13427529D01*
X12854014Y-13413243D01*
X12839728Y-13384671D01*
X12825443Y-13327529D01*
X12825443Y-13256100D01*
X12839728Y-13198957D01*
X12854014Y-13170386D01*
X12868300Y-13156100D01*
X12896871Y-13141814D01*
X13096871Y-13141814D02*
X13282585Y-13141814D01*
X13182585Y-13256100D01*
X13225443Y-13256100D01*
X13254014Y-13270386D01*
X13268300Y-13284671D01*
X13282585Y-13313243D01*
X13282585Y-13384671D01*
X13268300Y-13413243D01*
X13254014Y-13427529D01*
X13225443Y-13441814D01*
X13139728Y-13441814D01*
X13111157Y-13427529D01*
X13096871Y-13413243D01*
X13568300Y-13441814D02*
X13396871Y-13441814D01*
X13482585Y-13441814D02*
X13482585Y-13141814D01*
X13454014Y-13184671D01*
X13425443Y-13213243D01*
X13396871Y-13227529D01*
X13682586Y-13141814D02*
X13682586Y-13198957D01*
X13796871Y-13141814D02*
X13796871Y-13198957D01*
X14239728Y-13556100D02*
X14225443Y-13541814D01*
X14196871Y-13498957D01*
X14182585Y-13470386D01*
X14168300Y-13427529D01*
X14154014Y-13356100D01*
X14154014Y-13298957D01*
X14168300Y-13227529D01*
X14182585Y-13184671D01*
X14196871Y-13156100D01*
X14225443Y-13113243D01*
X14239728Y-13098957D01*
X14511157Y-13441814D02*
X14339728Y-13441814D01*
X14425443Y-13441814D02*
X14425443Y-13141814D01*
X14396871Y-13184671D01*
X14368300Y-13213243D01*
X14339728Y-13227529D01*
X14768300Y-13241814D02*
X14768300Y-13441814D01*
X14696871Y-13127529D02*
X14625443Y-13341814D01*
X14811157Y-13341814D01*
X15154014Y-13441814D02*
X15154014Y-13141814D01*
X15282585Y-13441814D02*
X15282585Y-13284671D01*
X15268300Y-13256100D01*
X15239728Y-13241814D01*
X15196871Y-13241814D01*
X15168300Y-13256100D01*
X15154014Y-13270386D01*
X15468300Y-13441814D02*
X15439728Y-13427529D01*
X15425443Y-13413243D01*
X15411157Y-13384671D01*
X15411157Y-13298957D01*
X15425443Y-13270386D01*
X15439728Y-13256100D01*
X15468300Y-13241814D01*
X15511157Y-13241814D01*
X15539728Y-13256100D01*
X15554014Y-13270386D01*
X15568300Y-13298957D01*
X15568300Y-13384671D01*
X15554014Y-13413243D01*
X15539728Y-13427529D01*
X15511157Y-13441814D01*
X15468300Y-13441814D01*
X15739728Y-13441814D02*
X15711157Y-13427529D01*
X15696871Y-13398957D01*
X15696871Y-13141814D01*
X15968300Y-13427529D02*
X15939728Y-13441814D01*
X15882586Y-13441814D01*
X15854014Y-13427529D01*
X15839728Y-13398957D01*
X15839728Y-13284671D01*
X15854014Y-13256100D01*
X15882586Y-13241814D01*
X15939728Y-13241814D01*
X15968300Y-13256100D01*
X15982586Y-13284671D01*
X15982586Y-13313243D01*
X15839728Y-13341814D01*
X16096871Y-13427529D02*
X16125443Y-13441814D01*
X16182586Y-13441814D01*
X16211157Y-13427529D01*
X16225443Y-13398957D01*
X16225443Y-13384671D01*
X16211157Y-13356100D01*
X16182586Y-13341814D01*
X16139728Y-13341814D01*
X16111157Y-13327529D01*
X16096871Y-13298957D01*
X16096871Y-13284671D01*
X16111157Y-13256100D01*
X16139728Y-13241814D01*
X16182586Y-13241814D01*
X16211157Y-13256100D01*
X16325443Y-13556100D02*
X16339728Y-13541814D01*
X16368300Y-13498957D01*
X16382586Y-13470386D01*
X16396871Y-13427529D01*
X16411157Y-13356100D01*
X16411157Y-13298957D01*
X16396871Y-13227529D01*
X16382586Y-13184671D01*
X16368300Y-13156100D01*
X16339728Y-13113243D01*
X16325443Y-13098957D01*
X9527660Y-13742740D02*
X9568300Y-13702100D01*
X9527660Y-13661460D01*
X9487020Y-13702100D01*
X9527660Y-13742740D01*
X9896871Y-13537814D02*
X9925443Y-13537814D01*
X9954014Y-13552100D01*
X9968300Y-13566386D01*
X9982586Y-13594957D01*
X9996871Y-13652100D01*
X9996871Y-13723529D01*
X9982586Y-13780671D01*
X9968300Y-13809243D01*
X9954014Y-13823529D01*
X9925443Y-13837814D01*
X9896871Y-13837814D01*
X9868300Y-13823529D01*
X9854014Y-13809243D01*
X9839729Y-13780671D01*
X9825443Y-13723529D01*
X9825443Y-13652100D01*
X9839729Y-13594957D01*
X9854014Y-13566386D01*
X9868300Y-13552100D01*
X9896871Y-13537814D01*
X10125443Y-13809243D02*
X10139729Y-13823529D01*
X10125443Y-13837814D01*
X10111157Y-13823529D01*
X10125443Y-13809243D01*
X10125443Y-13837814D01*
X10311157Y-13666386D02*
X10282586Y-13652100D01*
X10268300Y-13637814D01*
X10254014Y-13609243D01*
X10254014Y-13594957D01*
X10268300Y-13566386D01*
X10282586Y-13552100D01*
X10311157Y-13537814D01*
X10368300Y-13537814D01*
X10396871Y-13552100D01*
X10411157Y-13566386D01*
X10425443Y-13594957D01*
X10425443Y-13609243D01*
X10411157Y-13637814D01*
X10396871Y-13652100D01*
X10368300Y-13666386D01*
X10311157Y-13666386D01*
X10282586Y-13680671D01*
X10268300Y-13694957D01*
X10254014Y-13723529D01*
X10254014Y-13780671D01*
X10268300Y-13809243D01*
X10282586Y-13823529D01*
X10311157Y-13837814D01*
X10368300Y-13837814D01*
X10396871Y-13823529D01*
X10411157Y-13809243D01*
X10425443Y-13780671D01*
X10425443Y-13723529D01*
X10411157Y-13694957D01*
X10396871Y-13680671D01*
X10368300Y-13666386D01*
X10711157Y-13837814D02*
X10539729Y-13837814D01*
X10625443Y-13837814D02*
X10625443Y-13537814D01*
X10596871Y-13580671D01*
X10568300Y-13609243D01*
X10539729Y-13623529D01*
X10839729Y-13837814D02*
X10839729Y-13637814D01*
X10839729Y-13666386D02*
X10854014Y-13652100D01*
X10882586Y-13637814D01*
X10925443Y-13637814D01*
X10954014Y-13652100D01*
X10968300Y-13680671D01*
X10968300Y-13837814D01*
X10968300Y-13680671D02*
X10982586Y-13652100D01*
X11011157Y-13637814D01*
X11054014Y-13637814D01*
X11082586Y-13652100D01*
X11096871Y-13680671D01*
X11096871Y-13837814D01*
X11239728Y-13837814D02*
X11239728Y-13637814D01*
X11239728Y-13666386D02*
X11254014Y-13652100D01*
X11282586Y-13637814D01*
X11325443Y-13637814D01*
X11354014Y-13652100D01*
X11368300Y-13680671D01*
X11368300Y-13837814D01*
X11368300Y-13680671D02*
X11382586Y-13652100D01*
X11411157Y-13637814D01*
X11454014Y-13637814D01*
X11482586Y-13652100D01*
X11496871Y-13680671D01*
X11496871Y-13837814D01*
X12082586Y-13523529D02*
X11825443Y-13909243D01*
X12468300Y-13537814D02*
X12496871Y-13537814D01*
X12525443Y-13552100D01*
X12539728Y-13566386D01*
X12554014Y-13594957D01*
X12568300Y-13652100D01*
X12568300Y-13723529D01*
X12554014Y-13780671D01*
X12539728Y-13809243D01*
X12525443Y-13823529D01*
X12496871Y-13837814D01*
X12468300Y-13837814D01*
X12439728Y-13823529D01*
X12425443Y-13809243D01*
X12411157Y-13780671D01*
X12396871Y-13723529D01*
X12396871Y-13652100D01*
X12411157Y-13594957D01*
X12425443Y-13566386D01*
X12439728Y-13552100D01*
X12468300Y-13537814D01*
X12696871Y-13809243D02*
X12711157Y-13823529D01*
X12696871Y-13837814D01*
X12682586Y-13823529D01*
X12696871Y-13809243D01*
X12696871Y-13837814D01*
X12896871Y-13537814D02*
X12925443Y-13537814D01*
X12954014Y-13552100D01*
X12968300Y-13566386D01*
X12982585Y-13594957D01*
X12996871Y-13652100D01*
X12996871Y-13723529D01*
X12982585Y-13780671D01*
X12968300Y-13809243D01*
X12954014Y-13823529D01*
X12925443Y-13837814D01*
X12896871Y-13837814D01*
X12868300Y-13823529D01*
X12854014Y-13809243D01*
X12839728Y-13780671D01*
X12825443Y-13723529D01*
X12825443Y-13652100D01*
X12839728Y-13594957D01*
X12854014Y-13566386D01*
X12868300Y-13552100D01*
X12896871Y-13537814D01*
X13096871Y-13537814D02*
X13282585Y-13537814D01*
X13182585Y-13652100D01*
X13225443Y-13652100D01*
X13254014Y-13666386D01*
X13268300Y-13680671D01*
X13282585Y-13709243D01*
X13282585Y-13780671D01*
X13268300Y-13809243D01*
X13254014Y-13823529D01*
X13225443Y-13837814D01*
X13139728Y-13837814D01*
X13111157Y-13823529D01*
X13096871Y-13809243D01*
X13396871Y-13566386D02*
X13411157Y-13552100D01*
X13439728Y-13537814D01*
X13511157Y-13537814D01*
X13539728Y-13552100D01*
X13554014Y-13566386D01*
X13568300Y-13594957D01*
X13568300Y-13623529D01*
X13554014Y-13666386D01*
X13382585Y-13837814D01*
X13568300Y-13837814D01*
X13682586Y-13537814D02*
X13682586Y-13594957D01*
X13796871Y-13537814D02*
X13796871Y-13594957D01*
X14239728Y-13952100D02*
X14225443Y-13937814D01*
X14196871Y-13894957D01*
X14182585Y-13866386D01*
X14168300Y-13823529D01*
X14154014Y-13752100D01*
X14154014Y-13694957D01*
X14168300Y-13623529D01*
X14182585Y-13580671D01*
X14196871Y-13552100D01*
X14225443Y-13509243D01*
X14239728Y-13494957D01*
X14482585Y-13637814D02*
X14482585Y-13837814D01*
X14411157Y-13523529D02*
X14339728Y-13737814D01*
X14525443Y-13737814D01*
X14868300Y-13837814D02*
X14868300Y-13537814D01*
X14996871Y-13837814D02*
X14996871Y-13680671D01*
X14982585Y-13652100D01*
X14954014Y-13637814D01*
X14911157Y-13637814D01*
X14882585Y-13652100D01*
X14868300Y-13666386D01*
X15182585Y-13837814D02*
X15154014Y-13823529D01*
X15139728Y-13809243D01*
X15125443Y-13780671D01*
X15125443Y-13694957D01*
X15139728Y-13666386D01*
X15154014Y-13652100D01*
X15182585Y-13637814D01*
X15225443Y-13637814D01*
X15254014Y-13652100D01*
X15268300Y-13666386D01*
X15282585Y-13694957D01*
X15282585Y-13780671D01*
X15268300Y-13809243D01*
X15254014Y-13823529D01*
X15225443Y-13837814D01*
X15182585Y-13837814D01*
X15454014Y-13837814D02*
X15425443Y-13823529D01*
X15411157Y-13794957D01*
X15411157Y-13537814D01*
X15682586Y-13823529D02*
X15654014Y-13837814D01*
X15596871Y-13837814D01*
X15568300Y-13823529D01*
X15554014Y-13794957D01*
X15554014Y-13680671D01*
X15568300Y-13652100D01*
X15596871Y-13637814D01*
X15654014Y-13637814D01*
X15682586Y-13652100D01*
X15696871Y-13680671D01*
X15696871Y-13709243D01*
X15554014Y-13737814D01*
X15811157Y-13823529D02*
X15839728Y-13837814D01*
X15896871Y-13837814D01*
X15925443Y-13823529D01*
X15939728Y-13794957D01*
X15939728Y-13780671D01*
X15925443Y-13752100D01*
X15896871Y-13737814D01*
X15854014Y-13737814D01*
X15825443Y-13723529D01*
X15811157Y-13694957D01*
X15811157Y-13680671D01*
X15825443Y-13652100D01*
X15854014Y-13637814D01*
X15896871Y-13637814D01*
X15925443Y-13652100D01*
X16039728Y-13952100D02*
X16054014Y-13937814D01*
X16082586Y-13894957D01*
X16096871Y-13866386D01*
X16111157Y-13823529D01*
X16125443Y-13752100D01*
X16125443Y-13694957D01*
X16111157Y-13623529D01*
X16096871Y-13580671D01*
X16082586Y-13552100D01*
X16054014Y-13509243D01*
X16039728Y-13494957D01*
X9468300Y-14048100D02*
X9568300Y-14148100D01*
X9568300Y-14048100D02*
X9468300Y-14148100D01*
X9568300Y-14098100D02*
G75*
G03X9568300Y-14098100I-50000J0D01*
G01*
X9996871Y-14233814D02*
X9825443Y-14233814D01*
X9911157Y-14233814D02*
X9911157Y-13933814D01*
X9882586Y-13976671D01*
X9854014Y-14005243D01*
X9825443Y-14019529D01*
X10125443Y-14205243D02*
X10139729Y-14219529D01*
X10125443Y-14233814D01*
X10111157Y-14219529D01*
X10125443Y-14205243D01*
X10125443Y-14233814D01*
X10325443Y-13933814D02*
X10354014Y-13933814D01*
X10382586Y-13948100D01*
X10396871Y-13962386D01*
X10411157Y-13990957D01*
X10425443Y-14048100D01*
X10425443Y-14119529D01*
X10411157Y-14176671D01*
X10396871Y-14205243D01*
X10382586Y-14219529D01*
X10354014Y-14233814D01*
X10325443Y-14233814D01*
X10296871Y-14219529D01*
X10282586Y-14205243D01*
X10268300Y-14176671D01*
X10254014Y-14119529D01*
X10254014Y-14048100D01*
X10268300Y-13990957D01*
X10282586Y-13962386D01*
X10296871Y-13948100D01*
X10325443Y-13933814D01*
X10611157Y-13933814D02*
X10639729Y-13933814D01*
X10668300Y-13948100D01*
X10682586Y-13962386D01*
X10696871Y-13990957D01*
X10711157Y-14048100D01*
X10711157Y-14119529D01*
X10696871Y-14176671D01*
X10682586Y-14205243D01*
X10668300Y-14219529D01*
X10639729Y-14233814D01*
X10611157Y-14233814D01*
X10582586Y-14219529D01*
X10568300Y-14205243D01*
X10554014Y-14176671D01*
X10539729Y-14119529D01*
X10539729Y-14048100D01*
X10554014Y-13990957D01*
X10568300Y-13962386D01*
X10582586Y-13948100D01*
X10611157Y-13933814D01*
X10839729Y-14233814D02*
X10839729Y-14033814D01*
X10839729Y-14062386D02*
X10854014Y-14048100D01*
X10882586Y-14033814D01*
X10925443Y-14033814D01*
X10954014Y-14048100D01*
X10968300Y-14076671D01*
X10968300Y-14233814D01*
X10968300Y-14076671D02*
X10982586Y-14048100D01*
X11011157Y-14033814D01*
X11054014Y-14033814D01*
X11082586Y-14048100D01*
X11096871Y-14076671D01*
X11096871Y-14233814D01*
X11239728Y-14233814D02*
X11239728Y-14033814D01*
X11239728Y-14062386D02*
X11254014Y-14048100D01*
X11282586Y-14033814D01*
X11325443Y-14033814D01*
X11354014Y-14048100D01*
X11368300Y-14076671D01*
X11368300Y-14233814D01*
X11368300Y-14076671D02*
X11382586Y-14048100D01*
X11411157Y-14033814D01*
X11454014Y-14033814D01*
X11482586Y-14048100D01*
X11496871Y-14076671D01*
X11496871Y-14233814D01*
X12082586Y-13919529D02*
X11825443Y-14305243D01*
X12468300Y-13933814D02*
X12496871Y-13933814D01*
X12525443Y-13948100D01*
X12539728Y-13962386D01*
X12554014Y-13990957D01*
X12568300Y-14048100D01*
X12568300Y-14119529D01*
X12554014Y-14176671D01*
X12539728Y-14205243D01*
X12525443Y-14219529D01*
X12496871Y-14233814D01*
X12468300Y-14233814D01*
X12439728Y-14219529D01*
X12425443Y-14205243D01*
X12411157Y-14176671D01*
X12396871Y-14119529D01*
X12396871Y-14048100D01*
X12411157Y-13990957D01*
X12425443Y-13962386D01*
X12439728Y-13948100D01*
X12468300Y-13933814D01*
X12696871Y-14205243D02*
X12711157Y-14219529D01*
X12696871Y-14233814D01*
X12682586Y-14219529D01*
X12696871Y-14205243D01*
X12696871Y-14233814D01*
X12896871Y-13933814D02*
X12925443Y-13933814D01*
X12954014Y-13948100D01*
X12968300Y-13962386D01*
X12982585Y-13990957D01*
X12996871Y-14048100D01*
X12996871Y-14119529D01*
X12982585Y-14176671D01*
X12968300Y-14205243D01*
X12954014Y-14219529D01*
X12925443Y-14233814D01*
X12896871Y-14233814D01*
X12868300Y-14219529D01*
X12854014Y-14205243D01*
X12839728Y-14176671D01*
X12825443Y-14119529D01*
X12825443Y-14048100D01*
X12839728Y-13990957D01*
X12854014Y-13962386D01*
X12868300Y-13948100D01*
X12896871Y-13933814D01*
X13096871Y-13933814D02*
X13282585Y-13933814D01*
X13182585Y-14048100D01*
X13225443Y-14048100D01*
X13254014Y-14062386D01*
X13268300Y-14076671D01*
X13282585Y-14105243D01*
X13282585Y-14176671D01*
X13268300Y-14205243D01*
X13254014Y-14219529D01*
X13225443Y-14233814D01*
X13139728Y-14233814D01*
X13111157Y-14219529D01*
X13096871Y-14205243D01*
X13425443Y-14233814D02*
X13482585Y-14233814D01*
X13511157Y-14219529D01*
X13525443Y-14205243D01*
X13554014Y-14162386D01*
X13568300Y-14105243D01*
X13568300Y-13990957D01*
X13554014Y-13962386D01*
X13539728Y-13948100D01*
X13511157Y-13933814D01*
X13454014Y-13933814D01*
X13425443Y-13948100D01*
X13411157Y-13962386D01*
X13396871Y-13990957D01*
X13396871Y-14062386D01*
X13411157Y-14090957D01*
X13425443Y-14105243D01*
X13454014Y-14119529D01*
X13511157Y-14119529D01*
X13539728Y-14105243D01*
X13554014Y-14090957D01*
X13568300Y-14062386D01*
X13682586Y-13933814D02*
X13682586Y-13990957D01*
X13796871Y-13933814D02*
X13796871Y-13990957D01*
X14239728Y-14348100D02*
X14225443Y-14333814D01*
X14196871Y-14290957D01*
X14182585Y-14262386D01*
X14168300Y-14219529D01*
X14154014Y-14148100D01*
X14154014Y-14090957D01*
X14168300Y-14019529D01*
X14182585Y-13976671D01*
X14196871Y-13948100D01*
X14225443Y-13905243D01*
X14239728Y-13890957D01*
X14339728Y-13962386D02*
X14354014Y-13948100D01*
X14382585Y-13933814D01*
X14454014Y-13933814D01*
X14482585Y-13948100D01*
X14496871Y-13962386D01*
X14511157Y-13990957D01*
X14511157Y-14019529D01*
X14496871Y-14062386D01*
X14325443Y-14233814D01*
X14511157Y-14233814D01*
X14682585Y-14062386D02*
X14654014Y-14048100D01*
X14639728Y-14033814D01*
X14625443Y-14005243D01*
X14625443Y-13990957D01*
X14639728Y-13962386D01*
X14654014Y-13948100D01*
X14682585Y-13933814D01*
X14739728Y-13933814D01*
X14768300Y-13948100D01*
X14782585Y-13962386D01*
X14796871Y-13990957D01*
X14796871Y-14005243D01*
X14782585Y-14033814D01*
X14768300Y-14048100D01*
X14739728Y-14062386D01*
X14682585Y-14062386D01*
X14654014Y-14076671D01*
X14639728Y-14090957D01*
X14625443Y-14119529D01*
X14625443Y-14176671D01*
X14639728Y-14205243D01*
X14654014Y-14219529D01*
X14682585Y-14233814D01*
X14739728Y-14233814D01*
X14768300Y-14219529D01*
X14782585Y-14205243D01*
X14796871Y-14176671D01*
X14796871Y-14119529D01*
X14782585Y-14090957D01*
X14768300Y-14076671D01*
X14739728Y-14062386D01*
X15154014Y-14233814D02*
X15154014Y-13933814D01*
X15282585Y-14233814D02*
X15282585Y-14076671D01*
X15268300Y-14048100D01*
X15239728Y-14033814D01*
X15196871Y-14033814D01*
X15168300Y-14048100D01*
X15154014Y-14062386D01*
X15468300Y-14233814D02*
X15439728Y-14219529D01*
X15425443Y-14205243D01*
X15411157Y-14176671D01*
X15411157Y-14090957D01*
X15425443Y-14062386D01*
X15439728Y-14048100D01*
X15468300Y-14033814D01*
X15511157Y-14033814D01*
X15539728Y-14048100D01*
X15554014Y-14062386D01*
X15568300Y-14090957D01*
X15568300Y-14176671D01*
X15554014Y-14205243D01*
X15539728Y-14219529D01*
X15511157Y-14233814D01*
X15468300Y-14233814D01*
X15739728Y-14233814D02*
X15711157Y-14219529D01*
X15696871Y-14190957D01*
X15696871Y-13933814D01*
X15968300Y-14219529D02*
X15939728Y-14233814D01*
X15882586Y-14233814D01*
X15854014Y-14219529D01*
X15839728Y-14190957D01*
X15839728Y-14076671D01*
X15854014Y-14048100D01*
X15882586Y-14033814D01*
X15939728Y-14033814D01*
X15968300Y-14048100D01*
X15982586Y-14076671D01*
X15982586Y-14105243D01*
X15839728Y-14133814D01*
X16096871Y-14219529D02*
X16125443Y-14233814D01*
X16182586Y-14233814D01*
X16211157Y-14219529D01*
X16225443Y-14190957D01*
X16225443Y-14176671D01*
X16211157Y-14148100D01*
X16182586Y-14133814D01*
X16139728Y-14133814D01*
X16111157Y-14119529D01*
X16096871Y-14090957D01*
X16096871Y-14076671D01*
X16111157Y-14048100D01*
X16139728Y-14033814D01*
X16182586Y-14033814D01*
X16211157Y-14048100D01*
X16325443Y-14348100D02*
X16339728Y-14333814D01*
X16368300Y-14290957D01*
X16382586Y-14262386D01*
X16396871Y-14219529D01*
X16411157Y-14148100D01*
X16411157Y-14090957D01*
X16396871Y-14019529D01*
X16382586Y-13976671D01*
X16368300Y-13948100D01*
X16339728Y-13905243D01*
X16325443Y-13890957D01*
X9468224Y-14444062D02*
X9568300Y-14544138D01*
X9568300Y-14444062D02*
X9468224Y-14544138D01*
X9518262Y-14444062D02*
X9518262Y-14544138D01*
X9468224Y-14494100D02*
X9568300Y-14494100D01*
X9996871Y-14629814D02*
X9825443Y-14629814D01*
X9911157Y-14629814D02*
X9911157Y-14329814D01*
X9882586Y-14372671D01*
X9854014Y-14401243D01*
X9825443Y-14415529D01*
X10125443Y-14601243D02*
X10139729Y-14615529D01*
X10125443Y-14629814D01*
X10111157Y-14615529D01*
X10125443Y-14601243D01*
X10125443Y-14629814D01*
X10325443Y-14329814D02*
X10354014Y-14329814D01*
X10382586Y-14344100D01*
X10396871Y-14358386D01*
X10411157Y-14386957D01*
X10425443Y-14444100D01*
X10425443Y-14515529D01*
X10411157Y-14572671D01*
X10396871Y-14601243D01*
X10382586Y-14615529D01*
X10354014Y-14629814D01*
X10325443Y-14629814D01*
X10296871Y-14615529D01*
X10282586Y-14601243D01*
X10268300Y-14572671D01*
X10254014Y-14515529D01*
X10254014Y-14444100D01*
X10268300Y-14386957D01*
X10282586Y-14358386D01*
X10296871Y-14344100D01*
X10325443Y-14329814D01*
X10611157Y-14329814D02*
X10639729Y-14329814D01*
X10668300Y-14344100D01*
X10682586Y-14358386D01*
X10696871Y-14386957D01*
X10711157Y-14444100D01*
X10711157Y-14515529D01*
X10696871Y-14572671D01*
X10682586Y-14601243D01*
X10668300Y-14615529D01*
X10639729Y-14629814D01*
X10611157Y-14629814D01*
X10582586Y-14615529D01*
X10568300Y-14601243D01*
X10554014Y-14572671D01*
X10539729Y-14515529D01*
X10539729Y-14444100D01*
X10554014Y-14386957D01*
X10568300Y-14358386D01*
X10582586Y-14344100D01*
X10611157Y-14329814D01*
X10839729Y-14629814D02*
X10839729Y-14429814D01*
X10839729Y-14458386D02*
X10854014Y-14444100D01*
X10882586Y-14429814D01*
X10925443Y-14429814D01*
X10954014Y-14444100D01*
X10968300Y-14472671D01*
X10968300Y-14629814D01*
X10968300Y-14472671D02*
X10982586Y-14444100D01*
X11011157Y-14429814D01*
X11054014Y-14429814D01*
X11082586Y-14444100D01*
X11096871Y-14472671D01*
X11096871Y-14629814D01*
X11239728Y-14629814D02*
X11239728Y-14429814D01*
X11239728Y-14458386D02*
X11254014Y-14444100D01*
X11282586Y-14429814D01*
X11325443Y-14429814D01*
X11354014Y-14444100D01*
X11368300Y-14472671D01*
X11368300Y-14629814D01*
X11368300Y-14472671D02*
X11382586Y-14444100D01*
X11411157Y-14429814D01*
X11454014Y-14429814D01*
X11482586Y-14444100D01*
X11496871Y-14472671D01*
X11496871Y-14629814D01*
X12082586Y-14315529D02*
X11825443Y-14701243D01*
X12468300Y-14329814D02*
X12496871Y-14329814D01*
X12525443Y-14344100D01*
X12539728Y-14358386D01*
X12554014Y-14386957D01*
X12568300Y-14444100D01*
X12568300Y-14515529D01*
X12554014Y-14572671D01*
X12539728Y-14601243D01*
X12525443Y-14615529D01*
X12496871Y-14629814D01*
X12468300Y-14629814D01*
X12439728Y-14615529D01*
X12425443Y-14601243D01*
X12411157Y-14572671D01*
X12396871Y-14515529D01*
X12396871Y-14444100D01*
X12411157Y-14386957D01*
X12425443Y-14358386D01*
X12439728Y-14344100D01*
X12468300Y-14329814D01*
X12696871Y-14601243D02*
X12711157Y-14615529D01*
X12696871Y-14629814D01*
X12682586Y-14615529D01*
X12696871Y-14601243D01*
X12696871Y-14629814D01*
X12896871Y-14329814D02*
X12925443Y-14329814D01*
X12954014Y-14344100D01*
X12968300Y-14358386D01*
X12982585Y-14386957D01*
X12996871Y-14444100D01*
X12996871Y-14515529D01*
X12982585Y-14572671D01*
X12968300Y-14601243D01*
X12954014Y-14615529D01*
X12925443Y-14629814D01*
X12896871Y-14629814D01*
X12868300Y-14615529D01*
X12854014Y-14601243D01*
X12839728Y-14572671D01*
X12825443Y-14515529D01*
X12825443Y-14444100D01*
X12839728Y-14386957D01*
X12854014Y-14358386D01*
X12868300Y-14344100D01*
X12896871Y-14329814D01*
X13096871Y-14329814D02*
X13282585Y-14329814D01*
X13182585Y-14444100D01*
X13225443Y-14444100D01*
X13254014Y-14458386D01*
X13268300Y-14472671D01*
X13282585Y-14501243D01*
X13282585Y-14572671D01*
X13268300Y-14601243D01*
X13254014Y-14615529D01*
X13225443Y-14629814D01*
X13139728Y-14629814D01*
X13111157Y-14615529D01*
X13096871Y-14601243D01*
X13425443Y-14629814D02*
X13482585Y-14629814D01*
X13511157Y-14615529D01*
X13525443Y-14601243D01*
X13554014Y-14558386D01*
X13568300Y-14501243D01*
X13568300Y-14386957D01*
X13554014Y-14358386D01*
X13539728Y-14344100D01*
X13511157Y-14329814D01*
X13454014Y-14329814D01*
X13425443Y-14344100D01*
X13411157Y-14358386D01*
X13396871Y-14386957D01*
X13396871Y-14458386D01*
X13411157Y-14486957D01*
X13425443Y-14501243D01*
X13454014Y-14515529D01*
X13511157Y-14515529D01*
X13539728Y-14501243D01*
X13554014Y-14486957D01*
X13568300Y-14458386D01*
X13682586Y-14329814D02*
X13682586Y-14386957D01*
X13796871Y-14329814D02*
X13796871Y-14386957D01*
X14239728Y-14744100D02*
X14225443Y-14729814D01*
X14196871Y-14686957D01*
X14182585Y-14658386D01*
X14168300Y-14615529D01*
X14154014Y-14544100D01*
X14154014Y-14486957D01*
X14168300Y-14415529D01*
X14182585Y-14372671D01*
X14196871Y-14344100D01*
X14225443Y-14301243D01*
X14239728Y-14286957D01*
X14339728Y-14358386D02*
X14354014Y-14344100D01*
X14382585Y-14329814D01*
X14454014Y-14329814D01*
X14482585Y-14344100D01*
X14496871Y-14358386D01*
X14511157Y-14386957D01*
X14511157Y-14415529D01*
X14496871Y-14458386D01*
X14325443Y-14629814D01*
X14511157Y-14629814D01*
X14868300Y-14629814D02*
X14868300Y-14329814D01*
X14996871Y-14629814D02*
X14996871Y-14472671D01*
X14982585Y-14444100D01*
X14954014Y-14429814D01*
X14911157Y-14429814D01*
X14882585Y-14444100D01*
X14868300Y-14458386D01*
X15182585Y-14629814D02*
X15154014Y-14615529D01*
X15139728Y-14601243D01*
X15125443Y-14572671D01*
X15125443Y-14486957D01*
X15139728Y-14458386D01*
X15154014Y-14444100D01*
X15182585Y-14429814D01*
X15225443Y-14429814D01*
X15254014Y-14444100D01*
X15268300Y-14458386D01*
X15282585Y-14486957D01*
X15282585Y-14572671D01*
X15268300Y-14601243D01*
X15254014Y-14615529D01*
X15225443Y-14629814D01*
X15182585Y-14629814D01*
X15454014Y-14629814D02*
X15425443Y-14615529D01*
X15411157Y-14586957D01*
X15411157Y-14329814D01*
X15682586Y-14615529D02*
X15654014Y-14629814D01*
X15596871Y-14629814D01*
X15568300Y-14615529D01*
X15554014Y-14586957D01*
X15554014Y-14472671D01*
X15568300Y-14444100D01*
X15596871Y-14429814D01*
X15654014Y-14429814D01*
X15682586Y-14444100D01*
X15696871Y-14472671D01*
X15696871Y-14501243D01*
X15554014Y-14529814D01*
X15811157Y-14615529D02*
X15839728Y-14629814D01*
X15896871Y-14629814D01*
X15925443Y-14615529D01*
X15939728Y-14586957D01*
X15939728Y-14572671D01*
X15925443Y-14544100D01*
X15896871Y-14529814D01*
X15854014Y-14529814D01*
X15825443Y-14515529D01*
X15811157Y-14486957D01*
X15811157Y-14472671D01*
X15825443Y-14444100D01*
X15854014Y-14429814D01*
X15896871Y-14429814D01*
X15925443Y-14444100D01*
X16039728Y-14744100D02*
X16054014Y-14729814D01*
X16082586Y-14686957D01*
X16096871Y-14658386D01*
X16111157Y-14615529D01*
X16125443Y-14544100D01*
X16125443Y-14486957D01*
X16111157Y-14415529D01*
X16096871Y-14372671D01*
X16082586Y-14344100D01*
X16054014Y-14301243D01*
X16039728Y-14286957D01*
X9458300Y-14835100D02*
X9568300Y-14945100D01*
X9568300Y-14835100D02*
X9458300Y-14945100D01*
X9552191Y-14928991D02*
X9552191Y-14851209D01*
X9474409Y-14851209D01*
X9474409Y-14928991D01*
X9552191Y-14928991D01*
X9996871Y-15025814D02*
X9825443Y-15025814D01*
X9911157Y-15025814D02*
X9911157Y-14725814D01*
X9882586Y-14768671D01*
X9854014Y-14797243D01*
X9825443Y-14811529D01*
X10125443Y-14997243D02*
X10139729Y-15011529D01*
X10125443Y-15025814D01*
X10111157Y-15011529D01*
X10125443Y-14997243D01*
X10125443Y-15025814D01*
X10425443Y-15025814D02*
X10254014Y-15025814D01*
X10339728Y-15025814D02*
X10339728Y-14725814D01*
X10311157Y-14768671D01*
X10282586Y-14797243D01*
X10254014Y-14811529D01*
X10611157Y-14725814D02*
X10639729Y-14725814D01*
X10668300Y-14740100D01*
X10682586Y-14754386D01*
X10696871Y-14782957D01*
X10711157Y-14840100D01*
X10711157Y-14911529D01*
X10696871Y-14968671D01*
X10682586Y-14997243D01*
X10668300Y-15011529D01*
X10639729Y-15025814D01*
X10611157Y-15025814D01*
X10582586Y-15011529D01*
X10568300Y-14997243D01*
X10554014Y-14968671D01*
X10539729Y-14911529D01*
X10539729Y-14840100D01*
X10554014Y-14782957D01*
X10568300Y-14754386D01*
X10582586Y-14740100D01*
X10611157Y-14725814D01*
X10839729Y-15025814D02*
X10839729Y-14825814D01*
X10839729Y-14854386D02*
X10854014Y-14840100D01*
X10882586Y-14825814D01*
X10925443Y-14825814D01*
X10954014Y-14840100D01*
X10968300Y-14868671D01*
X10968300Y-15025814D01*
X10968300Y-14868671D02*
X10982586Y-14840100D01*
X11011157Y-14825814D01*
X11054014Y-14825814D01*
X11082586Y-14840100D01*
X11096871Y-14868671D01*
X11096871Y-15025814D01*
X11239728Y-15025814D02*
X11239728Y-14825814D01*
X11239728Y-14854386D02*
X11254014Y-14840100D01*
X11282586Y-14825814D01*
X11325443Y-14825814D01*
X11354014Y-14840100D01*
X11368300Y-14868671D01*
X11368300Y-15025814D01*
X11368300Y-14868671D02*
X11382586Y-14840100D01*
X11411157Y-14825814D01*
X11454014Y-14825814D01*
X11482586Y-14840100D01*
X11496871Y-14868671D01*
X11496871Y-15025814D01*
X12082586Y-14711529D02*
X11825443Y-15097243D01*
X12468300Y-14725814D02*
X12496871Y-14725814D01*
X12525443Y-14740100D01*
X12539728Y-14754386D01*
X12554014Y-14782957D01*
X12568300Y-14840100D01*
X12568300Y-14911529D01*
X12554014Y-14968671D01*
X12539728Y-14997243D01*
X12525443Y-15011529D01*
X12496871Y-15025814D01*
X12468300Y-15025814D01*
X12439728Y-15011529D01*
X12425443Y-14997243D01*
X12411157Y-14968671D01*
X12396871Y-14911529D01*
X12396871Y-14840100D01*
X12411157Y-14782957D01*
X12425443Y-14754386D01*
X12439728Y-14740100D01*
X12468300Y-14725814D01*
X12696871Y-14997243D02*
X12711157Y-15011529D01*
X12696871Y-15025814D01*
X12682586Y-15011529D01*
X12696871Y-14997243D01*
X12696871Y-15025814D01*
X12896871Y-14725814D02*
X12925443Y-14725814D01*
X12954014Y-14740100D01*
X12968300Y-14754386D01*
X12982585Y-14782957D01*
X12996871Y-14840100D01*
X12996871Y-14911529D01*
X12982585Y-14968671D01*
X12968300Y-14997243D01*
X12954014Y-15011529D01*
X12925443Y-15025814D01*
X12896871Y-15025814D01*
X12868300Y-15011529D01*
X12854014Y-14997243D01*
X12839728Y-14968671D01*
X12825443Y-14911529D01*
X12825443Y-14840100D01*
X12839728Y-14782957D01*
X12854014Y-14754386D01*
X12868300Y-14740100D01*
X12896871Y-14725814D01*
X13254014Y-14825814D02*
X13254014Y-15025814D01*
X13182585Y-14711529D02*
X13111157Y-14925814D01*
X13296871Y-14925814D01*
X13382585Y-14725814D02*
X13568300Y-14725814D01*
X13468300Y-14840100D01*
X13511157Y-14840100D01*
X13539728Y-14854386D01*
X13554014Y-14868671D01*
X13568300Y-14897243D01*
X13568300Y-14968671D01*
X13554014Y-14997243D01*
X13539728Y-15011529D01*
X13511157Y-15025814D01*
X13425443Y-15025814D01*
X13396871Y-15011529D01*
X13382585Y-14997243D01*
X13682586Y-14725814D02*
X13682586Y-14782957D01*
X13796871Y-14725814D02*
X13796871Y-14782957D01*
X14239728Y-15140100D02*
X14225443Y-15125814D01*
X14196871Y-15082957D01*
X14182585Y-15054386D01*
X14168300Y-15011529D01*
X14154014Y-14940100D01*
X14154014Y-14882957D01*
X14168300Y-14811529D01*
X14182585Y-14768671D01*
X14196871Y-14740100D01*
X14225443Y-14697243D01*
X14239728Y-14682957D01*
X14482585Y-14825814D02*
X14482585Y-15025814D01*
X14411157Y-14711529D02*
X14339728Y-14925814D01*
X14525443Y-14925814D01*
X14696871Y-14725814D02*
X14725443Y-14725814D01*
X14754014Y-14740100D01*
X14768300Y-14754386D01*
X14782585Y-14782957D01*
X14796871Y-14840100D01*
X14796871Y-14911529D01*
X14782585Y-14968671D01*
X14768300Y-14997243D01*
X14754014Y-15011529D01*
X14725443Y-15025814D01*
X14696871Y-15025814D01*
X14668300Y-15011529D01*
X14654014Y-14997243D01*
X14639728Y-14968671D01*
X14625443Y-14911529D01*
X14625443Y-14840100D01*
X14639728Y-14782957D01*
X14654014Y-14754386D01*
X14668300Y-14740100D01*
X14696871Y-14725814D01*
X15154014Y-15025814D02*
X15154014Y-14725814D01*
X15282585Y-15025814D02*
X15282585Y-14868671D01*
X15268300Y-14840100D01*
X15239728Y-14825814D01*
X15196871Y-14825814D01*
X15168300Y-14840100D01*
X15154014Y-14854386D01*
X15468300Y-15025814D02*
X15439728Y-15011529D01*
X15425443Y-14997243D01*
X15411157Y-14968671D01*
X15411157Y-14882957D01*
X15425443Y-14854386D01*
X15439728Y-14840100D01*
X15468300Y-14825814D01*
X15511157Y-14825814D01*
X15539728Y-14840100D01*
X15554014Y-14854386D01*
X15568300Y-14882957D01*
X15568300Y-14968671D01*
X15554014Y-14997243D01*
X15539728Y-15011529D01*
X15511157Y-15025814D01*
X15468300Y-15025814D01*
X15739728Y-15025814D02*
X15711157Y-15011529D01*
X15696871Y-14982957D01*
X15696871Y-14725814D01*
X15968300Y-15011529D02*
X15939728Y-15025814D01*
X15882586Y-15025814D01*
X15854014Y-15011529D01*
X15839728Y-14982957D01*
X15839728Y-14868671D01*
X15854014Y-14840100D01*
X15882586Y-14825814D01*
X15939728Y-14825814D01*
X15968300Y-14840100D01*
X15982586Y-14868671D01*
X15982586Y-14897243D01*
X15839728Y-14925814D01*
X16096871Y-15011529D02*
X16125443Y-15025814D01*
X16182586Y-15025814D01*
X16211157Y-15011529D01*
X16225443Y-14982957D01*
X16225443Y-14968671D01*
X16211157Y-14940100D01*
X16182586Y-14925814D01*
X16139728Y-14925814D01*
X16111157Y-14911529D01*
X16096871Y-14882957D01*
X16096871Y-14868671D01*
X16111157Y-14840100D01*
X16139728Y-14825814D01*
X16182586Y-14825814D01*
X16211157Y-14840100D01*
X16325443Y-15140100D02*
X16339728Y-15125814D01*
X16368300Y-15082957D01*
X16382586Y-15054386D01*
X16396871Y-15011529D01*
X16411157Y-14940100D01*
X16411157Y-14882957D01*
X16396871Y-14811529D01*
X16382586Y-14768671D01*
X16368300Y-14740100D01*
X16339728Y-14697243D01*
X16325443Y-14682957D01*
X9448300Y-15226100D02*
X9568300Y-15346100D01*
X9568300Y-15226100D02*
X9448300Y-15346100D01*
X9508300Y-15346100D02*
X9568300Y-15286100D01*
X9508300Y-15226100D01*
X9448300Y-15286100D01*
X9508300Y-15346100D01*
X9996871Y-15421814D02*
X9825443Y-15421814D01*
X9911157Y-15421814D02*
X9911157Y-15121814D01*
X9882586Y-15164671D01*
X9854014Y-15193243D01*
X9825443Y-15207529D01*
X10125443Y-15393243D02*
X10139729Y-15407529D01*
X10125443Y-15421814D01*
X10111157Y-15407529D01*
X10125443Y-15393243D01*
X10125443Y-15421814D01*
X10254014Y-15150386D02*
X10268300Y-15136100D01*
X10296871Y-15121814D01*
X10368300Y-15121814D01*
X10396871Y-15136100D01*
X10411157Y-15150386D01*
X10425443Y-15178957D01*
X10425443Y-15207529D01*
X10411157Y-15250386D01*
X10239728Y-15421814D01*
X10425443Y-15421814D01*
X10611157Y-15121814D02*
X10639729Y-15121814D01*
X10668300Y-15136100D01*
X10682586Y-15150386D01*
X10696871Y-15178957D01*
X10711157Y-15236100D01*
X10711157Y-15307529D01*
X10696871Y-15364671D01*
X10682586Y-15393243D01*
X10668300Y-15407529D01*
X10639729Y-15421814D01*
X10611157Y-15421814D01*
X10582586Y-15407529D01*
X10568300Y-15393243D01*
X10554014Y-15364671D01*
X10539729Y-15307529D01*
X10539729Y-15236100D01*
X10554014Y-15178957D01*
X10568300Y-15150386D01*
X10582586Y-15136100D01*
X10611157Y-15121814D01*
X10839729Y-15421814D02*
X10839729Y-15221814D01*
X10839729Y-15250386D02*
X10854014Y-15236100D01*
X10882586Y-15221814D01*
X10925443Y-15221814D01*
X10954014Y-15236100D01*
X10968300Y-15264671D01*
X10968300Y-15421814D01*
X10968300Y-15264671D02*
X10982586Y-15236100D01*
X11011157Y-15221814D01*
X11054014Y-15221814D01*
X11082586Y-15236100D01*
X11096871Y-15264671D01*
X11096871Y-15421814D01*
X11239728Y-15421814D02*
X11239728Y-15221814D01*
X11239728Y-15250386D02*
X11254014Y-15236100D01*
X11282586Y-15221814D01*
X11325443Y-15221814D01*
X11354014Y-15236100D01*
X11368300Y-15264671D01*
X11368300Y-15421814D01*
X11368300Y-15264671D02*
X11382586Y-15236100D01*
X11411157Y-15221814D01*
X11454014Y-15221814D01*
X11482586Y-15236100D01*
X11496871Y-15264671D01*
X11496871Y-15421814D01*
X12082586Y-15107529D02*
X11825443Y-15493243D01*
X12468300Y-15121814D02*
X12496871Y-15121814D01*
X12525443Y-15136100D01*
X12539728Y-15150386D01*
X12554014Y-15178957D01*
X12568300Y-15236100D01*
X12568300Y-15307529D01*
X12554014Y-15364671D01*
X12539728Y-15393243D01*
X12525443Y-15407529D01*
X12496871Y-15421814D01*
X12468300Y-15421814D01*
X12439728Y-15407529D01*
X12425443Y-15393243D01*
X12411157Y-15364671D01*
X12396871Y-15307529D01*
X12396871Y-15236100D01*
X12411157Y-15178957D01*
X12425443Y-15150386D01*
X12439728Y-15136100D01*
X12468300Y-15121814D01*
X12696871Y-15393243D02*
X12711157Y-15407529D01*
X12696871Y-15421814D01*
X12682586Y-15407529D01*
X12696871Y-15393243D01*
X12696871Y-15421814D01*
X12896871Y-15121814D02*
X12925443Y-15121814D01*
X12954014Y-15136100D01*
X12968300Y-15150386D01*
X12982585Y-15178957D01*
X12996871Y-15236100D01*
X12996871Y-15307529D01*
X12982585Y-15364671D01*
X12968300Y-15393243D01*
X12954014Y-15407529D01*
X12925443Y-15421814D01*
X12896871Y-15421814D01*
X12868300Y-15407529D01*
X12854014Y-15393243D01*
X12839728Y-15364671D01*
X12825443Y-15307529D01*
X12825443Y-15236100D01*
X12839728Y-15178957D01*
X12854014Y-15150386D01*
X12868300Y-15136100D01*
X12896871Y-15121814D01*
X13254014Y-15221814D02*
X13254014Y-15421814D01*
X13182585Y-15107529D02*
X13111157Y-15321814D01*
X13296871Y-15321814D01*
X13382585Y-15121814D02*
X13582585Y-15121814D01*
X13454014Y-15421814D01*
X13682586Y-15121814D02*
X13682586Y-15178957D01*
X13796871Y-15121814D02*
X13796871Y-15178957D01*
X14239728Y-15536100D02*
X14225443Y-15521814D01*
X14196871Y-15478957D01*
X14182585Y-15450386D01*
X14168300Y-15407529D01*
X14154014Y-15336100D01*
X14154014Y-15278957D01*
X14168300Y-15207529D01*
X14182585Y-15164671D01*
X14196871Y-15136100D01*
X14225443Y-15093243D01*
X14239728Y-15078957D01*
X14339728Y-15150386D02*
X14354014Y-15136100D01*
X14382585Y-15121814D01*
X14454014Y-15121814D01*
X14482585Y-15136100D01*
X14496871Y-15150386D01*
X14511157Y-15178957D01*
X14511157Y-15207529D01*
X14496871Y-15250386D01*
X14325443Y-15421814D01*
X14511157Y-15421814D01*
X14625443Y-15150386D02*
X14639728Y-15136100D01*
X14668300Y-15121814D01*
X14739728Y-15121814D01*
X14768300Y-15136100D01*
X14782585Y-15150386D01*
X14796871Y-15178957D01*
X14796871Y-15207529D01*
X14782585Y-15250386D01*
X14611157Y-15421814D01*
X14796871Y-15421814D01*
X15154014Y-15421814D02*
X15154014Y-15121814D01*
X15282585Y-15421814D02*
X15282585Y-15264671D01*
X15268300Y-15236100D01*
X15239728Y-15221814D01*
X15196871Y-15221814D01*
X15168300Y-15236100D01*
X15154014Y-15250386D01*
X15468300Y-15421814D02*
X15439728Y-15407529D01*
X15425443Y-15393243D01*
X15411157Y-15364671D01*
X15411157Y-15278957D01*
X15425443Y-15250386D01*
X15439728Y-15236100D01*
X15468300Y-15221814D01*
X15511157Y-15221814D01*
X15539728Y-15236100D01*
X15554014Y-15250386D01*
X15568300Y-15278957D01*
X15568300Y-15364671D01*
X15554014Y-15393243D01*
X15539728Y-15407529D01*
X15511157Y-15421814D01*
X15468300Y-15421814D01*
X15739728Y-15421814D02*
X15711157Y-15407529D01*
X15696871Y-15378957D01*
X15696871Y-15121814D01*
X15968300Y-15407529D02*
X15939728Y-15421814D01*
X15882586Y-15421814D01*
X15854014Y-15407529D01*
X15839728Y-15378957D01*
X15839728Y-15264671D01*
X15854014Y-15236100D01*
X15882586Y-15221814D01*
X15939728Y-15221814D01*
X15968300Y-15236100D01*
X15982586Y-15264671D01*
X15982586Y-15293243D01*
X15839728Y-15321814D01*
X16096871Y-15407529D02*
X16125443Y-15421814D01*
X16182586Y-15421814D01*
X16211157Y-15407529D01*
X16225443Y-15378957D01*
X16225443Y-15364671D01*
X16211157Y-15336100D01*
X16182586Y-15321814D01*
X16139728Y-15321814D01*
X16111157Y-15307529D01*
X16096871Y-15278957D01*
X16096871Y-15264671D01*
X16111157Y-15236100D01*
X16139728Y-15221814D01*
X16182586Y-15221814D01*
X16211157Y-15236100D01*
X16325443Y-15536100D02*
X16339728Y-15521814D01*
X16368300Y-15478957D01*
X16382586Y-15450386D01*
X16396871Y-15407529D01*
X16411157Y-15336100D01*
X16411157Y-15278957D01*
X16396871Y-15207529D01*
X16382586Y-15164671D01*
X16368300Y-15136100D01*
X16339728Y-15093243D01*
X16325443Y-15078957D01*
X9443300Y-15557100D02*
X9443300Y-15807100D01*
X9318300Y-15682100D02*
X9568300Y-15682100D01*
X9568300Y-15682100D02*
G75*
G03X9568300Y-15682100I-125000J0D01*
G01*
X9825443Y-15546386D02*
X9839729Y-15532100D01*
X9868300Y-15517814D01*
X9939729Y-15517814D01*
X9968300Y-15532100D01*
X9982586Y-15546386D01*
X9996871Y-15574957D01*
X9996871Y-15603529D01*
X9982586Y-15646386D01*
X9811157Y-15817814D01*
X9996871Y-15817814D01*
X10125443Y-15789243D02*
X10139729Y-15803529D01*
X10125443Y-15817814D01*
X10111157Y-15803529D01*
X10125443Y-15789243D01*
X10125443Y-15817814D01*
X10411157Y-15517814D02*
X10268300Y-15517814D01*
X10254014Y-15660671D01*
X10268300Y-15646386D01*
X10296871Y-15632100D01*
X10368300Y-15632100D01*
X10396871Y-15646386D01*
X10411157Y-15660671D01*
X10425443Y-15689243D01*
X10425443Y-15760671D01*
X10411157Y-15789243D01*
X10396871Y-15803529D01*
X10368300Y-15817814D01*
X10296871Y-15817814D01*
X10268300Y-15803529D01*
X10254014Y-15789243D01*
X10611157Y-15517814D02*
X10639729Y-15517814D01*
X10668300Y-15532100D01*
X10682586Y-15546386D01*
X10696871Y-15574957D01*
X10711157Y-15632100D01*
X10711157Y-15703529D01*
X10696871Y-15760671D01*
X10682586Y-15789243D01*
X10668300Y-15803529D01*
X10639729Y-15817814D01*
X10611157Y-15817814D01*
X10582586Y-15803529D01*
X10568300Y-15789243D01*
X10554014Y-15760671D01*
X10539729Y-15703529D01*
X10539729Y-15632100D01*
X10554014Y-15574957D01*
X10568300Y-15546386D01*
X10582586Y-15532100D01*
X10611157Y-15517814D01*
X10839729Y-15817814D02*
X10839729Y-15617814D01*
X10839729Y-15646386D02*
X10854014Y-15632100D01*
X10882586Y-15617814D01*
X10925443Y-15617814D01*
X10954014Y-15632100D01*
X10968300Y-15660671D01*
X10968300Y-15817814D01*
X10968300Y-15660671D02*
X10982586Y-15632100D01*
X11011157Y-15617814D01*
X11054014Y-15617814D01*
X11082586Y-15632100D01*
X11096871Y-15660671D01*
X11096871Y-15817814D01*
X11239728Y-15817814D02*
X11239728Y-15617814D01*
X11239728Y-15646386D02*
X11254014Y-15632100D01*
X11282586Y-15617814D01*
X11325443Y-15617814D01*
X11354014Y-15632100D01*
X11368300Y-15660671D01*
X11368300Y-15817814D01*
X11368300Y-15660671D02*
X11382586Y-15632100D01*
X11411157Y-15617814D01*
X11454014Y-15617814D01*
X11482586Y-15632100D01*
X11496871Y-15660671D01*
X11496871Y-15817814D01*
X12082586Y-15503529D02*
X11825443Y-15889243D01*
X12468300Y-15517814D02*
X12496871Y-15517814D01*
X12525443Y-15532100D01*
X12539728Y-15546386D01*
X12554014Y-15574957D01*
X12568300Y-15632100D01*
X12568300Y-15703529D01*
X12554014Y-15760671D01*
X12539728Y-15789243D01*
X12525443Y-15803529D01*
X12496871Y-15817814D01*
X12468300Y-15817814D01*
X12439728Y-15803529D01*
X12425443Y-15789243D01*
X12411157Y-15760671D01*
X12396871Y-15703529D01*
X12396871Y-15632100D01*
X12411157Y-15574957D01*
X12425443Y-15546386D01*
X12439728Y-15532100D01*
X12468300Y-15517814D01*
X12696871Y-15789243D02*
X12711157Y-15803529D01*
X12696871Y-15817814D01*
X12682586Y-15803529D01*
X12696871Y-15789243D01*
X12696871Y-15817814D01*
X12896871Y-15517814D02*
X12925443Y-15517814D01*
X12954014Y-15532100D01*
X12968300Y-15546386D01*
X12982585Y-15574957D01*
X12996871Y-15632100D01*
X12996871Y-15703529D01*
X12982585Y-15760671D01*
X12968300Y-15789243D01*
X12954014Y-15803529D01*
X12925443Y-15817814D01*
X12896871Y-15817814D01*
X12868300Y-15803529D01*
X12854014Y-15789243D01*
X12839728Y-15760671D01*
X12825443Y-15703529D01*
X12825443Y-15632100D01*
X12839728Y-15574957D01*
X12854014Y-15546386D01*
X12868300Y-15532100D01*
X12896871Y-15517814D01*
X13139728Y-15817814D02*
X13196871Y-15817814D01*
X13225443Y-15803529D01*
X13239728Y-15789243D01*
X13268300Y-15746386D01*
X13282585Y-15689243D01*
X13282585Y-15574957D01*
X13268300Y-15546386D01*
X13254014Y-15532100D01*
X13225443Y-15517814D01*
X13168300Y-15517814D01*
X13139728Y-15532100D01*
X13125443Y-15546386D01*
X13111157Y-15574957D01*
X13111157Y-15646386D01*
X13125443Y-15674957D01*
X13139728Y-15689243D01*
X13168300Y-15703529D01*
X13225443Y-15703529D01*
X13254014Y-15689243D01*
X13268300Y-15674957D01*
X13282585Y-15646386D01*
X13454014Y-15646386D02*
X13425443Y-15632100D01*
X13411157Y-15617814D01*
X13396871Y-15589243D01*
X13396871Y-15574957D01*
X13411157Y-15546386D01*
X13425443Y-15532100D01*
X13454014Y-15517814D01*
X13511157Y-15517814D01*
X13539728Y-15532100D01*
X13554014Y-15546386D01*
X13568300Y-15574957D01*
X13568300Y-15589243D01*
X13554014Y-15617814D01*
X13539728Y-15632100D01*
X13511157Y-15646386D01*
X13454014Y-15646386D01*
X13425443Y-15660671D01*
X13411157Y-15674957D01*
X13396871Y-15703529D01*
X13396871Y-15760671D01*
X13411157Y-15789243D01*
X13425443Y-15803529D01*
X13454014Y-15817814D01*
X13511157Y-15817814D01*
X13539728Y-15803529D01*
X13554014Y-15789243D01*
X13568300Y-15760671D01*
X13568300Y-15703529D01*
X13554014Y-15674957D01*
X13539728Y-15660671D01*
X13511157Y-15646386D01*
X13682586Y-15517814D02*
X13682586Y-15574957D01*
X13796871Y-15517814D02*
X13796871Y-15574957D01*
X14239728Y-15932100D02*
X14225443Y-15917814D01*
X14196871Y-15874957D01*
X14182585Y-15846386D01*
X14168300Y-15803529D01*
X14154014Y-15732100D01*
X14154014Y-15674957D01*
X14168300Y-15603529D01*
X14182585Y-15560671D01*
X14196871Y-15532100D01*
X14225443Y-15489243D01*
X14239728Y-15474957D01*
X14482585Y-15617814D02*
X14482585Y-15817814D01*
X14411157Y-15503529D02*
X14339728Y-15717814D01*
X14525443Y-15717814D01*
X14868300Y-15817814D02*
X14868300Y-15517814D01*
X14996871Y-15817814D02*
X14996871Y-15660671D01*
X14982585Y-15632100D01*
X14954014Y-15617814D01*
X14911157Y-15617814D01*
X14882585Y-15632100D01*
X14868300Y-15646386D01*
X15182585Y-15817814D02*
X15154014Y-15803529D01*
X15139728Y-15789243D01*
X15125443Y-15760671D01*
X15125443Y-15674957D01*
X15139728Y-15646386D01*
X15154014Y-15632100D01*
X15182585Y-15617814D01*
X15225443Y-15617814D01*
X15254014Y-15632100D01*
X15268300Y-15646386D01*
X15282585Y-15674957D01*
X15282585Y-15760671D01*
X15268300Y-15789243D01*
X15254014Y-15803529D01*
X15225443Y-15817814D01*
X15182585Y-15817814D01*
X15454014Y-15817814D02*
X15425443Y-15803529D01*
X15411157Y-15774957D01*
X15411157Y-15517814D01*
X15682586Y-15803529D02*
X15654014Y-15817814D01*
X15596871Y-15817814D01*
X15568300Y-15803529D01*
X15554014Y-15774957D01*
X15554014Y-15660671D01*
X15568300Y-15632100D01*
X15596871Y-15617814D01*
X15654014Y-15617814D01*
X15682586Y-15632100D01*
X15696871Y-15660671D01*
X15696871Y-15689243D01*
X15554014Y-15717814D01*
X15811157Y-15803529D02*
X15839728Y-15817814D01*
X15896871Y-15817814D01*
X15925443Y-15803529D01*
X15939728Y-15774957D01*
X15939728Y-15760671D01*
X15925443Y-15732100D01*
X15896871Y-15717814D01*
X15854014Y-15717814D01*
X15825443Y-15703529D01*
X15811157Y-15674957D01*
X15811157Y-15660671D01*
X15825443Y-15632100D01*
X15854014Y-15617814D01*
X15896871Y-15617814D01*
X15925443Y-15632100D01*
X16039728Y-15932100D02*
X16054014Y-15917814D01*
X16082586Y-15874957D01*
X16096871Y-15846386D01*
X16111157Y-15803529D01*
X16125443Y-15732100D01*
X16125443Y-15674957D01*
X16111157Y-15603529D01*
X16096871Y-15560671D01*
X16082586Y-15532100D01*
X16054014Y-15489243D01*
X16039728Y-15474957D01*
X9512652Y-16212452D02*
X9512652Y-15943748D01*
X9243948Y-15943748D01*
X9243948Y-16212452D01*
X9512652Y-16212452D01*
X9568300Y-16078100D02*
G75*
G03X9568300Y-16078100I-190000J0D01*
G01*
X9811157Y-15913814D02*
X9996871Y-15913814D01*
X9896871Y-16028100D01*
X9939729Y-16028100D01*
X9968300Y-16042386D01*
X9982586Y-16056671D01*
X9996871Y-16085243D01*
X9996871Y-16156671D01*
X9982586Y-16185243D01*
X9968300Y-16199529D01*
X9939729Y-16213814D01*
X9854014Y-16213814D01*
X9825443Y-16199529D01*
X9811157Y-16185243D01*
X10125443Y-16185243D02*
X10139729Y-16199529D01*
X10125443Y-16213814D01*
X10111157Y-16199529D01*
X10125443Y-16185243D01*
X10125443Y-16213814D01*
X10311157Y-16042386D02*
X10282586Y-16028100D01*
X10268300Y-16013814D01*
X10254014Y-15985243D01*
X10254014Y-15970957D01*
X10268300Y-15942386D01*
X10282586Y-15928100D01*
X10311157Y-15913814D01*
X10368300Y-15913814D01*
X10396871Y-15928100D01*
X10411157Y-15942386D01*
X10425443Y-15970957D01*
X10425443Y-15985243D01*
X10411157Y-16013814D01*
X10396871Y-16028100D01*
X10368300Y-16042386D01*
X10311157Y-16042386D01*
X10282586Y-16056671D01*
X10268300Y-16070957D01*
X10254014Y-16099529D01*
X10254014Y-16156671D01*
X10268300Y-16185243D01*
X10282586Y-16199529D01*
X10311157Y-16213814D01*
X10368300Y-16213814D01*
X10396871Y-16199529D01*
X10411157Y-16185243D01*
X10425443Y-16156671D01*
X10425443Y-16099529D01*
X10411157Y-16070957D01*
X10396871Y-16056671D01*
X10368300Y-16042386D01*
X10611157Y-15913814D02*
X10639729Y-15913814D01*
X10668300Y-15928100D01*
X10682586Y-15942386D01*
X10696871Y-15970957D01*
X10711157Y-16028100D01*
X10711157Y-16099529D01*
X10696871Y-16156671D01*
X10682586Y-16185243D01*
X10668300Y-16199529D01*
X10639729Y-16213814D01*
X10611157Y-16213814D01*
X10582586Y-16199529D01*
X10568300Y-16185243D01*
X10554014Y-16156671D01*
X10539729Y-16099529D01*
X10539729Y-16028100D01*
X10554014Y-15970957D01*
X10568300Y-15942386D01*
X10582586Y-15928100D01*
X10611157Y-15913814D01*
X10839729Y-16213814D02*
X10839729Y-16013814D01*
X10839729Y-16042386D02*
X10854014Y-16028100D01*
X10882586Y-16013814D01*
X10925443Y-16013814D01*
X10954014Y-16028100D01*
X10968300Y-16056671D01*
X10968300Y-16213814D01*
X10968300Y-16056671D02*
X10982586Y-16028100D01*
X11011157Y-16013814D01*
X11054014Y-16013814D01*
X11082586Y-16028100D01*
X11096871Y-16056671D01*
X11096871Y-16213814D01*
X11239728Y-16213814D02*
X11239728Y-16013814D01*
X11239728Y-16042386D02*
X11254014Y-16028100D01*
X11282586Y-16013814D01*
X11325443Y-16013814D01*
X11354014Y-16028100D01*
X11368300Y-16056671D01*
X11368300Y-16213814D01*
X11368300Y-16056671D02*
X11382586Y-16028100D01*
X11411157Y-16013814D01*
X11454014Y-16013814D01*
X11482586Y-16028100D01*
X11496871Y-16056671D01*
X11496871Y-16213814D01*
X12082586Y-15899529D02*
X11825443Y-16285243D01*
X12468300Y-15913814D02*
X12496871Y-15913814D01*
X12525443Y-15928100D01*
X12539728Y-15942386D01*
X12554014Y-15970957D01*
X12568300Y-16028100D01*
X12568300Y-16099529D01*
X12554014Y-16156671D01*
X12539728Y-16185243D01*
X12525443Y-16199529D01*
X12496871Y-16213814D01*
X12468300Y-16213814D01*
X12439728Y-16199529D01*
X12425443Y-16185243D01*
X12411157Y-16156671D01*
X12396871Y-16099529D01*
X12396871Y-16028100D01*
X12411157Y-15970957D01*
X12425443Y-15942386D01*
X12439728Y-15928100D01*
X12468300Y-15913814D01*
X12696871Y-16185243D02*
X12711157Y-16199529D01*
X12696871Y-16213814D01*
X12682586Y-16199529D01*
X12696871Y-16185243D01*
X12696871Y-16213814D01*
X12996871Y-16213814D02*
X12825443Y-16213814D01*
X12911157Y-16213814D02*
X12911157Y-15913814D01*
X12882585Y-15956671D01*
X12854014Y-15985243D01*
X12825443Y-15999529D01*
X13268300Y-15913814D02*
X13125443Y-15913814D01*
X13111157Y-16056671D01*
X13125443Y-16042386D01*
X13154014Y-16028100D01*
X13225443Y-16028100D01*
X13254014Y-16042386D01*
X13268300Y-16056671D01*
X13282585Y-16085243D01*
X13282585Y-16156671D01*
X13268300Y-16185243D01*
X13254014Y-16199529D01*
X13225443Y-16213814D01*
X13154014Y-16213814D01*
X13125443Y-16199529D01*
X13111157Y-16185243D01*
X13468300Y-15913814D02*
X13496871Y-15913814D01*
X13525443Y-15928100D01*
X13539728Y-15942386D01*
X13554014Y-15970957D01*
X13568300Y-16028100D01*
X13568300Y-16099529D01*
X13554014Y-16156671D01*
X13539728Y-16185243D01*
X13525443Y-16199529D01*
X13496871Y-16213814D01*
X13468300Y-16213814D01*
X13439728Y-16199529D01*
X13425443Y-16185243D01*
X13411157Y-16156671D01*
X13396871Y-16099529D01*
X13396871Y-16028100D01*
X13411157Y-15970957D01*
X13425443Y-15942386D01*
X13439728Y-15928100D01*
X13468300Y-15913814D01*
X13682586Y-15913814D02*
X13682586Y-15970957D01*
X13796871Y-15913814D02*
X13796871Y-15970957D01*
X14239728Y-16328100D02*
X14225443Y-16313814D01*
X14196871Y-16270957D01*
X14182585Y-16242386D01*
X14168300Y-16199529D01*
X14154014Y-16128100D01*
X14154014Y-16070957D01*
X14168300Y-15999529D01*
X14182585Y-15956671D01*
X14196871Y-15928100D01*
X14225443Y-15885243D01*
X14239728Y-15870957D01*
X14339728Y-15942386D02*
X14354014Y-15928100D01*
X14382585Y-15913814D01*
X14454014Y-15913814D01*
X14482585Y-15928100D01*
X14496871Y-15942386D01*
X14511157Y-15970957D01*
X14511157Y-15999529D01*
X14496871Y-16042386D01*
X14325443Y-16213814D01*
X14511157Y-16213814D01*
X14868300Y-16213814D02*
X14868300Y-15913814D01*
X14996871Y-16213814D02*
X14996871Y-16056671D01*
X14982585Y-16028100D01*
X14954014Y-16013814D01*
X14911157Y-16013814D01*
X14882585Y-16028100D01*
X14868300Y-16042386D01*
X15182585Y-16213814D02*
X15154014Y-16199529D01*
X15139728Y-16185243D01*
X15125443Y-16156671D01*
X15125443Y-16070957D01*
X15139728Y-16042386D01*
X15154014Y-16028100D01*
X15182585Y-16013814D01*
X15225443Y-16013814D01*
X15254014Y-16028100D01*
X15268300Y-16042386D01*
X15282585Y-16070957D01*
X15282585Y-16156671D01*
X15268300Y-16185243D01*
X15254014Y-16199529D01*
X15225443Y-16213814D01*
X15182585Y-16213814D01*
X15454014Y-16213814D02*
X15425443Y-16199529D01*
X15411157Y-16170957D01*
X15411157Y-15913814D01*
X15682586Y-16199529D02*
X15654014Y-16213814D01*
X15596871Y-16213814D01*
X15568300Y-16199529D01*
X15554014Y-16170957D01*
X15554014Y-16056671D01*
X15568300Y-16028100D01*
X15596871Y-16013814D01*
X15654014Y-16013814D01*
X15682586Y-16028100D01*
X15696871Y-16056671D01*
X15696871Y-16085243D01*
X15554014Y-16113814D01*
X15811157Y-16199529D02*
X15839728Y-16213814D01*
X15896871Y-16213814D01*
X15925443Y-16199529D01*
X15939728Y-16170957D01*
X15939728Y-16156671D01*
X15925443Y-16128100D01*
X15896871Y-16113814D01*
X15854014Y-16113814D01*
X15825443Y-16099529D01*
X15811157Y-16070957D01*
X15811157Y-16056671D01*
X15825443Y-16028100D01*
X15854014Y-16013814D01*
X15896871Y-16013814D01*
X15925443Y-16028100D01*
X16039728Y-16328100D02*
X16054014Y-16313814D01*
X16082586Y-16270957D01*
X16096871Y-16242386D01*
X16111157Y-16199529D01*
X16125443Y-16128100D01*
X16125443Y-16070957D01*
X16111157Y-15999529D01*
X16096871Y-15956671D01*
X16082586Y-15928100D01*
X16054014Y-15885243D01*
X16039728Y-15870957D01*
M02*
