G04 #@! TF.FileFunction,Copper,L1,Top,Signal*
%FSLAX46Y46*%
G04 Gerber Fmt 4.6, Leading zero omitted, Abs format (unit mm)*
G04 Created by KiCad (PCBNEW 4.0.6) date 11/30/17 16:48:59*
%MOMM*%
%LPD*%
G01*
G04 APERTURE LIST*
%ADD10C,0.300000*%
%ADD11C,2.000000*%
%ADD12C,3.000000*%
%ADD13C,1.700000*%
%ADD14C,4.500000*%
%ADD15O,2.540000X1.524000*%
%ADD16R,0.800100X0.800100*%
%ADD17R,1.500000X0.600000*%
%ADD18R,1.550000X0.600000*%
%ADD19C,1.200000*%
%ADD20R,1.300000X1.500000*%
%ADD21R,1.500000X1.300000*%
%ADD22R,1.500000X1.250000*%
%ADD23C,1.000760*%
%ADD24R,1.524000X3.524000*%
%ADD25O,0.899160X1.501140*%
%ADD26R,1.300000X1.300000*%
%ADD27C,1.300000*%
%ADD28O,1.500000X2.000000*%
%ADD29R,1.500000X2.000000*%
%ADD30C,0.889000*%
%ADD31C,0.381000*%
G04 APERTURE END LIST*
D10*
D11*
X193171981Y-99298019D03*
X189990000Y-102480000D03*
X188575786Y-94701825D03*
X185393806Y-97883806D03*
D12*
X177810160Y-77978000D03*
X185409840Y-77978000D03*
D13*
X139192000Y-86360000D03*
X141732000Y-86360000D03*
X144272000Y-86360000D03*
X146812000Y-86360000D03*
X149352000Y-86360000D03*
X151892000Y-86360000D03*
X151892000Y-71120000D03*
X149352000Y-71120000D03*
X146812000Y-71120000D03*
X144272000Y-71120000D03*
X141732000Y-71120000D03*
X139192000Y-71120000D03*
D14*
X126492000Y-108966000D03*
D15*
X121412000Y-106426000D03*
X121412000Y-103886000D03*
X121412000Y-101346000D03*
X121412000Y-93726000D03*
X121412000Y-96266000D03*
X121412000Y-98806000D03*
X121412000Y-88646000D03*
X121412000Y-86106000D03*
X121412000Y-83566000D03*
X121412000Y-78486000D03*
X121412000Y-75946000D03*
X169672000Y-106426000D03*
X169672000Y-103886000D03*
X169672000Y-101346000D03*
X169672000Y-98806000D03*
X169672000Y-96266000D03*
X169672000Y-93726000D03*
X169672000Y-91186000D03*
X169672000Y-88646000D03*
X169672000Y-84582000D03*
X169672000Y-82042000D03*
X169672000Y-79502000D03*
X169672000Y-76962000D03*
X169672000Y-74422000D03*
X169672000Y-71882000D03*
X169672000Y-69342000D03*
X169672000Y-66802000D03*
X121412000Y-81026000D03*
D14*
X154432000Y-108966000D03*
D16*
X141798000Y-91678760D03*
X143698000Y-91678760D03*
X142748000Y-89679780D03*
D17*
X155288000Y-74549000D03*
X155288000Y-75819000D03*
X155288000Y-77089000D03*
X155288000Y-78359000D03*
X155288000Y-79629000D03*
X155288000Y-80899000D03*
X155288000Y-82169000D03*
X155288000Y-83439000D03*
X160688000Y-83439000D03*
X160688000Y-82169000D03*
X160688000Y-80899000D03*
X160688000Y-79629000D03*
X160688000Y-78359000D03*
X160688000Y-77089000D03*
X160688000Y-75819000D03*
X160688000Y-74549000D03*
D18*
X105504000Y-81407000D03*
X105504000Y-82677000D03*
X105504000Y-83947000D03*
X105504000Y-85217000D03*
X110904000Y-85217000D03*
X110904000Y-83947000D03*
X110904000Y-82677000D03*
X110904000Y-81407000D03*
D16*
X128082000Y-91678760D03*
X129982000Y-91678760D03*
X129032000Y-89679780D03*
D19*
X142810000Y-107950000D03*
X144588000Y-107950000D03*
X148144000Y-107950000D03*
X146366000Y-107950000D03*
D20*
X124968000Y-93298000D03*
X124968000Y-90598000D03*
X116332000Y-85678000D03*
X116332000Y-82978000D03*
X147828000Y-96694000D03*
X147828000Y-99394000D03*
X145542000Y-96694000D03*
X145542000Y-99394000D03*
X143256000Y-96694000D03*
X143256000Y-99394000D03*
X174300000Y-71650000D03*
X174300000Y-68950000D03*
D21*
X130382000Y-93472000D03*
X127682000Y-93472000D03*
X144098000Y-93472000D03*
X141398000Y-93472000D03*
X149432000Y-93472000D03*
X146732000Y-93472000D03*
X163402000Y-93472000D03*
X160702000Y-93472000D03*
X132000000Y-86106000D03*
X134700000Y-86106000D03*
X132000000Y-83566000D03*
X134700000Y-83566000D03*
X132000000Y-81026000D03*
X134700000Y-81026000D03*
X132000000Y-78486000D03*
X134700000Y-78486000D03*
X132000000Y-75946000D03*
X134700000Y-75946000D03*
X132000000Y-73406000D03*
X134700000Y-73406000D03*
X132000000Y-70866000D03*
X134700000Y-70866000D03*
X160500000Y-71250000D03*
X157800000Y-71250000D03*
D20*
X150114000Y-99394000D03*
X150114000Y-96694000D03*
X175200000Y-87600000D03*
X175200000Y-84900000D03*
D21*
X130382000Y-103632000D03*
X127682000Y-103632000D03*
D20*
X166116000Y-93298000D03*
X166116000Y-90598000D03*
D22*
X97290000Y-80400000D03*
X99790000Y-80400000D03*
D23*
X110050700Y-77600000D03*
X111549300Y-77600000D03*
D24*
X110800000Y-72012000D03*
D16*
X161102000Y-101838760D03*
X163002000Y-101838760D03*
X162052000Y-99839780D03*
X128082000Y-101838760D03*
X129982000Y-101838760D03*
X129032000Y-99839780D03*
X190312000Y-87360760D03*
X192212000Y-87360760D03*
X191262000Y-85361780D03*
X161102000Y-91678760D03*
X163002000Y-91678760D03*
X162052000Y-89679780D03*
X147132000Y-91678760D03*
X149032000Y-91678760D03*
X148082000Y-89679780D03*
D25*
X114830000Y-71810000D03*
X113560000Y-71810000D03*
X116100000Y-71810000D03*
D26*
X114808000Y-76962000D03*
D27*
X114808000Y-79462000D03*
D21*
X97260000Y-82640000D03*
X99960000Y-82640000D03*
D28*
X144100000Y-65550000D03*
X141600000Y-65550000D03*
X139000000Y-65550000D03*
D29*
X136500000Y-65550000D03*
D28*
X146600000Y-65550000D03*
X149200000Y-65550000D03*
X151700000Y-65550000D03*
X154300000Y-65550000D03*
D21*
X182350000Y-64750000D03*
X179650000Y-64750000D03*
D20*
X164000000Y-73400000D03*
X164000000Y-70700000D03*
X166500000Y-73250000D03*
X166500000Y-70550000D03*
D21*
X177100000Y-69500000D03*
X179800000Y-69500000D03*
X160036500Y-63754000D03*
X157336500Y-63754000D03*
X160700000Y-103630000D03*
X163400000Y-103630000D03*
X134880000Y-103630000D03*
X137580000Y-103630000D03*
X153730000Y-103770000D03*
X156430000Y-103770000D03*
D20*
X140930000Y-99450000D03*
X140930000Y-96750000D03*
D11*
X138570000Y-101420000D03*
X134070000Y-101420000D03*
X138570000Y-94920000D03*
X134070000Y-94920000D03*
X157140000Y-101420000D03*
X152640000Y-101420000D03*
X157140000Y-94920000D03*
X152640000Y-94920000D03*
X115648019Y-94428019D03*
X118830000Y-97610000D03*
X111051825Y-99024214D03*
X114233806Y-102206194D03*
X180211981Y-98908019D03*
X177030000Y-102090000D03*
X175615786Y-94311825D03*
X172433806Y-97493806D03*
X109108019Y-100868019D03*
X112290000Y-104050000D03*
X104511825Y-105464214D03*
X107693806Y-108646194D03*
X186711981Y-105558019D03*
X183530000Y-108740000D03*
X182115786Y-100961825D03*
X178933806Y-104143806D03*
X102768019Y-94548019D03*
X105950000Y-97730000D03*
X98171825Y-99144214D03*
X101353806Y-102326194D03*
X109438019Y-88028019D03*
X112620000Y-91210000D03*
X104841825Y-92624214D03*
X108023806Y-95806194D03*
X186451981Y-92668019D03*
X183270000Y-95850000D03*
X181855786Y-88071825D03*
X178673806Y-91253806D03*
D21*
X134720000Y-92680000D03*
X137420000Y-92680000D03*
X153580000Y-92430000D03*
X156280000Y-92430000D03*
D10*
G36*
X112905305Y-93155457D02*
X113824543Y-94074695D01*
X112763883Y-95135355D01*
X111844645Y-94216117D01*
X112905305Y-93155457D01*
X112905305Y-93155457D01*
G37*
G36*
X110996117Y-95064645D02*
X111915355Y-95983883D01*
X110854695Y-97044543D01*
X109935457Y-96125305D01*
X110996117Y-95064645D01*
X110996117Y-95064645D01*
G37*
G36*
X177305457Y-94084695D02*
X178224695Y-93165457D01*
X179285355Y-94226117D01*
X178366117Y-95145355D01*
X177305457Y-94084695D01*
X177305457Y-94084695D01*
G37*
G36*
X179214645Y-95993883D02*
X180133883Y-95074645D01*
X181194543Y-96135305D01*
X180275305Y-97054543D01*
X179214645Y-95993883D01*
X179214645Y-95993883D01*
G37*
G36*
X106545305Y-99835457D02*
X107464543Y-100754695D01*
X106403883Y-101815355D01*
X105484645Y-100896117D01*
X106545305Y-99835457D01*
X106545305Y-99835457D01*
G37*
G36*
X104636117Y-101744645D02*
X105555355Y-102663883D01*
X104494695Y-103724543D01*
X103575457Y-102805305D01*
X104636117Y-101744645D01*
X104636117Y-101744645D01*
G37*
G36*
X183795457Y-100774695D02*
X184714695Y-99855457D01*
X185775355Y-100916117D01*
X184856117Y-101835355D01*
X183795457Y-100774695D01*
X183795457Y-100774695D01*
G37*
G36*
X185704645Y-102683883D02*
X186623883Y-101764645D01*
X187684543Y-102825305D01*
X186765305Y-103744543D01*
X185704645Y-102683883D01*
X185704645Y-102683883D01*
G37*
G36*
X99735305Y-93335457D02*
X100654543Y-94254695D01*
X99593883Y-95315355D01*
X98674645Y-94396117D01*
X99735305Y-93335457D01*
X99735305Y-93335457D01*
G37*
G36*
X97826117Y-95244645D02*
X98745355Y-96163883D01*
X97684695Y-97224543D01*
X96765457Y-96305305D01*
X97826117Y-95244645D01*
X97826117Y-95244645D01*
G37*
G36*
X190425457Y-93924695D02*
X191344695Y-93005457D01*
X192405355Y-94066117D01*
X191486117Y-94985355D01*
X190425457Y-93924695D01*
X190425457Y-93924695D01*
G37*
G36*
X192334645Y-95833883D02*
X193253883Y-94914645D01*
X194314543Y-95975305D01*
X193395305Y-96894543D01*
X192334645Y-95833883D01*
X192334645Y-95833883D01*
G37*
G36*
X106665305Y-86545457D02*
X107584543Y-87464695D01*
X106523883Y-88525355D01*
X105604645Y-87606117D01*
X106665305Y-86545457D01*
X106665305Y-86545457D01*
G37*
G36*
X104756117Y-88454645D02*
X105675355Y-89373883D01*
X104614695Y-90434543D01*
X103695457Y-89515305D01*
X104756117Y-88454645D01*
X104756117Y-88454645D01*
G37*
G36*
X183715457Y-87794695D02*
X184634695Y-86875457D01*
X185695355Y-87936117D01*
X184776117Y-88855355D01*
X183715457Y-87794695D01*
X183715457Y-87794695D01*
G37*
G36*
X185624645Y-89703883D02*
X186543883Y-88784645D01*
X187604543Y-89845305D01*
X186685305Y-90764543D01*
X185624645Y-89703883D01*
X185624645Y-89703883D01*
G37*
D28*
X118940000Y-67020000D03*
X116440000Y-67020000D03*
X113840000Y-67020000D03*
D29*
X111340000Y-67020000D03*
D14*
X125349000Y-65786000D03*
X165544500Y-65786000D03*
D11*
X107270127Y-68900591D03*
X102940000Y-66400591D03*
X102190127Y-77699409D03*
X104730127Y-73300000D03*
X97860000Y-75199409D03*
X100400000Y-70800000D03*
X189209873Y-77899409D03*
X193540000Y-75399409D03*
X184129873Y-69100591D03*
X186669873Y-73500000D03*
X188460000Y-66600591D03*
X191000000Y-71000000D03*
D30*
X191580000Y-78710000D03*
X140000000Y-105200000D03*
X158240000Y-76200000D03*
X158242000Y-103632000D03*
X153670000Y-98298000D03*
X164291000Y-78359000D03*
X129150000Y-83600000D03*
X129200000Y-86950000D03*
X155702000Y-85344000D03*
X150622000Y-91694000D03*
X136144000Y-94234000D03*
X133000000Y-91500000D03*
X164672000Y-90598000D03*
X145034000Y-91948000D03*
X116078000Y-81280000D03*
X106200000Y-80000000D03*
X100400000Y-78600000D03*
X160083500Y-65341500D03*
X125200000Y-89000000D03*
X125200000Y-81000000D03*
X162306000Y-82042000D03*
X162433000Y-74549000D03*
X153416000Y-83566000D03*
X153416000Y-89408000D03*
X132050000Y-87650000D03*
X132080000Y-92456000D03*
X157988000Y-88646000D03*
X156860000Y-80910000D03*
X179930000Y-102150000D03*
X176130000Y-90130000D03*
X131064000Y-96266000D03*
X130302000Y-79756000D03*
X189700000Y-92350000D03*
X157960000Y-78640000D03*
X159300000Y-87550000D03*
X167530000Y-87520000D03*
X170650000Y-86260000D03*
X188520000Y-84540000D03*
X127254000Y-82296000D03*
X127762000Y-77216000D03*
X118364000Y-82296000D03*
X118364000Y-89662000D03*
X157580000Y-77310000D03*
X183642000Y-86614000D03*
X164338000Y-80772000D03*
X159004000Y-84582000D03*
X163830000Y-84582000D03*
X180850000Y-80790000D03*
X108204000Y-85852000D03*
X107440000Y-74630000D03*
X160845500Y-73088500D03*
X156591000Y-67754500D03*
X160782000Y-99822000D03*
X160782000Y-106934000D03*
X131750000Y-107500000D03*
X128000000Y-78600000D03*
X130556000Y-99822000D03*
X136144000Y-99060000D03*
X149098000Y-105664000D03*
X149098000Y-101854000D03*
X140800000Y-106750000D03*
X130302000Y-82296000D03*
X130048000Y-97282000D03*
X133260000Y-103680000D03*
X151520000Y-105360000D03*
X166940000Y-104800000D03*
X164846000Y-101854000D03*
X164846000Y-96012000D03*
X163576000Y-89662000D03*
X163576000Y-86614000D03*
X137414000Y-88646000D03*
X136144000Y-89662000D03*
X133000000Y-90300000D03*
X165354000Y-103632000D03*
X165354000Y-107950000D03*
X159800000Y-107950000D03*
X133858000Y-69088000D03*
X153416000Y-74422000D03*
X141732000Y-73660000D03*
X149352000Y-75946000D03*
X146812000Y-78486000D03*
X144272000Y-81026000D03*
X141732000Y-83566000D03*
X163650000Y-75850000D03*
X154940000Y-98552000D03*
X145542000Y-94996000D03*
X174050000Y-91650000D03*
X171800000Y-70550000D03*
X181700000Y-71200000D03*
X141986000Y-101346000D03*
X144272000Y-101346000D03*
X146812000Y-101600000D03*
X107600000Y-72800000D03*
X109350000Y-83500000D03*
X127508000Y-84836000D03*
X103550000Y-69400000D03*
X107200000Y-84550000D03*
X123190000Y-87376000D03*
X123444000Y-93218000D03*
X125730000Y-98806000D03*
X126238000Y-77216000D03*
X119634000Y-73660000D03*
X165600000Y-84600000D03*
X165600000Y-77100000D03*
X167450000Y-81950000D03*
X171950000Y-73850000D03*
X187550000Y-71050000D03*
X174750000Y-101400000D03*
X187400000Y-86950000D03*
X126650000Y-105400000D03*
X170700000Y-64300000D03*
X162052000Y-64008000D03*
X176450000Y-66550000D03*
X171550000Y-75650000D03*
D31*
X97290000Y-80400000D02*
X97290000Y-75769409D01*
X97290000Y-75769409D02*
X97860000Y-75199409D01*
X97950000Y-75289409D02*
X97860000Y-75199409D01*
X181200000Y-67050000D02*
X188010591Y-67050000D01*
X188010591Y-67050000D02*
X188460000Y-66600591D01*
X174150000Y-65250000D02*
X177300000Y-65250000D01*
X177300000Y-65250000D02*
X179100000Y-67050000D01*
X179100000Y-67050000D02*
X181200000Y-67050000D01*
X181200000Y-67050000D02*
X181250000Y-67050000D01*
X174150000Y-65250000D02*
X170058000Y-69342000D01*
X158571998Y-68071998D02*
X163385498Y-68071998D01*
X158571998Y-68071998D02*
X156850000Y-66350000D01*
X156050000Y-65550000D02*
X156850000Y-66350000D01*
X154300000Y-65550000D02*
X156050000Y-65550000D01*
X164020500Y-68707000D02*
X169037000Y-68707000D01*
X163385498Y-68071998D02*
X164020500Y-68707000D01*
X169037000Y-68707000D02*
X169672000Y-69342000D01*
X169672000Y-69342000D02*
X167767000Y-69342000D01*
X127682000Y-105232000D02*
X127682000Y-105432000D01*
X127682000Y-105232000D02*
X127682000Y-103632000D01*
X138700000Y-106500000D02*
X140000000Y-105200000D01*
X128750000Y-106500000D02*
X138700000Y-106500000D01*
X127682000Y-105432000D02*
X128750000Y-106500000D01*
X159219000Y-78359000D02*
X160688000Y-78359000D01*
X158950000Y-78090000D02*
X159219000Y-78359000D01*
X158950000Y-76910000D02*
X158950000Y-78090000D01*
X158240000Y-76200000D02*
X158950000Y-76910000D01*
X151050000Y-96694000D02*
X150114000Y-96694000D01*
X152654000Y-98298000D02*
X153670000Y-98298000D01*
X151050000Y-96694000D02*
X152654000Y-98298000D01*
X167792000Y-69342000D02*
X169672000Y-69342000D01*
X164291000Y-78359000D02*
X164300000Y-78350000D01*
X160688000Y-78359000D02*
X164291000Y-78359000D01*
X169672000Y-69342000D02*
X170058000Y-69342000D01*
X169672000Y-69342000D02*
X170292000Y-69342000D01*
X133000000Y-91500000D02*
X133500000Y-91500000D01*
X129150000Y-83600000D02*
X128834000Y-83566000D01*
X129200000Y-87700000D02*
X129200000Y-86950000D01*
X130150000Y-88650000D02*
X129200000Y-87700000D01*
X133050000Y-88650000D02*
X130150000Y-88650000D01*
X134050000Y-89650000D02*
X133050000Y-88650000D01*
X134050000Y-90950000D02*
X134050000Y-89650000D01*
X133500000Y-91500000D02*
X134050000Y-90950000D01*
X155288000Y-83439000D02*
X155288000Y-84168000D01*
X155288000Y-84168000D02*
X155702000Y-84582000D01*
X155702000Y-84582000D02*
X155702000Y-85344000D01*
X149032000Y-91678760D02*
X150606760Y-91678760D01*
X150606760Y-91678760D02*
X150622000Y-91694000D01*
X131300000Y-91500000D02*
X133000000Y-91500000D01*
X130571240Y-91678760D02*
X131300000Y-91500000D01*
X129982000Y-91678760D02*
X130571240Y-91678760D01*
X166116000Y-90598000D02*
X164672000Y-90598000D01*
X144764760Y-91678760D02*
X145034000Y-91948000D01*
X143698000Y-91678760D02*
X144764760Y-91678760D01*
X150114000Y-96694000D02*
X149780000Y-96694000D01*
X149780000Y-96694000D02*
X149098000Y-96012000D01*
X149098000Y-96012000D02*
X149098000Y-95250000D01*
X149098000Y-95250000D02*
X148082000Y-94234000D01*
X148605240Y-91678760D02*
X148082000Y-92202000D01*
X148082000Y-92202000D02*
X148082000Y-94234000D01*
X148605240Y-91678760D02*
X149032000Y-91678760D01*
X163002000Y-91678760D02*
X163591240Y-91678760D01*
X163591240Y-91678760D02*
X164672000Y-90598000D01*
X111340000Y-67020000D02*
X111340000Y-65530000D01*
X117210000Y-71690000D02*
X117990000Y-70910000D01*
X120200000Y-68700000D02*
X117990000Y-70910000D01*
X117210000Y-71690000D02*
X116090000Y-71690000D01*
X121010000Y-67890000D02*
X120200000Y-68700000D01*
X121010000Y-66110000D02*
X121010000Y-67890000D01*
X119520000Y-64620000D02*
X121010000Y-66110000D01*
X112250000Y-64620000D02*
X119520000Y-64620000D01*
X111340000Y-65530000D02*
X112250000Y-64620000D01*
X99790000Y-80400000D02*
X99790000Y-79210000D01*
X99790000Y-79210000D02*
X100400000Y-78600000D01*
X110904000Y-80704000D02*
X110200000Y-80000000D01*
X110200000Y-80000000D02*
X106200000Y-80000000D01*
X110904000Y-81407000D02*
X110904000Y-80704000D01*
X100400000Y-78600000D02*
X100450000Y-78650000D01*
X160036500Y-63754000D02*
X160036500Y-65294500D01*
X160036500Y-65294500D02*
X160083500Y-65341500D01*
X125200000Y-90366000D02*
X125200000Y-89600000D01*
X125200000Y-89000000D02*
X125200000Y-89600000D01*
X125200000Y-81000000D02*
X121412000Y-81026000D01*
X125200000Y-90366000D02*
X124968000Y-90598000D01*
X116332000Y-82978000D02*
X116332000Y-81534000D01*
X116332000Y-81534000D02*
X116078000Y-81280000D01*
X116078000Y-81280000D02*
X116078000Y-81534000D01*
X116078000Y-81534000D02*
X115697000Y-81915000D01*
X115570000Y-81407000D02*
X115189000Y-81407000D01*
X115189000Y-81407000D02*
X115697000Y-81915000D01*
X116078000Y-81280000D02*
X116078000Y-82724000D01*
X116078000Y-82724000D02*
X116332000Y-82978000D01*
X115570000Y-81407000D02*
X115570000Y-82216000D01*
X115570000Y-82216000D02*
X116332000Y-82978000D01*
X116332000Y-81534000D02*
X116078000Y-81280000D01*
X121412000Y-81026000D02*
X117602000Y-81026000D01*
X117348000Y-81280000D02*
X116078000Y-81280000D01*
X117602000Y-81026000D02*
X117348000Y-81280000D01*
X115951000Y-81407000D02*
X115570000Y-81407000D01*
X116078000Y-81280000D02*
X115951000Y-81407000D01*
X114761000Y-81407000D02*
X116332000Y-82978000D01*
X114761000Y-81407000D02*
X110904000Y-81407000D01*
X162179000Y-82169000D02*
X160688000Y-82169000D01*
X162306000Y-82042000D02*
X162179000Y-82169000D01*
X160561000Y-74422000D02*
X160688000Y-74549000D01*
X160688000Y-82169000D02*
X160147000Y-82169000D01*
X160688000Y-74549000D02*
X160147000Y-74549000D01*
X160688000Y-74549000D02*
X162433000Y-74549000D01*
X185409840Y-77978000D02*
X185409840Y-79509620D01*
X185409840Y-79509620D02*
X190246000Y-84345780D01*
X191262000Y-85361780D02*
X191262000Y-85344000D01*
X191262000Y-85344000D02*
X190246000Y-84328000D01*
X190246000Y-84328000D02*
X190246000Y-84345780D01*
X190246000Y-84345780D02*
X191008000Y-85107780D01*
X137494000Y-93982000D02*
X138358000Y-94846000D01*
X137494000Y-92456000D02*
X137494000Y-93982000D01*
X138430000Y-87884000D02*
X151892000Y-87884000D01*
X151892000Y-87884000D02*
X153416000Y-89408000D01*
X138176000Y-87630000D02*
X138430000Y-87884000D01*
X136144000Y-87630000D02*
X138176000Y-87630000D01*
X134794000Y-88980000D02*
X136144000Y-87630000D01*
X134794000Y-88980000D02*
X134794000Y-92456000D01*
X153590000Y-92456000D02*
X153590000Y-89582000D01*
X153590000Y-89582000D02*
X153416000Y-89408000D01*
X153416000Y-83566000D02*
X154813000Y-82169000D01*
X132080000Y-92456000D02*
X134794000Y-92456000D01*
X131970000Y-87570000D02*
X132050000Y-87650000D01*
X132000000Y-86106000D02*
X131970000Y-87570000D01*
X155288000Y-82169000D02*
X154813000Y-82169000D01*
X156290000Y-92456000D02*
X156290000Y-93982000D01*
X156290000Y-93982000D02*
X157154000Y-94846000D01*
X111059406Y-98915795D02*
X111093825Y-98950214D01*
X111059406Y-95950594D02*
X111059406Y-98915795D01*
X166878000Y-88646000D02*
X157988000Y-88646000D01*
X174244000Y-89916000D02*
X168148000Y-89916000D01*
X178623406Y-94295406D02*
X174244000Y-89916000D01*
X166878000Y-88646000D02*
X168148000Y-89916000D01*
X156849000Y-80899000D02*
X155288000Y-80899000D01*
X156860000Y-80910000D02*
X156849000Y-80899000D01*
X132000000Y-83566000D02*
X132000000Y-83650000D01*
X132000000Y-83650000D02*
X130200000Y-85450000D01*
X115062000Y-91948000D02*
X112968594Y-94041406D01*
X120650000Y-91948000D02*
X124714000Y-87884000D01*
X125984000Y-87884000D02*
X124714000Y-87884000D01*
X115062000Y-91948000D02*
X120650000Y-91948000D01*
X126216000Y-87884000D02*
X125984000Y-87884000D01*
X128650000Y-85450000D02*
X126216000Y-87884000D01*
X130200000Y-85450000D02*
X128650000Y-85450000D01*
X150622000Y-84836000D02*
X133270000Y-84836000D01*
X154559000Y-80899000D02*
X150622000Y-84836000D01*
X133270000Y-84836000D02*
X132000000Y-83566000D01*
X155288000Y-80899000D02*
X154559000Y-80899000D01*
X180278594Y-95950594D02*
X180278594Y-98867406D01*
X180278594Y-98867406D02*
X180219981Y-98926019D01*
X180532594Y-98613406D02*
X180219981Y-98926019D01*
X104455406Y-105519795D02*
X104489825Y-105554214D01*
X104455406Y-102554594D02*
X104455406Y-105519795D01*
X173730000Y-89150000D02*
X175150000Y-89150000D01*
X182530812Y-103100000D02*
X184785406Y-100845406D01*
X180880000Y-103100000D02*
X182530812Y-103100000D01*
X179930000Y-102150000D02*
X180880000Y-103100000D01*
X175150000Y-89150000D02*
X176130000Y-90130000D01*
X155288000Y-79629000D02*
X157309000Y-79629000D01*
X171750000Y-87170000D02*
X173730000Y-89150000D01*
X173730000Y-89150000D02*
X173740000Y-89160000D01*
X168810000Y-87170000D02*
X171750000Y-87170000D01*
X167220000Y-85580000D02*
X168810000Y-87170000D01*
X158280000Y-85580000D02*
X167220000Y-85580000D01*
X157750000Y-85050000D02*
X158280000Y-85580000D01*
X157750000Y-80070000D02*
X157750000Y-85050000D01*
X157309000Y-79629000D02*
X157750000Y-80070000D01*
X126746000Y-94996000D02*
X118110000Y-94996000D01*
X118110000Y-94996000D02*
X110236000Y-102870000D01*
X108458000Y-102870000D02*
X110236000Y-102870000D01*
X106364594Y-100776594D02*
X108458000Y-102870000D01*
X128016000Y-96266000D02*
X131064000Y-96266000D01*
X126746000Y-94996000D02*
X128016000Y-96266000D01*
X106364594Y-100645406D02*
X106364594Y-100776594D01*
X132000000Y-81026000D02*
X130556000Y-81026000D01*
X130302000Y-80772000D02*
X130302000Y-79756000D01*
X130556000Y-81026000D02*
X130302000Y-80772000D01*
X154305000Y-79629000D02*
X151638000Y-82296000D01*
X155288000Y-79629000D02*
X154305000Y-79629000D01*
X133270000Y-82296000D02*
X132000000Y-81026000D01*
X151638000Y-82296000D02*
X133270000Y-82296000D01*
X186694594Y-102754594D02*
X186694594Y-105540632D01*
X186694594Y-105540632D02*
X186711981Y-105558019D01*
X186882594Y-105471406D02*
X186823981Y-105530019D01*
X97851406Y-98915795D02*
X98139825Y-99204214D01*
X97851406Y-96458594D02*
X97851406Y-98915795D01*
X191345406Y-93995406D02*
X191415406Y-93995406D01*
X189700000Y-92350000D02*
X191345406Y-93995406D01*
X157679000Y-78359000D02*
X157960000Y-78640000D01*
X159300000Y-87550000D02*
X159330000Y-87520000D01*
X159330000Y-87520000D02*
X167530000Y-87520000D01*
X170650000Y-86260000D02*
X177850000Y-86260000D01*
X177850000Y-86260000D02*
X179570000Y-84540000D01*
X179570000Y-84540000D02*
X188520000Y-84540000D01*
X155288000Y-78359000D02*
X157679000Y-78359000D01*
X191484594Y-93995406D02*
X191415406Y-93995406D01*
X127762000Y-77216000D02*
X130048000Y-77216000D01*
X131318000Y-78486000D02*
X130048000Y-77216000D01*
X102108000Y-96774000D02*
X104140000Y-96774000D01*
X102108000Y-96774000D02*
X99883406Y-94549406D01*
X111252000Y-89662000D02*
X104140000Y-96774000D01*
X111252000Y-89662000D02*
X118364000Y-89662000D01*
X118364000Y-82296000D02*
X127254000Y-82296000D01*
X131318000Y-78486000D02*
X132000000Y-78486000D01*
X99760594Y-94549406D02*
X99883406Y-94549406D01*
X155288000Y-78359000D02*
X153797000Y-78359000D01*
X133270000Y-79756000D02*
X132000000Y-78486000D01*
X152400000Y-79756000D02*
X133270000Y-79756000D01*
X153797000Y-78359000D02*
X152400000Y-79756000D01*
X193324594Y-95904594D02*
X193324594Y-99145406D01*
X193324594Y-99145406D02*
X193171981Y-99298019D01*
X193232594Y-99121406D02*
X193173981Y-99180019D01*
X193486594Y-98867406D02*
X193173981Y-99180019D01*
X193232594Y-99121406D02*
X193173981Y-99180019D01*
X104709406Y-92565795D02*
X104743825Y-92600214D01*
X104709406Y-89600594D02*
X104709406Y-92565795D01*
X157359000Y-77089000D02*
X157580000Y-77310000D01*
X184973406Y-87945406D02*
X183642000Y-86614000D01*
X164338000Y-80772000D02*
X180850000Y-80790000D01*
X159004000Y-84582000D02*
X163830000Y-84582000D01*
X157359000Y-77089000D02*
X155288000Y-77089000D01*
X106618594Y-87437406D02*
X108204000Y-85852000D01*
X130730000Y-74676000D02*
X132000000Y-75946000D01*
X112522000Y-74676000D02*
X130730000Y-74676000D01*
X107486000Y-74676000D02*
X112522000Y-74676000D01*
X107440000Y-74630000D02*
X107486000Y-74676000D01*
X106618594Y-87691406D02*
X106618594Y-87437406D01*
X155288000Y-77089000D02*
X133143000Y-77089000D01*
X133143000Y-77089000D02*
X132000000Y-75946000D01*
X186628594Y-89600594D02*
X186628594Y-92517406D01*
X186628594Y-92517406D02*
X186569981Y-92576019D01*
X133900000Y-63800000D02*
X130094000Y-63800000D01*
X102740000Y-66800591D02*
X105740591Y-63800000D01*
X147600000Y-63800000D02*
X149200000Y-65400000D01*
X147600000Y-63800000D02*
X133900000Y-63800000D01*
X106993091Y-62547500D02*
X105740591Y-63800000D01*
X128841500Y-62547500D02*
X106993091Y-62547500D01*
X130094000Y-63800000D02*
X128841500Y-62547500D01*
X149200000Y-65550000D02*
X149200000Y-67094500D01*
X176659091Y-75499409D02*
X190149409Y-75499409D01*
X173926500Y-78232000D02*
X176659091Y-75499409D01*
X168084500Y-78232000D02*
X173926500Y-78232000D01*
X165290500Y-75438000D02*
X168084500Y-78232000D01*
X165290500Y-72453500D02*
X165290500Y-75438000D01*
X164846000Y-72009000D02*
X165290500Y-72453500D01*
X161925000Y-72009000D02*
X164846000Y-72009000D01*
X160845500Y-73088500D02*
X161925000Y-72009000D01*
X149860000Y-67754500D02*
X156591000Y-67754500D01*
X149200000Y-67094500D02*
X149860000Y-67754500D01*
X131750000Y-107500000D02*
X139500000Y-107500000D01*
X160799780Y-99839780D02*
X160782000Y-99822000D01*
X152908000Y-106172000D02*
X159004000Y-106172000D01*
X152908000Y-106172000D02*
X149860000Y-109220000D01*
X159766000Y-106934000D02*
X160782000Y-106934000D01*
X159004000Y-106172000D02*
X159766000Y-106934000D01*
X162052000Y-99839780D02*
X160799780Y-99839780D01*
X141220000Y-109220000D02*
X149860000Y-109220000D01*
X139500000Y-107500000D02*
X141220000Y-109220000D01*
X149200000Y-65550000D02*
X149200000Y-65300000D01*
X190149409Y-75499409D02*
X193490000Y-75499409D01*
X193548000Y-75519409D02*
X192613409Y-75519409D01*
X127886000Y-78486000D02*
X128000000Y-78600000D01*
X126746000Y-78486000D02*
X121412000Y-78486000D01*
X126746000Y-78486000D02*
X127886000Y-78486000D01*
X149200000Y-65550000D02*
X149200000Y-65400000D01*
X129032000Y-99839780D02*
X130538220Y-99839780D01*
X130538220Y-99839780D02*
X130556000Y-99822000D01*
X121412000Y-78486000D02*
X116332000Y-78486000D01*
X116332000Y-78486000D02*
X114808000Y-76962000D01*
X149098000Y-105664000D02*
X149098000Y-105852000D01*
X136144000Y-99060000D02*
X135890000Y-98806000D01*
X135890000Y-98806000D02*
X134112000Y-98806000D01*
X150114000Y-99394000D02*
X150114000Y-100838000D01*
X150114000Y-100838000D02*
X149098000Y-101854000D01*
X132588000Y-97282000D02*
X134112000Y-98806000D01*
X132588000Y-97282000D02*
X130048000Y-97282000D01*
X148200000Y-106750000D02*
X140800000Y-106750000D01*
X149098000Y-105852000D02*
X148200000Y-106750000D01*
X120142000Y-79756000D02*
X125984000Y-79756000D01*
X119848000Y-79462000D02*
X120142000Y-79756000D01*
X114808000Y-79462000D02*
X119848000Y-79462000D01*
X125984000Y-79756000D02*
X128524000Y-82296000D01*
X128524000Y-82296000D02*
X130302000Y-82296000D01*
X130048000Y-97282000D02*
X127508000Y-97282000D01*
X121412000Y-96266000D02*
X126492000Y-96266000D01*
X126492000Y-96266000D02*
X127508000Y-97282000D01*
X130430000Y-103680000D02*
X133260000Y-103680000D01*
X130430000Y-103680000D02*
X130382000Y-103632000D01*
X165180000Y-105330000D02*
X166410000Y-105330000D01*
X151520000Y-105360000D02*
X151550000Y-105330000D01*
X151550000Y-105330000D02*
X165180000Y-105330000D01*
X166410000Y-105330000D02*
X166940000Y-104800000D01*
X129982000Y-101838760D02*
X129982000Y-103232000D01*
X129982000Y-103232000D02*
X130382000Y-103632000D01*
X160702000Y-103886000D02*
X160702000Y-102492760D01*
X160702000Y-102492760D02*
X161102000Y-102092760D01*
X166116000Y-93298000D02*
X166116000Y-93366000D01*
X163002000Y-101838760D02*
X164830760Y-101838760D01*
X164830760Y-101838760D02*
X164846000Y-101854000D01*
X164846000Y-93980000D02*
X165528000Y-93298000D01*
X164846000Y-93980000D02*
X164846000Y-96012000D01*
X166116000Y-93298000D02*
X165528000Y-93298000D01*
X166116000Y-93298000D02*
X165782000Y-93298000D01*
X166116000Y-93298000D02*
X166450000Y-93298000D01*
X169672000Y-74422000D02*
X169418000Y-74422000D01*
X132762000Y-105664000D02*
X134794000Y-103632000D01*
X130048000Y-105664000D02*
X132762000Y-105664000D01*
X128254760Y-101838760D02*
X129032000Y-102616000D01*
X128082000Y-101838760D02*
X128254760Y-101838760D01*
X129032000Y-102616000D02*
X129032000Y-104648000D01*
X129032000Y-104648000D02*
X130048000Y-105664000D01*
X175200000Y-87600000D02*
X179600000Y-87600000D01*
X190312000Y-86934000D02*
X190312000Y-87360760D01*
X190312000Y-86934000D02*
X189056000Y-85678000D01*
X181522000Y-85678000D02*
X189056000Y-85678000D01*
X179600000Y-87600000D02*
X181522000Y-85678000D01*
X160702000Y-93472000D02*
X160702000Y-92078760D01*
X160702000Y-92078760D02*
X161102000Y-91678760D01*
X163576000Y-89662000D02*
X163558220Y-89679780D01*
X162052000Y-89679780D02*
X163558220Y-89679780D01*
X163322000Y-86360000D02*
X151892000Y-86360000D01*
X163322000Y-86360000D02*
X163576000Y-86614000D01*
X146732000Y-93472000D02*
X146732000Y-92078760D01*
X146732000Y-92078760D02*
X147132000Y-91678760D01*
X147320000Y-88646000D02*
X137414000Y-88646000D01*
X147320000Y-88646000D02*
X148082000Y-89408000D01*
X148082000Y-89679780D02*
X148082000Y-89408000D01*
X141398000Y-93472000D02*
X141398000Y-92078760D01*
X141398000Y-92078760D02*
X141798000Y-91678760D01*
X136161780Y-89679780D02*
X136144000Y-89662000D01*
X142748000Y-89679780D02*
X136161780Y-89679780D01*
X127682000Y-93472000D02*
X127682000Y-92078760D01*
X127682000Y-92078760D02*
X128082000Y-91678760D01*
X133000000Y-90300000D02*
X129750000Y-90300000D01*
X129750000Y-90300000D02*
X129032000Y-89679780D01*
X133000000Y-90300000D02*
X132982220Y-90317780D01*
X186690000Y-100838000D02*
X186690000Y-99060000D01*
X183412194Y-104115806D02*
X186690000Y-100838000D01*
X179045806Y-104115806D02*
X183412194Y-104115806D01*
X186690000Y-99060000D02*
X185395806Y-97765806D01*
X153336000Y-103632000D02*
X152654000Y-102950000D01*
X153336000Y-103632000D02*
X152654000Y-102950000D01*
X153590000Y-103632000D02*
X153336000Y-103632000D01*
X152654000Y-101600000D02*
X152654000Y-102950000D01*
X163402000Y-103632000D02*
X165354000Y-103632000D01*
X165354000Y-103632000D02*
X166370000Y-103632000D01*
X166370000Y-103632000D02*
X167386000Y-102616000D01*
X159800000Y-107950000D02*
X165354000Y-107950000D01*
X167386000Y-102616000D02*
X176530000Y-102616000D01*
X176530000Y-102616000D02*
X177038000Y-102108000D01*
X135208000Y-101346000D02*
X137494000Y-103632000D01*
X140208000Y-103632000D02*
X137494000Y-103632000D01*
X140970000Y-102870000D02*
X140208000Y-103632000D01*
X140970000Y-99394000D02*
X140970000Y-102870000D01*
X112268000Y-104140000D02*
X107950000Y-104140000D01*
X107950000Y-104140000D02*
X104902000Y-101092000D01*
X105918000Y-97790000D02*
X105918000Y-98552000D01*
X105918000Y-98552000D02*
X104902000Y-99568000D01*
X104902000Y-99568000D02*
X104902000Y-101092000D01*
X127000000Y-98552000D02*
X131064000Y-98552000D01*
X125984000Y-97536000D02*
X127000000Y-98552000D01*
X118872000Y-97536000D02*
X125984000Y-97536000D01*
X131064000Y-98552000D02*
X133858000Y-101346000D01*
X133858000Y-101346000D02*
X135208000Y-101346000D01*
X175200000Y-84900000D02*
X175200000Y-83680000D01*
X173562000Y-82042000D02*
X169672000Y-82042000D01*
X173562000Y-82042000D02*
X174498000Y-82978000D01*
X175200000Y-83680000D02*
X174498000Y-82978000D01*
X160500000Y-71250000D02*
X160500000Y-71350000D01*
X160500000Y-71350000D02*
X159004000Y-72846000D01*
X159004000Y-72846000D02*
X159004000Y-73914000D01*
X160688000Y-75819000D02*
X159639000Y-75819000D01*
X159004000Y-75184000D02*
X159004000Y-73914000D01*
X159639000Y-75819000D02*
X159004000Y-75184000D01*
X151892000Y-71120000D02*
X157670000Y-71120000D01*
X157670000Y-71120000D02*
X157800000Y-71250000D01*
X132000000Y-70866000D02*
X132080000Y-70866000D01*
X132080000Y-70866000D02*
X133858000Y-69088000D01*
X153543000Y-74549000D02*
X155288000Y-74549000D01*
X153416000Y-74422000D02*
X153543000Y-74549000D01*
X137414000Y-72644000D02*
X142748000Y-72644000D01*
X134700000Y-70866000D02*
X135636000Y-70866000D01*
X135636000Y-70866000D02*
X137414000Y-72644000D01*
X142748000Y-72644000D02*
X144272000Y-71120000D01*
X134954000Y-73660000D02*
X141732000Y-73660000D01*
X134954000Y-73660000D02*
X134700000Y-73406000D01*
X134700000Y-75946000D02*
X149352000Y-75946000D01*
X134700000Y-78486000D02*
X146812000Y-78486000D01*
X134700000Y-81026000D02*
X144272000Y-81026000D01*
X134700000Y-83566000D02*
X141732000Y-83566000D01*
X134700000Y-86106000D02*
X138938000Y-86106000D01*
X138938000Y-86106000D02*
X139192000Y-86360000D01*
X164846000Y-91948000D02*
X167894000Y-91948000D01*
X163402000Y-93392000D02*
X164846000Y-91948000D01*
X167894000Y-91948000D02*
X169672000Y-93726000D01*
X163402000Y-93472000D02*
X163402000Y-93392000D01*
X151638000Y-92964000D02*
X151130000Y-93472000D01*
X151638000Y-91440000D02*
X151638000Y-92964000D01*
X150876000Y-90678000D02*
X151638000Y-91440000D01*
X150876000Y-95250000D02*
X150876000Y-93726000D01*
X152908000Y-97282000D02*
X150876000Y-95250000D01*
X167132000Y-97282000D02*
X152908000Y-97282000D01*
X150876000Y-93726000D02*
X151130000Y-93472000D01*
X143256000Y-90678000D02*
X150876000Y-90678000D01*
X142748000Y-94996000D02*
X142748000Y-91186000D01*
X143256000Y-95504000D02*
X142748000Y-94996000D01*
X142748000Y-91186000D02*
X143256000Y-90678000D01*
X168148000Y-96266000D02*
X167132000Y-97282000D01*
X143256000Y-96694000D02*
X143256000Y-95504000D01*
X151130000Y-93472000D02*
X149432000Y-93472000D01*
X168148000Y-96266000D02*
X169672000Y-96266000D01*
X149432000Y-93472000D02*
X149098000Y-93472000D01*
X164084000Y-74502000D02*
X164084000Y-73484000D01*
X164084000Y-73484000D02*
X164000000Y-73400000D01*
X164100000Y-75300000D02*
X164084000Y-74502000D01*
X163650000Y-75850000D02*
X164100000Y-75300000D01*
X145542000Y-94996000D02*
X145542000Y-94916000D01*
X155194000Y-98806000D02*
X154940000Y-98552000D01*
X169672000Y-98806000D02*
X155194000Y-98806000D01*
X145542000Y-96694000D02*
X145542000Y-94996000D01*
X145542000Y-94916000D02*
X144098000Y-93472000D01*
X172754000Y-101346000D02*
X175150000Y-98950000D01*
X175150000Y-98950000D02*
X175150000Y-96950000D01*
X175150000Y-96950000D02*
X173300000Y-95100000D01*
X173300000Y-95100000D02*
X173300000Y-92400000D01*
X173300000Y-92400000D02*
X174050000Y-91650000D01*
X169672000Y-101346000D02*
X172754000Y-101346000D01*
X167600000Y-72150000D02*
X166500000Y-73250000D01*
X167600000Y-71400000D02*
X167600000Y-72150000D01*
X168400000Y-70600000D02*
X167600000Y-71400000D01*
X171750000Y-70600000D02*
X168400000Y-70600000D01*
X171800000Y-70550000D02*
X171750000Y-70600000D01*
X169164000Y-100838000D02*
X159766000Y-100838000D01*
X151384000Y-98044000D02*
X148336000Y-98044000D01*
X151384000Y-98044000D02*
X152908000Y-99568000D01*
X152908000Y-99568000D02*
X158496000Y-99568000D01*
X159766000Y-100838000D02*
X158496000Y-99568000D01*
X169164000Y-100838000D02*
X169672000Y-101346000D01*
X134954000Y-98044000D02*
X130382000Y-93472000D01*
X134954000Y-98044000D02*
X147320000Y-98044000D01*
X147828000Y-98044000D02*
X147828000Y-96694000D01*
X147574000Y-98044000D02*
X147574000Y-97790000D01*
X147574000Y-97790000D02*
X147828000Y-97536000D01*
X147320000Y-98044000D02*
X147574000Y-98044000D01*
X147574000Y-98044000D02*
X147828000Y-98044000D01*
X147828000Y-98044000D02*
X148336000Y-98044000D01*
X148336000Y-98044000D02*
X147828000Y-97536000D01*
X147828000Y-97536000D02*
X147828000Y-96694000D01*
X147828000Y-97536000D02*
X147320000Y-98044000D01*
X147828000Y-96694000D02*
X147828000Y-97536000D01*
X174300000Y-68950000D02*
X174500000Y-68950000D01*
X174500000Y-68950000D02*
X175800000Y-70250000D01*
X175800000Y-70250000D02*
X175800000Y-71200000D01*
X175800000Y-71200000D02*
X176550000Y-71950000D01*
X176550000Y-71950000D02*
X180950000Y-71950000D01*
X180950000Y-71950000D02*
X181700000Y-71200000D01*
X181700000Y-71200000D02*
X181450000Y-71450000D01*
X157146000Y-63944500D02*
X156320500Y-63944500D01*
X152781000Y-64019000D02*
X151700000Y-65100000D01*
X152855500Y-63944500D02*
X152781000Y-63944500D01*
X152781000Y-63944500D02*
X152781000Y-64019000D01*
X156320500Y-63944500D02*
X152855500Y-63944500D01*
X157146000Y-63944500D02*
X157336500Y-63754000D01*
X151700000Y-65550000D02*
X151700000Y-65100000D01*
X151700000Y-65550000D02*
X151700000Y-65050000D01*
X143256000Y-100076000D02*
X141986000Y-101346000D01*
X143256000Y-99394000D02*
X143256000Y-100076000D01*
X144272000Y-101346000D02*
X145542000Y-100076000D01*
X145542000Y-99394000D02*
X145542000Y-100076000D01*
X147828000Y-100584000D02*
X147828000Y-99394000D01*
X147828000Y-100584000D02*
X146812000Y-101600000D01*
X118940000Y-67020000D02*
X118940000Y-68120000D01*
X107600000Y-71810000D02*
X107600000Y-72800000D01*
X109730000Y-69680000D02*
X107600000Y-71810000D01*
X117380000Y-69680000D02*
X109730000Y-69680000D01*
X118940000Y-68120000D02*
X117380000Y-69680000D01*
X110904000Y-83947000D02*
X109797000Y-83947000D01*
X109350000Y-83500000D02*
X109797000Y-83947000D01*
X119634000Y-84836000D02*
X127508000Y-84836000D01*
X118792000Y-85678000D02*
X119634000Y-84836000D01*
X118792000Y-85678000D02*
X116332000Y-85678000D01*
X110904000Y-83947000D02*
X114601000Y-83947000D01*
X114601000Y-83947000D02*
X116332000Y-85678000D01*
X116440000Y-67020000D02*
X116440000Y-67680000D01*
X116440000Y-67680000D02*
X115240000Y-68880000D01*
X115240000Y-68880000D02*
X109900000Y-68880000D01*
X109900000Y-68880000D02*
X109750000Y-68880000D01*
X109750000Y-68880000D02*
X108030000Y-67160000D01*
X108030000Y-67160000D02*
X105790000Y-67160000D01*
X105790000Y-67160000D02*
X103550000Y-69400000D01*
X103550000Y-69400000D02*
X103600000Y-69400000D01*
X110904000Y-85217000D02*
X109867000Y-85217000D01*
X109150000Y-84500000D02*
X109867000Y-85217000D01*
X107250000Y-84500000D02*
X109150000Y-84500000D01*
X107200000Y-84550000D02*
X107250000Y-84500000D01*
X114300000Y-87376000D02*
X123190000Y-87376000D01*
X110904000Y-85217000D02*
X112141000Y-85217000D01*
X112141000Y-85217000D02*
X114300000Y-87376000D01*
X123524000Y-93298000D02*
X123444000Y-93218000D01*
X123524000Y-93298000D02*
X124968000Y-93298000D01*
X121412000Y-98806000D02*
X125730000Y-98806000D01*
X119126000Y-77216000D02*
X117610000Y-75700000D01*
X119126000Y-77216000D02*
X126238000Y-77216000D01*
X117610000Y-75700000D02*
X117602000Y-75692000D01*
X117610000Y-75700000D02*
X107150000Y-75700000D01*
X106400000Y-74950000D02*
X107150000Y-75700000D01*
X104200000Y-70400000D02*
X104600000Y-70400000D01*
X101200000Y-70400000D02*
X104200000Y-70400000D01*
X100400000Y-71200000D02*
X101200000Y-70400000D01*
X106400000Y-72200000D02*
X106400000Y-74950000D01*
X104600000Y-70400000D02*
X106400000Y-72200000D01*
X100200000Y-71200000D02*
X100400000Y-71200000D01*
X114808000Y-71702000D02*
X114808000Y-73152000D01*
X114808000Y-73152000D02*
X115316000Y-73660000D01*
X115316000Y-73660000D02*
X119634000Y-73660000D01*
X114808000Y-71702000D02*
X114820000Y-71690000D01*
X160688000Y-77089000D02*
X165589000Y-77089000D01*
X165600000Y-84600000D02*
X169672000Y-84582000D01*
X165589000Y-77089000D02*
X165600000Y-77100000D01*
X160688000Y-79629000D02*
X169545000Y-79629000D01*
X169545000Y-79629000D02*
X169672000Y-79502000D01*
X160688000Y-80899000D02*
X162799000Y-80899000D01*
X167000000Y-82400000D02*
X167450000Y-81950000D01*
X164300000Y-82400000D02*
X167000000Y-82400000D01*
X162799000Y-80899000D02*
X164300000Y-82400000D01*
X169672000Y-76962000D02*
X169084000Y-76962000D01*
X133270000Y-74676000D02*
X132000000Y-73406000D01*
X132000000Y-73406000D02*
X132000000Y-73834000D01*
X155288000Y-75819000D02*
X153289000Y-75819000D01*
X152146000Y-74676000D02*
X133270000Y-74676000D01*
X153289000Y-75819000D02*
X152146000Y-74676000D01*
X105504000Y-81407000D02*
X105504000Y-81304000D01*
X105504000Y-81304000D02*
X105000000Y-80800000D01*
X105000000Y-80800000D02*
X105000000Y-79600000D01*
X105000000Y-79600000D02*
X105600000Y-79000000D01*
X105600000Y-79000000D02*
X111200000Y-79000000D01*
X111200000Y-79000000D02*
X111549300Y-78650700D01*
X111549300Y-78650700D02*
X111549300Y-77600000D01*
X110050700Y-77600000D02*
X109800000Y-77600000D01*
X109800000Y-77600000D02*
X109200000Y-78200000D01*
X109200000Y-78200000D02*
X105200000Y-78200000D01*
X105200000Y-78200000D02*
X103800000Y-79600000D01*
X103800000Y-79600000D02*
X103800000Y-82200000D01*
X103800000Y-82200000D02*
X104277000Y-82677000D01*
X104277000Y-82677000D02*
X105504000Y-82677000D01*
X175600000Y-67100000D02*
X173650000Y-67100000D01*
X175600000Y-67100000D02*
X177100000Y-68600000D01*
X177100000Y-69500000D02*
X177100000Y-68600000D01*
X171950000Y-73800000D02*
X173000000Y-72750000D01*
X173000000Y-72750000D02*
X173000000Y-67750000D01*
X171950000Y-73850000D02*
X171950000Y-73800000D01*
X173650000Y-67100000D02*
X173000000Y-67750000D01*
X177100000Y-69500000D02*
X177000000Y-69500000D01*
X99960000Y-82640000D02*
X102050000Y-82640000D01*
X104053000Y-83947000D02*
X105504000Y-83947000D01*
X103357000Y-83947000D02*
X104053000Y-83947000D01*
X102050000Y-82640000D02*
X103357000Y-83947000D01*
X187600000Y-71100000D02*
X187550000Y-71050000D01*
X190950000Y-71100000D02*
X187600000Y-71100000D01*
X174750000Y-101400000D02*
X178250000Y-97900000D01*
X178250000Y-97900000D02*
X178250000Y-96100000D01*
X178250000Y-96100000D02*
X187400000Y-86950000D01*
X122096000Y-101346000D02*
X126150000Y-105400000D01*
X126150000Y-105400000D02*
X126650000Y-105400000D01*
X121412000Y-101346000D02*
X122096000Y-101346000D01*
X177600000Y-64300000D02*
X170700000Y-64300000D01*
X169328500Y-62928500D02*
X170700000Y-64300000D01*
X163131500Y-62928500D02*
X169328500Y-62928500D01*
X162052000Y-64008000D02*
X163131500Y-62928500D01*
X177600000Y-64300000D02*
X179200000Y-64300000D01*
X179200000Y-64300000D02*
X179650000Y-64750000D01*
X177600000Y-64300000D02*
X177750000Y-64300000D01*
X161650000Y-69400000D02*
X162700000Y-69400000D01*
X162700000Y-69400000D02*
X164000000Y-70700000D01*
X143550000Y-69400000D02*
X161650000Y-69400000D01*
X161650000Y-69400000D02*
X161682000Y-69400000D01*
X141600000Y-67450000D02*
X143550000Y-69400000D01*
X141600000Y-65550000D02*
X141600000Y-67450000D01*
X144722002Y-68707000D02*
X163004500Y-68707000D01*
X144100000Y-68084998D02*
X144722002Y-68707000D01*
X144100000Y-65550000D02*
X144100000Y-67200000D01*
X144100000Y-67200000D02*
X144100000Y-68084998D01*
X165355500Y-69405500D02*
X166500000Y-70550000D01*
X163703000Y-69405500D02*
X165355500Y-69405500D01*
X163004500Y-68707000D02*
X163703000Y-69405500D01*
X176450000Y-66550000D02*
X179400000Y-69500000D01*
X179800000Y-69500000D02*
X179400000Y-69500000D01*
X171550000Y-75650000D02*
X171600000Y-75600000D01*
X171600000Y-75600000D02*
X173450000Y-75600000D01*
X173450000Y-75600000D02*
X174300000Y-74750000D01*
X174300000Y-74750000D02*
X174300000Y-71650000D01*
G36*
X127920125Y-104980500D02*
X128209138Y-104980500D01*
X128210671Y-104988206D01*
X128364672Y-105218684D01*
X128403382Y-105276618D01*
X129419382Y-106292618D01*
X129707794Y-106485329D01*
X130048000Y-106553000D01*
X131080795Y-106553000D01*
X130781577Y-106851697D01*
X130607199Y-107271646D01*
X130606802Y-107726359D01*
X130780446Y-108146612D01*
X131101697Y-108468423D01*
X131521646Y-108642801D01*
X131976359Y-108643198D01*
X132396612Y-108469554D01*
X132477306Y-108389000D01*
X139131764Y-108389000D01*
X140591382Y-109848618D01*
X140879794Y-110041329D01*
X141220000Y-110109000D01*
X149860000Y-110109000D01*
X150200206Y-110041329D01*
X150488618Y-109848618D01*
X151483596Y-108853640D01*
X151482989Y-109549920D01*
X151930925Y-110634009D01*
X152348686Y-111052500D01*
X128575308Y-111052500D01*
X128990160Y-110638372D01*
X129439988Y-109555066D01*
X129441011Y-108382080D01*
X128993075Y-107297991D01*
X128164372Y-106467840D01*
X127481996Y-106184493D01*
X127618423Y-106048303D01*
X127792801Y-105628354D01*
X127793198Y-105173641D01*
X127713394Y-104980500D01*
X127745502Y-104980500D01*
X127745502Y-104805877D01*
X127920125Y-104980500D01*
X127920125Y-104980500D01*
G37*
X127920125Y-104980500D02*
X128209138Y-104980500D01*
X128210671Y-104988206D01*
X128364672Y-105218684D01*
X128403382Y-105276618D01*
X129419382Y-106292618D01*
X129707794Y-106485329D01*
X130048000Y-106553000D01*
X131080795Y-106553000D01*
X130781577Y-106851697D01*
X130607199Y-107271646D01*
X130606802Y-107726359D01*
X130780446Y-108146612D01*
X131101697Y-108468423D01*
X131521646Y-108642801D01*
X131976359Y-108643198D01*
X132396612Y-108469554D01*
X132477306Y-108389000D01*
X139131764Y-108389000D01*
X140591382Y-109848618D01*
X140879794Y-110041329D01*
X141220000Y-110109000D01*
X149860000Y-110109000D01*
X150200206Y-110041329D01*
X150488618Y-109848618D01*
X151483596Y-108853640D01*
X151482989Y-109549920D01*
X151930925Y-110634009D01*
X152348686Y-111052500D01*
X128575308Y-111052500D01*
X128990160Y-110638372D01*
X129439988Y-109555066D01*
X129441011Y-108382080D01*
X128993075Y-107297991D01*
X128164372Y-106467840D01*
X127481996Y-106184493D01*
X127618423Y-106048303D01*
X127792801Y-105628354D01*
X127793198Y-105173641D01*
X127713394Y-104980500D01*
X127745502Y-104980500D01*
X127745502Y-104805877D01*
X127920125Y-104980500D01*
G36*
X145669199Y-101371646D02*
X145668802Y-101826359D01*
X145842446Y-102246612D01*
X146163697Y-102568423D01*
X146583646Y-102742801D01*
X147038359Y-102743198D01*
X147458612Y-102569554D01*
X147780423Y-102248303D01*
X147954801Y-101828354D01*
X147954901Y-101714335D01*
X147955122Y-101714114D01*
X147954802Y-102080359D01*
X148128446Y-102500612D01*
X148449697Y-102822423D01*
X148869646Y-102996801D01*
X149324359Y-102997198D01*
X149744612Y-102823554D01*
X150066423Y-102502303D01*
X150240801Y-102082354D01*
X150240901Y-101968335D01*
X150742618Y-101466618D01*
X150744272Y-101464142D01*
X150935329Y-101178206D01*
X150941738Y-101145986D01*
X150941205Y-101756370D01*
X151199242Y-102380866D01*
X151676621Y-102859079D01*
X151765000Y-102895777D01*
X151765000Y-102950000D01*
X151832671Y-103290206D01*
X151971928Y-103498618D01*
X152025382Y-103578618D01*
X152267816Y-103821052D01*
X152267816Y-104420000D01*
X152271767Y-104441000D01*
X152217640Y-104441000D01*
X152168303Y-104391577D01*
X151748354Y-104217199D01*
X151293641Y-104216802D01*
X150873388Y-104390446D01*
X150551577Y-104711697D01*
X150377199Y-105131646D01*
X150376802Y-105586359D01*
X150550446Y-106006612D01*
X150871697Y-106328423D01*
X151291646Y-106502801D01*
X151319938Y-106502826D01*
X149491764Y-108331000D01*
X149391790Y-108331000D01*
X149442274Y-108209421D01*
X149442725Y-107692846D01*
X149245457Y-107215420D01*
X149118747Y-107088489D01*
X149453326Y-106753910D01*
X149744612Y-106633554D01*
X150066423Y-106312303D01*
X150240801Y-105892354D01*
X150241198Y-105437641D01*
X150067554Y-105017388D01*
X149746303Y-104695577D01*
X149326354Y-104521199D01*
X148871641Y-104520802D01*
X148451388Y-104694446D01*
X148129577Y-105015697D01*
X147955199Y-105435646D01*
X147954935Y-105737829D01*
X147831764Y-105861000D01*
X141527588Y-105861000D01*
X141448303Y-105781577D01*
X141028354Y-105607199D01*
X140573641Y-105606802D01*
X140153388Y-105780446D01*
X139831577Y-106101697D01*
X139657199Y-106521646D01*
X139657094Y-106642248D01*
X139500000Y-106611000D01*
X132477588Y-106611000D01*
X132419689Y-106553000D01*
X132762000Y-106553000D01*
X133102206Y-106485329D01*
X133390618Y-106292618D01*
X134691052Y-104992184D01*
X135630000Y-104992184D01*
X135888849Y-104943478D01*
X136126585Y-104790499D01*
X136230547Y-104638346D01*
X136319501Y-104776585D01*
X136552921Y-104936074D01*
X136830000Y-104992184D01*
X138330000Y-104992184D01*
X138588849Y-104943478D01*
X138826585Y-104790499D01*
X138986074Y-104557079D01*
X138993380Y-104521000D01*
X140208000Y-104521000D01*
X140548206Y-104453329D01*
X140836618Y-104260618D01*
X141598618Y-103498618D01*
X141630004Y-103451646D01*
X141791329Y-103210206D01*
X141859000Y-102870000D01*
X141859000Y-102488889D01*
X142212359Y-102489198D01*
X142632612Y-102315554D01*
X142954423Y-101994303D01*
X143128801Y-101574354D01*
X143128803Y-101572361D01*
X143302446Y-101992612D01*
X143623697Y-102314423D01*
X144043646Y-102488801D01*
X144498359Y-102489198D01*
X144918612Y-102315554D01*
X145240423Y-101994303D01*
X145414801Y-101574354D01*
X145414901Y-101460335D01*
X145786797Y-101088439D01*
X145669199Y-101371646D01*
X145669199Y-101371646D01*
G37*
X145669199Y-101371646D02*
X145668802Y-101826359D01*
X145842446Y-102246612D01*
X146163697Y-102568423D01*
X146583646Y-102742801D01*
X147038359Y-102743198D01*
X147458612Y-102569554D01*
X147780423Y-102248303D01*
X147954801Y-101828354D01*
X147954901Y-101714335D01*
X147955122Y-101714114D01*
X147954802Y-102080359D01*
X148128446Y-102500612D01*
X148449697Y-102822423D01*
X148869646Y-102996801D01*
X149324359Y-102997198D01*
X149744612Y-102823554D01*
X150066423Y-102502303D01*
X150240801Y-102082354D01*
X150240901Y-101968335D01*
X150742618Y-101466618D01*
X150744272Y-101464142D01*
X150935329Y-101178206D01*
X150941738Y-101145986D01*
X150941205Y-101756370D01*
X151199242Y-102380866D01*
X151676621Y-102859079D01*
X151765000Y-102895777D01*
X151765000Y-102950000D01*
X151832671Y-103290206D01*
X151971928Y-103498618D01*
X152025382Y-103578618D01*
X152267816Y-103821052D01*
X152267816Y-104420000D01*
X152271767Y-104441000D01*
X152217640Y-104441000D01*
X152168303Y-104391577D01*
X151748354Y-104217199D01*
X151293641Y-104216802D01*
X150873388Y-104390446D01*
X150551577Y-104711697D01*
X150377199Y-105131646D01*
X150376802Y-105586359D01*
X150550446Y-106006612D01*
X150871697Y-106328423D01*
X151291646Y-106502801D01*
X151319938Y-106502826D01*
X149491764Y-108331000D01*
X149391790Y-108331000D01*
X149442274Y-108209421D01*
X149442725Y-107692846D01*
X149245457Y-107215420D01*
X149118747Y-107088489D01*
X149453326Y-106753910D01*
X149744612Y-106633554D01*
X150066423Y-106312303D01*
X150240801Y-105892354D01*
X150241198Y-105437641D01*
X150067554Y-105017388D01*
X149746303Y-104695577D01*
X149326354Y-104521199D01*
X148871641Y-104520802D01*
X148451388Y-104694446D01*
X148129577Y-105015697D01*
X147955199Y-105435646D01*
X147954935Y-105737829D01*
X147831764Y-105861000D01*
X141527588Y-105861000D01*
X141448303Y-105781577D01*
X141028354Y-105607199D01*
X140573641Y-105606802D01*
X140153388Y-105780446D01*
X139831577Y-106101697D01*
X139657199Y-106521646D01*
X139657094Y-106642248D01*
X139500000Y-106611000D01*
X132477588Y-106611000D01*
X132419689Y-106553000D01*
X132762000Y-106553000D01*
X133102206Y-106485329D01*
X133390618Y-106292618D01*
X134691052Y-104992184D01*
X135630000Y-104992184D01*
X135888849Y-104943478D01*
X136126585Y-104790499D01*
X136230547Y-104638346D01*
X136319501Y-104776585D01*
X136552921Y-104936074D01*
X136830000Y-104992184D01*
X138330000Y-104992184D01*
X138588849Y-104943478D01*
X138826585Y-104790499D01*
X138986074Y-104557079D01*
X138993380Y-104521000D01*
X140208000Y-104521000D01*
X140548206Y-104453329D01*
X140836618Y-104260618D01*
X141598618Y-103498618D01*
X141630004Y-103451646D01*
X141791329Y-103210206D01*
X141859000Y-102870000D01*
X141859000Y-102488889D01*
X142212359Y-102489198D01*
X142632612Y-102315554D01*
X142954423Y-101994303D01*
X143128801Y-101574354D01*
X143128803Y-101572361D01*
X143302446Y-101992612D01*
X143623697Y-102314423D01*
X144043646Y-102488801D01*
X144498359Y-102489198D01*
X144918612Y-102315554D01*
X145240423Y-101994303D01*
X145414801Y-101574354D01*
X145414901Y-101460335D01*
X145786797Y-101088439D01*
X145669199Y-101371646D01*
G36*
X146469945Y-107935858D02*
X146455803Y-107950000D01*
X146469945Y-107964142D01*
X146380142Y-108053945D01*
X146366000Y-108039803D01*
X146351858Y-108053945D01*
X146262055Y-107964142D01*
X146276197Y-107950000D01*
X146262055Y-107935858D01*
X146351858Y-107846055D01*
X146366000Y-107860197D01*
X146380142Y-107846055D01*
X146469945Y-107935858D01*
X146469945Y-107935858D01*
G37*
X146469945Y-107935858D02*
X146455803Y-107950000D01*
X146469945Y-107964142D01*
X146380142Y-108053945D01*
X146366000Y-108039803D01*
X146351858Y-108053945D01*
X146262055Y-107964142D01*
X146276197Y-107950000D01*
X146262055Y-107935858D01*
X146351858Y-107846055D01*
X146366000Y-107860197D01*
X146380142Y-107846055D01*
X146469945Y-107935858D01*
G36*
X159137382Y-101466618D02*
X159425794Y-101659329D01*
X159766000Y-101727000D01*
X159989766Y-101727000D01*
X159989766Y-101989282D01*
X159880671Y-102152554D01*
X159854157Y-102285850D01*
X159691151Y-102316522D01*
X159453415Y-102469501D01*
X159293926Y-102702921D01*
X159237816Y-102980000D01*
X159237816Y-104280000D01*
X159268110Y-104441000D01*
X157878500Y-104441000D01*
X157878500Y-104008125D01*
X157703875Y-103833500D01*
X156493500Y-103833500D01*
X156493500Y-103853500D01*
X156366500Y-103853500D01*
X156366500Y-103833500D01*
X156346500Y-103833500D01*
X156346500Y-103706500D01*
X156366500Y-103706500D01*
X156366500Y-103686500D01*
X156493500Y-103686500D01*
X156493500Y-103706500D01*
X157703875Y-103706500D01*
X157878500Y-103531875D01*
X157878500Y-102981059D01*
X157868448Y-102956791D01*
X158100866Y-102860758D01*
X158579079Y-102383379D01*
X158838205Y-101759335D01*
X158838721Y-101167957D01*
X159137382Y-101466618D01*
X159137382Y-101466618D01*
G37*
X159137382Y-101466618D02*
X159425794Y-101659329D01*
X159766000Y-101727000D01*
X159989766Y-101727000D01*
X159989766Y-101989282D01*
X159880671Y-102152554D01*
X159854157Y-102285850D01*
X159691151Y-102316522D01*
X159453415Y-102469501D01*
X159293926Y-102702921D01*
X159237816Y-102980000D01*
X159237816Y-104280000D01*
X159268110Y-104441000D01*
X157878500Y-104441000D01*
X157878500Y-104008125D01*
X157703875Y-103833500D01*
X156493500Y-103833500D01*
X156493500Y-103853500D01*
X156366500Y-103853500D01*
X156366500Y-103833500D01*
X156346500Y-103833500D01*
X156346500Y-103706500D01*
X156366500Y-103706500D01*
X156366500Y-103686500D01*
X156493500Y-103686500D01*
X156493500Y-103706500D01*
X157703875Y-103706500D01*
X157878500Y-103531875D01*
X157878500Y-102981059D01*
X157868448Y-102956791D01*
X158100866Y-102860758D01*
X158579079Y-102383379D01*
X158838205Y-101759335D01*
X158838721Y-101167957D01*
X159137382Y-101466618D01*
G36*
X127000000Y-99441000D02*
X127919766Y-99441000D01*
X127919766Y-100239830D01*
X127968472Y-100498679D01*
X128115088Y-100726526D01*
X127681950Y-100726526D01*
X127423101Y-100775232D01*
X127185365Y-100928211D01*
X127025876Y-101161631D01*
X126969766Y-101438710D01*
X126969766Y-102238810D01*
X126978175Y-102283500D01*
X126793060Y-102283500D01*
X126536332Y-102389840D01*
X126339840Y-102586331D01*
X126233500Y-102843059D01*
X126233500Y-103393875D01*
X126408125Y-103568500D01*
X127618500Y-103568500D01*
X127618500Y-103548500D01*
X127745500Y-103548500D01*
X127745500Y-103568500D01*
X127765500Y-103568500D01*
X127765500Y-103695500D01*
X127745500Y-103695500D01*
X127745500Y-103715500D01*
X127618500Y-103715500D01*
X127618500Y-103695500D01*
X126408125Y-103695500D01*
X126233500Y-103870125D01*
X126233500Y-104226264D01*
X123408143Y-101400907D01*
X123419065Y-101346000D01*
X123307891Y-100787091D01*
X122991294Y-100313271D01*
X122636194Y-100076000D01*
X122991294Y-99838729D01*
X123087331Y-99695000D01*
X125002412Y-99695000D01*
X125081697Y-99774423D01*
X125501646Y-99948801D01*
X125956359Y-99949198D01*
X126376612Y-99775554D01*
X126698423Y-99454303D01*
X126726534Y-99386604D01*
X127000000Y-99441000D01*
X127000000Y-99441000D01*
G37*
X127000000Y-99441000D02*
X127919766Y-99441000D01*
X127919766Y-100239830D01*
X127968472Y-100498679D01*
X128115088Y-100726526D01*
X127681950Y-100726526D01*
X127423101Y-100775232D01*
X127185365Y-100928211D01*
X127025876Y-101161631D01*
X126969766Y-101438710D01*
X126969766Y-102238810D01*
X126978175Y-102283500D01*
X126793060Y-102283500D01*
X126536332Y-102389840D01*
X126339840Y-102586331D01*
X126233500Y-102843059D01*
X126233500Y-103393875D01*
X126408125Y-103568500D01*
X127618500Y-103568500D01*
X127618500Y-103548500D01*
X127745500Y-103548500D01*
X127745500Y-103568500D01*
X127765500Y-103568500D01*
X127765500Y-103695500D01*
X127745500Y-103695500D01*
X127745500Y-103715500D01*
X127618500Y-103715500D01*
X127618500Y-103695500D01*
X126408125Y-103695500D01*
X126233500Y-103870125D01*
X126233500Y-104226264D01*
X123408143Y-101400907D01*
X123419065Y-101346000D01*
X123307891Y-100787091D01*
X122991294Y-100313271D01*
X122636194Y-100076000D01*
X122991294Y-99838729D01*
X123087331Y-99695000D01*
X125002412Y-99695000D01*
X125081697Y-99774423D01*
X125501646Y-99948801D01*
X125956359Y-99949198D01*
X126376612Y-99775554D01*
X126698423Y-99454303D01*
X126726534Y-99386604D01*
X127000000Y-99441000D01*
G36*
X152908000Y-98171000D02*
X153860583Y-98171000D01*
X153797199Y-98323646D01*
X153796889Y-98679000D01*
X153276236Y-98679000D01*
X152733532Y-98136296D01*
X152908000Y-98171000D01*
X152908000Y-98171000D01*
G37*
X152908000Y-98171000D02*
X153860583Y-98171000D01*
X153797199Y-98323646D01*
X153796889Y-98679000D01*
X153276236Y-98679000D01*
X152733532Y-98136296D01*
X152908000Y-98171000D01*
G36*
X136159501Y-93826585D02*
X136392921Y-93986074D01*
X136614746Y-94030995D01*
X136672671Y-94322206D01*
X136830557Y-94558499D01*
X136865382Y-94610618D01*
X136871763Y-94616999D01*
X136871205Y-95256370D01*
X137129242Y-95880866D01*
X137606621Y-96359079D01*
X138230665Y-96618205D01*
X138906370Y-96618795D01*
X139530866Y-96360758D01*
X139581500Y-96310212D01*
X139581500Y-96511875D01*
X139756125Y-96686500D01*
X140866500Y-96686500D01*
X140866500Y-95476125D01*
X140691875Y-95301500D01*
X140250697Y-95301500D01*
X140268205Y-95259335D01*
X140268686Y-94708220D01*
X140370921Y-94778074D01*
X140648000Y-94834184D01*
X141859000Y-94834184D01*
X141859000Y-94996000D01*
X141926671Y-95336206D01*
X141974102Y-95407191D01*
X141718941Y-95301500D01*
X141168125Y-95301500D01*
X140993500Y-95476125D01*
X140993500Y-96686500D01*
X141013500Y-96686500D01*
X141013500Y-96813500D01*
X140993500Y-96813500D01*
X140993500Y-96833500D01*
X140866500Y-96833500D01*
X140866500Y-96813500D01*
X139756125Y-96813500D01*
X139581500Y-96988125D01*
X139581500Y-97155000D01*
X135322236Y-97155000D01*
X134675025Y-96507789D01*
X135030866Y-96360758D01*
X135509079Y-95883379D01*
X135768205Y-95259335D01*
X135768795Y-94583630D01*
X135539658Y-94029077D01*
X135728849Y-93993478D01*
X135966585Y-93840499D01*
X136070547Y-93688346D01*
X136159501Y-93826585D01*
X136159501Y-93826585D01*
G37*
X136159501Y-93826585D02*
X136392921Y-93986074D01*
X136614746Y-94030995D01*
X136672671Y-94322206D01*
X136830557Y-94558499D01*
X136865382Y-94610618D01*
X136871763Y-94616999D01*
X136871205Y-95256370D01*
X137129242Y-95880866D01*
X137606621Y-96359079D01*
X138230665Y-96618205D01*
X138906370Y-96618795D01*
X139530866Y-96360758D01*
X139581500Y-96310212D01*
X139581500Y-96511875D01*
X139756125Y-96686500D01*
X140866500Y-96686500D01*
X140866500Y-95476125D01*
X140691875Y-95301500D01*
X140250697Y-95301500D01*
X140268205Y-95259335D01*
X140268686Y-94708220D01*
X140370921Y-94778074D01*
X140648000Y-94834184D01*
X141859000Y-94834184D01*
X141859000Y-94996000D01*
X141926671Y-95336206D01*
X141974102Y-95407191D01*
X141718941Y-95301500D01*
X141168125Y-95301500D01*
X140993500Y-95476125D01*
X140993500Y-96686500D01*
X141013500Y-96686500D01*
X141013500Y-96813500D01*
X140993500Y-96813500D01*
X140993500Y-96833500D01*
X140866500Y-96833500D01*
X140866500Y-96813500D01*
X139756125Y-96813500D01*
X139581500Y-96988125D01*
X139581500Y-97155000D01*
X135322236Y-97155000D01*
X134675025Y-96507789D01*
X135030866Y-96360758D01*
X135509079Y-95883379D01*
X135768205Y-95259335D01*
X135768795Y-94583630D01*
X135539658Y-94029077D01*
X135728849Y-93993478D01*
X135966585Y-93840499D01*
X136070547Y-93688346D01*
X136159501Y-93826585D01*
G36*
X150177500Y-96630500D02*
X150197500Y-96630500D01*
X150197500Y-96757500D01*
X150177500Y-96757500D01*
X150177500Y-96777500D01*
X150050500Y-96777500D01*
X150050500Y-96757500D01*
X150030500Y-96757500D01*
X150030500Y-96630500D01*
X150050500Y-96630500D01*
X150050500Y-96610500D01*
X150177500Y-96610500D01*
X150177500Y-96630500D01*
X150177500Y-96630500D01*
G37*
X150177500Y-96630500D02*
X150197500Y-96630500D01*
X150197500Y-96757500D01*
X150177500Y-96757500D01*
X150177500Y-96777500D01*
X150050500Y-96777500D01*
X150050500Y-96757500D01*
X150030500Y-96757500D01*
X150030500Y-96630500D01*
X150050500Y-96630500D01*
X150050500Y-96610500D01*
X150177500Y-96610500D01*
X150177500Y-96630500D01*
G36*
X103492468Y-64790887D02*
X103279335Y-64702386D01*
X102603630Y-64701796D01*
X101979134Y-64959833D01*
X101500921Y-65437212D01*
X101241795Y-66061256D01*
X101241205Y-66736961D01*
X101499242Y-67361457D01*
X101976621Y-67839670D01*
X102600665Y-68098796D01*
X103276370Y-68099386D01*
X103816595Y-67876169D01*
X103435864Y-68256900D01*
X103323641Y-68256802D01*
X102903388Y-68430446D01*
X102581577Y-68751697D01*
X102407199Y-69171646D01*
X102406903Y-69511000D01*
X101513196Y-69511000D01*
X101363379Y-69360921D01*
X100739335Y-69101795D01*
X100063630Y-69101205D01*
X99439134Y-69359242D01*
X98960921Y-69836621D01*
X98701795Y-70460665D01*
X98701205Y-71136370D01*
X98959242Y-71760866D01*
X99436621Y-72239079D01*
X100060665Y-72498205D01*
X100736370Y-72498795D01*
X101360866Y-72240758D01*
X101839079Y-71763379D01*
X102036059Y-71289000D01*
X104231764Y-71289000D01*
X104544100Y-71601336D01*
X104393757Y-71601205D01*
X103769261Y-71859242D01*
X103291048Y-72336621D01*
X103031922Y-72960665D01*
X103031332Y-73636370D01*
X103289369Y-74260866D01*
X103766748Y-74739079D01*
X104390792Y-74998205D01*
X105066497Y-74998795D01*
X105511000Y-74815130D01*
X105511000Y-74950000D01*
X105578671Y-75290206D01*
X105731820Y-75519409D01*
X105771382Y-75578618D01*
X106521382Y-76328618D01*
X106809794Y-76521329D01*
X107150000Y-76589000D01*
X109366513Y-76589000D01*
X109034932Y-76920003D01*
X108901556Y-77241208D01*
X108831764Y-77311000D01*
X105200000Y-77311000D01*
X104859794Y-77378671D01*
X104590031Y-77558921D01*
X104571382Y-77571382D01*
X103735173Y-78407591D01*
X103888332Y-78038744D01*
X103888922Y-77363039D01*
X103630885Y-76738543D01*
X103153506Y-76260330D01*
X102529462Y-76001204D01*
X101853757Y-76000614D01*
X101229261Y-76258651D01*
X100751048Y-76736030D01*
X100491922Y-77360074D01*
X100491837Y-77457080D01*
X100173641Y-77456802D01*
X99753388Y-77630446D01*
X99431577Y-77951697D01*
X99257199Y-78371646D01*
X99257099Y-78485665D01*
X99161382Y-78581382D01*
X98968671Y-78869794D01*
X98926010Y-79084265D01*
X98781151Y-79111522D01*
X98543415Y-79264501D01*
X98532826Y-79279998D01*
X98435668Y-79182840D01*
X98178940Y-79076500D01*
X97528125Y-79076500D01*
X97353500Y-79251125D01*
X97353500Y-80336500D01*
X97373500Y-80336500D01*
X97373500Y-80463500D01*
X97353500Y-80463500D01*
X97353500Y-81436125D01*
X97323500Y-81466125D01*
X97323500Y-82576500D01*
X97343500Y-82576500D01*
X97343500Y-82703500D01*
X97323500Y-82703500D01*
X97323500Y-83813875D01*
X97498125Y-83988500D01*
X98148940Y-83988500D01*
X98405668Y-83882160D01*
X98602160Y-83685669D01*
X98614850Y-83655033D01*
X98699501Y-83786585D01*
X98932921Y-83946074D01*
X99210000Y-84002184D01*
X100710000Y-84002184D01*
X100968849Y-83953478D01*
X101206585Y-83800499D01*
X101366074Y-83567079D01*
X101373785Y-83529000D01*
X101681764Y-83529000D01*
X102728382Y-84575618D01*
X103016794Y-84768329D01*
X103357000Y-84836000D01*
X104030500Y-84836000D01*
X104030500Y-84978875D01*
X104205125Y-85153500D01*
X105440500Y-85153500D01*
X105440500Y-85133500D01*
X105567500Y-85133500D01*
X105567500Y-85153500D01*
X105587500Y-85153500D01*
X105587500Y-85280500D01*
X105567500Y-85280500D01*
X105567500Y-86040875D01*
X105742125Y-86215500D01*
X105988082Y-86215500D01*
X105101055Y-87102527D01*
X104952461Y-87320001D01*
X104892529Y-87596278D01*
X104926605Y-87777378D01*
X104765956Y-87742529D01*
X104488127Y-87794806D01*
X104252527Y-87951055D01*
X103191867Y-89011715D01*
X103043273Y-89229189D01*
X102983341Y-89505466D01*
X103035618Y-89783295D01*
X103191867Y-90018895D01*
X103820406Y-90647434D01*
X103820406Y-91243903D01*
X103402746Y-91660835D01*
X103143620Y-92284879D01*
X103143114Y-92864663D01*
X103107354Y-92849814D01*
X102431649Y-92849224D01*
X101807153Y-93107261D01*
X101328940Y-93584640D01*
X101220665Y-93845394D01*
X101158133Y-93751105D01*
X100238895Y-92831867D01*
X100021421Y-92683273D01*
X99745144Y-92623341D01*
X99467315Y-92675618D01*
X99231715Y-92831867D01*
X98171055Y-93892527D01*
X98022461Y-94110001D01*
X97962529Y-94386278D01*
X97996605Y-94567378D01*
X97835956Y-94532529D01*
X97558127Y-94584806D01*
X97322527Y-94741055D01*
X96531500Y-95532082D01*
X96531500Y-85455125D01*
X104030500Y-85455125D01*
X104030500Y-85655941D01*
X104136840Y-85912669D01*
X104333332Y-86109160D01*
X104590060Y-86215500D01*
X105265875Y-86215500D01*
X105440500Y-86040875D01*
X105440500Y-85280500D01*
X104205125Y-85280500D01*
X104030500Y-85455125D01*
X96531500Y-85455125D01*
X96531500Y-83988500D01*
X97021875Y-83988500D01*
X97196500Y-83813875D01*
X97196500Y-82703500D01*
X97176500Y-82703500D01*
X97176500Y-82576500D01*
X97196500Y-82576500D01*
X97196500Y-81578875D01*
X97226500Y-81548875D01*
X97226500Y-80463500D01*
X97206500Y-80463500D01*
X97206500Y-80336500D01*
X97226500Y-80336500D01*
X97226500Y-79251125D01*
X97051875Y-79076500D01*
X96531500Y-79076500D01*
X96531500Y-76258308D01*
X96714787Y-76498460D01*
X97299087Y-76837830D01*
X97968780Y-76927765D01*
X97977746Y-76927177D01*
X98201349Y-76718686D01*
X97815099Y-75277180D01*
X96531500Y-75621119D01*
X96531500Y-75489640D01*
X97447083Y-75244310D01*
X97937771Y-75244310D01*
X98324021Y-76685815D01*
X98621913Y-76754573D01*
X99159051Y-76344622D01*
X99498421Y-75760322D01*
X99588356Y-75090629D01*
X99587768Y-75081663D01*
X99379277Y-74858060D01*
X97937771Y-75244310D01*
X97447083Y-75244310D01*
X97782229Y-75154508D01*
X97395979Y-73713003D01*
X97253567Y-73680132D01*
X97518651Y-73680132D01*
X97904901Y-75121638D01*
X99346406Y-74735388D01*
X99415164Y-74437496D01*
X99005213Y-73900358D01*
X98420913Y-73560988D01*
X97751220Y-73471053D01*
X97742254Y-73471641D01*
X97518651Y-73680132D01*
X97253567Y-73680132D01*
X97098087Y-73644245D01*
X96570783Y-74046690D01*
X97453350Y-69609727D01*
X100035406Y-65745408D01*
X103899727Y-63163350D01*
X105423003Y-62860352D01*
X103492468Y-64790887D01*
X103492468Y-64790887D01*
G37*
X103492468Y-64790887D02*
X103279335Y-64702386D01*
X102603630Y-64701796D01*
X101979134Y-64959833D01*
X101500921Y-65437212D01*
X101241795Y-66061256D01*
X101241205Y-66736961D01*
X101499242Y-67361457D01*
X101976621Y-67839670D01*
X102600665Y-68098796D01*
X103276370Y-68099386D01*
X103816595Y-67876169D01*
X103435864Y-68256900D01*
X103323641Y-68256802D01*
X102903388Y-68430446D01*
X102581577Y-68751697D01*
X102407199Y-69171646D01*
X102406903Y-69511000D01*
X101513196Y-69511000D01*
X101363379Y-69360921D01*
X100739335Y-69101795D01*
X100063630Y-69101205D01*
X99439134Y-69359242D01*
X98960921Y-69836621D01*
X98701795Y-70460665D01*
X98701205Y-71136370D01*
X98959242Y-71760866D01*
X99436621Y-72239079D01*
X100060665Y-72498205D01*
X100736370Y-72498795D01*
X101360866Y-72240758D01*
X101839079Y-71763379D01*
X102036059Y-71289000D01*
X104231764Y-71289000D01*
X104544100Y-71601336D01*
X104393757Y-71601205D01*
X103769261Y-71859242D01*
X103291048Y-72336621D01*
X103031922Y-72960665D01*
X103031332Y-73636370D01*
X103289369Y-74260866D01*
X103766748Y-74739079D01*
X104390792Y-74998205D01*
X105066497Y-74998795D01*
X105511000Y-74815130D01*
X105511000Y-74950000D01*
X105578671Y-75290206D01*
X105731820Y-75519409D01*
X105771382Y-75578618D01*
X106521382Y-76328618D01*
X106809794Y-76521329D01*
X107150000Y-76589000D01*
X109366513Y-76589000D01*
X109034932Y-76920003D01*
X108901556Y-77241208D01*
X108831764Y-77311000D01*
X105200000Y-77311000D01*
X104859794Y-77378671D01*
X104590031Y-77558921D01*
X104571382Y-77571382D01*
X103735173Y-78407591D01*
X103888332Y-78038744D01*
X103888922Y-77363039D01*
X103630885Y-76738543D01*
X103153506Y-76260330D01*
X102529462Y-76001204D01*
X101853757Y-76000614D01*
X101229261Y-76258651D01*
X100751048Y-76736030D01*
X100491922Y-77360074D01*
X100491837Y-77457080D01*
X100173641Y-77456802D01*
X99753388Y-77630446D01*
X99431577Y-77951697D01*
X99257199Y-78371646D01*
X99257099Y-78485665D01*
X99161382Y-78581382D01*
X98968671Y-78869794D01*
X98926010Y-79084265D01*
X98781151Y-79111522D01*
X98543415Y-79264501D01*
X98532826Y-79279998D01*
X98435668Y-79182840D01*
X98178940Y-79076500D01*
X97528125Y-79076500D01*
X97353500Y-79251125D01*
X97353500Y-80336500D01*
X97373500Y-80336500D01*
X97373500Y-80463500D01*
X97353500Y-80463500D01*
X97353500Y-81436125D01*
X97323500Y-81466125D01*
X97323500Y-82576500D01*
X97343500Y-82576500D01*
X97343500Y-82703500D01*
X97323500Y-82703500D01*
X97323500Y-83813875D01*
X97498125Y-83988500D01*
X98148940Y-83988500D01*
X98405668Y-83882160D01*
X98602160Y-83685669D01*
X98614850Y-83655033D01*
X98699501Y-83786585D01*
X98932921Y-83946074D01*
X99210000Y-84002184D01*
X100710000Y-84002184D01*
X100968849Y-83953478D01*
X101206585Y-83800499D01*
X101366074Y-83567079D01*
X101373785Y-83529000D01*
X101681764Y-83529000D01*
X102728382Y-84575618D01*
X103016794Y-84768329D01*
X103357000Y-84836000D01*
X104030500Y-84836000D01*
X104030500Y-84978875D01*
X104205125Y-85153500D01*
X105440500Y-85153500D01*
X105440500Y-85133500D01*
X105567500Y-85133500D01*
X105567500Y-85153500D01*
X105587500Y-85153500D01*
X105587500Y-85280500D01*
X105567500Y-85280500D01*
X105567500Y-86040875D01*
X105742125Y-86215500D01*
X105988082Y-86215500D01*
X105101055Y-87102527D01*
X104952461Y-87320001D01*
X104892529Y-87596278D01*
X104926605Y-87777378D01*
X104765956Y-87742529D01*
X104488127Y-87794806D01*
X104252527Y-87951055D01*
X103191867Y-89011715D01*
X103043273Y-89229189D01*
X102983341Y-89505466D01*
X103035618Y-89783295D01*
X103191867Y-90018895D01*
X103820406Y-90647434D01*
X103820406Y-91243903D01*
X103402746Y-91660835D01*
X103143620Y-92284879D01*
X103143114Y-92864663D01*
X103107354Y-92849814D01*
X102431649Y-92849224D01*
X101807153Y-93107261D01*
X101328940Y-93584640D01*
X101220665Y-93845394D01*
X101158133Y-93751105D01*
X100238895Y-92831867D01*
X100021421Y-92683273D01*
X99745144Y-92623341D01*
X99467315Y-92675618D01*
X99231715Y-92831867D01*
X98171055Y-93892527D01*
X98022461Y-94110001D01*
X97962529Y-94386278D01*
X97996605Y-94567378D01*
X97835956Y-94532529D01*
X97558127Y-94584806D01*
X97322527Y-94741055D01*
X96531500Y-95532082D01*
X96531500Y-85455125D01*
X104030500Y-85455125D01*
X104030500Y-85655941D01*
X104136840Y-85912669D01*
X104333332Y-86109160D01*
X104590060Y-86215500D01*
X105265875Y-86215500D01*
X105440500Y-86040875D01*
X105440500Y-85280500D01*
X104205125Y-85280500D01*
X104030500Y-85455125D01*
X96531500Y-85455125D01*
X96531500Y-83988500D01*
X97021875Y-83988500D01*
X97196500Y-83813875D01*
X97196500Y-82703500D01*
X97176500Y-82703500D01*
X97176500Y-82576500D01*
X97196500Y-82576500D01*
X97196500Y-81578875D01*
X97226500Y-81548875D01*
X97226500Y-80463500D01*
X97206500Y-80463500D01*
X97206500Y-80336500D01*
X97226500Y-80336500D01*
X97226500Y-79251125D01*
X97051875Y-79076500D01*
X96531500Y-79076500D01*
X96531500Y-76258308D01*
X96714787Y-76498460D01*
X97299087Y-76837830D01*
X97968780Y-76927765D01*
X97977746Y-76927177D01*
X98201349Y-76718686D01*
X97815099Y-75277180D01*
X96531500Y-75621119D01*
X96531500Y-75489640D01*
X97447083Y-75244310D01*
X97937771Y-75244310D01*
X98324021Y-76685815D01*
X98621913Y-76754573D01*
X99159051Y-76344622D01*
X99498421Y-75760322D01*
X99588356Y-75090629D01*
X99587768Y-75081663D01*
X99379277Y-74858060D01*
X97937771Y-75244310D01*
X97447083Y-75244310D01*
X97782229Y-75154508D01*
X97395979Y-73713003D01*
X97253567Y-73680132D01*
X97518651Y-73680132D01*
X97904901Y-75121638D01*
X99346406Y-74735388D01*
X99415164Y-74437496D01*
X99005213Y-73900358D01*
X98420913Y-73560988D01*
X97751220Y-73471053D01*
X97742254Y-73471641D01*
X97518651Y-73680132D01*
X97253567Y-73680132D01*
X97098087Y-73644245D01*
X96570783Y-74046690D01*
X97453350Y-69609727D01*
X100035406Y-65745408D01*
X103899727Y-63163350D01*
X105423003Y-62860352D01*
X103492468Y-64790887D01*
G36*
X148171501Y-94618585D02*
X148404921Y-94778074D01*
X148682000Y-94834184D01*
X149987000Y-94834184D01*
X149987000Y-95250000D01*
X150013475Y-95383100D01*
X149875875Y-95245500D01*
X149325059Y-95245500D01*
X149068331Y-95351840D01*
X148979147Y-95441025D01*
X148755079Y-95287926D01*
X148478000Y-95231816D01*
X147178000Y-95231816D01*
X146919151Y-95280522D01*
X146681786Y-95433262D01*
X146616560Y-95388696D01*
X146684801Y-95224354D01*
X146685142Y-94834184D01*
X147482000Y-94834184D01*
X147740849Y-94785478D01*
X147978585Y-94632499D01*
X148082547Y-94480346D01*
X148171501Y-94618585D01*
X148171501Y-94618585D01*
G37*
X148171501Y-94618585D02*
X148404921Y-94778074D01*
X148682000Y-94834184D01*
X149987000Y-94834184D01*
X149987000Y-95250000D01*
X150013475Y-95383100D01*
X149875875Y-95245500D01*
X149325059Y-95245500D01*
X149068331Y-95351840D01*
X148979147Y-95441025D01*
X148755079Y-95287926D01*
X148478000Y-95231816D01*
X147178000Y-95231816D01*
X146919151Y-95280522D01*
X146681786Y-95433262D01*
X146616560Y-95388696D01*
X146684801Y-95224354D01*
X146685142Y-94834184D01*
X147482000Y-94834184D01*
X147740849Y-94785478D01*
X147978585Y-94632499D01*
X148082547Y-94480346D01*
X148171501Y-94618585D01*
G36*
X192576621Y-76838488D02*
X193200665Y-77097614D01*
X193876370Y-77098204D01*
X194500866Y-76840167D01*
X194552500Y-76788623D01*
X194552500Y-95206082D01*
X193757473Y-94411055D01*
X193539999Y-94262461D01*
X193263722Y-94202529D01*
X193082622Y-94236605D01*
X193117471Y-94075956D01*
X193065194Y-93798127D01*
X192908945Y-93562527D01*
X191848285Y-92501867D01*
X191630811Y-92353273D01*
X191354534Y-92293341D01*
X191076705Y-92345618D01*
X191002239Y-92395003D01*
X190843100Y-92235864D01*
X190843198Y-92123641D01*
X190669554Y-91703388D01*
X190348303Y-91381577D01*
X189928354Y-91207199D01*
X189473641Y-91206802D01*
X189053388Y-91380446D01*
X188731577Y-91701697D01*
X188557199Y-92121646D01*
X188556802Y-92576359D01*
X188730446Y-92996612D01*
X188737287Y-93003465D01*
X188239416Y-93003030D01*
X188133873Y-93046639D01*
X188150186Y-93007354D01*
X188150776Y-92331649D01*
X187892739Y-91707153D01*
X187517594Y-91331353D01*
X187517594Y-90939434D01*
X188108133Y-90348895D01*
X188256727Y-90131421D01*
X188316659Y-89855144D01*
X188264382Y-89577315D01*
X188108133Y-89341715D01*
X187186827Y-88420409D01*
X187514136Y-88093100D01*
X187626359Y-88093198D01*
X188046612Y-87919554D01*
X188368423Y-87598303D01*
X188542801Y-87178354D01*
X188543198Y-86723641D01*
X188478476Y-86567000D01*
X188687764Y-86567000D01*
X189199766Y-87079002D01*
X189199766Y-87760810D01*
X189248472Y-88019659D01*
X189401451Y-88257395D01*
X189634871Y-88416884D01*
X189911950Y-88472994D01*
X190712050Y-88472994D01*
X190970899Y-88424288D01*
X191208635Y-88271309D01*
X191259775Y-88196464D01*
X191416282Y-88352970D01*
X191673010Y-88459310D01*
X191973875Y-88459310D01*
X192148500Y-88284685D01*
X192148500Y-87424260D01*
X192275500Y-87424260D01*
X192275500Y-88284685D01*
X192450125Y-88459310D01*
X192750990Y-88459310D01*
X193007718Y-88352970D01*
X193204210Y-88156479D01*
X193310550Y-87899751D01*
X193310550Y-87598885D01*
X193135925Y-87424260D01*
X192275500Y-87424260D01*
X192148500Y-87424260D01*
X192128500Y-87424260D01*
X192128500Y-87297260D01*
X192148500Y-87297260D01*
X192148500Y-86436835D01*
X192275500Y-86436835D01*
X192275500Y-87297260D01*
X193135925Y-87297260D01*
X193310550Y-87122635D01*
X193310550Y-86821769D01*
X193204210Y-86565041D01*
X193007718Y-86368550D01*
X192750990Y-86262210D01*
X192450125Y-86262210D01*
X192275500Y-86436835D01*
X192148500Y-86436835D01*
X192052372Y-86340707D01*
X192158635Y-86272329D01*
X192318124Y-86038909D01*
X192374234Y-85761830D01*
X192374234Y-84961730D01*
X192325528Y-84702881D01*
X192172549Y-84465145D01*
X191939129Y-84305656D01*
X191662050Y-84249546D01*
X191424782Y-84249546D01*
X190874618Y-83699382D01*
X190841308Y-83677125D01*
X190821035Y-83663579D01*
X186827103Y-79669647D01*
X187272551Y-79224976D01*
X187596977Y-78443670D01*
X187769115Y-78860275D01*
X188246494Y-79338488D01*
X188870538Y-79597614D01*
X189546243Y-79598204D01*
X190170739Y-79340167D01*
X190648952Y-78862788D01*
X190908078Y-78238744D01*
X190908668Y-77563039D01*
X190650631Y-76938543D01*
X190173252Y-76460330D01*
X190000047Y-76388409D01*
X192127327Y-76388409D01*
X192576621Y-76838488D01*
X192576621Y-76838488D01*
G37*
X192576621Y-76838488D02*
X193200665Y-77097614D01*
X193876370Y-77098204D01*
X194500866Y-76840167D01*
X194552500Y-76788623D01*
X194552500Y-95206082D01*
X193757473Y-94411055D01*
X193539999Y-94262461D01*
X193263722Y-94202529D01*
X193082622Y-94236605D01*
X193117471Y-94075956D01*
X193065194Y-93798127D01*
X192908945Y-93562527D01*
X191848285Y-92501867D01*
X191630811Y-92353273D01*
X191354534Y-92293341D01*
X191076705Y-92345618D01*
X191002239Y-92395003D01*
X190843100Y-92235864D01*
X190843198Y-92123641D01*
X190669554Y-91703388D01*
X190348303Y-91381577D01*
X189928354Y-91207199D01*
X189473641Y-91206802D01*
X189053388Y-91380446D01*
X188731577Y-91701697D01*
X188557199Y-92121646D01*
X188556802Y-92576359D01*
X188730446Y-92996612D01*
X188737287Y-93003465D01*
X188239416Y-93003030D01*
X188133873Y-93046639D01*
X188150186Y-93007354D01*
X188150776Y-92331649D01*
X187892739Y-91707153D01*
X187517594Y-91331353D01*
X187517594Y-90939434D01*
X188108133Y-90348895D01*
X188256727Y-90131421D01*
X188316659Y-89855144D01*
X188264382Y-89577315D01*
X188108133Y-89341715D01*
X187186827Y-88420409D01*
X187514136Y-88093100D01*
X187626359Y-88093198D01*
X188046612Y-87919554D01*
X188368423Y-87598303D01*
X188542801Y-87178354D01*
X188543198Y-86723641D01*
X188478476Y-86567000D01*
X188687764Y-86567000D01*
X189199766Y-87079002D01*
X189199766Y-87760810D01*
X189248472Y-88019659D01*
X189401451Y-88257395D01*
X189634871Y-88416884D01*
X189911950Y-88472994D01*
X190712050Y-88472994D01*
X190970899Y-88424288D01*
X191208635Y-88271309D01*
X191259775Y-88196464D01*
X191416282Y-88352970D01*
X191673010Y-88459310D01*
X191973875Y-88459310D01*
X192148500Y-88284685D01*
X192148500Y-87424260D01*
X192275500Y-87424260D01*
X192275500Y-88284685D01*
X192450125Y-88459310D01*
X192750990Y-88459310D01*
X193007718Y-88352970D01*
X193204210Y-88156479D01*
X193310550Y-87899751D01*
X193310550Y-87598885D01*
X193135925Y-87424260D01*
X192275500Y-87424260D01*
X192148500Y-87424260D01*
X192128500Y-87424260D01*
X192128500Y-87297260D01*
X192148500Y-87297260D01*
X192148500Y-86436835D01*
X192275500Y-86436835D01*
X192275500Y-87297260D01*
X193135925Y-87297260D01*
X193310550Y-87122635D01*
X193310550Y-86821769D01*
X193204210Y-86565041D01*
X193007718Y-86368550D01*
X192750990Y-86262210D01*
X192450125Y-86262210D01*
X192275500Y-86436835D01*
X192148500Y-86436835D01*
X192052372Y-86340707D01*
X192158635Y-86272329D01*
X192318124Y-86038909D01*
X192374234Y-85761830D01*
X192374234Y-84961730D01*
X192325528Y-84702881D01*
X192172549Y-84465145D01*
X191939129Y-84305656D01*
X191662050Y-84249546D01*
X191424782Y-84249546D01*
X190874618Y-83699382D01*
X190841308Y-83677125D01*
X190821035Y-83663579D01*
X186827103Y-79669647D01*
X187272551Y-79224976D01*
X187596977Y-78443670D01*
X187769115Y-78860275D01*
X188246494Y-79338488D01*
X188870538Y-79597614D01*
X189546243Y-79598204D01*
X190170739Y-79340167D01*
X190648952Y-78862788D01*
X190908078Y-78238744D01*
X190908668Y-77563039D01*
X190650631Y-76938543D01*
X190173252Y-76460330D01*
X190000047Y-76388409D01*
X192127327Y-76388409D01*
X192576621Y-76838488D01*
G36*
X130537816Y-86756000D02*
X130586522Y-87014849D01*
X130739501Y-87252585D01*
X130924821Y-87379208D01*
X130907199Y-87421646D01*
X130906802Y-87876359D01*
X131080446Y-88296612D01*
X131401697Y-88618423D01*
X131821646Y-88792801D01*
X132276359Y-88793198D01*
X132696612Y-88619554D01*
X133018423Y-88298303D01*
X133192801Y-87878354D01*
X133193198Y-87423641D01*
X133153119Y-87326643D01*
X133246585Y-87266499D01*
X133350547Y-87114346D01*
X133439501Y-87252585D01*
X133672921Y-87412074D01*
X133950000Y-87468184D01*
X135048580Y-87468184D01*
X134165382Y-88351382D01*
X133972671Y-88639794D01*
X133905000Y-88980000D01*
X133905000Y-89588721D01*
X133648303Y-89331577D01*
X133228354Y-89157199D01*
X132773641Y-89156802D01*
X132353388Y-89330446D01*
X132272694Y-89411000D01*
X130144234Y-89411000D01*
X130144234Y-89279730D01*
X130095528Y-89020881D01*
X129942549Y-88783145D01*
X129709129Y-88623656D01*
X129432050Y-88567546D01*
X128631950Y-88567546D01*
X128373101Y-88616252D01*
X128135365Y-88769231D01*
X127975876Y-89002651D01*
X127919766Y-89279730D01*
X127919766Y-90079830D01*
X127968472Y-90338679D01*
X128115088Y-90566526D01*
X127681950Y-90566526D01*
X127423101Y-90615232D01*
X127185365Y-90768211D01*
X127025876Y-91001631D01*
X126969766Y-91278710D01*
X126969766Y-91575282D01*
X126860671Y-91738554D01*
X126793000Y-92078760D01*
X126793000Y-92135971D01*
X126673151Y-92158522D01*
X126435415Y-92311501D01*
X126318014Y-92483323D01*
X126281478Y-92289151D01*
X126128499Y-92051415D01*
X125976346Y-91947453D01*
X126114585Y-91858499D01*
X126274074Y-91625079D01*
X126330184Y-91348000D01*
X126330184Y-89848000D01*
X126281478Y-89589151D01*
X126227693Y-89505566D01*
X126342801Y-89228354D01*
X126343198Y-88773641D01*
X126333293Y-88749669D01*
X126556206Y-88705329D01*
X126844618Y-88512618D01*
X129018236Y-86339000D01*
X130200000Y-86339000D01*
X130537816Y-86271804D01*
X130537816Y-86756000D01*
X130537816Y-86756000D01*
G37*
X130537816Y-86756000D02*
X130586522Y-87014849D01*
X130739501Y-87252585D01*
X130924821Y-87379208D01*
X130907199Y-87421646D01*
X130906802Y-87876359D01*
X131080446Y-88296612D01*
X131401697Y-88618423D01*
X131821646Y-88792801D01*
X132276359Y-88793198D01*
X132696612Y-88619554D01*
X133018423Y-88298303D01*
X133192801Y-87878354D01*
X133193198Y-87423641D01*
X133153119Y-87326643D01*
X133246585Y-87266499D01*
X133350547Y-87114346D01*
X133439501Y-87252585D01*
X133672921Y-87412074D01*
X133950000Y-87468184D01*
X135048580Y-87468184D01*
X134165382Y-88351382D01*
X133972671Y-88639794D01*
X133905000Y-88980000D01*
X133905000Y-89588721D01*
X133648303Y-89331577D01*
X133228354Y-89157199D01*
X132773641Y-89156802D01*
X132353388Y-89330446D01*
X132272694Y-89411000D01*
X130144234Y-89411000D01*
X130144234Y-89279730D01*
X130095528Y-89020881D01*
X129942549Y-88783145D01*
X129709129Y-88623656D01*
X129432050Y-88567546D01*
X128631950Y-88567546D01*
X128373101Y-88616252D01*
X128135365Y-88769231D01*
X127975876Y-89002651D01*
X127919766Y-89279730D01*
X127919766Y-90079830D01*
X127968472Y-90338679D01*
X128115088Y-90566526D01*
X127681950Y-90566526D01*
X127423101Y-90615232D01*
X127185365Y-90768211D01*
X127025876Y-91001631D01*
X126969766Y-91278710D01*
X126969766Y-91575282D01*
X126860671Y-91738554D01*
X126793000Y-92078760D01*
X126793000Y-92135971D01*
X126673151Y-92158522D01*
X126435415Y-92311501D01*
X126318014Y-92483323D01*
X126281478Y-92289151D01*
X126128499Y-92051415D01*
X125976346Y-91947453D01*
X126114585Y-91858499D01*
X126274074Y-91625079D01*
X126330184Y-91348000D01*
X126330184Y-89848000D01*
X126281478Y-89589151D01*
X126227693Y-89505566D01*
X126342801Y-89228354D01*
X126343198Y-88773641D01*
X126333293Y-88749669D01*
X126556206Y-88705329D01*
X126844618Y-88512618D01*
X129018236Y-86339000D01*
X130200000Y-86339000D01*
X130537816Y-86271804D01*
X130537816Y-86756000D01*
G36*
X146019766Y-91575282D02*
X145910671Y-91738554D01*
X145843000Y-92078760D01*
X145843000Y-92135971D01*
X145723151Y-92158522D01*
X145485415Y-92311501D01*
X145415443Y-92413908D01*
X145358499Y-92325415D01*
X145125079Y-92165926D01*
X144848000Y-92109816D01*
X144796550Y-92109816D01*
X144796550Y-91916885D01*
X144621925Y-91742260D01*
X143761500Y-91742260D01*
X143761500Y-91762260D01*
X143637000Y-91762260D01*
X143637000Y-91595260D01*
X143761500Y-91595260D01*
X143761500Y-91615260D01*
X144621925Y-91615260D01*
X144670185Y-91567000D01*
X146019766Y-91567000D01*
X146019766Y-91575282D01*
X146019766Y-91575282D01*
G37*
X146019766Y-91575282D02*
X145910671Y-91738554D01*
X145843000Y-92078760D01*
X145843000Y-92135971D01*
X145723151Y-92158522D01*
X145485415Y-92311501D01*
X145415443Y-92413908D01*
X145358499Y-92325415D01*
X145125079Y-92165926D01*
X144848000Y-92109816D01*
X144796550Y-92109816D01*
X144796550Y-91916885D01*
X144621925Y-91742260D01*
X143761500Y-91742260D01*
X143761500Y-91762260D01*
X143637000Y-91762260D01*
X143637000Y-91595260D01*
X143761500Y-91595260D01*
X143761500Y-91615260D01*
X144621925Y-91615260D01*
X144670185Y-91567000D01*
X146019766Y-91567000D01*
X146019766Y-91575282D01*
G36*
X150749000Y-91808236D02*
X150749000Y-92413220D01*
X150692499Y-92325415D01*
X150459079Y-92165926D01*
X150182000Y-92109816D01*
X150130550Y-92109816D01*
X150130550Y-91916885D01*
X149955925Y-91742260D01*
X149095500Y-91742260D01*
X149095500Y-91762260D01*
X148968500Y-91762260D01*
X148968500Y-91742260D01*
X148948500Y-91742260D01*
X148948500Y-91615260D01*
X148968500Y-91615260D01*
X148968500Y-91595260D01*
X149095500Y-91595260D01*
X149095500Y-91615260D01*
X149955925Y-91615260D01*
X150004185Y-91567000D01*
X150507764Y-91567000D01*
X150749000Y-91808236D01*
X150749000Y-91808236D01*
G37*
X150749000Y-91808236D02*
X150749000Y-92413220D01*
X150692499Y-92325415D01*
X150459079Y-92165926D01*
X150182000Y-92109816D01*
X150130550Y-92109816D01*
X150130550Y-91916885D01*
X149955925Y-91742260D01*
X149095500Y-91742260D01*
X149095500Y-91762260D01*
X148968500Y-91762260D01*
X148968500Y-91742260D01*
X148948500Y-91742260D01*
X148948500Y-91615260D01*
X148968500Y-91615260D01*
X148968500Y-91595260D01*
X149095500Y-91595260D01*
X149095500Y-91615260D01*
X149955925Y-91615260D01*
X150004185Y-91567000D01*
X150507764Y-91567000D01*
X150749000Y-91808236D01*
G36*
X133905000Y-91330047D02*
X133711151Y-91366522D01*
X133473415Y-91519501D01*
X133440960Y-91567000D01*
X132807588Y-91567000D01*
X132728303Y-91487577D01*
X132308354Y-91313199D01*
X131853641Y-91312802D01*
X131433388Y-91486446D01*
X131111577Y-91807697D01*
X131070437Y-91906772D01*
X130905925Y-91742260D01*
X130045500Y-91742260D01*
X130045500Y-91762260D01*
X129918500Y-91762260D01*
X129918500Y-91742260D01*
X129898500Y-91742260D01*
X129898500Y-91615260D01*
X129918500Y-91615260D01*
X129918500Y-91595260D01*
X130045500Y-91595260D01*
X130045500Y-91615260D01*
X130905925Y-91615260D01*
X131080550Y-91440635D01*
X131080550Y-91189000D01*
X132272412Y-91189000D01*
X132351697Y-91268423D01*
X132771646Y-91442801D01*
X133226359Y-91443198D01*
X133646612Y-91269554D01*
X133905000Y-91011616D01*
X133905000Y-91330047D01*
X133905000Y-91330047D01*
G37*
X133905000Y-91330047D02*
X133711151Y-91366522D01*
X133473415Y-91519501D01*
X133440960Y-91567000D01*
X132807588Y-91567000D01*
X132728303Y-91487577D01*
X132308354Y-91313199D01*
X131853641Y-91312802D01*
X131433388Y-91486446D01*
X131111577Y-91807697D01*
X131070437Y-91906772D01*
X130905925Y-91742260D01*
X130045500Y-91742260D01*
X130045500Y-91762260D01*
X129918500Y-91762260D01*
X129918500Y-91742260D01*
X129898500Y-91742260D01*
X129898500Y-91615260D01*
X129918500Y-91615260D01*
X129918500Y-91595260D01*
X130045500Y-91595260D01*
X130045500Y-91615260D01*
X130905925Y-91615260D01*
X131080550Y-91440635D01*
X131080550Y-91189000D01*
X132272412Y-91189000D01*
X132351697Y-91268423D01*
X132771646Y-91442801D01*
X133226359Y-91443198D01*
X133646612Y-91269554D01*
X133905000Y-91011616D01*
X133905000Y-91330047D01*
G36*
X163065500Y-91615260D02*
X163085500Y-91615260D01*
X163085500Y-91742260D01*
X163065500Y-91742260D01*
X163065500Y-91762260D01*
X162938500Y-91762260D01*
X162938500Y-91742260D01*
X162918500Y-91742260D01*
X162918500Y-91615260D01*
X162938500Y-91615260D01*
X162938500Y-91595260D01*
X163065500Y-91595260D01*
X163065500Y-91615260D01*
X163065500Y-91615260D01*
G37*
X163065500Y-91615260D02*
X163085500Y-91615260D01*
X163085500Y-91742260D01*
X163065500Y-91742260D01*
X163065500Y-91762260D01*
X162938500Y-91762260D01*
X162938500Y-91742260D01*
X162918500Y-91742260D01*
X162918500Y-91615260D01*
X162938500Y-91615260D01*
X162938500Y-91595260D01*
X163065500Y-91595260D01*
X163065500Y-91615260D01*
G36*
X164767500Y-89709060D02*
X164767500Y-90359875D01*
X164942125Y-90534500D01*
X166052500Y-90534500D01*
X166052500Y-90514500D01*
X166179500Y-90514500D01*
X166179500Y-90534500D01*
X167289875Y-90534500D01*
X167399570Y-90424806D01*
X167519382Y-90544618D01*
X167760471Y-90705709D01*
X167690197Y-91059000D01*
X167464500Y-91059000D01*
X167464500Y-90836125D01*
X167289875Y-90661500D01*
X166179500Y-90661500D01*
X166179500Y-90681500D01*
X166052500Y-90681500D01*
X166052500Y-90661500D01*
X164942125Y-90661500D01*
X164767500Y-90836125D01*
X164767500Y-91074615D01*
X164505794Y-91126671D01*
X164217382Y-91319382D01*
X164100550Y-91436214D01*
X164100550Y-91139769D01*
X163994210Y-90883041D01*
X163883033Y-90771864D01*
X164222612Y-90631554D01*
X164544423Y-90310303D01*
X164718801Y-89890354D01*
X164719111Y-89535000D01*
X164839598Y-89535000D01*
X164767500Y-89709060D01*
X164767500Y-89709060D01*
G37*
X164767500Y-89709060D02*
X164767500Y-90359875D01*
X164942125Y-90534500D01*
X166052500Y-90534500D01*
X166052500Y-90514500D01*
X166179500Y-90514500D01*
X166179500Y-90534500D01*
X167289875Y-90534500D01*
X167399570Y-90424806D01*
X167519382Y-90544618D01*
X167760471Y-90705709D01*
X167690197Y-91059000D01*
X167464500Y-91059000D01*
X167464500Y-90836125D01*
X167289875Y-90661500D01*
X166179500Y-90661500D01*
X166179500Y-90681500D01*
X166052500Y-90681500D01*
X166052500Y-90661500D01*
X164942125Y-90661500D01*
X164767500Y-90836125D01*
X164767500Y-91074615D01*
X164505794Y-91126671D01*
X164217382Y-91319382D01*
X164100550Y-91436214D01*
X164100550Y-91139769D01*
X163994210Y-90883041D01*
X163883033Y-90771864D01*
X164222612Y-90631554D01*
X164544423Y-90310303D01*
X164718801Y-89890354D01*
X164719111Y-89535000D01*
X164839598Y-89535000D01*
X164767500Y-89709060D01*
G36*
X126859697Y-85804423D02*
X126985926Y-85856838D01*
X125847764Y-86995000D01*
X124714000Y-86995000D01*
X124373794Y-87062671D01*
X124313821Y-87102744D01*
X124159554Y-86729388D01*
X123838303Y-86407577D01*
X123418354Y-86233199D01*
X123245349Y-86233048D01*
X123204306Y-86169500D01*
X121475500Y-86169500D01*
X121475500Y-86189500D01*
X121348500Y-86189500D01*
X121348500Y-86169500D01*
X121328500Y-86169500D01*
X121328500Y-86042500D01*
X121348500Y-86042500D01*
X121348500Y-86022500D01*
X121475500Y-86022500D01*
X121475500Y-86042500D01*
X123204306Y-86042500D01*
X123351221Y-85815025D01*
X123326445Y-85725000D01*
X126780412Y-85725000D01*
X126859697Y-85804423D01*
X126859697Y-85804423D01*
G37*
X126859697Y-85804423D02*
X126985926Y-85856838D01*
X125847764Y-86995000D01*
X124714000Y-86995000D01*
X124373794Y-87062671D01*
X124313821Y-87102744D01*
X124159554Y-86729388D01*
X123838303Y-86407577D01*
X123418354Y-86233199D01*
X123245349Y-86233048D01*
X123204306Y-86169500D01*
X121475500Y-86169500D01*
X121475500Y-86189500D01*
X121348500Y-86189500D01*
X121348500Y-86169500D01*
X121328500Y-86169500D01*
X121328500Y-86042500D01*
X121348500Y-86042500D01*
X121348500Y-86022500D01*
X121475500Y-86022500D01*
X121475500Y-86042500D01*
X123204306Y-86042500D01*
X123351221Y-85815025D01*
X123326445Y-85725000D01*
X126780412Y-85725000D01*
X126859697Y-85804423D01*
G36*
X156861000Y-82053001D02*
X156861000Y-85050000D01*
X156928671Y-85390206D01*
X156982656Y-85471000D01*
X153192552Y-85471000D01*
X152770300Y-85048011D01*
X152201367Y-84811769D01*
X151903726Y-84811510D01*
X152474511Y-84240725D01*
X152767697Y-84534423D01*
X153187646Y-84708801D01*
X153642359Y-84709198D01*
X154062612Y-84535554D01*
X154230697Y-84367762D01*
X154399060Y-84437500D01*
X155049875Y-84437500D01*
X155224500Y-84262875D01*
X155224500Y-83502500D01*
X155351500Y-83502500D01*
X155351500Y-84262875D01*
X155526125Y-84437500D01*
X156176940Y-84437500D01*
X156433668Y-84331160D01*
X156630160Y-84134669D01*
X156736500Y-83877941D01*
X156736500Y-83677125D01*
X156561875Y-83502500D01*
X155351500Y-83502500D01*
X155224500Y-83502500D01*
X155204500Y-83502500D01*
X155204500Y-83375500D01*
X155224500Y-83375500D01*
X155224500Y-83355500D01*
X155351500Y-83355500D01*
X155351500Y-83375500D01*
X156561875Y-83375500D01*
X156736500Y-83200875D01*
X156736500Y-83000059D01*
X156654991Y-82803279D01*
X156694074Y-82746079D01*
X156750184Y-82469000D01*
X156750184Y-82052904D01*
X156861000Y-82053001D01*
X156861000Y-82053001D01*
G37*
X156861000Y-82053001D02*
X156861000Y-85050000D01*
X156928671Y-85390206D01*
X156982656Y-85471000D01*
X153192552Y-85471000D01*
X152770300Y-85048011D01*
X152201367Y-84811769D01*
X151903726Y-84811510D01*
X152474511Y-84240725D01*
X152767697Y-84534423D01*
X153187646Y-84708801D01*
X153642359Y-84709198D01*
X154062612Y-84535554D01*
X154230697Y-84367762D01*
X154399060Y-84437500D01*
X155049875Y-84437500D01*
X155224500Y-84262875D01*
X155224500Y-83502500D01*
X155351500Y-83502500D01*
X155351500Y-84262875D01*
X155526125Y-84437500D01*
X156176940Y-84437500D01*
X156433668Y-84331160D01*
X156630160Y-84134669D01*
X156736500Y-83877941D01*
X156736500Y-83677125D01*
X156561875Y-83502500D01*
X155351500Y-83502500D01*
X155224500Y-83502500D01*
X155204500Y-83502500D01*
X155204500Y-83375500D01*
X155224500Y-83375500D01*
X155224500Y-83355500D01*
X155351500Y-83355500D01*
X155351500Y-83375500D01*
X156561875Y-83375500D01*
X156736500Y-83200875D01*
X156736500Y-83000059D01*
X156654991Y-82803279D01*
X156694074Y-82746079D01*
X156750184Y-82469000D01*
X156750184Y-82052904D01*
X156861000Y-82053001D01*
G36*
X128183794Y-83117329D02*
X128524000Y-83185000D01*
X129574412Y-83185000D01*
X129653697Y-83264423D01*
X130073646Y-83438801D01*
X130528359Y-83439198D01*
X130537816Y-83435290D01*
X130537816Y-83854948D01*
X129831764Y-84561000D01*
X128650000Y-84561000D01*
X128632535Y-84564474D01*
X128477554Y-84189388D01*
X128156303Y-83867577D01*
X127736354Y-83693199D01*
X127281641Y-83692802D01*
X126861388Y-83866446D01*
X126780694Y-83947000D01*
X123326445Y-83947000D01*
X123351221Y-83856975D01*
X123204306Y-83629500D01*
X121475500Y-83629500D01*
X121475500Y-83649500D01*
X121348500Y-83649500D01*
X121348500Y-83629500D01*
X119619694Y-83629500D01*
X119472779Y-83856975D01*
X119504637Y-83972732D01*
X119293794Y-84014671D01*
X119034843Y-84187697D01*
X119005382Y-84207382D01*
X118423764Y-84789000D01*
X117668029Y-84789000D01*
X117645478Y-84669151D01*
X117492499Y-84431415D01*
X117340346Y-84327453D01*
X117478585Y-84238499D01*
X117638074Y-84005079D01*
X117694184Y-83728000D01*
X117694184Y-83242872D01*
X117715697Y-83264423D01*
X118135646Y-83438801D01*
X118590359Y-83439198D01*
X119010612Y-83265554D01*
X119091306Y-83185000D01*
X119497555Y-83185000D01*
X119472779Y-83275025D01*
X119619694Y-83502500D01*
X121348500Y-83502500D01*
X121348500Y-83482500D01*
X121475500Y-83482500D01*
X121475500Y-83502500D01*
X123204306Y-83502500D01*
X123351221Y-83275025D01*
X123326445Y-83185000D01*
X126526412Y-83185000D01*
X126605697Y-83264423D01*
X127025646Y-83438801D01*
X127480359Y-83439198D01*
X127900612Y-83265554D01*
X128103104Y-83063414D01*
X128183794Y-83117329D01*
X128183794Y-83117329D01*
G37*
X128183794Y-83117329D02*
X128524000Y-83185000D01*
X129574412Y-83185000D01*
X129653697Y-83264423D01*
X130073646Y-83438801D01*
X130528359Y-83439198D01*
X130537816Y-83435290D01*
X130537816Y-83854948D01*
X129831764Y-84561000D01*
X128650000Y-84561000D01*
X128632535Y-84564474D01*
X128477554Y-84189388D01*
X128156303Y-83867577D01*
X127736354Y-83693199D01*
X127281641Y-83692802D01*
X126861388Y-83866446D01*
X126780694Y-83947000D01*
X123326445Y-83947000D01*
X123351221Y-83856975D01*
X123204306Y-83629500D01*
X121475500Y-83629500D01*
X121475500Y-83649500D01*
X121348500Y-83649500D01*
X121348500Y-83629500D01*
X119619694Y-83629500D01*
X119472779Y-83856975D01*
X119504637Y-83972732D01*
X119293794Y-84014671D01*
X119034843Y-84187697D01*
X119005382Y-84207382D01*
X118423764Y-84789000D01*
X117668029Y-84789000D01*
X117645478Y-84669151D01*
X117492499Y-84431415D01*
X117340346Y-84327453D01*
X117478585Y-84238499D01*
X117638074Y-84005079D01*
X117694184Y-83728000D01*
X117694184Y-83242872D01*
X117715697Y-83264423D01*
X118135646Y-83438801D01*
X118590359Y-83439198D01*
X119010612Y-83265554D01*
X119091306Y-83185000D01*
X119497555Y-83185000D01*
X119472779Y-83275025D01*
X119619694Y-83502500D01*
X121348500Y-83502500D01*
X121348500Y-83482500D01*
X121475500Y-83482500D01*
X121475500Y-83502500D01*
X123204306Y-83502500D01*
X123351221Y-83275025D01*
X123326445Y-83185000D01*
X126526412Y-83185000D01*
X126605697Y-83264423D01*
X127025646Y-83438801D01*
X127480359Y-83439198D01*
X127900612Y-83265554D01*
X128103104Y-83063414D01*
X128183794Y-83117329D01*
G36*
X156386522Y-72158849D02*
X156539501Y-72396585D01*
X156772921Y-72556074D01*
X157050000Y-72612184D01*
X158161509Y-72612184D01*
X158115000Y-72846000D01*
X158115000Y-75184000D01*
X158182671Y-75524206D01*
X158275698Y-75663430D01*
X158375382Y-75812618D01*
X159010382Y-76447618D01*
X159261032Y-76615098D01*
X159225816Y-76789000D01*
X159225816Y-77389000D01*
X159274522Y-77647849D01*
X159321812Y-77721340D01*
X159239500Y-77920059D01*
X159239500Y-78120875D01*
X159414125Y-78295500D01*
X160624500Y-78295500D01*
X160624500Y-78275500D01*
X160751500Y-78275500D01*
X160751500Y-78295500D01*
X161961875Y-78295500D01*
X162136500Y-78120875D01*
X162136500Y-77978000D01*
X164861431Y-77978000D01*
X164951697Y-78068423D01*
X165371646Y-78242801D01*
X165826359Y-78243198D01*
X166246612Y-78069554D01*
X166455897Y-77860633D01*
X167335264Y-78740000D01*
X162136500Y-78740000D01*
X162136500Y-78597125D01*
X161961875Y-78422500D01*
X160751500Y-78422500D01*
X160751500Y-78442500D01*
X160624500Y-78442500D01*
X160624500Y-78422500D01*
X159414125Y-78422500D01*
X159239500Y-78597125D01*
X159239500Y-78797941D01*
X159321009Y-78994721D01*
X159281926Y-79051921D01*
X159225816Y-79329000D01*
X159225816Y-79929000D01*
X159274522Y-80187849D01*
X159322543Y-80262476D01*
X159281926Y-80321921D01*
X159225816Y-80599000D01*
X159225816Y-81199000D01*
X159274522Y-81457849D01*
X159322543Y-81532476D01*
X159281926Y-81591921D01*
X159225816Y-81869000D01*
X159225816Y-82469000D01*
X159274522Y-82727849D01*
X159322543Y-82802476D01*
X159281926Y-82861921D01*
X159225816Y-83139000D01*
X159225816Y-83439193D01*
X158777641Y-83438802D01*
X158639000Y-83496087D01*
X158639000Y-80070000D01*
X158571329Y-79729794D01*
X158516003Y-79646993D01*
X158606612Y-79609554D01*
X158928423Y-79288303D01*
X159102801Y-78868354D01*
X159103198Y-78413641D01*
X158929554Y-77993388D01*
X158650097Y-77713444D01*
X158722801Y-77538354D01*
X158723198Y-77083641D01*
X158549554Y-76663388D01*
X158228303Y-76341577D01*
X157808354Y-76167199D01*
X157353641Y-76166802D01*
X157273295Y-76200000D01*
X156733781Y-76200000D01*
X156750184Y-76119000D01*
X156750184Y-75519000D01*
X156701478Y-75260151D01*
X156653457Y-75185524D01*
X156694074Y-75126079D01*
X156750184Y-74849000D01*
X156750184Y-74249000D01*
X156701478Y-73990151D01*
X156548499Y-73752415D01*
X156315079Y-73592926D01*
X156038000Y-73536816D01*
X154538000Y-73536816D01*
X154279151Y-73585522D01*
X154228533Y-73618094D01*
X154064303Y-73453577D01*
X153644354Y-73279199D01*
X153189641Y-73278802D01*
X152769388Y-73452446D01*
X152447577Y-73773697D01*
X152419466Y-73841396D01*
X152146000Y-73787000D01*
X142874889Y-73787000D01*
X142875133Y-73507712D01*
X143088206Y-73465329D01*
X143376618Y-73272618D01*
X143980989Y-72668247D01*
X144578664Y-72668768D01*
X145148009Y-72433520D01*
X145542305Y-72039911D01*
X145933700Y-72431989D01*
X146502633Y-72668231D01*
X147118664Y-72668768D01*
X147688009Y-72433520D01*
X148082305Y-72039911D01*
X148473700Y-72431989D01*
X149042633Y-72668231D01*
X149658664Y-72668768D01*
X150228009Y-72433520D01*
X150622305Y-72039911D01*
X151013700Y-72431989D01*
X151582633Y-72668231D01*
X152198664Y-72668768D01*
X152768009Y-72433520D01*
X153193270Y-72009000D01*
X156358326Y-72009000D01*
X156386522Y-72158849D01*
X156386522Y-72158849D01*
G37*
X156386522Y-72158849D02*
X156539501Y-72396585D01*
X156772921Y-72556074D01*
X157050000Y-72612184D01*
X158161509Y-72612184D01*
X158115000Y-72846000D01*
X158115000Y-75184000D01*
X158182671Y-75524206D01*
X158275698Y-75663430D01*
X158375382Y-75812618D01*
X159010382Y-76447618D01*
X159261032Y-76615098D01*
X159225816Y-76789000D01*
X159225816Y-77389000D01*
X159274522Y-77647849D01*
X159321812Y-77721340D01*
X159239500Y-77920059D01*
X159239500Y-78120875D01*
X159414125Y-78295500D01*
X160624500Y-78295500D01*
X160624500Y-78275500D01*
X160751500Y-78275500D01*
X160751500Y-78295500D01*
X161961875Y-78295500D01*
X162136500Y-78120875D01*
X162136500Y-77978000D01*
X164861431Y-77978000D01*
X164951697Y-78068423D01*
X165371646Y-78242801D01*
X165826359Y-78243198D01*
X166246612Y-78069554D01*
X166455897Y-77860633D01*
X167335264Y-78740000D01*
X162136500Y-78740000D01*
X162136500Y-78597125D01*
X161961875Y-78422500D01*
X160751500Y-78422500D01*
X160751500Y-78442500D01*
X160624500Y-78442500D01*
X160624500Y-78422500D01*
X159414125Y-78422500D01*
X159239500Y-78597125D01*
X159239500Y-78797941D01*
X159321009Y-78994721D01*
X159281926Y-79051921D01*
X159225816Y-79329000D01*
X159225816Y-79929000D01*
X159274522Y-80187849D01*
X159322543Y-80262476D01*
X159281926Y-80321921D01*
X159225816Y-80599000D01*
X159225816Y-81199000D01*
X159274522Y-81457849D01*
X159322543Y-81532476D01*
X159281926Y-81591921D01*
X159225816Y-81869000D01*
X159225816Y-82469000D01*
X159274522Y-82727849D01*
X159322543Y-82802476D01*
X159281926Y-82861921D01*
X159225816Y-83139000D01*
X159225816Y-83439193D01*
X158777641Y-83438802D01*
X158639000Y-83496087D01*
X158639000Y-80070000D01*
X158571329Y-79729794D01*
X158516003Y-79646993D01*
X158606612Y-79609554D01*
X158928423Y-79288303D01*
X159102801Y-78868354D01*
X159103198Y-78413641D01*
X158929554Y-77993388D01*
X158650097Y-77713444D01*
X158722801Y-77538354D01*
X158723198Y-77083641D01*
X158549554Y-76663388D01*
X158228303Y-76341577D01*
X157808354Y-76167199D01*
X157353641Y-76166802D01*
X157273295Y-76200000D01*
X156733781Y-76200000D01*
X156750184Y-76119000D01*
X156750184Y-75519000D01*
X156701478Y-75260151D01*
X156653457Y-75185524D01*
X156694074Y-75126079D01*
X156750184Y-74849000D01*
X156750184Y-74249000D01*
X156701478Y-73990151D01*
X156548499Y-73752415D01*
X156315079Y-73592926D01*
X156038000Y-73536816D01*
X154538000Y-73536816D01*
X154279151Y-73585522D01*
X154228533Y-73618094D01*
X154064303Y-73453577D01*
X153644354Y-73279199D01*
X153189641Y-73278802D01*
X152769388Y-73452446D01*
X152447577Y-73773697D01*
X152419466Y-73841396D01*
X152146000Y-73787000D01*
X142874889Y-73787000D01*
X142875133Y-73507712D01*
X143088206Y-73465329D01*
X143376618Y-73272618D01*
X143980989Y-72668247D01*
X144578664Y-72668768D01*
X145148009Y-72433520D01*
X145542305Y-72039911D01*
X145933700Y-72431989D01*
X146502633Y-72668231D01*
X147118664Y-72668768D01*
X147688009Y-72433520D01*
X148082305Y-72039911D01*
X148473700Y-72431989D01*
X149042633Y-72668231D01*
X149658664Y-72668768D01*
X150228009Y-72433520D01*
X150622305Y-72039911D01*
X151013700Y-72431989D01*
X151582633Y-72668231D01*
X152198664Y-72668768D01*
X152768009Y-72433520D01*
X153193270Y-72009000D01*
X156358326Y-72009000D01*
X156386522Y-72158849D01*
G36*
X187184273Y-63163350D02*
X191048592Y-65745406D01*
X193630650Y-69609727D01*
X194495378Y-73957007D01*
X193879335Y-73701204D01*
X193203630Y-73700614D01*
X192579134Y-73958651D01*
X192100921Y-74436030D01*
X192028512Y-74610409D01*
X187961665Y-74610409D01*
X188108952Y-74463379D01*
X188368078Y-73839335D01*
X188368668Y-73163630D01*
X188110631Y-72539134D01*
X187765289Y-72193188D01*
X187776359Y-72193198D01*
X188196612Y-72019554D01*
X188227219Y-71989000D01*
X189587327Y-71989000D01*
X190036621Y-72439079D01*
X190660665Y-72698205D01*
X191336370Y-72698795D01*
X191960866Y-72440758D01*
X192439079Y-71963379D01*
X192698205Y-71339335D01*
X192698795Y-70663630D01*
X192440758Y-70039134D01*
X191963379Y-69560921D01*
X191339335Y-69301795D01*
X190663630Y-69301205D01*
X190039134Y-69559242D01*
X189560921Y-70036621D01*
X189488512Y-70211000D01*
X188327501Y-70211000D01*
X188198303Y-70081577D01*
X187778354Y-69907199D01*
X187323641Y-69906802D01*
X186903388Y-70080446D01*
X186581577Y-70401697D01*
X186407199Y-70821646D01*
X186406802Y-71276359D01*
X186580446Y-71696612D01*
X186685164Y-71801512D01*
X186333503Y-71801205D01*
X185709007Y-72059242D01*
X185230794Y-72536621D01*
X184971668Y-73160665D01*
X184971078Y-73836370D01*
X185229115Y-74460866D01*
X185378397Y-74610409D01*
X176659091Y-74610409D01*
X176318885Y-74678080D01*
X176030473Y-74870791D01*
X173558264Y-77343000D01*
X171603279Y-77343000D01*
X171679065Y-76962000D01*
X171645465Y-76793084D01*
X171776359Y-76793198D01*
X172196612Y-76619554D01*
X172327394Y-76489000D01*
X173450000Y-76489000D01*
X173790206Y-76421329D01*
X174078618Y-76228618D01*
X174928618Y-75378618D01*
X175121330Y-75090205D01*
X175189000Y-74750000D01*
X175189000Y-73067213D01*
X175208849Y-73063478D01*
X175446585Y-72910499D01*
X175606074Y-72677079D01*
X175662184Y-72400000D01*
X175662184Y-72319420D01*
X175921382Y-72578618D01*
X176209794Y-72771329D01*
X176550000Y-72839000D01*
X180950000Y-72839000D01*
X181290206Y-72771329D01*
X181578618Y-72578618D01*
X181814136Y-72343100D01*
X181926359Y-72343198D01*
X182346612Y-72169554D01*
X182668423Y-71848303D01*
X182842801Y-71428354D01*
X182843198Y-70973641D01*
X182669554Y-70553388D01*
X182348303Y-70231577D01*
X181928354Y-70057199D01*
X181473641Y-70056802D01*
X181262184Y-70144174D01*
X181262184Y-69436961D01*
X182431078Y-69436961D01*
X182689115Y-70061457D01*
X183166494Y-70539670D01*
X183790538Y-70798796D01*
X184466243Y-70799386D01*
X185090739Y-70541349D01*
X185568952Y-70063970D01*
X185828078Y-69439926D01*
X185828668Y-68764221D01*
X185570631Y-68139725D01*
X185093252Y-67661512D01*
X184469208Y-67402386D01*
X183793503Y-67401796D01*
X183169007Y-67659833D01*
X182690794Y-68137212D01*
X182431668Y-68761256D01*
X182431078Y-69436961D01*
X181262184Y-69436961D01*
X181262184Y-68850000D01*
X181213478Y-68591151D01*
X181060499Y-68353415D01*
X180827079Y-68193926D01*
X180550000Y-68137816D01*
X179295052Y-68137816D01*
X177640081Y-66482845D01*
X186732232Y-66482845D01*
X186818691Y-67152996D01*
X187155025Y-67739049D01*
X187690028Y-68151781D01*
X187698087Y-68155755D01*
X187853566Y-68119868D01*
X188118651Y-68119868D01*
X188342254Y-68328359D01*
X189012405Y-68241900D01*
X189598458Y-67905566D01*
X190011190Y-67370563D01*
X190015164Y-67362504D01*
X189946406Y-67064612D01*
X188504901Y-66678362D01*
X188118651Y-68119868D01*
X187853566Y-68119868D01*
X187995979Y-68086997D01*
X188382229Y-66645492D01*
X188047084Y-66555690D01*
X188537771Y-66555690D01*
X189979277Y-66941940D01*
X190187768Y-66718337D01*
X190101309Y-66048186D01*
X189764975Y-65462133D01*
X189229972Y-65049401D01*
X189221913Y-65045427D01*
X188924021Y-65114185D01*
X188537771Y-66555690D01*
X188047084Y-66555690D01*
X186940723Y-66259242D01*
X186732232Y-66482845D01*
X177640081Y-66482845D01*
X177593100Y-66435864D01*
X177593198Y-66323641D01*
X177419554Y-65903388D01*
X177098303Y-65581577D01*
X176678354Y-65407199D01*
X176223641Y-65406802D01*
X175803388Y-65580446D01*
X175481577Y-65901697D01*
X175353143Y-66211000D01*
X173650000Y-66211000D01*
X173309794Y-66278671D01*
X173108782Y-66412983D01*
X173021382Y-66471382D01*
X172371382Y-67121382D01*
X172178671Y-67409794D01*
X172111000Y-67750000D01*
X172111000Y-69441517D01*
X172028354Y-69407199D01*
X171573641Y-69406802D01*
X171488001Y-69442188D01*
X171464306Y-69405500D01*
X169735500Y-69405500D01*
X169735500Y-69425500D01*
X169608500Y-69425500D01*
X169608500Y-69405500D01*
X167879694Y-69405500D01*
X167802800Y-69524558D01*
X167660499Y-69303415D01*
X167427079Y-69143926D01*
X167150000Y-69087816D01*
X166295052Y-69087816D01*
X165984118Y-68776882D01*
X165975887Y-68771382D01*
X165921183Y-68734830D01*
X166128420Y-68735011D01*
X167212509Y-68287075D01*
X167921828Y-67578993D01*
X168092706Y-67834729D01*
X168460122Y-68080229D01*
X168086369Y-68354172D01*
X167790373Y-68841757D01*
X167732779Y-69051025D01*
X167879694Y-69278500D01*
X169608500Y-69278500D01*
X169608500Y-69258500D01*
X169735500Y-69258500D01*
X169735500Y-69278500D01*
X171464306Y-69278500D01*
X171611221Y-69051025D01*
X171553627Y-68841757D01*
X171257631Y-68354172D01*
X170883878Y-68080229D01*
X171251294Y-67834729D01*
X171567891Y-67360909D01*
X171679065Y-66802000D01*
X171567891Y-66243091D01*
X171251294Y-65769271D01*
X170777474Y-65452674D01*
X170728969Y-65443026D01*
X170926359Y-65443198D01*
X171346612Y-65269554D01*
X171427306Y-65189000D01*
X178187816Y-65189000D01*
X178187816Y-65400000D01*
X178236522Y-65658849D01*
X178389501Y-65896585D01*
X178622921Y-66056074D01*
X178900000Y-66112184D01*
X180400000Y-66112184D01*
X180658849Y-66063478D01*
X180896585Y-65910499D01*
X180995462Y-65765787D01*
X181007840Y-65795669D01*
X181204332Y-65992160D01*
X181461060Y-66098500D01*
X182111875Y-66098500D01*
X182286500Y-65923875D01*
X182286500Y-64813500D01*
X182413500Y-64813500D01*
X182413500Y-65923875D01*
X182588125Y-66098500D01*
X183238940Y-66098500D01*
X183495668Y-65992160D01*
X183649150Y-65838678D01*
X186904836Y-65838678D01*
X186973594Y-66136570D01*
X188415099Y-66522820D01*
X188801349Y-65081314D01*
X188577746Y-64872823D01*
X187907595Y-64959282D01*
X187321542Y-65295616D01*
X186908810Y-65830619D01*
X186904836Y-65838678D01*
X183649150Y-65838678D01*
X183692160Y-65795669D01*
X183798500Y-65538941D01*
X183798500Y-64988125D01*
X183623875Y-64813500D01*
X182413500Y-64813500D01*
X182286500Y-64813500D01*
X182266500Y-64813500D01*
X182266500Y-64686500D01*
X182286500Y-64686500D01*
X182286500Y-63576125D01*
X182413500Y-63576125D01*
X182413500Y-64686500D01*
X183623875Y-64686500D01*
X183798500Y-64511875D01*
X183798500Y-63961059D01*
X183692160Y-63704331D01*
X183495668Y-63507840D01*
X183238940Y-63401500D01*
X182588125Y-63401500D01*
X182413500Y-63576125D01*
X182286500Y-63576125D01*
X182111875Y-63401500D01*
X181461060Y-63401500D01*
X181204332Y-63507840D01*
X181007840Y-63704331D01*
X180995150Y-63734967D01*
X180910499Y-63603415D01*
X180677079Y-63443926D01*
X180400000Y-63387816D01*
X178900000Y-63387816D01*
X178776788Y-63411000D01*
X171427588Y-63411000D01*
X171348303Y-63331577D01*
X170928354Y-63157199D01*
X170814335Y-63157099D01*
X169957118Y-62299882D01*
X169869743Y-62241500D01*
X182549819Y-62241500D01*
X187184273Y-63163350D01*
X187184273Y-63163350D01*
G37*
X187184273Y-63163350D02*
X191048592Y-65745406D01*
X193630650Y-69609727D01*
X194495378Y-73957007D01*
X193879335Y-73701204D01*
X193203630Y-73700614D01*
X192579134Y-73958651D01*
X192100921Y-74436030D01*
X192028512Y-74610409D01*
X187961665Y-74610409D01*
X188108952Y-74463379D01*
X188368078Y-73839335D01*
X188368668Y-73163630D01*
X188110631Y-72539134D01*
X187765289Y-72193188D01*
X187776359Y-72193198D01*
X188196612Y-72019554D01*
X188227219Y-71989000D01*
X189587327Y-71989000D01*
X190036621Y-72439079D01*
X190660665Y-72698205D01*
X191336370Y-72698795D01*
X191960866Y-72440758D01*
X192439079Y-71963379D01*
X192698205Y-71339335D01*
X192698795Y-70663630D01*
X192440758Y-70039134D01*
X191963379Y-69560921D01*
X191339335Y-69301795D01*
X190663630Y-69301205D01*
X190039134Y-69559242D01*
X189560921Y-70036621D01*
X189488512Y-70211000D01*
X188327501Y-70211000D01*
X188198303Y-70081577D01*
X187778354Y-69907199D01*
X187323641Y-69906802D01*
X186903388Y-70080446D01*
X186581577Y-70401697D01*
X186407199Y-70821646D01*
X186406802Y-71276359D01*
X186580446Y-71696612D01*
X186685164Y-71801512D01*
X186333503Y-71801205D01*
X185709007Y-72059242D01*
X185230794Y-72536621D01*
X184971668Y-73160665D01*
X184971078Y-73836370D01*
X185229115Y-74460866D01*
X185378397Y-74610409D01*
X176659091Y-74610409D01*
X176318885Y-74678080D01*
X176030473Y-74870791D01*
X173558264Y-77343000D01*
X171603279Y-77343000D01*
X171679065Y-76962000D01*
X171645465Y-76793084D01*
X171776359Y-76793198D01*
X172196612Y-76619554D01*
X172327394Y-76489000D01*
X173450000Y-76489000D01*
X173790206Y-76421329D01*
X174078618Y-76228618D01*
X174928618Y-75378618D01*
X175121330Y-75090205D01*
X175189000Y-74750000D01*
X175189000Y-73067213D01*
X175208849Y-73063478D01*
X175446585Y-72910499D01*
X175606074Y-72677079D01*
X175662184Y-72400000D01*
X175662184Y-72319420D01*
X175921382Y-72578618D01*
X176209794Y-72771329D01*
X176550000Y-72839000D01*
X180950000Y-72839000D01*
X181290206Y-72771329D01*
X181578618Y-72578618D01*
X181814136Y-72343100D01*
X181926359Y-72343198D01*
X182346612Y-72169554D01*
X182668423Y-71848303D01*
X182842801Y-71428354D01*
X182843198Y-70973641D01*
X182669554Y-70553388D01*
X182348303Y-70231577D01*
X181928354Y-70057199D01*
X181473641Y-70056802D01*
X181262184Y-70144174D01*
X181262184Y-69436961D01*
X182431078Y-69436961D01*
X182689115Y-70061457D01*
X183166494Y-70539670D01*
X183790538Y-70798796D01*
X184466243Y-70799386D01*
X185090739Y-70541349D01*
X185568952Y-70063970D01*
X185828078Y-69439926D01*
X185828668Y-68764221D01*
X185570631Y-68139725D01*
X185093252Y-67661512D01*
X184469208Y-67402386D01*
X183793503Y-67401796D01*
X183169007Y-67659833D01*
X182690794Y-68137212D01*
X182431668Y-68761256D01*
X182431078Y-69436961D01*
X181262184Y-69436961D01*
X181262184Y-68850000D01*
X181213478Y-68591151D01*
X181060499Y-68353415D01*
X180827079Y-68193926D01*
X180550000Y-68137816D01*
X179295052Y-68137816D01*
X177640081Y-66482845D01*
X186732232Y-66482845D01*
X186818691Y-67152996D01*
X187155025Y-67739049D01*
X187690028Y-68151781D01*
X187698087Y-68155755D01*
X187853566Y-68119868D01*
X188118651Y-68119868D01*
X188342254Y-68328359D01*
X189012405Y-68241900D01*
X189598458Y-67905566D01*
X190011190Y-67370563D01*
X190015164Y-67362504D01*
X189946406Y-67064612D01*
X188504901Y-66678362D01*
X188118651Y-68119868D01*
X187853566Y-68119868D01*
X187995979Y-68086997D01*
X188382229Y-66645492D01*
X188047084Y-66555690D01*
X188537771Y-66555690D01*
X189979277Y-66941940D01*
X190187768Y-66718337D01*
X190101309Y-66048186D01*
X189764975Y-65462133D01*
X189229972Y-65049401D01*
X189221913Y-65045427D01*
X188924021Y-65114185D01*
X188537771Y-66555690D01*
X188047084Y-66555690D01*
X186940723Y-66259242D01*
X186732232Y-66482845D01*
X177640081Y-66482845D01*
X177593100Y-66435864D01*
X177593198Y-66323641D01*
X177419554Y-65903388D01*
X177098303Y-65581577D01*
X176678354Y-65407199D01*
X176223641Y-65406802D01*
X175803388Y-65580446D01*
X175481577Y-65901697D01*
X175353143Y-66211000D01*
X173650000Y-66211000D01*
X173309794Y-66278671D01*
X173108782Y-66412983D01*
X173021382Y-66471382D01*
X172371382Y-67121382D01*
X172178671Y-67409794D01*
X172111000Y-67750000D01*
X172111000Y-69441517D01*
X172028354Y-69407199D01*
X171573641Y-69406802D01*
X171488001Y-69442188D01*
X171464306Y-69405500D01*
X169735500Y-69405500D01*
X169735500Y-69425500D01*
X169608500Y-69425500D01*
X169608500Y-69405500D01*
X167879694Y-69405500D01*
X167802800Y-69524558D01*
X167660499Y-69303415D01*
X167427079Y-69143926D01*
X167150000Y-69087816D01*
X166295052Y-69087816D01*
X165984118Y-68776882D01*
X165975887Y-68771382D01*
X165921183Y-68734830D01*
X166128420Y-68735011D01*
X167212509Y-68287075D01*
X167921828Y-67578993D01*
X168092706Y-67834729D01*
X168460122Y-68080229D01*
X168086369Y-68354172D01*
X167790373Y-68841757D01*
X167732779Y-69051025D01*
X167879694Y-69278500D01*
X169608500Y-69278500D01*
X169608500Y-69258500D01*
X169735500Y-69258500D01*
X169735500Y-69278500D01*
X171464306Y-69278500D01*
X171611221Y-69051025D01*
X171553627Y-68841757D01*
X171257631Y-68354172D01*
X170883878Y-68080229D01*
X171251294Y-67834729D01*
X171567891Y-67360909D01*
X171679065Y-66802000D01*
X171567891Y-66243091D01*
X171251294Y-65769271D01*
X170777474Y-65452674D01*
X170728969Y-65443026D01*
X170926359Y-65443198D01*
X171346612Y-65269554D01*
X171427306Y-65189000D01*
X178187816Y-65189000D01*
X178187816Y-65400000D01*
X178236522Y-65658849D01*
X178389501Y-65896585D01*
X178622921Y-66056074D01*
X178900000Y-66112184D01*
X180400000Y-66112184D01*
X180658849Y-66063478D01*
X180896585Y-65910499D01*
X180995462Y-65765787D01*
X181007840Y-65795669D01*
X181204332Y-65992160D01*
X181461060Y-66098500D01*
X182111875Y-66098500D01*
X182286500Y-65923875D01*
X182286500Y-64813500D01*
X182413500Y-64813500D01*
X182413500Y-65923875D01*
X182588125Y-66098500D01*
X183238940Y-66098500D01*
X183495668Y-65992160D01*
X183649150Y-65838678D01*
X186904836Y-65838678D01*
X186973594Y-66136570D01*
X188415099Y-66522820D01*
X188801349Y-65081314D01*
X188577746Y-64872823D01*
X187907595Y-64959282D01*
X187321542Y-65295616D01*
X186908810Y-65830619D01*
X186904836Y-65838678D01*
X183649150Y-65838678D01*
X183692160Y-65795669D01*
X183798500Y-65538941D01*
X183798500Y-64988125D01*
X183623875Y-64813500D01*
X182413500Y-64813500D01*
X182286500Y-64813500D01*
X182266500Y-64813500D01*
X182266500Y-64686500D01*
X182286500Y-64686500D01*
X182286500Y-63576125D01*
X182413500Y-63576125D01*
X182413500Y-64686500D01*
X183623875Y-64686500D01*
X183798500Y-64511875D01*
X183798500Y-63961059D01*
X183692160Y-63704331D01*
X183495668Y-63507840D01*
X183238940Y-63401500D01*
X182588125Y-63401500D01*
X182413500Y-63576125D01*
X182286500Y-63576125D01*
X182111875Y-63401500D01*
X181461060Y-63401500D01*
X181204332Y-63507840D01*
X181007840Y-63704331D01*
X180995150Y-63734967D01*
X180910499Y-63603415D01*
X180677079Y-63443926D01*
X180400000Y-63387816D01*
X178900000Y-63387816D01*
X178776788Y-63411000D01*
X171427588Y-63411000D01*
X171348303Y-63331577D01*
X170928354Y-63157199D01*
X170814335Y-63157099D01*
X169957118Y-62299882D01*
X169869743Y-62241500D01*
X182549819Y-62241500D01*
X187184273Y-63163350D01*
G36*
X112793087Y-70652293D02*
X112523613Y-71010992D01*
X112411920Y-71445510D01*
X112411920Y-71746500D01*
X113496500Y-71746500D01*
X113496500Y-71726500D01*
X113623500Y-71726500D01*
X113623500Y-71746500D01*
X113643500Y-71746500D01*
X113643500Y-71873500D01*
X113623500Y-71873500D01*
X113623500Y-73082372D01*
X113802043Y-73233266D01*
X113928405Y-73199281D01*
X113986671Y-73492206D01*
X114117267Y-73687656D01*
X114179382Y-73780618D01*
X114185764Y-73787000D01*
X112271551Y-73787000D01*
X112274184Y-73774000D01*
X112274184Y-71873500D01*
X112411920Y-71873500D01*
X112411920Y-72174490D01*
X112523613Y-72609008D01*
X112793087Y-72967707D01*
X113179316Y-73195978D01*
X113317957Y-73233266D01*
X113496500Y-73082372D01*
X113496500Y-71873500D01*
X112411920Y-71873500D01*
X112274184Y-71873500D01*
X112274184Y-70569000D01*
X112934017Y-70569000D01*
X112793087Y-70652293D01*
X112793087Y-70652293D01*
G37*
X112793087Y-70652293D02*
X112523613Y-71010992D01*
X112411920Y-71445510D01*
X112411920Y-71746500D01*
X113496500Y-71746500D01*
X113496500Y-71726500D01*
X113623500Y-71726500D01*
X113623500Y-71746500D01*
X113643500Y-71746500D01*
X113643500Y-71873500D01*
X113623500Y-71873500D01*
X113623500Y-73082372D01*
X113802043Y-73233266D01*
X113928405Y-73199281D01*
X113986671Y-73492206D01*
X114117267Y-73687656D01*
X114179382Y-73780618D01*
X114185764Y-73787000D01*
X112271551Y-73787000D01*
X112274184Y-73774000D01*
X112274184Y-71873500D01*
X112411920Y-71873500D01*
X112411920Y-72174490D01*
X112523613Y-72609008D01*
X112793087Y-72967707D01*
X113179316Y-73195978D01*
X113317957Y-73233266D01*
X113496500Y-73082372D01*
X113496500Y-71873500D01*
X112411920Y-71873500D01*
X112274184Y-71873500D01*
X112274184Y-70569000D01*
X112934017Y-70569000D01*
X112793087Y-70652293D01*
G36*
X158776001Y-64900585D02*
X158973054Y-65035226D01*
X158940699Y-65113146D01*
X158940302Y-65567859D01*
X159113946Y-65988112D01*
X159435197Y-66309923D01*
X159855146Y-66484301D01*
X160309859Y-66484698D01*
X160730112Y-66311054D01*
X161051923Y-65989803D01*
X161226301Y-65569854D01*
X161226698Y-65115141D01*
X161173051Y-64985304D01*
X161283085Y-64914499D01*
X161306976Y-64879533D01*
X161403697Y-64976423D01*
X161823646Y-65150801D01*
X162278359Y-65151198D01*
X162685327Y-64983043D01*
X162596512Y-65196934D01*
X162595489Y-66369920D01*
X163043425Y-67454009D01*
X163872128Y-68284160D01*
X164431665Y-68516500D01*
X164071236Y-68516500D01*
X163633118Y-68078382D01*
X163547732Y-68021329D01*
X163344706Y-67885671D01*
X163004500Y-67818000D01*
X157733945Y-67818000D01*
X157734198Y-67528141D01*
X157560554Y-67107888D01*
X157239303Y-66786077D01*
X156819354Y-66611699D01*
X156364641Y-66611302D01*
X155944388Y-66784946D01*
X155863694Y-66865500D01*
X155282017Y-66865500D01*
X155613939Y-66412983D01*
X155748500Y-65863500D01*
X155748500Y-65613500D01*
X154363500Y-65613500D01*
X154363500Y-65633500D01*
X154236500Y-65633500D01*
X154236500Y-65613500D01*
X154216500Y-65613500D01*
X154216500Y-65486500D01*
X154236500Y-65486500D01*
X154236500Y-65466500D01*
X154363500Y-65466500D01*
X154363500Y-65486500D01*
X155748500Y-65486500D01*
X155748500Y-65236500D01*
X155649811Y-64833500D01*
X156032833Y-64833500D01*
X156076001Y-64900585D01*
X156309421Y-65060074D01*
X156586500Y-65116184D01*
X158086500Y-65116184D01*
X158345349Y-65067478D01*
X158583085Y-64914499D01*
X158687047Y-64762346D01*
X158776001Y-64900585D01*
X158776001Y-64900585D01*
G37*
X158776001Y-64900585D02*
X158973054Y-65035226D01*
X158940699Y-65113146D01*
X158940302Y-65567859D01*
X159113946Y-65988112D01*
X159435197Y-66309923D01*
X159855146Y-66484301D01*
X160309859Y-66484698D01*
X160730112Y-66311054D01*
X161051923Y-65989803D01*
X161226301Y-65569854D01*
X161226698Y-65115141D01*
X161173051Y-64985304D01*
X161283085Y-64914499D01*
X161306976Y-64879533D01*
X161403697Y-64976423D01*
X161823646Y-65150801D01*
X162278359Y-65151198D01*
X162685327Y-64983043D01*
X162596512Y-65196934D01*
X162595489Y-66369920D01*
X163043425Y-67454009D01*
X163872128Y-68284160D01*
X164431665Y-68516500D01*
X164071236Y-68516500D01*
X163633118Y-68078382D01*
X163547732Y-68021329D01*
X163344706Y-67885671D01*
X163004500Y-67818000D01*
X157733945Y-67818000D01*
X157734198Y-67528141D01*
X157560554Y-67107888D01*
X157239303Y-66786077D01*
X156819354Y-66611699D01*
X156364641Y-66611302D01*
X155944388Y-66784946D01*
X155863694Y-66865500D01*
X155282017Y-66865500D01*
X155613939Y-66412983D01*
X155748500Y-65863500D01*
X155748500Y-65613500D01*
X154363500Y-65613500D01*
X154363500Y-65633500D01*
X154236500Y-65633500D01*
X154236500Y-65613500D01*
X154216500Y-65613500D01*
X154216500Y-65486500D01*
X154236500Y-65486500D01*
X154236500Y-65466500D01*
X154363500Y-65466500D01*
X154363500Y-65486500D01*
X155748500Y-65486500D01*
X155748500Y-65236500D01*
X155649811Y-64833500D01*
X156032833Y-64833500D01*
X156076001Y-64900585D01*
X156309421Y-65060074D01*
X156586500Y-65116184D01*
X158086500Y-65116184D01*
X158345349Y-65067478D01*
X158583085Y-64914499D01*
X158687047Y-64762346D01*
X158776001Y-64900585D01*
G36*
X113903500Y-66956500D02*
X113923500Y-66956500D01*
X113923500Y-67083500D01*
X113903500Y-67083500D01*
X113903500Y-67103500D01*
X113776500Y-67103500D01*
X113776500Y-67083500D01*
X113756500Y-67083500D01*
X113756500Y-66956500D01*
X113776500Y-66956500D01*
X113776500Y-66936500D01*
X113903500Y-66936500D01*
X113903500Y-66956500D01*
X113903500Y-66956500D01*
G37*
X113903500Y-66956500D02*
X113923500Y-66956500D01*
X113923500Y-67083500D01*
X113903500Y-67083500D01*
X113903500Y-67103500D01*
X113776500Y-67103500D01*
X113776500Y-67083500D01*
X113756500Y-67083500D01*
X113756500Y-66956500D01*
X113776500Y-66956500D01*
X113776500Y-66936500D01*
X113903500Y-66936500D01*
X113903500Y-66956500D01*
M02*
