G04 #@! TF.FileFunction,Soldermask,Bot*
%FSLAX46Y46*%
G04 Gerber Fmt 4.6, Leading zero omitted, Abs format (unit mm)*
G04 Created by KiCad (PCBNEW 4.0.6) date 11/30/17 16:48:59*
%MOMM*%
%LPD*%
G01*
G04 APERTURE LIST*
%ADD10C,0.300000*%
%ADD11C,2.000000*%
%ADD12C,3.000000*%
%ADD13C,1.700000*%
%ADD14C,4.500000*%
%ADD15O,2.540000X1.524000*%
%ADD16C,1.200000*%
%ADD17C,1.000760*%
%ADD18O,0.899160X1.501140*%
%ADD19R,1.300000X1.300000*%
%ADD20C,1.300000*%
%ADD21O,1.500000X2.000000*%
%ADD22R,1.500000X2.000000*%
G04 APERTURE END LIST*
D10*
D11*
X193171981Y-99298019D03*
X189990000Y-102480000D03*
X188575786Y-94701825D03*
X185393806Y-97883806D03*
D12*
X177810160Y-77978000D03*
X185409840Y-77978000D03*
D13*
X139192000Y-86360000D03*
X141732000Y-86360000D03*
X144272000Y-86360000D03*
X146812000Y-86360000D03*
X149352000Y-86360000D03*
X151892000Y-86360000D03*
X151892000Y-71120000D03*
X149352000Y-71120000D03*
X146812000Y-71120000D03*
X144272000Y-71120000D03*
X141732000Y-71120000D03*
X139192000Y-71120000D03*
D14*
X126492000Y-108966000D03*
D15*
X121412000Y-106426000D03*
X121412000Y-103886000D03*
X121412000Y-101346000D03*
X121412000Y-93726000D03*
X121412000Y-96266000D03*
X121412000Y-98806000D03*
X121412000Y-88646000D03*
X121412000Y-86106000D03*
X121412000Y-83566000D03*
X121412000Y-78486000D03*
X121412000Y-75946000D03*
X169672000Y-106426000D03*
X169672000Y-103886000D03*
X169672000Y-101346000D03*
X169672000Y-98806000D03*
X169672000Y-96266000D03*
X169672000Y-93726000D03*
X169672000Y-91186000D03*
X169672000Y-88646000D03*
X169672000Y-84582000D03*
X169672000Y-82042000D03*
X169672000Y-79502000D03*
X169672000Y-76962000D03*
X169672000Y-74422000D03*
X169672000Y-71882000D03*
X169672000Y-69342000D03*
X169672000Y-66802000D03*
X121412000Y-81026000D03*
D14*
X154432000Y-108966000D03*
D16*
X142810000Y-107950000D03*
X144588000Y-107950000D03*
X148144000Y-107950000D03*
X146366000Y-107950000D03*
D17*
X110050700Y-77600000D03*
X111549300Y-77600000D03*
D18*
X114830000Y-71810000D03*
X113560000Y-71810000D03*
X116100000Y-71810000D03*
D19*
X114808000Y-76962000D03*
D20*
X114808000Y-79462000D03*
D21*
X144100000Y-65550000D03*
X141600000Y-65550000D03*
X139000000Y-65550000D03*
D22*
X136500000Y-65550000D03*
D21*
X146600000Y-65550000D03*
X149200000Y-65550000D03*
X151700000Y-65550000D03*
X154300000Y-65550000D03*
D11*
X138570000Y-101420000D03*
X134070000Y-101420000D03*
X138570000Y-94920000D03*
X134070000Y-94920000D03*
X157140000Y-101420000D03*
X152640000Y-101420000D03*
X157140000Y-94920000D03*
X152640000Y-94920000D03*
X115648019Y-94428019D03*
X118830000Y-97610000D03*
X111051825Y-99024214D03*
X114233806Y-102206194D03*
X180211981Y-98908019D03*
X177030000Y-102090000D03*
X175615786Y-94311825D03*
X172433806Y-97493806D03*
X109108019Y-100868019D03*
X112290000Y-104050000D03*
X104511825Y-105464214D03*
X107693806Y-108646194D03*
X186711981Y-105558019D03*
X183530000Y-108740000D03*
X182115786Y-100961825D03*
X178933806Y-104143806D03*
X102768019Y-94548019D03*
X105950000Y-97730000D03*
X98171825Y-99144214D03*
X101353806Y-102326194D03*
X109438019Y-88028019D03*
X112620000Y-91210000D03*
X104841825Y-92624214D03*
X108023806Y-95806194D03*
X186451981Y-92668019D03*
X183270000Y-95850000D03*
X181855786Y-88071825D03*
X178673806Y-91253806D03*
D21*
X118940000Y-67020000D03*
X116440000Y-67020000D03*
X113840000Y-67020000D03*
D22*
X111340000Y-67020000D03*
D14*
X125349000Y-65786000D03*
X165544500Y-65786000D03*
D11*
X107270127Y-68900591D03*
X102940000Y-66400591D03*
X102190127Y-77699409D03*
X104730127Y-73300000D03*
X97860000Y-75199409D03*
X100400000Y-70800000D03*
X189209873Y-77899409D03*
X193540000Y-75399409D03*
X184129873Y-69100591D03*
X186669873Y-73500000D03*
X188460000Y-66600591D03*
X191000000Y-71000000D03*
M02*
