M48
INCH,TZ
T1C0.024
T2C0.024
T3C0.025
T4C0.031
T5C0.032
T6C0.039
T7C0.039
T8C0.043
T9C0.047
T10C0.150
%
G90
G05
T1
X43327Y-30551
X43917Y-30551
T2
X44709Y-28272
X45209Y-28272
X45709Y-28272
T3
X39528Y-30945
X40768Y-27323
X41811Y-31496
X42205Y-33287
X42299Y-29382
X42362Y-28661
X42600Y-33800
X43051Y-32874
X45700Y-32000
X46600Y-32400
X46600Y-35300
X47100Y-29000
X48500Y-34400
X48600Y-36700
X49291Y-31890
X49291Y-35039
X49500Y-38900
X49700Y-30400
X49862Y-41496
X50100Y-32400
X50200Y-33400
X50300Y-30400
X50394Y-30945
X50846Y-32913
X50866Y-34232
X51200Y-38300
X51300Y-31400
X51300Y-32400
X51400Y-39300
X51600Y-37900
X51870Y-42323
X51988Y-34508
X52000Y-36400
X52362Y-35551
X52362Y-36024
X52465Y-40819
X52700Y-27200
X53600Y-35300
X53600Y-37100
X53600Y-39000
X54100Y-34900
X55118Y-41417
X55433Y-42028
X55800Y-29000
X55800Y-32900
X55900Y-39900
X56800Y-31900
X56800Y-39900
X57100Y-36200
X57300Y-37400
X57800Y-30900
X57800Y-40000
X58700Y-40100
X58700Y-41600
X58800Y-29900
X59300Y-36100
X59654Y-41480
X60400Y-29300
X60400Y-32900
X60400Y-35200
X60500Y-38700
X61000Y-38800
X61300Y-33600
X61650Y-26675
X61756Y-31854
X62039Y-30437
X62189Y-30961
X62200Y-34900
X62299Y-30000
X62300Y-40800
X62600Y-33300
X62717Y-34469
X62913Y-42500
X63025Y-25725
X63300Y-39300
X63300Y-42100
X63325Y-28775
X63800Y-25200
X63900Y-32300
X63950Y-29350
X64400Y-34100
X64400Y-35300
X64429Y-29862
X64500Y-33300
X64681Y-30850
X64700Y-31800
X64831Y-35669
X64900Y-37800
X64900Y-40100
X65100Y-40800
X65100Y-42500
X65197Y-30354
X65197Y-33307
X65724Y-41260
X65925Y-32264
X65957Y-34457
X67185Y-33961
X67205Y-25315
X67539Y-29783
X67638Y-27776
X67697Y-29075
X68524Y-36083
X68799Y-39921
X69343Y-35484
X69469Y-26201
X70839Y-40217
X71201Y-31807
X71535Y-28031
X72300Y-34100
X73780Y-34232
X73839Y-27972
X74220Y-33283
X74685Y-36358
X75425Y-30988
T4
X45200Y-30300
X45200Y-31284
X54800Y-28000
X54800Y-34000
X55800Y-28000
X55800Y-34000
X56800Y-28000
X56800Y-34000
X57800Y-28000
X57800Y-34000
X58800Y-28000
X58800Y-34000
X59800Y-28000
X59800Y-34000
T5
X56224Y-42500
X56924Y-42500
X57624Y-42500
X58324Y-42500
T6
X47800Y-29900
X47800Y-30900
X47800Y-31900
X47800Y-32900
X47800Y-33900
X47800Y-34900
X47800Y-36900
X47800Y-37900
X47800Y-38900
X47800Y-39900
X47800Y-40900
X47800Y-41900
X66800Y-26300
X66800Y-27300
X66800Y-28300
X66800Y-29300
X66800Y-30300
X66800Y-31300
X66800Y-32300
X66800Y-33300
X66800Y-34900
X66800Y-35900
X66800Y-36900
X66800Y-37900
X66800Y-38900
X66800Y-39900
X66800Y-40900
X66800Y-41900
T7
X43835Y-26386
X44819Y-26386
X45843Y-26386
X46827Y-26386
X53740Y-25807
X54724Y-25807
X55748Y-25807
X56732Y-25807
X57717Y-25807
X58740Y-25807
X59724Y-25807
X60748Y-25807
X70004Y-30700
X72996Y-30700
T8
X38650Y-39033
X39903Y-40286
X40460Y-37224
X41146Y-41521
X41276Y-36466
X41713Y-38476
X42399Y-42774
X42529Y-37719
X42956Y-39712
X43086Y-34657
X43721Y-38986
X44209Y-40965
X44339Y-35909
X44974Y-40239
X45531Y-37176
X46783Y-38429
X52783Y-37370
X52783Y-39929
X54555Y-37370
X54555Y-39929
X60094Y-37370
X60094Y-39929
X61866Y-37370
X61866Y-39929
X67887Y-38383
X69140Y-37131
X69697Y-40193
X70344Y-35927
X70446Y-41001
X70950Y-38940
X71597Y-34674
X71699Y-39749
X72154Y-37736
X72256Y-42811
X72990Y-38537
X73406Y-36483
X73509Y-41558
X74242Y-37284
X74799Y-40346
X76052Y-39094
T9
X38528Y-29606
X39528Y-27874
X40232Y-30590
X40528Y-26142
X41232Y-28858
X42232Y-27126
X72492Y-27205
X73492Y-28937
X74197Y-26221
X74492Y-30669
X75197Y-27953
X76197Y-29685
T10
X49350Y-25900
X49800Y-42900
X60800Y-42900
X65175Y-25900
T0
M30
