G04 #@! TF.FileFunction,Legend,Top*
%FSLAX46Y46*%
G04 Gerber Fmt 4.6, Leading zero omitted, Abs format (unit mm)*
G04 Created by KiCad (PCBNEW 4.0.6) date 10/20/17 11:23:05*
%MOMM*%
%LPD*%
G01*
G04 APERTURE LIST*
%ADD10C,0.300000*%
%ADD11C,0.250000*%
%ADD12C,0.150000*%
%ADD13C,0.203200*%
%ADD14C,0.076200*%
%ADD15C,0.254000*%
%ADD16C,0.152400*%
%ADD17C,0.381000*%
%ADD18C,0.120000*%
%ADD19C,0.304800*%
G04 APERTURE END LIST*
D10*
X172502000Y-106417000D02*
X173216286Y-106417000D01*
X172359143Y-106845571D02*
X172859143Y-105345571D01*
X173359143Y-106845571D01*
X174573429Y-106845571D02*
X173859143Y-106845571D01*
X173859143Y-105345571D01*
X175573429Y-106059857D02*
X175073429Y-106059857D01*
X175073429Y-106845571D02*
X175073429Y-105345571D01*
X175787715Y-105345571D01*
X176287714Y-106417000D02*
X177002000Y-106417000D01*
X176144857Y-106845571D02*
X176644857Y-105345571D01*
X177144857Y-106845571D01*
X173073429Y-109395571D02*
X172573429Y-108681286D01*
X172216286Y-109395571D02*
X172216286Y-107895571D01*
X172787714Y-107895571D01*
X172930572Y-107967000D01*
X173002000Y-108038429D01*
X173073429Y-108181286D01*
X173073429Y-108395571D01*
X173002000Y-108538429D01*
X172930572Y-108609857D01*
X172787714Y-108681286D01*
X172216286Y-108681286D01*
X173716286Y-109395571D02*
X173716286Y-107895571D01*
X174216286Y-108967000D01*
X174716286Y-107895571D01*
X174716286Y-109395571D01*
X175359143Y-108967000D02*
X176073429Y-108967000D01*
X175216286Y-109395571D02*
X175716286Y-107895571D01*
X176216286Y-109395571D01*
X176644857Y-108967000D02*
X177359143Y-108967000D01*
X176502000Y-109395571D02*
X177002000Y-107895571D01*
X177502000Y-109395571D01*
D11*
X96718858Y-87066381D02*
X96718858Y-86399714D01*
X96718858Y-86494952D02*
X96766477Y-86447333D01*
X96861715Y-86399714D01*
X97004573Y-86399714D01*
X97099811Y-86447333D01*
X97147430Y-86542571D01*
X97147430Y-87066381D01*
X97147430Y-86542571D02*
X97195049Y-86447333D01*
X97290287Y-86399714D01*
X97433144Y-86399714D01*
X97528382Y-86447333D01*
X97576001Y-86542571D01*
X97576001Y-87066381D01*
X98052191Y-87066381D02*
X98052191Y-86399714D01*
X98052191Y-86066381D02*
X98004572Y-86114000D01*
X98052191Y-86161619D01*
X98099810Y-86114000D01*
X98052191Y-86066381D01*
X98052191Y-86161619D01*
X98528381Y-86399714D02*
X98528381Y-87066381D01*
X98528381Y-86494952D02*
X98576000Y-86447333D01*
X98671238Y-86399714D01*
X98814096Y-86399714D01*
X98909334Y-86447333D01*
X98956953Y-86542571D01*
X98956953Y-87066381D01*
X99433143Y-87066381D02*
X99433143Y-86399714D01*
X99433143Y-86066381D02*
X99385524Y-86114000D01*
X99433143Y-86161619D01*
X99480762Y-86114000D01*
X99433143Y-86066381D01*
X99433143Y-86161619D01*
X100528381Y-86066381D02*
X100861714Y-87066381D01*
X101195048Y-86066381D01*
X102052191Y-87066381D02*
X101480762Y-87066381D01*
X101766476Y-87066381D02*
X101766476Y-86066381D01*
X101671238Y-86209238D01*
X101576000Y-86304476D01*
X101480762Y-86352095D01*
X102480762Y-86971143D02*
X102528381Y-87018762D01*
X102480762Y-87066381D01*
X102433143Y-87018762D01*
X102480762Y-86971143D01*
X102480762Y-87066381D01*
X103147428Y-86066381D02*
X103242667Y-86066381D01*
X103337905Y-86114000D01*
X103385524Y-86161619D01*
X103433143Y-86256857D01*
X103480762Y-86447333D01*
X103480762Y-86685429D01*
X103433143Y-86875905D01*
X103385524Y-86971143D01*
X103337905Y-87018762D01*
X103242667Y-87066381D01*
X103147428Y-87066381D01*
X103052190Y-87018762D01*
X103004571Y-86971143D01*
X102956952Y-86875905D01*
X102909333Y-86685429D01*
X102909333Y-86447333D01*
X102956952Y-86256857D01*
X103004571Y-86161619D01*
X103052190Y-86114000D01*
X103147428Y-86066381D01*
D12*
X103134565Y-82804000D02*
G75*
G03X103134565Y-82804000I-3058565J0D01*
G01*
D10*
X101409334Y-80471429D02*
X101409334Y-82471429D01*
X101409334Y-80566667D02*
X101218857Y-80471429D01*
X100837905Y-80471429D01*
X100647429Y-80566667D01*
X100552191Y-80661905D01*
X100456953Y-80852381D01*
X100456953Y-81423810D01*
X100552191Y-81614286D01*
X100647429Y-81709524D01*
X100837905Y-81804762D01*
X101218857Y-81804762D01*
X101409334Y-81709524D01*
X98742667Y-80471429D02*
X98742667Y-82471429D01*
X98742667Y-81709524D02*
X98933143Y-81804762D01*
X99314095Y-81804762D01*
X99504571Y-81709524D01*
X99599810Y-81614286D01*
X99695048Y-81423810D01*
X99695048Y-80852381D01*
X99599810Y-80661905D01*
X99504571Y-80566667D01*
X99314095Y-80471429D01*
X98933143Y-80471429D01*
X98742667Y-80566667D01*
X100552191Y-85104762D02*
X100552191Y-83104762D01*
X100552191Y-85009524D02*
X100742667Y-85104762D01*
X101123619Y-85104762D01*
X101314095Y-85009524D01*
X101409334Y-84914286D01*
X101504572Y-84723810D01*
X101504572Y-84152381D01*
X101409334Y-83961905D01*
X101314095Y-83866667D01*
X101123619Y-83771429D01*
X100742667Y-83771429D01*
X100552191Y-83866667D01*
X99599810Y-85104762D02*
X99599810Y-83104762D01*
X99599810Y-83866667D02*
X99409333Y-83771429D01*
X99028381Y-83771429D01*
X98837905Y-83866667D01*
X98742667Y-83961905D01*
X98647429Y-84152381D01*
X98647429Y-84723810D01*
X98742667Y-84914286D01*
X98837905Y-85009524D01*
X99028381Y-85104762D01*
X99409333Y-85104762D01*
X99599810Y-85009524D01*
D12*
X146155210Y-80010000D02*
G75*
G03X146155210Y-80010000I-359210J0D01*
G01*
X146663210Y-77470000D02*
G75*
G03X146663210Y-77470000I-359210J0D01*
G01*
X154029210Y-83566000D02*
G75*
G03X154029210Y-83566000I-359210J0D01*
G01*
X135741210Y-83566000D02*
G75*
G03X135741210Y-83566000I-359210J0D01*
G01*
X145393210Y-83566000D02*
G75*
G03X145393210Y-83566000I-359210J0D01*
G01*
X129540000Y-78486000D02*
X130302000Y-73660000D01*
X130556000Y-73660000D02*
X134366000Y-73660000D01*
X134620000Y-73660000D02*
X133858000Y-78486000D01*
X129794000Y-78740000D02*
X133350000Y-78740000D01*
X129540000Y-78994000D02*
X128778000Y-83820000D01*
X129032000Y-83820000D02*
X132588000Y-83820000D01*
X133604000Y-78994000D02*
X132842000Y-83566000D01*
X143256000Y-78994000D02*
X142494000Y-83566000D01*
X138684000Y-83820000D02*
X142240000Y-83820000D01*
X139192000Y-78994000D02*
X138430000Y-83820000D01*
X139446000Y-78740000D02*
X143002000Y-78740000D01*
X144272000Y-73660000D02*
X143510000Y-78486000D01*
X140208000Y-73660000D02*
X144018000Y-73660000D01*
X139192000Y-78486000D02*
X139954000Y-73660000D01*
X156210000Y-78486000D02*
X156972000Y-73660000D01*
X157226000Y-73660000D02*
X161036000Y-73660000D01*
X161290000Y-73660000D02*
X160528000Y-78486000D01*
X156464000Y-78740000D02*
X160020000Y-78740000D01*
X156210000Y-78994000D02*
X155448000Y-83820000D01*
X155702000Y-83820000D02*
X159258000Y-83820000D01*
X160274000Y-78994000D02*
X159512000Y-83566000D01*
X152146000Y-78994000D02*
X151384000Y-83566000D01*
X147574000Y-83820000D02*
X151130000Y-83820000D01*
X148082000Y-78994000D02*
X147320000Y-83820000D01*
X148336000Y-78740000D02*
X151892000Y-78740000D01*
X153162000Y-73660000D02*
X152400000Y-78486000D01*
X149098000Y-73660000D02*
X152908000Y-73660000D01*
X148082000Y-78486000D02*
X148844000Y-73660000D01*
X120396000Y-88646000D02*
X170688000Y-88646000D01*
X170688000Y-88646000D02*
X170688000Y-69596000D01*
X170688000Y-69596000D02*
X120396000Y-69596000D01*
X120396000Y-69596000D02*
X120396000Y-88646000D01*
X185733546Y-102642983D02*
X184885017Y-101794454D01*
X186122454Y-100557017D02*
X186970983Y-101405546D01*
X144047160Y-90027760D02*
X143998900Y-90027760D01*
X141248180Y-90728800D02*
X141248180Y-90027760D01*
X141248180Y-90027760D02*
X141497100Y-90027760D01*
X144047160Y-90027760D02*
X144247820Y-90027760D01*
X144247820Y-90027760D02*
X144247820Y-90728800D01*
X155913000Y-73919000D02*
X155913000Y-73944000D01*
X160063000Y-73919000D02*
X160063000Y-74024000D01*
X160063000Y-84069000D02*
X160063000Y-83964000D01*
X155913000Y-84069000D02*
X155913000Y-83964000D01*
X155913000Y-73919000D02*
X160063000Y-73919000D01*
X155913000Y-84069000D02*
X160063000Y-84069000D01*
X155913000Y-73944000D02*
X154538000Y-73944000D01*
X106129000Y-80737000D02*
X106129000Y-80787000D01*
X110279000Y-80737000D02*
X110279000Y-80882000D01*
X110279000Y-85887000D02*
X110279000Y-85742000D01*
X106129000Y-85887000D02*
X106129000Y-85742000D01*
X106129000Y-80737000D02*
X110279000Y-80737000D01*
X106129000Y-85887000D02*
X110279000Y-85887000D01*
X106129000Y-80787000D02*
X104729000Y-80787000D01*
X130331160Y-90027760D02*
X130282900Y-90027760D01*
X127532180Y-90728800D02*
X127532180Y-90027760D01*
X127532180Y-90027760D02*
X127781100Y-90027760D01*
X130331160Y-90027760D02*
X130531820Y-90027760D01*
X130531820Y-90027760D02*
X130531820Y-90728800D01*
D13*
X148640800Y-109855000D02*
X148640800Y-106045000D01*
D14*
X147846051Y-107950000D02*
G75*
G03X147846051Y-107950000I-1796051J0D01*
G01*
D15*
X148587997Y-106042332D02*
G75*
G03X148590000Y-109855000I-2537997J-1907668D01*
G01*
D16*
X146050000Y-106807000D02*
G75*
G03X144907000Y-107950000I0J-1143000D01*
G01*
X146050000Y-109093000D02*
G75*
G03X147193000Y-107950000I0J1143000D01*
G01*
X146050000Y-106299000D02*
G75*
G03X144399000Y-107950000I0J-1651000D01*
G01*
X146050000Y-109601000D02*
G75*
G03X147701000Y-107950000I0J1651000D01*
G01*
X146050000Y-105791000D02*
G75*
G03X143891000Y-107950000I0J-2159000D01*
G01*
X146050000Y-110109000D02*
G75*
G03X148209000Y-107950000I0J2159000D01*
G01*
D12*
X136744000Y-93331000D02*
X135544000Y-93331000D01*
X135544000Y-91581000D02*
X136744000Y-91581000D01*
X125843000Y-91348000D02*
X125843000Y-92548000D01*
X124093000Y-92548000D02*
X124093000Y-91348000D01*
X117207000Y-83728000D02*
X117207000Y-84928000D01*
X115457000Y-84928000D02*
X115457000Y-83728000D01*
X146953000Y-98644000D02*
X146953000Y-97444000D01*
X148703000Y-97444000D02*
X148703000Y-98644000D01*
X144667000Y-98644000D02*
X144667000Y-97444000D01*
X146417000Y-97444000D02*
X146417000Y-98644000D01*
X142381000Y-98644000D02*
X142381000Y-97444000D01*
X144131000Y-97444000D02*
X144131000Y-98644000D01*
X175175000Y-69700000D02*
X175175000Y-70900000D01*
X173425000Y-70900000D02*
X173425000Y-69700000D01*
X128432000Y-92597000D02*
X129632000Y-92597000D01*
X129632000Y-94347000D02*
X128432000Y-94347000D01*
X142148000Y-92597000D02*
X143348000Y-92597000D01*
X143348000Y-94347000D02*
X142148000Y-94347000D01*
X147482000Y-92597000D02*
X148682000Y-92597000D01*
X148682000Y-94347000D02*
X147482000Y-94347000D01*
X161452000Y-92597000D02*
X162652000Y-92597000D01*
X162652000Y-94347000D02*
X161452000Y-94347000D01*
X133950000Y-86981000D02*
X132750000Y-86981000D01*
X132750000Y-85231000D02*
X133950000Y-85231000D01*
X133950000Y-84441000D02*
X132750000Y-84441000D01*
X132750000Y-82691000D02*
X133950000Y-82691000D01*
X133950000Y-81901000D02*
X132750000Y-81901000D01*
X132750000Y-80151000D02*
X133950000Y-80151000D01*
X133950000Y-79361000D02*
X132750000Y-79361000D01*
X132750000Y-77611000D02*
X133950000Y-77611000D01*
X133950000Y-76821000D02*
X132750000Y-76821000D01*
X132750000Y-75071000D02*
X133950000Y-75071000D01*
X133950000Y-74281000D02*
X132750000Y-74281000D01*
X132750000Y-72531000D02*
X133950000Y-72531000D01*
X133950000Y-71741000D02*
X132750000Y-71741000D01*
X132750000Y-69991000D02*
X133950000Y-69991000D01*
X158550000Y-70375000D02*
X159750000Y-70375000D01*
X159750000Y-72125000D02*
X158550000Y-72125000D01*
X150989000Y-97444000D02*
X150989000Y-98644000D01*
X149239000Y-98644000D02*
X149239000Y-97444000D01*
X176075000Y-85650000D02*
X176075000Y-86850000D01*
X174325000Y-86850000D02*
X174325000Y-85650000D01*
X136744000Y-104507000D02*
X135544000Y-104507000D01*
X135544000Y-102757000D02*
X136744000Y-102757000D01*
X162652000Y-104507000D02*
X161452000Y-104507000D01*
X161452000Y-102757000D02*
X162652000Y-102757000D01*
X128432000Y-102757000D02*
X129632000Y-102757000D01*
X129632000Y-104507000D02*
X128432000Y-104507000D01*
X166991000Y-91348000D02*
X166991000Y-92548000D01*
X165241000Y-92548000D02*
X165241000Y-91348000D01*
X108704000Y-76874000D02*
X107704000Y-76874000D01*
X107704000Y-78574000D02*
X108704000Y-78574000D01*
D10*
X102997000Y-72898000D02*
X102997000Y-71501000D01*
X102997000Y-71501000D02*
X104775000Y-71501000D01*
X104775000Y-71501000D02*
X104775000Y-77978000D01*
X104775000Y-77978000D02*
X102997000Y-77978000D01*
X102997000Y-77978000D02*
X102997000Y-72898000D01*
X104775000Y-72898000D02*
X104775000Y-71501000D01*
D12*
X103586280Y-77998320D02*
X103487220Y-78298040D01*
X104185720Y-77998320D02*
X104284780Y-78298040D01*
X104785160Y-77998320D02*
X104785160Y-72948800D01*
X104785160Y-71424800D02*
X102986840Y-71424800D01*
X102986840Y-72948800D02*
X102986840Y-77998320D01*
X104785160Y-77998320D02*
X102986840Y-77998320D01*
D17*
X175544480Y-76850240D02*
X175544480Y-78851760D01*
X174546260Y-77851000D02*
X176545240Y-77851000D01*
X183309260Y-77978000D02*
G75*
G03X183309260Y-77978000I-1699260J0D01*
G01*
X188610240Y-77978000D02*
G75*
G03X188610240Y-77978000I-7000240J0D01*
G01*
X189611000Y-77978000D02*
G75*
G03X189611000Y-77978000I-8001000J0D01*
G01*
D12*
X185479546Y-89688983D02*
X184631017Y-88840454D01*
X185868454Y-87603017D02*
X186716983Y-88451546D01*
X97763017Y-95309546D02*
X98611546Y-94461017D01*
X99848983Y-95698454D02*
X99000454Y-96546983D01*
X179129546Y-96038983D02*
X178281017Y-95190454D01*
X179518454Y-93953017D02*
X180366983Y-94801546D01*
X104367017Y-101405546D02*
X105215546Y-100557017D01*
X106452983Y-101794454D02*
X105604454Y-102642983D01*
X192083546Y-96292983D02*
X191235017Y-95444454D01*
X192472454Y-94207017D02*
X193320983Y-95055546D01*
X110971017Y-94801546D02*
X111819546Y-93953017D01*
X113056983Y-95190454D02*
X112208454Y-96038983D01*
X155540000Y-93331000D02*
X154340000Y-93331000D01*
X154340000Y-91581000D02*
X155540000Y-91581000D01*
X104621017Y-88451546D02*
X105469546Y-87603017D01*
X106706983Y-88840454D02*
X105858454Y-89688983D01*
X163351160Y-100187760D02*
X163302900Y-100187760D01*
X160552180Y-100888800D02*
X160552180Y-100187760D01*
X160552180Y-100187760D02*
X160801100Y-100187760D01*
X163351160Y-100187760D02*
X163551820Y-100187760D01*
X163551820Y-100187760D02*
X163551820Y-100888800D01*
X130331160Y-100187760D02*
X130282900Y-100187760D01*
X127532180Y-100888800D02*
X127532180Y-100187760D01*
X127532180Y-100187760D02*
X127781100Y-100187760D01*
X130331160Y-100187760D02*
X130531820Y-100187760D01*
X130531820Y-100187760D02*
X130531820Y-100888800D01*
X192561160Y-85709760D02*
X192512900Y-85709760D01*
X189762180Y-86410800D02*
X189762180Y-85709760D01*
X189762180Y-85709760D02*
X190011100Y-85709760D01*
X192561160Y-85709760D02*
X192761820Y-85709760D01*
X192761820Y-85709760D02*
X192761820Y-86410800D01*
X163351160Y-90027760D02*
X163302900Y-90027760D01*
X160552180Y-90728800D02*
X160552180Y-90027760D01*
X160552180Y-90027760D02*
X160801100Y-90027760D01*
X163351160Y-90027760D02*
X163551820Y-90027760D01*
X163551820Y-90027760D02*
X163551820Y-90728800D01*
X149381160Y-90027760D02*
X149332900Y-90027760D01*
X146582180Y-90728800D02*
X146582180Y-90027760D01*
X146582180Y-90027760D02*
X146831100Y-90027760D01*
X149381160Y-90027760D02*
X149581820Y-90027760D01*
X149581820Y-90027760D02*
X149581820Y-90728800D01*
X156919564Y-98096000D02*
G75*
G03X156919564Y-98096000I-2015564J0D01*
G01*
X158154000Y-100346000D02*
X158154000Y-95846000D01*
X154154000Y-101596000D02*
X155654000Y-101596000D01*
X151654000Y-95846000D02*
X151654000Y-100346000D01*
X155654000Y-94596000D02*
X154154000Y-94596000D01*
X138123564Y-98096000D02*
G75*
G03X138123564Y-98096000I-2015564J0D01*
G01*
X139358000Y-100346000D02*
X139358000Y-95846000D01*
X135358000Y-101596000D02*
X136858000Y-101596000D01*
X132858000Y-95846000D02*
X132858000Y-100346000D01*
X136858000Y-94596000D02*
X135358000Y-94596000D01*
X184950457Y-104822913D02*
G75*
G03X184950457Y-104822913I-2015564J0D01*
G01*
X186823981Y-104115806D02*
X183642000Y-100933825D01*
X184879437Y-107828117D02*
X185940097Y-106767456D01*
X179045806Y-105530019D02*
X182227786Y-108712000D01*
X180990350Y-101817709D02*
X179929689Y-102878369D01*
X116998477Y-98243107D02*
G75*
G03X116998477Y-98243107I-2015564J0D01*
G01*
X114275806Y-94354019D02*
X111093825Y-97536000D01*
X117988117Y-96298563D02*
X116927456Y-95237903D01*
X115690019Y-102132194D02*
X118872000Y-98950214D01*
X111977709Y-100187650D02*
X113038369Y-101248311D01*
X191300457Y-98472913D02*
G75*
G03X191300457Y-98472913I-2015564J0D01*
G01*
X193173981Y-97765806D02*
X189992000Y-94583825D01*
X191229437Y-101478117D02*
X192290097Y-100417456D01*
X185395806Y-99180019D02*
X188577786Y-102362000D01*
X187340350Y-95467709D02*
X186279689Y-96528369D01*
X110394477Y-104847107D02*
G75*
G03X110394477Y-104847107I-2015564J0D01*
G01*
X107671806Y-100958019D02*
X104489825Y-104140000D01*
X111384117Y-102902563D02*
X110323456Y-101841903D01*
X109086019Y-108736194D02*
X112268000Y-105554214D01*
X105373709Y-106791650D02*
X106434369Y-107852311D01*
X178346457Y-98218913D02*
G75*
G03X178346457Y-98218913I-2015564J0D01*
G01*
X180219981Y-97511806D02*
X177038000Y-94329825D01*
X178275437Y-101224117D02*
X179336097Y-100163456D01*
X172441806Y-98926019D02*
X175623786Y-102108000D01*
X174386350Y-95213709D02*
X173325689Y-96274369D01*
X104044477Y-98497107D02*
G75*
G03X104044477Y-98497107I-2015564J0D01*
G01*
X101321806Y-94608019D02*
X98139825Y-97790000D01*
X105034117Y-96552563D02*
X103973456Y-95491903D01*
X102736019Y-102386194D02*
X105918000Y-99204214D01*
X99023709Y-100441650D02*
X100084369Y-101502311D01*
X184696457Y-91868913D02*
G75*
G03X184696457Y-91868913I-2015564J0D01*
G01*
X186569981Y-91161806D02*
X183388000Y-87979825D01*
X184625437Y-94874117D02*
X185686097Y-93813456D01*
X178791806Y-92576019D02*
X181973786Y-95758000D01*
X180736350Y-88863709D02*
X179675689Y-89924369D01*
X110648477Y-91893107D02*
G75*
G03X110648477Y-91893107I-2015564J0D01*
G01*
X107925806Y-88004019D02*
X104743825Y-91186000D01*
X111638117Y-89948563D02*
X110577456Y-88887903D01*
X109340019Y-95782194D02*
X112522000Y-92600214D01*
X105627709Y-93837650D02*
X106688369Y-94898311D01*
X116508000Y-70436000D02*
X113108000Y-70436000D01*
X116505056Y-70438944D02*
G75*
G02X114808000Y-74536000I-1697056J-1697056D01*
G01*
X113110944Y-70438944D02*
G75*
G03X114808000Y-74536000I1697056J-1697056D01*
G01*
X117307000Y-78287000D02*
X112309000Y-78287000D01*
X117299000Y-78427000D02*
X112317000Y-78427000D01*
X117283000Y-78567000D02*
X114903000Y-78567000D01*
X114713000Y-78567000D02*
X112333000Y-78567000D01*
X117259000Y-78707000D02*
X115298000Y-78707000D01*
X114318000Y-78707000D02*
X112357000Y-78707000D01*
X117226000Y-78847000D02*
X115465000Y-78847000D01*
X114151000Y-78847000D02*
X112390000Y-78847000D01*
X117185000Y-78987000D02*
X115572000Y-78987000D01*
X114044000Y-78987000D02*
X112431000Y-78987000D01*
X117135000Y-79127000D02*
X115643000Y-79127000D01*
X113973000Y-79127000D02*
X112481000Y-79127000D01*
X117074000Y-79267000D02*
X115687000Y-79267000D01*
X113929000Y-79267000D02*
X112542000Y-79267000D01*
X117004000Y-79407000D02*
X115706000Y-79407000D01*
X113910000Y-79407000D02*
X112612000Y-79407000D01*
X116922000Y-79547000D02*
X115704000Y-79547000D01*
X113912000Y-79547000D02*
X112694000Y-79547000D01*
X116827000Y-79687000D02*
X115679000Y-79687000D01*
X113937000Y-79687000D02*
X112789000Y-79687000D01*
X116716000Y-79827000D02*
X115631000Y-79827000D01*
X113985000Y-79827000D02*
X112900000Y-79827000D01*
X116588000Y-79967000D02*
X115553000Y-79967000D01*
X114063000Y-79967000D02*
X113028000Y-79967000D01*
X116439000Y-80107000D02*
X115436000Y-80107000D01*
X114180000Y-80107000D02*
X113177000Y-80107000D01*
X116260000Y-80247000D02*
X115248000Y-80247000D01*
X114368000Y-80247000D02*
X113356000Y-80247000D01*
X116041000Y-80387000D02*
X113575000Y-80387000D01*
X115752000Y-80527000D02*
X113864000Y-80527000D01*
X115280000Y-80667000D02*
X114336000Y-80667000D01*
X115708000Y-79462000D02*
G75*
G03X115708000Y-79462000I-900000J0D01*
G01*
X117345500Y-78212000D02*
G75*
G03X117345500Y-78212000I-2537500J0D01*
G01*
D18*
X155540000Y-104512000D02*
X154340000Y-104512000D01*
X154340000Y-102752000D02*
X155540000Y-102752000D01*
X141850000Y-97444000D02*
X141850000Y-98644000D01*
X140090000Y-98644000D02*
X140090000Y-97444000D01*
X100422000Y-89780000D02*
X99222000Y-89780000D01*
X99222000Y-88020000D02*
X100422000Y-88020000D01*
D12*
X122900000Y-68050000D02*
X167900000Y-68050000D01*
X167900000Y-68050000D02*
X167900000Y-23050000D01*
X167900000Y-23050000D02*
X122900000Y-23050000D01*
X122900000Y-23050000D02*
X122900000Y-68050000D01*
D18*
X180400000Y-63870000D02*
X181600000Y-63870000D01*
X181600000Y-65630000D02*
X180400000Y-65630000D01*
X164880000Y-71450000D02*
X164880000Y-72650000D01*
X163120000Y-72650000D02*
X163120000Y-71450000D01*
X167380000Y-71300000D02*
X167380000Y-72500000D01*
X165620000Y-72500000D02*
X165620000Y-71300000D01*
X179050000Y-70380000D02*
X177850000Y-70380000D01*
X177850000Y-68620000D02*
X179050000Y-68620000D01*
X162200000Y-65630000D02*
X161000000Y-65630000D01*
X161000000Y-63870000D02*
X162200000Y-63870000D01*
D19*
X172139429Y-77832857D02*
X173300572Y-77832857D01*
X172720001Y-78413429D02*
X172720001Y-77252286D01*
M02*
