G04 #@! TF.FileFunction,Legend,Bot*
%FSLAX46Y46*%
G04 Gerber Fmt 4.6, Leading zero omitted, Abs format (unit mm)*
G04 Created by KiCad (PCBNEW 4.0.6) date 10/20/17 10:31:55*
%MOMM*%
%LPD*%
G01*
G04 APERTURE LIST*
%ADD10C,0.300000*%
%ADD11C,0.381000*%
%ADD12C,0.150000*%
%ADD13C,6.000000*%
G04 APERTURE END LIST*
D10*
D11*
X163322000Y-42926000D02*
X163322000Y-53086000D01*
X163322000Y-53086000D02*
X150622000Y-53086000D01*
X150622000Y-53086000D02*
X150622000Y-42926000D01*
X123190000Y-55626000D02*
X123190000Y-42926000D01*
X131572000Y-42926000D02*
X131572000Y-55626000D01*
X131572000Y-55626000D02*
X123444000Y-55626000D01*
X123683845Y-56896000D02*
G75*
G03X123683845Y-56896000I-2271845J0D01*
G01*
X171827261Y-58166000D02*
G75*
G03X171827261Y-58166000I-2155261J0D01*
G01*
X159512000Y-108966000D02*
X170942000Y-108966000D01*
X170942000Y-108966000D02*
X172212000Y-107696000D01*
X172212000Y-107696000D02*
X172212000Y-42926000D01*
X118872000Y-108966000D02*
X118872000Y-42926000D01*
X118872000Y-42926000D02*
X172212000Y-42926000D01*
X159512000Y-108966000D02*
X156972000Y-111506000D01*
X156972000Y-111506000D02*
X123952000Y-111506000D01*
X123952000Y-111506000D02*
X121412000Y-108966000D01*
X121412000Y-108966000D02*
X118872000Y-108966000D01*
D12*
X102634236Y-62625004D02*
G75*
G02X105795232Y-74422000I-4318000J-7478996D01*
G01*
X105795231Y-74422000D02*
G75*
G02X93998236Y-77582995I-7478995J4318000D01*
G01*
X93998236Y-77582995D02*
X102634236Y-62625005D01*
X90177330Y-65405000D02*
X89517418Y-65024000D01*
D13*
X96776443Y-69215000D02*
X89297448Y-64897000D01*
D12*
X105664000Y-71120000D02*
G75*
G03X105664000Y-71120000I-5588000J0D01*
G01*
X103886000Y-71120000D02*
G75*
G03X103886000Y-71120000I-3810000J0D01*
G01*
X197085764Y-77582996D02*
G75*
G02X185288768Y-74422000I-4318000J7478996D01*
G01*
X185288769Y-74422000D02*
G75*
G02X188449764Y-62625005I7478995J4318000D01*
G01*
X188449764Y-62625005D02*
X197085764Y-77582995D01*
X200906670Y-65405000D02*
X201566582Y-65024000D01*
D13*
X194307557Y-69215000D02*
X201786552Y-64897000D01*
D12*
X196596000Y-71120000D02*
G75*
G03X196596000Y-71120000I-5588000J0D01*
G01*
X194818000Y-71120000D02*
G75*
G03X194818000Y-71120000I-3810000J0D01*
G01*
M02*
