G04 #@! TF.FileFunction,Copper,L2,Bot,Signal*
%FSLAX46Y46*%
G04 Gerber Fmt 4.6, Leading zero omitted, Abs format (unit mm)*
G04 Created by KiCad (PCBNEW 4.0.6) date 11/30/17 16:48:59*
%MOMM*%
%LPD*%
G01*
G04 APERTURE LIST*
%ADD10C,0.300000*%
%ADD11C,2.000000*%
%ADD12C,3.000000*%
%ADD13C,1.700000*%
%ADD14C,4.500000*%
%ADD15O,2.540000X1.524000*%
%ADD16C,1.200000*%
%ADD17C,1.000760*%
%ADD18O,0.899160X1.501140*%
%ADD19R,1.300000X1.300000*%
%ADD20C,1.300000*%
%ADD21O,1.500000X2.000000*%
%ADD22R,1.500000X2.000000*%
%ADD23C,0.889000*%
%ADD24C,0.381000*%
G04 APERTURE END LIST*
D10*
D11*
X193171981Y-99298019D03*
X189990000Y-102480000D03*
X188575786Y-94701825D03*
X185393806Y-97883806D03*
D12*
X177810160Y-77978000D03*
X185409840Y-77978000D03*
D13*
X139192000Y-86360000D03*
X141732000Y-86360000D03*
X144272000Y-86360000D03*
X146812000Y-86360000D03*
X149352000Y-86360000D03*
X151892000Y-86360000D03*
X151892000Y-71120000D03*
X149352000Y-71120000D03*
X146812000Y-71120000D03*
X144272000Y-71120000D03*
X141732000Y-71120000D03*
X139192000Y-71120000D03*
D14*
X126492000Y-108966000D03*
D15*
X121412000Y-106426000D03*
X121412000Y-103886000D03*
X121412000Y-101346000D03*
X121412000Y-93726000D03*
X121412000Y-96266000D03*
X121412000Y-98806000D03*
X121412000Y-88646000D03*
X121412000Y-86106000D03*
X121412000Y-83566000D03*
X121412000Y-78486000D03*
X121412000Y-75946000D03*
X169672000Y-106426000D03*
X169672000Y-103886000D03*
X169672000Y-101346000D03*
X169672000Y-98806000D03*
X169672000Y-96266000D03*
X169672000Y-93726000D03*
X169672000Y-91186000D03*
X169672000Y-88646000D03*
X169672000Y-84582000D03*
X169672000Y-82042000D03*
X169672000Y-79502000D03*
X169672000Y-76962000D03*
X169672000Y-74422000D03*
X169672000Y-71882000D03*
X169672000Y-69342000D03*
X169672000Y-66802000D03*
X121412000Y-81026000D03*
D14*
X154432000Y-108966000D03*
D16*
X142810000Y-107950000D03*
X144588000Y-107950000D03*
X148144000Y-107950000D03*
X146366000Y-107950000D03*
D17*
X110050700Y-77600000D03*
X111549300Y-77600000D03*
D18*
X114830000Y-71810000D03*
X113560000Y-71810000D03*
X116100000Y-71810000D03*
D19*
X114808000Y-76962000D03*
D20*
X114808000Y-79462000D03*
D21*
X144100000Y-65550000D03*
X141600000Y-65550000D03*
X139000000Y-65550000D03*
D22*
X136500000Y-65550000D03*
D21*
X146600000Y-65550000D03*
X149200000Y-65550000D03*
X151700000Y-65550000D03*
X154300000Y-65550000D03*
D11*
X138570000Y-101420000D03*
X134070000Y-101420000D03*
X138570000Y-94920000D03*
X134070000Y-94920000D03*
X157140000Y-101420000D03*
X152640000Y-101420000D03*
X157140000Y-94920000D03*
X152640000Y-94920000D03*
X115648019Y-94428019D03*
X118830000Y-97610000D03*
X111051825Y-99024214D03*
X114233806Y-102206194D03*
X180211981Y-98908019D03*
X177030000Y-102090000D03*
X175615786Y-94311825D03*
X172433806Y-97493806D03*
X109108019Y-100868019D03*
X112290000Y-104050000D03*
X104511825Y-105464214D03*
X107693806Y-108646194D03*
X186711981Y-105558019D03*
X183530000Y-108740000D03*
X182115786Y-100961825D03*
X178933806Y-104143806D03*
X102768019Y-94548019D03*
X105950000Y-97730000D03*
X98171825Y-99144214D03*
X101353806Y-102326194D03*
X109438019Y-88028019D03*
X112620000Y-91210000D03*
X104841825Y-92624214D03*
X108023806Y-95806194D03*
X186451981Y-92668019D03*
X183270000Y-95850000D03*
X181855786Y-88071825D03*
X178673806Y-91253806D03*
D21*
X118940000Y-67020000D03*
X116440000Y-67020000D03*
X113840000Y-67020000D03*
D22*
X111340000Y-67020000D03*
D14*
X125349000Y-65786000D03*
X165544500Y-65786000D03*
D11*
X107270127Y-68900591D03*
X102940000Y-66400591D03*
X102190127Y-77699409D03*
X104730127Y-73300000D03*
X97860000Y-75199409D03*
X100400000Y-70800000D03*
X189209873Y-77899409D03*
X193540000Y-75399409D03*
X184129873Y-69100591D03*
X186669873Y-73500000D03*
X188460000Y-66600591D03*
X191000000Y-71000000D03*
D23*
X191580000Y-78710000D03*
X140000000Y-105200000D03*
X158240000Y-76200000D03*
X158242000Y-103632000D03*
X153670000Y-98298000D03*
X164291000Y-78359000D03*
X129150000Y-83600000D03*
X129200000Y-86950000D03*
X155702000Y-85344000D03*
X150622000Y-91694000D03*
X136144000Y-94234000D03*
X133000000Y-91500000D03*
X164672000Y-90598000D03*
X145034000Y-91948000D03*
X116078000Y-81280000D03*
X106200000Y-80000000D03*
X100400000Y-78600000D03*
X160083500Y-65341500D03*
X125200000Y-89000000D03*
X125200000Y-81000000D03*
X162306000Y-82042000D03*
X162433000Y-74549000D03*
X153416000Y-83566000D03*
X153416000Y-89408000D03*
X132050000Y-87650000D03*
X132080000Y-92456000D03*
X157988000Y-88646000D03*
X156860000Y-80910000D03*
X179930000Y-102150000D03*
X176130000Y-90130000D03*
X131064000Y-96266000D03*
X130302000Y-79756000D03*
X189700000Y-92350000D03*
X157960000Y-78640000D03*
X159300000Y-87550000D03*
X167530000Y-87520000D03*
X170650000Y-86260000D03*
X188520000Y-84540000D03*
X127254000Y-82296000D03*
X127762000Y-77216000D03*
X118364000Y-82296000D03*
X118364000Y-89662000D03*
X157580000Y-77310000D03*
X183642000Y-86614000D03*
X164338000Y-80772000D03*
X159004000Y-84582000D03*
X163830000Y-84582000D03*
X180850000Y-80790000D03*
X108204000Y-85852000D03*
X107440000Y-74630000D03*
X160845500Y-73088500D03*
X156591000Y-67754500D03*
X160782000Y-99822000D03*
X160782000Y-106934000D03*
X131750000Y-107500000D03*
X128000000Y-78600000D03*
X130556000Y-99822000D03*
X136144000Y-99060000D03*
X149098000Y-105664000D03*
X149098000Y-101854000D03*
X140800000Y-106750000D03*
X130302000Y-82296000D03*
X130048000Y-97282000D03*
X133260000Y-103680000D03*
X151520000Y-105360000D03*
X166940000Y-104800000D03*
X164846000Y-101854000D03*
X164846000Y-96012000D03*
X163576000Y-89662000D03*
X163576000Y-86614000D03*
X137414000Y-88646000D03*
X136144000Y-89662000D03*
X133000000Y-90300000D03*
X165354000Y-103632000D03*
X165354000Y-107950000D03*
X159800000Y-107950000D03*
X133858000Y-69088000D03*
X153416000Y-74422000D03*
X141732000Y-73660000D03*
X149352000Y-75946000D03*
X146812000Y-78486000D03*
X144272000Y-81026000D03*
X141732000Y-83566000D03*
X163650000Y-75850000D03*
X154940000Y-98552000D03*
X145542000Y-94996000D03*
X174050000Y-91650000D03*
X171800000Y-70550000D03*
X181700000Y-71200000D03*
X141986000Y-101346000D03*
X144272000Y-101346000D03*
X146812000Y-101600000D03*
X107600000Y-72800000D03*
X109350000Y-83500000D03*
X127508000Y-84836000D03*
X103550000Y-69400000D03*
X107200000Y-84550000D03*
X123190000Y-87376000D03*
X123444000Y-93218000D03*
X125730000Y-98806000D03*
X126238000Y-77216000D03*
X119634000Y-73660000D03*
X165600000Y-84600000D03*
X165600000Y-77100000D03*
X167450000Y-81950000D03*
X171950000Y-73850000D03*
X187550000Y-71050000D03*
X174750000Y-101400000D03*
X187400000Y-86950000D03*
X126650000Y-105400000D03*
X170700000Y-64300000D03*
X162052000Y-64008000D03*
X176450000Y-66550000D03*
X171550000Y-75650000D03*
D24*
X113840000Y-67020000D02*
X113840000Y-67860000D01*
X113840000Y-67860000D02*
X115550000Y-69570000D01*
X122974000Y-83566000D02*
X121412000Y-83566000D01*
X123670000Y-82870000D02*
X122974000Y-83566000D01*
X123670000Y-70900000D02*
X123670000Y-82870000D01*
X122340000Y-69570000D02*
X123670000Y-70900000D01*
X115550000Y-69570000D02*
X122340000Y-69570000D01*
X113560000Y-71810000D02*
X113560000Y-67300000D01*
X113560000Y-67300000D02*
X113840000Y-67020000D01*
X188460000Y-66600591D02*
X188460000Y-68850000D01*
X191580000Y-75240000D02*
X191580000Y-78710000D01*
X189040000Y-72700000D02*
X191580000Y-75240000D01*
X189040000Y-69430000D02*
X189040000Y-72700000D01*
X188460000Y-68850000D02*
X189040000Y-69430000D01*
X140000000Y-105200000D02*
X139950000Y-105250000D01*
X139950000Y-105300000D02*
X139950000Y-105250000D01*
X157230000Y-76150000D02*
X158190000Y-76150000D01*
X155702000Y-77678000D02*
X157230000Y-76150000D01*
X155702000Y-85344000D02*
X155702000Y-77678000D01*
X158190000Y-76150000D02*
X158240000Y-76200000D01*
X154899000Y-101051000D02*
X153670000Y-99822000D01*
X156982000Y-103632000D02*
X158242000Y-103632000D01*
X154899000Y-101549000D02*
X156982000Y-103632000D01*
X153670000Y-99822000D02*
X153670000Y-98298000D01*
X154899000Y-101549000D02*
X154899000Y-101051000D01*
X146366000Y-107950000D02*
X146366000Y-106316000D01*
X146366000Y-106316000D02*
X145750000Y-105700000D01*
X164291000Y-78359000D02*
X164291000Y-76809000D01*
X165658000Y-69342000D02*
X169672000Y-69342000D01*
X164650000Y-70350000D02*
X165658000Y-69342000D01*
X164650000Y-76450000D02*
X164650000Y-70350000D01*
X164291000Y-76809000D02*
X164650000Y-76450000D01*
X164291000Y-78359000D02*
X164300000Y-78350000D01*
X129150000Y-86900000D02*
X129150000Y-83600000D01*
X129200000Y-86950000D02*
X129150000Y-86900000D01*
X121412000Y-86106000D02*
X121412000Y-83566000D01*
X155702000Y-85344000D02*
X155702000Y-89154000D01*
X150114000Y-90424000D02*
X145542000Y-90424000D01*
X150622000Y-90932000D02*
X150114000Y-90424000D01*
X150622000Y-91694000D02*
X150622000Y-90932000D01*
X145034000Y-90932000D02*
X145034000Y-91948000D01*
X145542000Y-90424000D02*
X145034000Y-90932000D01*
X137414000Y-92964000D02*
X136144000Y-94234000D01*
X164672000Y-90598000D02*
X164592000Y-90678000D01*
X145034000Y-91948000D02*
X145034000Y-92456000D01*
X145034000Y-92456000D02*
X144526000Y-92964000D01*
X144526000Y-92964000D02*
X143764000Y-92964000D01*
X137414000Y-92964000D02*
X143764000Y-92964000D01*
X143764000Y-92964000D02*
X144018000Y-92964000D01*
X134250000Y-92950000D02*
X137414000Y-92964000D01*
X133000000Y-91500000D02*
X134250000Y-92950000D01*
X116078000Y-81280000D02*
X116078000Y-71702000D01*
X116078000Y-71702000D02*
X116090000Y-71690000D01*
X102000000Y-80000000D02*
X102200000Y-80000000D01*
X106200000Y-80000000D02*
X102200000Y-80000000D01*
X100600000Y-78600000D02*
X102000000Y-80000000D01*
X100600000Y-78600000D02*
X100400000Y-78600000D01*
X100400000Y-78800000D02*
X100400000Y-78600000D01*
X131650000Y-68150000D02*
X154798500Y-68150000D01*
X125200000Y-74600000D02*
X131650000Y-68150000D01*
X125200000Y-81000000D02*
X125200000Y-74600000D01*
X157607000Y-65341500D02*
X160083500Y-65341500D01*
X154798500Y-68150000D02*
X157607000Y-65341500D01*
X171259500Y-68072000D02*
X168148000Y-68072000D01*
X171731500Y-67600000D02*
X171259500Y-68072000D01*
X173418500Y-67600000D02*
X171731500Y-67600000D01*
X162369500Y-68643500D02*
X161876000Y-68150000D01*
X167576500Y-68643500D02*
X162369500Y-68643500D01*
X168148000Y-68072000D02*
X167576500Y-68643500D01*
X160083500Y-65341500D02*
X160020000Y-65405000D01*
X160020000Y-66294000D02*
X161876000Y-68150000D01*
X160020000Y-65405000D02*
X160020000Y-66294000D01*
X161558500Y-68150000D02*
X161876000Y-68150000D01*
X162433000Y-74549000D02*
X162433000Y-68707000D01*
X161876000Y-68150000D02*
X162433000Y-68707000D01*
X125200000Y-81000000D02*
X125200000Y-89000000D01*
X177810160Y-77978000D02*
X178562000Y-77978000D01*
X178562000Y-77978000D02*
X179832000Y-76708000D01*
X162433000Y-74549000D02*
X162433000Y-81915000D01*
X162433000Y-81915000D02*
X162306000Y-82042000D01*
X179832000Y-71632000D02*
X175800000Y-67600000D01*
X175800000Y-67600000D02*
X173418500Y-67600000D01*
X173418500Y-67600000D02*
X173400000Y-67600000D01*
X179832000Y-71632000D02*
X179832000Y-74168000D01*
X179832000Y-74168000D02*
X179832000Y-76708000D01*
X138358000Y-101346000D02*
X138358000Y-94846000D01*
X153416000Y-89408000D02*
X153416000Y-83566000D01*
X132050000Y-87650000D02*
X132080000Y-92456000D01*
X157154000Y-94846000D02*
X157154000Y-101346000D01*
X111093825Y-98950214D02*
X111093825Y-98950213D01*
X111093825Y-98950213D02*
X115690019Y-94354019D01*
X157988000Y-88646000D02*
X157686000Y-88646000D01*
X156860000Y-87820000D02*
X156860000Y-80910000D01*
X157686000Y-88646000D02*
X156860000Y-87820000D01*
X175623787Y-94329825D02*
X180219981Y-98926019D01*
X175623786Y-94329825D02*
X175623787Y-94329825D01*
X104489825Y-105554214D02*
X104489825Y-105554213D01*
X104489825Y-105554213D02*
X109086019Y-100958019D01*
X179930000Y-101830000D02*
X179930000Y-102150000D01*
X173680000Y-95580000D02*
X179930000Y-101830000D01*
X173680000Y-93560000D02*
X173680000Y-95580000D01*
X175990000Y-91250000D02*
X173680000Y-93560000D01*
X175990000Y-90270000D02*
X175990000Y-91250000D01*
X176130000Y-90130000D02*
X175990000Y-90270000D01*
X131064000Y-87376000D02*
X131826000Y-86614000D01*
X131826000Y-80010000D02*
X131826000Y-86614000D01*
X131572000Y-79756000D02*
X131826000Y-80010000D01*
X130302000Y-79756000D02*
X131572000Y-79756000D01*
X131064000Y-96266000D02*
X131064000Y-87376000D01*
X182227787Y-100933825D02*
X186823981Y-105530019D01*
X182227786Y-100933825D02*
X182227787Y-100933825D01*
X98139825Y-99204214D02*
X98139825Y-99204213D01*
X98139825Y-99204213D02*
X102736019Y-94608019D01*
X188750000Y-91400000D02*
X189700000Y-92350000D01*
X188750000Y-91170000D02*
X188750000Y-91400000D01*
X157960000Y-78640000D02*
X157810000Y-78790000D01*
X157810000Y-78790000D02*
X157810000Y-86060000D01*
X157810000Y-86060000D02*
X159300000Y-87550000D01*
X167530000Y-87520000D02*
X168790000Y-86260000D01*
X168790000Y-86260000D02*
X170650000Y-86260000D01*
X188520000Y-84540000D02*
X188750000Y-84770000D01*
X188750000Y-84770000D02*
X188750000Y-91170000D01*
X127254000Y-82296000D02*
X127254000Y-81804000D01*
X118364000Y-89662000D02*
X118364000Y-82296000D01*
X127000000Y-77978000D02*
X127762000Y-77216000D01*
X127000000Y-81550000D02*
X127000000Y-77978000D01*
X127254000Y-81804000D02*
X127000000Y-81550000D01*
X188577787Y-94583825D02*
X193173981Y-99180019D01*
X188577786Y-94583825D02*
X188577787Y-94583825D01*
X104743825Y-92600214D02*
X104743825Y-92600213D01*
X104743825Y-92600213D02*
X109340019Y-88004019D01*
X180850000Y-80790000D02*
X180850000Y-80820000D01*
X157580000Y-77310000D02*
X157770000Y-77500000D01*
X157770000Y-77500000D02*
X158190000Y-77500000D01*
X158190000Y-77500000D02*
X158890000Y-78200000D01*
X158890000Y-78200000D02*
X158890000Y-84468000D01*
X158890000Y-84468000D02*
X159004000Y-84582000D01*
X164338000Y-84074000D02*
X164338000Y-80772000D01*
X163830000Y-84582000D02*
X164338000Y-84074000D01*
X183642000Y-83612000D02*
X183642000Y-86614000D01*
X180850000Y-80820000D02*
X183642000Y-83612000D01*
X108204000Y-85852000D02*
X108204000Y-75394000D01*
X108204000Y-75394000D02*
X107440000Y-74630000D01*
X181973787Y-87979825D02*
X186569981Y-92576019D01*
X181973786Y-87979825D02*
X181973787Y-87979825D01*
X160845500Y-72009000D02*
X160845500Y-73088500D01*
X156591000Y-67754500D02*
X160845500Y-72009000D01*
X112850000Y-73650000D02*
X112840000Y-73650000D01*
X114808000Y-74908000D02*
X113550000Y-73650000D01*
X113550000Y-73650000D02*
X112850000Y-73650000D01*
X114808000Y-76962000D02*
X114808000Y-74908000D01*
X107749409Y-71810000D02*
X102740000Y-66800591D01*
X111000000Y-71810000D02*
X107749409Y-71810000D01*
X112840000Y-73650000D02*
X111000000Y-71810000D01*
X160782000Y-99822000D02*
X160782000Y-106934000D01*
X131500000Y-107500000D02*
X130556000Y-106556000D01*
X130556000Y-106556000D02*
X130556000Y-99822000D01*
X131750000Y-107500000D02*
X131500000Y-107500000D01*
X129032000Y-98298000D02*
X128998000Y-98298000D01*
X130556000Y-99822000D02*
X129032000Y-98298000D01*
X128200000Y-78800000D02*
X128000000Y-78600000D01*
X128200000Y-84250000D02*
X128200000Y-78800000D01*
X128400000Y-84450000D02*
X128200000Y-84250000D01*
X128400000Y-85450000D02*
X128400000Y-84450000D01*
X128150000Y-85700000D02*
X128400000Y-85450000D01*
X128150000Y-97450000D02*
X128150000Y-85700000D01*
X128998000Y-98298000D02*
X128150000Y-97450000D01*
X136144000Y-103378000D02*
X136144000Y-99060000D01*
X149098000Y-101854000D02*
X149098000Y-105664000D01*
X136144000Y-103744000D02*
X136144000Y-103378000D01*
X139150000Y-106750000D02*
X136144000Y-103744000D01*
X140800000Y-106750000D02*
X139150000Y-106750000D01*
X130302000Y-82296000D02*
X130302000Y-88138000D01*
X130048000Y-88392000D02*
X130048000Y-97282000D01*
X130048000Y-88392000D02*
X130302000Y-88138000D01*
X136640000Y-109110000D02*
X133260000Y-105730000D01*
X133260000Y-105730000D02*
X133260000Y-103680000D01*
X136640000Y-109110000D02*
X136640000Y-109300000D01*
X172200000Y-94400000D02*
X172200000Y-91650000D01*
X172200000Y-91650000D02*
X172500000Y-91350000D01*
X136640000Y-109300000D02*
X148670000Y-109300000D01*
X148670000Y-109300000D02*
X151520000Y-106450000D01*
X151520000Y-106450000D02*
X151520000Y-105360000D01*
X171550000Y-95050000D02*
X172200000Y-94400000D01*
X167780000Y-95050000D02*
X171550000Y-95050000D01*
X167220000Y-95610000D02*
X167780000Y-95050000D01*
X167220000Y-104520000D02*
X167220000Y-95610000D01*
X166940000Y-104800000D02*
X167220000Y-104520000D01*
X172500000Y-91350000D02*
X173250000Y-90600000D01*
X173250000Y-90600000D02*
X173250000Y-74650000D01*
X169672000Y-71882000D02*
X172132000Y-71882000D01*
X173250000Y-73000000D02*
X172132000Y-71882000D01*
X173250000Y-74650000D02*
X173250000Y-73000000D01*
X136630000Y-109300000D02*
X136640000Y-109300000D01*
X169672000Y-74422000D02*
X168548000Y-74422000D01*
X168548000Y-74422000D02*
X166660000Y-76310000D01*
X166160000Y-94698000D02*
X164846000Y-96012000D01*
X166160000Y-86840000D02*
X166160000Y-94698000D01*
X166760000Y-86240000D02*
X166160000Y-86840000D01*
X166760000Y-84030000D02*
X166760000Y-86240000D01*
X166480000Y-83750000D02*
X166760000Y-84030000D01*
X166480000Y-81260000D02*
X166480000Y-83750000D01*
X166660000Y-81080000D02*
X166480000Y-81260000D01*
X166660000Y-76310000D02*
X166660000Y-81080000D01*
X164846000Y-96012000D02*
X164846000Y-101854000D01*
X169672000Y-74428000D02*
X169672000Y-74422000D01*
X163576000Y-86614000D02*
X163576000Y-89662000D01*
X149352000Y-71120000D02*
X137414000Y-83058000D01*
X137414000Y-88646000D02*
X137414000Y-83058000D01*
X136144000Y-89662000D02*
X136144000Y-81788000D01*
X136144000Y-81788000D02*
X146812000Y-71120000D01*
X139192000Y-71120000D02*
X138176000Y-71120000D01*
X133096000Y-76200000D02*
X133000000Y-90300000D01*
X138176000Y-71120000D02*
X133096000Y-76200000D01*
X177038000Y-102108000D02*
X179045806Y-104115806D01*
X172441806Y-97511806D02*
X177038000Y-102108000D01*
X179045806Y-104115806D02*
X183642000Y-108712000D01*
X183388000Y-95758000D02*
X185395806Y-97765806D01*
X178791806Y-91161806D02*
X183388000Y-95758000D01*
X185395806Y-97765806D02*
X189992000Y-102362000D01*
X165354000Y-103632000D02*
X165354000Y-107950000D01*
X159800000Y-107750000D02*
X159800000Y-107950000D01*
X152654000Y-101346000D02*
X153396000Y-101346000D01*
X153396000Y-101346000D02*
X159800000Y-107750000D01*
X152654000Y-101346000D02*
X152654000Y-94846000D01*
X107671806Y-108736194D02*
X112268000Y-104140000D01*
X118872000Y-97536000D02*
X114275806Y-102132194D01*
X112268000Y-104140000D02*
X114275806Y-102132194D01*
X107925806Y-95782194D02*
X112522000Y-91186000D01*
X105918000Y-97790000D02*
X107925806Y-95782194D01*
X101321806Y-102386194D02*
X105918000Y-97790000D01*
X133858000Y-101346000D02*
X133858000Y-94846000D01*
X153416000Y-70612000D02*
X153416000Y-74422000D01*
X151892000Y-69088000D02*
X153416000Y-70612000D01*
X151892000Y-69088000D02*
X133858000Y-69088000D01*
X141732000Y-73660000D02*
X141732000Y-71120000D01*
X149352000Y-75946000D02*
X149352000Y-86360000D01*
X146812000Y-78486000D02*
X146812000Y-86360000D01*
X144272000Y-81026000D02*
X144272000Y-86360000D01*
X141732000Y-83566000D02*
X141732000Y-86360000D01*
X169672000Y-96266000D02*
X170734000Y-96266000D01*
X154940000Y-94550000D02*
X154940000Y-91560000D01*
X163400000Y-76100000D02*
X163650000Y-75850000D01*
X163400000Y-83000000D02*
X163400000Y-76100000D01*
X162300000Y-84100000D02*
X163400000Y-83000000D01*
X162300000Y-86500000D02*
X162300000Y-84100000D01*
X158750000Y-90050000D02*
X162300000Y-86500000D01*
X156450000Y-90050000D02*
X158750000Y-90050000D01*
X154940000Y-91560000D02*
X156450000Y-90050000D01*
X153670000Y-93218000D02*
X147320000Y-93218000D01*
X154940000Y-98552000D02*
X154940000Y-94550000D01*
X154940000Y-94550000D02*
X154940000Y-94488000D01*
X154940000Y-94488000D02*
X153670000Y-93218000D01*
X147320000Y-93218000D02*
X145542000Y-94996000D01*
X174550000Y-79100000D02*
X174550000Y-72500000D01*
X174050000Y-91650000D02*
X174550000Y-91150000D01*
X174550000Y-91150000D02*
X174550000Y-79100000D01*
X172600000Y-70550000D02*
X171800000Y-70550000D01*
X174550000Y-72500000D02*
X172600000Y-70550000D01*
X136500000Y-65550000D02*
X136500000Y-64795000D01*
X136500000Y-64795000D02*
X139001500Y-62293500D01*
X175900000Y-62550000D02*
X181700000Y-68350000D01*
X181700000Y-68350000D02*
X181700000Y-71200000D01*
X175643500Y-62293500D02*
X175900000Y-62550000D01*
X139001500Y-62293500D02*
X175643500Y-62293500D01*
X136500000Y-65550000D02*
X136500000Y-64700000D01*
X141986000Y-106934000D02*
X141986000Y-107126000D01*
X141986000Y-101346000D02*
X141986000Y-106934000D01*
X141986000Y-107126000D02*
X142810000Y-107950000D01*
X144272000Y-107634000D02*
X144272000Y-107188000D01*
X144272000Y-101346000D02*
X144272000Y-107188000D01*
X144272000Y-107634000D02*
X144588000Y-107950000D01*
X148144000Y-107950000D02*
X148144000Y-106488000D01*
X146812000Y-101600000D02*
X146812000Y-105156000D01*
X148144000Y-106488000D02*
X146812000Y-105156000D01*
X107600000Y-72800000D02*
X108110000Y-72800000D01*
X109250000Y-83500000D02*
X109350000Y-83500000D01*
X109050000Y-83300000D02*
X109250000Y-83500000D01*
X109050000Y-77050000D02*
X109050000Y-83300000D01*
X109050000Y-73740000D02*
X109050000Y-77050000D01*
X108110000Y-72800000D02*
X109050000Y-73740000D01*
X127508000Y-84836000D02*
X127500000Y-102900000D01*
X127500000Y-102900000D02*
X124000000Y-106400000D01*
X121412000Y-106426000D02*
X124000000Y-106400000D01*
X102375000Y-70575000D02*
X103550000Y-69400000D01*
X102375000Y-75225000D02*
X102375000Y-70575000D01*
X103550000Y-76400000D02*
X102375000Y-75225000D01*
X105200000Y-76400000D02*
X103550000Y-76400000D01*
X107200000Y-78400000D02*
X105200000Y-76400000D01*
X107200000Y-84550000D02*
X107200000Y-78400000D01*
X123444000Y-93218000D02*
X123444000Y-87630000D01*
X123444000Y-87630000D02*
X123190000Y-87376000D01*
X123444000Y-93218000D02*
X123444000Y-103124000D01*
X121412000Y-103886000D02*
X122682000Y-103886000D01*
X122682000Y-103886000D02*
X123444000Y-103124000D01*
X102375000Y-70575000D02*
X102350000Y-70600000D01*
X125730000Y-93726000D02*
X126238000Y-93218000D01*
X126238000Y-93218000D02*
X126238000Y-77216000D01*
X125730000Y-98806000D02*
X125730000Y-93726000D01*
X119634000Y-93218000D02*
X120142000Y-93726000D01*
X119634000Y-93218000D02*
X119634000Y-73660000D01*
X121412000Y-93726000D02*
X120142000Y-93726000D01*
X165600000Y-77100000D02*
X165600000Y-84600000D01*
X168288000Y-76962000D02*
X169672000Y-76962000D01*
X167550000Y-77700000D02*
X168288000Y-76962000D01*
X167550000Y-81850000D02*
X167550000Y-77700000D01*
X167450000Y-81950000D02*
X167550000Y-81850000D01*
X172550000Y-89250000D02*
X170614000Y-91186000D01*
X172550000Y-74450000D02*
X171950000Y-73850000D01*
X172550000Y-89250000D02*
X172550000Y-74450000D01*
X169672000Y-91186000D02*
X170614000Y-91186000D01*
X169672000Y-91186000D02*
X169764000Y-91186000D01*
X187550000Y-71050000D02*
X185750000Y-71050000D01*
X174500000Y-101650000D02*
X174750000Y-101400000D01*
X187400000Y-86950000D02*
X187450000Y-86900000D01*
X187450000Y-86900000D02*
X187450000Y-83200000D01*
X187450000Y-83200000D02*
X183000000Y-78750000D01*
X183000000Y-78750000D02*
X183000000Y-75600000D01*
X174500000Y-101650000D02*
X174500000Y-104550000D01*
X183000000Y-73800000D02*
X183000000Y-75600000D01*
X185750000Y-71050000D02*
X183000000Y-73800000D01*
X148550000Y-110350000D02*
X148650000Y-110350000D01*
X126650000Y-105400000D02*
X127000000Y-105750000D01*
X127000000Y-105750000D02*
X127900000Y-105750000D01*
X127900000Y-105750000D02*
X129700000Y-107550000D01*
X129700000Y-107550000D02*
X129700000Y-109200000D01*
X129700000Y-109200000D02*
X130850000Y-110350000D01*
X130850000Y-110350000D02*
X148550000Y-110350000D01*
X174500000Y-106300000D02*
X174500000Y-104550000D01*
X174500000Y-104550000D02*
X174500000Y-104500000D01*
X171800000Y-109000000D02*
X174500000Y-106300000D01*
X159400000Y-109000000D02*
X171800000Y-109000000D01*
X156500000Y-106100000D02*
X159400000Y-109000000D01*
X152900000Y-106100000D02*
X156500000Y-106100000D01*
X148650000Y-110350000D02*
X152900000Y-106100000D01*
X157997498Y-63935002D02*
X161979002Y-63935002D01*
X154417502Y-67514998D02*
X157997498Y-63935002D01*
X139000000Y-67000000D02*
X139000000Y-65550000D01*
X139514998Y-67514998D02*
X139000000Y-67000000D01*
X139514998Y-67514998D02*
X154417502Y-67514998D01*
X161979002Y-63935002D02*
X162052000Y-64008000D01*
X176450000Y-66550000D02*
X176405000Y-66550000D01*
X156750000Y-63300000D02*
X156250000Y-63800000D01*
X156250000Y-63800000D02*
X148350000Y-63800000D01*
X146600000Y-65550000D02*
X148350000Y-63800000D01*
X156994500Y-63055500D02*
X156750000Y-63300000D01*
X172910500Y-63055500D02*
X156994500Y-63055500D01*
X176405000Y-66550000D02*
X172910500Y-63055500D01*
X169672000Y-88646000D02*
X170554000Y-88646000D01*
X170554000Y-88646000D02*
X171550000Y-87650000D01*
X171550000Y-87650000D02*
X171550000Y-75650000D01*
G36*
X178943000Y-72000236D02*
X178943000Y-76067896D01*
X178249387Y-75779883D01*
X177374770Y-75779119D01*
X176566437Y-76113116D01*
X175947449Y-76731024D01*
X175612043Y-77538773D01*
X175611279Y-78413390D01*
X175945276Y-79221723D01*
X176563184Y-79840711D01*
X177370933Y-80176117D01*
X178245550Y-80176881D01*
X179053883Y-79842884D01*
X179672871Y-79224976D01*
X180008277Y-78417227D01*
X180008826Y-77788410D01*
X180460618Y-77336618D01*
X180492435Y-77289000D01*
X180653329Y-77048206D01*
X180721000Y-76708000D01*
X180721000Y-71823751D01*
X180730446Y-71846612D01*
X181051697Y-72168423D01*
X181471646Y-72342801D01*
X181926359Y-72343198D01*
X182346612Y-72169554D01*
X182668423Y-71848303D01*
X182842801Y-71428354D01*
X182843198Y-70973641D01*
X182669554Y-70553388D01*
X182589000Y-70472694D01*
X182589000Y-69819161D01*
X182689115Y-70061457D01*
X183166494Y-70539670D01*
X183790538Y-70798796D01*
X184466243Y-70799386D01*
X184938519Y-70604245D01*
X182371382Y-73171382D01*
X182178671Y-73459794D01*
X182111000Y-73800000D01*
X182111000Y-78750000D01*
X182178671Y-79090206D01*
X182311501Y-79289000D01*
X182371382Y-79378618D01*
X186561000Y-83568236D01*
X186561000Y-86172499D01*
X186431577Y-86301697D01*
X186257199Y-86721646D01*
X186256802Y-87176359D01*
X186430446Y-87596612D01*
X186751697Y-87918423D01*
X187171646Y-88092801D01*
X187626359Y-88093198D01*
X187861000Y-87996247D01*
X187861000Y-91400000D01*
X187928671Y-91740206D01*
X188087973Y-91978618D01*
X188121382Y-92028618D01*
X188556900Y-92464136D01*
X188556802Y-92576359D01*
X188730446Y-92996612D01*
X188737287Y-93003465D01*
X188239416Y-93003030D01*
X188133873Y-93046639D01*
X188150186Y-93007354D01*
X188150776Y-92331649D01*
X187892739Y-91707153D01*
X187415360Y-91228940D01*
X186791316Y-90969814D01*
X186220514Y-90969316D01*
X183554086Y-88302888D01*
X183554562Y-87756924D01*
X183868359Y-87757198D01*
X184288612Y-87583554D01*
X184610423Y-87262303D01*
X184784801Y-86842354D01*
X184785198Y-86387641D01*
X184611554Y-85967388D01*
X184531000Y-85886694D01*
X184531000Y-83612000D01*
X184463329Y-83271794D01*
X184270618Y-82983382D01*
X181993074Y-80705838D01*
X181993198Y-80563641D01*
X181819554Y-80143388D01*
X181498303Y-79821577D01*
X181078354Y-79647199D01*
X180623641Y-79646802D01*
X180203388Y-79820446D01*
X179881577Y-80141697D01*
X179707199Y-80561646D01*
X179706802Y-81016359D01*
X179880446Y-81436612D01*
X180201697Y-81758423D01*
X180621646Y-81932801D01*
X180705638Y-81932874D01*
X182753000Y-83980236D01*
X182753000Y-85886412D01*
X182673577Y-85965697D01*
X182499199Y-86385646D01*
X182499099Y-86499843D01*
X182195121Y-86373620D01*
X181519416Y-86373030D01*
X180894920Y-86631067D01*
X180416707Y-87108446D01*
X180157581Y-87732490D01*
X180156991Y-88408195D01*
X180415028Y-89032691D01*
X180892407Y-89510904D01*
X181516451Y-89770030D01*
X182192156Y-89770620D01*
X182415190Y-89678464D01*
X184845211Y-92108485D01*
X184753776Y-92328684D01*
X184753186Y-93004389D01*
X185011223Y-93628885D01*
X185488602Y-94107098D01*
X186112646Y-94366224D01*
X186788351Y-94366814D01*
X186893894Y-94323205D01*
X186877581Y-94362490D01*
X186876991Y-95038195D01*
X187135028Y-95662691D01*
X187612407Y-96140904D01*
X188236451Y-96400030D01*
X188912156Y-96400620D01*
X189071504Y-96334778D01*
X191538804Y-98802078D01*
X191473776Y-98958684D01*
X191473186Y-99634389D01*
X191731223Y-100258885D01*
X192208602Y-100737098D01*
X192832646Y-100996224D01*
X193508351Y-100996814D01*
X194132847Y-100738777D01*
X194237283Y-100634524D01*
X193630650Y-103684273D01*
X191048592Y-107548594D01*
X187184273Y-110130650D01*
X182549819Y-111052500D01*
X156515308Y-111052500D01*
X156930160Y-110638372D01*
X157379988Y-109555066D01*
X157381011Y-108382080D01*
X157279734Y-108136970D01*
X158771382Y-109628618D01*
X159059794Y-109821329D01*
X159400000Y-109889000D01*
X171800000Y-109889000D01*
X172140206Y-109821329D01*
X172428618Y-109628618D01*
X175128618Y-106928618D01*
X175321330Y-106640205D01*
X175389000Y-106300000D01*
X175389000Y-102566244D01*
X175589242Y-103050866D01*
X176066621Y-103529079D01*
X176690665Y-103788205D01*
X177242155Y-103788687D01*
X177235601Y-103804471D01*
X177235011Y-104480176D01*
X177493048Y-105104672D01*
X177970427Y-105582885D01*
X178594471Y-105842011D01*
X179270176Y-105842601D01*
X179443676Y-105770912D01*
X181902691Y-108229927D01*
X181831795Y-108400665D01*
X181831205Y-109076370D01*
X182089242Y-109700866D01*
X182566621Y-110179079D01*
X183190665Y-110438205D01*
X183866370Y-110438795D01*
X184490866Y-110180758D01*
X184969079Y-109703379D01*
X185228205Y-109079335D01*
X185228795Y-108403630D01*
X184970758Y-107779134D01*
X184493379Y-107300921D01*
X183869335Y-107041795D01*
X183228471Y-107041235D01*
X180632044Y-104444808D01*
X180632601Y-103807436D01*
X180381657Y-103200107D01*
X180576612Y-103119554D01*
X180898423Y-102798303D01*
X181072801Y-102378354D01*
X181072851Y-102321209D01*
X181152407Y-102400904D01*
X181776451Y-102660030D01*
X182452156Y-102660620D01*
X182625657Y-102588931D01*
X185084672Y-105047946D01*
X185013776Y-105218684D01*
X185013186Y-105894389D01*
X185271223Y-106518885D01*
X185748602Y-106997098D01*
X186372646Y-107256224D01*
X187048351Y-107256814D01*
X187672847Y-106998777D01*
X188151060Y-106521398D01*
X188410186Y-105897354D01*
X188410776Y-105221649D01*
X188152739Y-104597153D01*
X187675360Y-104118940D01*
X187051316Y-103859814D01*
X186410452Y-103859254D01*
X183814024Y-101262826D01*
X183814581Y-100625455D01*
X183556544Y-100000959D01*
X183079165Y-99522746D01*
X182455121Y-99263620D01*
X181903632Y-99263138D01*
X181910186Y-99247354D01*
X181910776Y-98571649D01*
X181652739Y-97947153D01*
X181175360Y-97468940D01*
X180551316Y-97209814D01*
X179875611Y-97209224D01*
X179794101Y-97242903D01*
X177281237Y-94730039D01*
X177313991Y-94651160D01*
X177314581Y-93975455D01*
X177056544Y-93350959D01*
X176579165Y-92872746D01*
X175955121Y-92613620D01*
X175883678Y-92613558D01*
X176618618Y-91878618D01*
X176811329Y-91590206D01*
X176879000Y-91250000D01*
X176879000Y-90997344D01*
X176985218Y-90891311D01*
X176975601Y-90914471D01*
X176975011Y-91590176D01*
X177233048Y-92214672D01*
X177710427Y-92692885D01*
X178334471Y-92952011D01*
X179010176Y-92952601D01*
X179233209Y-92860445D01*
X181663230Y-95290466D01*
X181571795Y-95510665D01*
X181571205Y-96186370D01*
X181829242Y-96810866D01*
X182306621Y-97289079D01*
X182930665Y-97548205D01*
X183606370Y-97548795D01*
X183711914Y-97505185D01*
X183695601Y-97544471D01*
X183695011Y-98220176D01*
X183953048Y-98844672D01*
X184430427Y-99322885D01*
X185054471Y-99582011D01*
X185730176Y-99582601D01*
X185889524Y-99516760D01*
X188356823Y-101984059D01*
X188291795Y-102140665D01*
X188291205Y-102816370D01*
X188549242Y-103440866D01*
X189026621Y-103919079D01*
X189650665Y-104178205D01*
X190326370Y-104178795D01*
X190950866Y-103920758D01*
X191429079Y-103443379D01*
X191688205Y-102819335D01*
X191688795Y-102143630D01*
X191430758Y-101519134D01*
X190953379Y-101040921D01*
X190329335Y-100781795D01*
X189668454Y-100781218D01*
X187092027Y-98204791D01*
X187092601Y-97547436D01*
X186834564Y-96922940D01*
X186357185Y-96444727D01*
X185733141Y-96185601D01*
X185072260Y-96185024D01*
X184968300Y-96081064D01*
X184968795Y-95513630D01*
X184710758Y-94889134D01*
X184233379Y-94410921D01*
X183609335Y-94151795D01*
X183038533Y-94151297D01*
X180372106Y-91484870D01*
X180372601Y-90917436D01*
X180114564Y-90292940D01*
X179637185Y-89814727D01*
X179013141Y-89555601D01*
X178337436Y-89555011D01*
X177712940Y-89813048D01*
X177272894Y-90252327D01*
X177273198Y-89903641D01*
X177099554Y-89483388D01*
X176778303Y-89161577D01*
X176358354Y-88987199D01*
X175903641Y-88986802D01*
X175483388Y-89160446D01*
X175439000Y-89204757D01*
X175439000Y-72500000D01*
X175371329Y-72159794D01*
X175178618Y-71871382D01*
X173228618Y-69921382D01*
X173207392Y-69907199D01*
X172940206Y-69728671D01*
X172600000Y-69661000D01*
X172527588Y-69661000D01*
X172448303Y-69581577D01*
X172028354Y-69407199D01*
X171573641Y-69406802D01*
X171488001Y-69442188D01*
X171464306Y-69405500D01*
X169735500Y-69405500D01*
X169735500Y-69425500D01*
X169608500Y-69425500D01*
X169608500Y-69405500D01*
X169588500Y-69405500D01*
X169588500Y-69278500D01*
X169608500Y-69278500D01*
X169608500Y-69258500D01*
X169735500Y-69258500D01*
X169735500Y-69278500D01*
X171464306Y-69278500D01*
X171611221Y-69051025D01*
X171569475Y-68899342D01*
X171599706Y-68893329D01*
X171888118Y-68700618D01*
X172099736Y-68489000D01*
X175431764Y-68489000D01*
X178943000Y-72000236D01*
X178943000Y-72000236D01*
G37*
X178943000Y-72000236D02*
X178943000Y-76067896D01*
X178249387Y-75779883D01*
X177374770Y-75779119D01*
X176566437Y-76113116D01*
X175947449Y-76731024D01*
X175612043Y-77538773D01*
X175611279Y-78413390D01*
X175945276Y-79221723D01*
X176563184Y-79840711D01*
X177370933Y-80176117D01*
X178245550Y-80176881D01*
X179053883Y-79842884D01*
X179672871Y-79224976D01*
X180008277Y-78417227D01*
X180008826Y-77788410D01*
X180460618Y-77336618D01*
X180492435Y-77289000D01*
X180653329Y-77048206D01*
X180721000Y-76708000D01*
X180721000Y-71823751D01*
X180730446Y-71846612D01*
X181051697Y-72168423D01*
X181471646Y-72342801D01*
X181926359Y-72343198D01*
X182346612Y-72169554D01*
X182668423Y-71848303D01*
X182842801Y-71428354D01*
X182843198Y-70973641D01*
X182669554Y-70553388D01*
X182589000Y-70472694D01*
X182589000Y-69819161D01*
X182689115Y-70061457D01*
X183166494Y-70539670D01*
X183790538Y-70798796D01*
X184466243Y-70799386D01*
X184938519Y-70604245D01*
X182371382Y-73171382D01*
X182178671Y-73459794D01*
X182111000Y-73800000D01*
X182111000Y-78750000D01*
X182178671Y-79090206D01*
X182311501Y-79289000D01*
X182371382Y-79378618D01*
X186561000Y-83568236D01*
X186561000Y-86172499D01*
X186431577Y-86301697D01*
X186257199Y-86721646D01*
X186256802Y-87176359D01*
X186430446Y-87596612D01*
X186751697Y-87918423D01*
X187171646Y-88092801D01*
X187626359Y-88093198D01*
X187861000Y-87996247D01*
X187861000Y-91400000D01*
X187928671Y-91740206D01*
X188087973Y-91978618D01*
X188121382Y-92028618D01*
X188556900Y-92464136D01*
X188556802Y-92576359D01*
X188730446Y-92996612D01*
X188737287Y-93003465D01*
X188239416Y-93003030D01*
X188133873Y-93046639D01*
X188150186Y-93007354D01*
X188150776Y-92331649D01*
X187892739Y-91707153D01*
X187415360Y-91228940D01*
X186791316Y-90969814D01*
X186220514Y-90969316D01*
X183554086Y-88302888D01*
X183554562Y-87756924D01*
X183868359Y-87757198D01*
X184288612Y-87583554D01*
X184610423Y-87262303D01*
X184784801Y-86842354D01*
X184785198Y-86387641D01*
X184611554Y-85967388D01*
X184531000Y-85886694D01*
X184531000Y-83612000D01*
X184463329Y-83271794D01*
X184270618Y-82983382D01*
X181993074Y-80705838D01*
X181993198Y-80563641D01*
X181819554Y-80143388D01*
X181498303Y-79821577D01*
X181078354Y-79647199D01*
X180623641Y-79646802D01*
X180203388Y-79820446D01*
X179881577Y-80141697D01*
X179707199Y-80561646D01*
X179706802Y-81016359D01*
X179880446Y-81436612D01*
X180201697Y-81758423D01*
X180621646Y-81932801D01*
X180705638Y-81932874D01*
X182753000Y-83980236D01*
X182753000Y-85886412D01*
X182673577Y-85965697D01*
X182499199Y-86385646D01*
X182499099Y-86499843D01*
X182195121Y-86373620D01*
X181519416Y-86373030D01*
X180894920Y-86631067D01*
X180416707Y-87108446D01*
X180157581Y-87732490D01*
X180156991Y-88408195D01*
X180415028Y-89032691D01*
X180892407Y-89510904D01*
X181516451Y-89770030D01*
X182192156Y-89770620D01*
X182415190Y-89678464D01*
X184845211Y-92108485D01*
X184753776Y-92328684D01*
X184753186Y-93004389D01*
X185011223Y-93628885D01*
X185488602Y-94107098D01*
X186112646Y-94366224D01*
X186788351Y-94366814D01*
X186893894Y-94323205D01*
X186877581Y-94362490D01*
X186876991Y-95038195D01*
X187135028Y-95662691D01*
X187612407Y-96140904D01*
X188236451Y-96400030D01*
X188912156Y-96400620D01*
X189071504Y-96334778D01*
X191538804Y-98802078D01*
X191473776Y-98958684D01*
X191473186Y-99634389D01*
X191731223Y-100258885D01*
X192208602Y-100737098D01*
X192832646Y-100996224D01*
X193508351Y-100996814D01*
X194132847Y-100738777D01*
X194237283Y-100634524D01*
X193630650Y-103684273D01*
X191048592Y-107548594D01*
X187184273Y-110130650D01*
X182549819Y-111052500D01*
X156515308Y-111052500D01*
X156930160Y-110638372D01*
X157379988Y-109555066D01*
X157381011Y-108382080D01*
X157279734Y-108136970D01*
X158771382Y-109628618D01*
X159059794Y-109821329D01*
X159400000Y-109889000D01*
X171800000Y-109889000D01*
X172140206Y-109821329D01*
X172428618Y-109628618D01*
X175128618Y-106928618D01*
X175321330Y-106640205D01*
X175389000Y-106300000D01*
X175389000Y-102566244D01*
X175589242Y-103050866D01*
X176066621Y-103529079D01*
X176690665Y-103788205D01*
X177242155Y-103788687D01*
X177235601Y-103804471D01*
X177235011Y-104480176D01*
X177493048Y-105104672D01*
X177970427Y-105582885D01*
X178594471Y-105842011D01*
X179270176Y-105842601D01*
X179443676Y-105770912D01*
X181902691Y-108229927D01*
X181831795Y-108400665D01*
X181831205Y-109076370D01*
X182089242Y-109700866D01*
X182566621Y-110179079D01*
X183190665Y-110438205D01*
X183866370Y-110438795D01*
X184490866Y-110180758D01*
X184969079Y-109703379D01*
X185228205Y-109079335D01*
X185228795Y-108403630D01*
X184970758Y-107779134D01*
X184493379Y-107300921D01*
X183869335Y-107041795D01*
X183228471Y-107041235D01*
X180632044Y-104444808D01*
X180632601Y-103807436D01*
X180381657Y-103200107D01*
X180576612Y-103119554D01*
X180898423Y-102798303D01*
X181072801Y-102378354D01*
X181072851Y-102321209D01*
X181152407Y-102400904D01*
X181776451Y-102660030D01*
X182452156Y-102660620D01*
X182625657Y-102588931D01*
X185084672Y-105047946D01*
X185013776Y-105218684D01*
X185013186Y-105894389D01*
X185271223Y-106518885D01*
X185748602Y-106997098D01*
X186372646Y-107256224D01*
X187048351Y-107256814D01*
X187672847Y-106998777D01*
X188151060Y-106521398D01*
X188410186Y-105897354D01*
X188410776Y-105221649D01*
X188152739Y-104597153D01*
X187675360Y-104118940D01*
X187051316Y-103859814D01*
X186410452Y-103859254D01*
X183814024Y-101262826D01*
X183814581Y-100625455D01*
X183556544Y-100000959D01*
X183079165Y-99522746D01*
X182455121Y-99263620D01*
X181903632Y-99263138D01*
X181910186Y-99247354D01*
X181910776Y-98571649D01*
X181652739Y-97947153D01*
X181175360Y-97468940D01*
X180551316Y-97209814D01*
X179875611Y-97209224D01*
X179794101Y-97242903D01*
X177281237Y-94730039D01*
X177313991Y-94651160D01*
X177314581Y-93975455D01*
X177056544Y-93350959D01*
X176579165Y-92872746D01*
X175955121Y-92613620D01*
X175883678Y-92613558D01*
X176618618Y-91878618D01*
X176811329Y-91590206D01*
X176879000Y-91250000D01*
X176879000Y-90997344D01*
X176985218Y-90891311D01*
X176975601Y-90914471D01*
X176975011Y-91590176D01*
X177233048Y-92214672D01*
X177710427Y-92692885D01*
X178334471Y-92952011D01*
X179010176Y-92952601D01*
X179233209Y-92860445D01*
X181663230Y-95290466D01*
X181571795Y-95510665D01*
X181571205Y-96186370D01*
X181829242Y-96810866D01*
X182306621Y-97289079D01*
X182930665Y-97548205D01*
X183606370Y-97548795D01*
X183711914Y-97505185D01*
X183695601Y-97544471D01*
X183695011Y-98220176D01*
X183953048Y-98844672D01*
X184430427Y-99322885D01*
X185054471Y-99582011D01*
X185730176Y-99582601D01*
X185889524Y-99516760D01*
X188356823Y-101984059D01*
X188291795Y-102140665D01*
X188291205Y-102816370D01*
X188549242Y-103440866D01*
X189026621Y-103919079D01*
X189650665Y-104178205D01*
X190326370Y-104178795D01*
X190950866Y-103920758D01*
X191429079Y-103443379D01*
X191688205Y-102819335D01*
X191688795Y-102143630D01*
X191430758Y-101519134D01*
X190953379Y-101040921D01*
X190329335Y-100781795D01*
X189668454Y-100781218D01*
X187092027Y-98204791D01*
X187092601Y-97547436D01*
X186834564Y-96922940D01*
X186357185Y-96444727D01*
X185733141Y-96185601D01*
X185072260Y-96185024D01*
X184968300Y-96081064D01*
X184968795Y-95513630D01*
X184710758Y-94889134D01*
X184233379Y-94410921D01*
X183609335Y-94151795D01*
X183038533Y-94151297D01*
X180372106Y-91484870D01*
X180372601Y-90917436D01*
X180114564Y-90292940D01*
X179637185Y-89814727D01*
X179013141Y-89555601D01*
X178337436Y-89555011D01*
X177712940Y-89813048D01*
X177272894Y-90252327D01*
X177273198Y-89903641D01*
X177099554Y-89483388D01*
X176778303Y-89161577D01*
X176358354Y-88987199D01*
X175903641Y-88986802D01*
X175483388Y-89160446D01*
X175439000Y-89204757D01*
X175439000Y-72500000D01*
X175371329Y-72159794D01*
X175178618Y-71871382D01*
X173228618Y-69921382D01*
X173207392Y-69907199D01*
X172940206Y-69728671D01*
X172600000Y-69661000D01*
X172527588Y-69661000D01*
X172448303Y-69581577D01*
X172028354Y-69407199D01*
X171573641Y-69406802D01*
X171488001Y-69442188D01*
X171464306Y-69405500D01*
X169735500Y-69405500D01*
X169735500Y-69425500D01*
X169608500Y-69425500D01*
X169608500Y-69405500D01*
X169588500Y-69405500D01*
X169588500Y-69278500D01*
X169608500Y-69278500D01*
X169608500Y-69258500D01*
X169735500Y-69258500D01*
X169735500Y-69278500D01*
X171464306Y-69278500D01*
X171611221Y-69051025D01*
X171569475Y-68899342D01*
X171599706Y-68893329D01*
X171888118Y-68700618D01*
X172099736Y-68489000D01*
X175431764Y-68489000D01*
X178943000Y-72000236D01*
G36*
X136199948Y-63837816D02*
X135750000Y-63837816D01*
X135491151Y-63886522D01*
X135253415Y-64039501D01*
X135093926Y-64272921D01*
X135037816Y-64550000D01*
X135037816Y-66550000D01*
X135086522Y-66808849D01*
X135239501Y-67046585D01*
X135472921Y-67206074D01*
X135744153Y-67261000D01*
X131650000Y-67261000D01*
X131309794Y-67328671D01*
X131021382Y-67521382D01*
X124571382Y-73971382D01*
X124378671Y-74259794D01*
X124311000Y-74600000D01*
X124311000Y-80272412D01*
X124231577Y-80351697D01*
X124057199Y-80771646D01*
X124056802Y-81226359D01*
X124230446Y-81646612D01*
X124311000Y-81727306D01*
X124311000Y-87095917D01*
X124159554Y-86729388D01*
X123838303Y-86407577D01*
X123418354Y-86233199D01*
X123245349Y-86233048D01*
X123204306Y-86169500D01*
X121475500Y-86169500D01*
X121475500Y-86189500D01*
X121348500Y-86189500D01*
X121348500Y-86169500D01*
X121328500Y-86169500D01*
X121328500Y-86042500D01*
X121348500Y-86042500D01*
X121348500Y-83629500D01*
X121475500Y-83629500D01*
X121475500Y-86042500D01*
X123204306Y-86042500D01*
X123351221Y-85815025D01*
X123293627Y-85605757D01*
X122997631Y-85118172D01*
X122612651Y-84836000D01*
X122997631Y-84553828D01*
X123293627Y-84066243D01*
X123351221Y-83856975D01*
X123204306Y-83629500D01*
X121475500Y-83629500D01*
X121348500Y-83629500D01*
X121328500Y-83629500D01*
X121328500Y-83502500D01*
X121348500Y-83502500D01*
X121348500Y-83482500D01*
X121475500Y-83482500D01*
X121475500Y-83502500D01*
X123204306Y-83502500D01*
X123351221Y-83275025D01*
X123293627Y-83065757D01*
X122997631Y-82578172D01*
X122623878Y-82304229D01*
X122991294Y-82058729D01*
X123307891Y-81584909D01*
X123419065Y-81026000D01*
X123307891Y-80467091D01*
X122991294Y-79993271D01*
X122636194Y-79756000D01*
X122991294Y-79518729D01*
X123307891Y-79044909D01*
X123419065Y-78486000D01*
X123307891Y-77927091D01*
X122991294Y-77453271D01*
X122636194Y-77216000D01*
X122991294Y-76978729D01*
X123307891Y-76504909D01*
X123419065Y-75946000D01*
X123307891Y-75387091D01*
X122991294Y-74913271D01*
X122517474Y-74596674D01*
X121958565Y-74485500D01*
X120865435Y-74485500D01*
X120523000Y-74553615D01*
X120523000Y-74387588D01*
X120602423Y-74308303D01*
X120776801Y-73888354D01*
X120777198Y-73433641D01*
X120603554Y-73013388D01*
X120282303Y-72691577D01*
X119862354Y-72517199D01*
X119407641Y-72516802D01*
X118987388Y-72690446D01*
X118665577Y-73011697D01*
X118491199Y-73431646D01*
X118490802Y-73886359D01*
X118664446Y-74306612D01*
X118745000Y-74387306D01*
X118745000Y-81216583D01*
X118592354Y-81153199D01*
X118137641Y-81152802D01*
X117717388Y-81326446D01*
X117395577Y-81647697D01*
X117221199Y-82067646D01*
X117220802Y-82522359D01*
X117394446Y-82942612D01*
X117475000Y-83023306D01*
X117475000Y-88934412D01*
X117395577Y-89013697D01*
X117221199Y-89433646D01*
X117220802Y-89888359D01*
X117394446Y-90308612D01*
X117715697Y-90630423D01*
X118135646Y-90804801D01*
X118590359Y-90805198D01*
X118745000Y-90741302D01*
X118745000Y-93218000D01*
X118812671Y-93558206D01*
X119005382Y-93846618D01*
X119513382Y-94354618D01*
X119602455Y-94414135D01*
X119832706Y-94758729D01*
X120187806Y-94996000D01*
X119832706Y-95233271D01*
X119516109Y-95707091D01*
X119452041Y-96029185D01*
X119169335Y-95911795D01*
X118493630Y-95911205D01*
X117869134Y-96169242D01*
X117390921Y-96646621D01*
X117131795Y-97270665D01*
X117131205Y-97946370D01*
X117152604Y-97998160D01*
X114622344Y-100528420D01*
X114573141Y-100507989D01*
X113897436Y-100507399D01*
X113272940Y-100765436D01*
X112794727Y-101242815D01*
X112535601Y-101866859D01*
X112535178Y-102351713D01*
X111953630Y-102351205D01*
X111329134Y-102609242D01*
X110850921Y-103086621D01*
X110591795Y-103710665D01*
X110591205Y-104386370D01*
X110641842Y-104508922D01*
X108153004Y-106997760D01*
X108033141Y-106947989D01*
X107357436Y-106947399D01*
X106732940Y-107205436D01*
X106254727Y-107682815D01*
X105995601Y-108306859D01*
X105995011Y-108982564D01*
X106253048Y-109607060D01*
X106730427Y-110085273D01*
X107354471Y-110344399D01*
X108030176Y-110344989D01*
X108654672Y-110086952D01*
X109132885Y-109609573D01*
X109392011Y-108985529D01*
X109392601Y-108309824D01*
X109381728Y-108283508D01*
X111926899Y-105738337D01*
X111950665Y-105748205D01*
X112626370Y-105748795D01*
X113250866Y-105490758D01*
X113729079Y-105013379D01*
X113988205Y-104389335D01*
X113988628Y-103904481D01*
X114570176Y-103904989D01*
X115194672Y-103646952D01*
X115672885Y-103169573D01*
X115932011Y-102545529D01*
X115932601Y-101869824D01*
X115892489Y-101772747D01*
X118396240Y-99268996D01*
X118490665Y-99308205D01*
X119166370Y-99308795D01*
X119479233Y-99179522D01*
X119516109Y-99364909D01*
X119832706Y-99838729D01*
X120187806Y-100076000D01*
X119832706Y-100313271D01*
X119516109Y-100787091D01*
X119404935Y-101346000D01*
X119516109Y-101904909D01*
X119832706Y-102378729D01*
X120187806Y-102616000D01*
X119832706Y-102853271D01*
X119516109Y-103327091D01*
X119404935Y-103886000D01*
X119516109Y-104444909D01*
X119832706Y-104918729D01*
X120187806Y-105156000D01*
X119832706Y-105393271D01*
X119516109Y-105867091D01*
X119404935Y-106426000D01*
X119516109Y-106984909D01*
X119832706Y-107458729D01*
X120306526Y-107775326D01*
X120865435Y-107886500D01*
X121958565Y-107886500D01*
X122517474Y-107775326D01*
X122991294Y-107458729D01*
X123098623Y-107298100D01*
X123998415Y-107289061D01*
X123993840Y-107293628D01*
X123544012Y-108376934D01*
X123542989Y-109549920D01*
X123990925Y-110634009D01*
X124408686Y-111052500D01*
X108534182Y-111052500D01*
X103899727Y-110130650D01*
X100035406Y-107548592D01*
X98867425Y-105800584D01*
X102813030Y-105800584D01*
X103071067Y-106425080D01*
X103548446Y-106903293D01*
X104172490Y-107162419D01*
X104848195Y-107163009D01*
X105472691Y-106904972D01*
X105950904Y-106427593D01*
X106210030Y-105803549D01*
X106210620Y-105127844D01*
X106199746Y-105101528D01*
X108744918Y-102556356D01*
X108768684Y-102566224D01*
X109444389Y-102566814D01*
X110068885Y-102308777D01*
X110547098Y-101831398D01*
X110806224Y-101207354D01*
X110806647Y-100722501D01*
X111388195Y-100723009D01*
X112012691Y-100464972D01*
X112490904Y-99987593D01*
X112750030Y-99363549D01*
X112750620Y-98687844D01*
X112710508Y-98590766D01*
X115214259Y-96087015D01*
X115308684Y-96126224D01*
X115984389Y-96126814D01*
X116608885Y-95868777D01*
X117087098Y-95391398D01*
X117346224Y-94767354D01*
X117346814Y-94091649D01*
X117088777Y-93467153D01*
X116611398Y-92988940D01*
X115987354Y-92729814D01*
X115311649Y-92729224D01*
X114687153Y-92987261D01*
X114208940Y-93464640D01*
X113949814Y-94088684D01*
X113949224Y-94764389D01*
X113970623Y-94816179D01*
X111440362Y-97346440D01*
X111391160Y-97326009D01*
X110715455Y-97325419D01*
X110090959Y-97583456D01*
X109612746Y-98060835D01*
X109353620Y-98684879D01*
X109353197Y-99169732D01*
X108771649Y-99169224D01*
X108147153Y-99427261D01*
X107668940Y-99904640D01*
X107409814Y-100528684D01*
X107409224Y-101204389D01*
X107459861Y-101326941D01*
X104971022Y-103815780D01*
X104851160Y-103766009D01*
X104175455Y-103765419D01*
X103550959Y-104023456D01*
X103072746Y-104500835D01*
X102813620Y-105124879D01*
X102813030Y-105800584D01*
X98867425Y-105800584D01*
X97453350Y-103684273D01*
X97250120Y-102662564D01*
X99655011Y-102662564D01*
X99913048Y-103287060D01*
X100390427Y-103765273D01*
X101014471Y-104024399D01*
X101690176Y-104024989D01*
X102314672Y-103766952D01*
X102792885Y-103289573D01*
X103052011Y-102665529D01*
X103052601Y-101989824D01*
X103030032Y-101935204D01*
X105558636Y-99406600D01*
X105610665Y-99428205D01*
X106286370Y-99428795D01*
X106910866Y-99170758D01*
X107389079Y-98693379D01*
X107648205Y-98069335D01*
X107648711Y-97489550D01*
X107684471Y-97504399D01*
X108360176Y-97504989D01*
X108984672Y-97246952D01*
X109462885Y-96769573D01*
X109722011Y-96145529D01*
X109722601Y-95469824D01*
X109656175Y-95309061D01*
X112122646Y-92842590D01*
X112280665Y-92908205D01*
X112956370Y-92908795D01*
X113580866Y-92650758D01*
X114059079Y-92173379D01*
X114318205Y-91549335D01*
X114318795Y-90873630D01*
X114060758Y-90249134D01*
X113583379Y-89770921D01*
X112959335Y-89511795D01*
X112283630Y-89511205D01*
X111659134Y-89769242D01*
X111180921Y-90246621D01*
X110921795Y-90870665D01*
X110921220Y-91529544D01*
X108342793Y-94107971D01*
X107687436Y-94107399D01*
X107062940Y-94365436D01*
X106584727Y-94842815D01*
X106325601Y-95466859D01*
X106325095Y-96046644D01*
X106289335Y-96031795D01*
X105613630Y-96031205D01*
X104989134Y-96289242D01*
X104510921Y-96766621D01*
X104251795Y-97390665D01*
X104251205Y-98066370D01*
X104290147Y-98160617D01*
X101784740Y-100666024D01*
X101693141Y-100627989D01*
X101017436Y-100627399D01*
X100392940Y-100885436D01*
X99914727Y-101362815D01*
X99655601Y-101986859D01*
X99655011Y-102662564D01*
X97250120Y-102662564D01*
X96743977Y-100118012D01*
X97208446Y-100583293D01*
X97832490Y-100842419D01*
X98508195Y-100843009D01*
X99132691Y-100584972D01*
X99610904Y-100107593D01*
X99870030Y-99483549D01*
X99870620Y-98807844D01*
X99848051Y-98753223D01*
X102376655Y-96224619D01*
X102428684Y-96246224D01*
X103104389Y-96246814D01*
X103728885Y-95988777D01*
X104207098Y-95511398D01*
X104466224Y-94887354D01*
X104466730Y-94307570D01*
X104502490Y-94322419D01*
X105178195Y-94323009D01*
X105802691Y-94064972D01*
X106280904Y-93587593D01*
X106540030Y-92963549D01*
X106540620Y-92287844D01*
X106474194Y-92127080D01*
X108940665Y-89660609D01*
X109098684Y-89726224D01*
X109774389Y-89726814D01*
X110398885Y-89468777D01*
X110877098Y-88991398D01*
X111136224Y-88367354D01*
X111136814Y-87691649D01*
X110878777Y-87067153D01*
X110401398Y-86588940D01*
X109777354Y-86329814D01*
X109243410Y-86329348D01*
X109346801Y-86080354D01*
X109347198Y-85625641D01*
X109173554Y-85205388D01*
X109093000Y-85124694D01*
X109093000Y-84630906D01*
X109121646Y-84642801D01*
X109576359Y-84643198D01*
X109996612Y-84469554D01*
X110318423Y-84148303D01*
X110492801Y-83728354D01*
X110493198Y-83273641D01*
X110319554Y-82853388D01*
X109998303Y-82531577D01*
X109939000Y-82506952D01*
X109939000Y-78798782D01*
X110288126Y-78799087D01*
X110728924Y-78616953D01*
X110799828Y-78546172D01*
X110869303Y-78615768D01*
X111309782Y-78798671D01*
X111786726Y-78799087D01*
X112227524Y-78616953D01*
X112565068Y-78279997D01*
X112747971Y-77839518D01*
X112748387Y-77362574D01*
X112566253Y-76921776D01*
X112229297Y-76584232D01*
X111788818Y-76401329D01*
X111311874Y-76400913D01*
X110871076Y-76583047D01*
X110800172Y-76653828D01*
X110730697Y-76584232D01*
X110290218Y-76401329D01*
X109939000Y-76401023D01*
X109939000Y-73740000D01*
X109871329Y-73399794D01*
X109678618Y-73111382D01*
X109266236Y-72699000D01*
X110631764Y-72699000D01*
X112211382Y-74278618D01*
X112499794Y-74471329D01*
X112840000Y-74539000D01*
X113181764Y-74539000D01*
X113919000Y-75276236D01*
X113919000Y-75644787D01*
X113899151Y-75648522D01*
X113661415Y-75801501D01*
X113501926Y-76034921D01*
X113445816Y-76312000D01*
X113445816Y-77612000D01*
X113494522Y-77870849D01*
X113647501Y-78108585D01*
X113880921Y-78268074D01*
X114072423Y-78306854D01*
X114045134Y-78318130D01*
X113665464Y-78697139D01*
X113459734Y-79192590D01*
X113459266Y-79729056D01*
X113664130Y-80224866D01*
X114043139Y-80604536D01*
X114538590Y-80810266D01*
X115035249Y-80810699D01*
X114935199Y-81051646D01*
X114934802Y-81506359D01*
X115108446Y-81926612D01*
X115429697Y-82248423D01*
X115849646Y-82422801D01*
X116304359Y-82423198D01*
X116724612Y-82249554D01*
X117046423Y-81928303D01*
X117220801Y-81508354D01*
X117221198Y-81053641D01*
X117047554Y-80633388D01*
X116967000Y-80552694D01*
X116967000Y-72868604D01*
X117160688Y-72578730D01*
X117248080Y-72139379D01*
X117248080Y-71480621D01*
X117160688Y-71041270D01*
X116911815Y-70668806D01*
X116539351Y-70419933D01*
X116100000Y-70332541D01*
X115660649Y-70419933D01*
X115465000Y-70550662D01*
X115269351Y-70419933D01*
X114830000Y-70332541D01*
X114390649Y-70419933D01*
X114176205Y-70563221D01*
X113940684Y-70424022D01*
X113802043Y-70386734D01*
X113623500Y-70537628D01*
X113623500Y-71746500D01*
X113643500Y-71746500D01*
X113643500Y-71873500D01*
X113623500Y-71873500D01*
X113623500Y-71893500D01*
X113496500Y-71893500D01*
X113496500Y-71873500D01*
X112411920Y-71873500D01*
X112411920Y-71964684D01*
X111892746Y-71445510D01*
X112411920Y-71445510D01*
X112411920Y-71746500D01*
X113496500Y-71746500D01*
X113496500Y-70537628D01*
X113317957Y-70386734D01*
X113179316Y-70424022D01*
X112793087Y-70652293D01*
X112523613Y-71010992D01*
X112411920Y-71445510D01*
X111892746Y-71445510D01*
X111628618Y-71181382D01*
X111536753Y-71120000D01*
X111340206Y-70988671D01*
X111000000Y-70921000D01*
X108117645Y-70921000D01*
X107740615Y-70543970D01*
X108230993Y-70341349D01*
X108709206Y-69863970D01*
X108968332Y-69239926D01*
X108968922Y-68564221D01*
X108710885Y-67939725D01*
X108233506Y-67461512D01*
X107609462Y-67202386D01*
X106933757Y-67201796D01*
X106309261Y-67459833D01*
X105831048Y-67937212D01*
X105626489Y-68429844D01*
X104432342Y-67235697D01*
X104638205Y-66739926D01*
X104638795Y-66064221D01*
X104620524Y-66020000D01*
X109877816Y-66020000D01*
X109877816Y-68020000D01*
X109926522Y-68278849D01*
X110079501Y-68516585D01*
X110312921Y-68676074D01*
X110590000Y-68732184D01*
X112090000Y-68732184D01*
X112348849Y-68683478D01*
X112586585Y-68530499D01*
X112746074Y-68297079D01*
X112764188Y-68207627D01*
X112860657Y-68339145D01*
X113344349Y-68632540D01*
X113550904Y-68689357D01*
X113776500Y-68542291D01*
X113776500Y-67083500D01*
X113756500Y-67083500D01*
X113756500Y-66956500D01*
X113776500Y-66956500D01*
X113776500Y-65497709D01*
X113903500Y-65497709D01*
X113903500Y-66956500D01*
X113923500Y-66956500D01*
X113923500Y-67083500D01*
X113903500Y-67083500D01*
X113903500Y-68542291D01*
X114129096Y-68689357D01*
X114335651Y-68632540D01*
X114819343Y-68339145D01*
X115135512Y-67908106D01*
X115415756Y-68327520D01*
X115885683Y-68641516D01*
X116440000Y-68751776D01*
X116994317Y-68641516D01*
X117464244Y-68327520D01*
X117690000Y-67989653D01*
X117915756Y-68327520D01*
X118385683Y-68641516D01*
X118940000Y-68751776D01*
X119494317Y-68641516D01*
X119964244Y-68327520D01*
X120278240Y-67857593D01*
X120388500Y-67303276D01*
X120388500Y-66736724D01*
X120315539Y-66369920D01*
X122399989Y-66369920D01*
X122847925Y-67454009D01*
X123676628Y-68284160D01*
X124759934Y-68733988D01*
X125932920Y-68735011D01*
X127017009Y-68287075D01*
X127847160Y-67458372D01*
X128296988Y-66375066D01*
X128298011Y-65202080D01*
X127850075Y-64117991D01*
X127021372Y-63287840D01*
X125938066Y-62838012D01*
X124765080Y-62836989D01*
X123680991Y-63284925D01*
X122850840Y-64113628D01*
X122401012Y-65196934D01*
X122399989Y-66369920D01*
X120315539Y-66369920D01*
X120278240Y-66182407D01*
X119964244Y-65712480D01*
X119494317Y-65398484D01*
X118940000Y-65288224D01*
X118385683Y-65398484D01*
X117915756Y-65712480D01*
X117690000Y-66050347D01*
X117464244Y-65712480D01*
X116994317Y-65398484D01*
X116440000Y-65288224D01*
X115885683Y-65398484D01*
X115415756Y-65712480D01*
X115135512Y-66131894D01*
X114819343Y-65700855D01*
X114335651Y-65407460D01*
X114129096Y-65350643D01*
X113903500Y-65497709D01*
X113776500Y-65497709D01*
X113550904Y-65350643D01*
X113344349Y-65407460D01*
X112860657Y-65700855D01*
X112766330Y-65829453D01*
X112753478Y-65761151D01*
X112600499Y-65523415D01*
X112367079Y-65363926D01*
X112090000Y-65307816D01*
X110590000Y-65307816D01*
X110331151Y-65356522D01*
X110093415Y-65509501D01*
X109933926Y-65742921D01*
X109877816Y-66020000D01*
X104620524Y-66020000D01*
X104380758Y-65439725D01*
X103903379Y-64961512D01*
X103279335Y-64702386D01*
X102603630Y-64701796D01*
X101979134Y-64959833D01*
X101500921Y-65437212D01*
X101241795Y-66061256D01*
X101241205Y-66736961D01*
X101499242Y-67361457D01*
X101976621Y-67839670D01*
X102600665Y-68098796D01*
X102781127Y-68098954D01*
X103051444Y-68369271D01*
X102903388Y-68430446D01*
X102581577Y-68751697D01*
X102407199Y-69171646D01*
X102407099Y-69285665D01*
X101844522Y-69848242D01*
X101840758Y-69839134D01*
X101363379Y-69360921D01*
X100739335Y-69101795D01*
X100063630Y-69101205D01*
X99439134Y-69359242D01*
X98960921Y-69836621D01*
X98701795Y-70460665D01*
X98701205Y-71136370D01*
X98959242Y-71760866D01*
X99436621Y-72239079D01*
X100060665Y-72498205D01*
X100736370Y-72498795D01*
X101360866Y-72240758D01*
X101486000Y-72115842D01*
X101486000Y-75225000D01*
X101553671Y-75565206D01*
X101720856Y-75815415D01*
X101746382Y-75853618D01*
X101893413Y-76000649D01*
X101853757Y-76000614D01*
X101229261Y-76258651D01*
X100751048Y-76736030D01*
X100491922Y-77360074D01*
X100491837Y-77457080D01*
X100173641Y-77456802D01*
X99753388Y-77630446D01*
X99431577Y-77951697D01*
X99257199Y-78371646D01*
X99256802Y-78826359D01*
X99430446Y-79246612D01*
X99751697Y-79568423D01*
X100171646Y-79742801D01*
X100485839Y-79743075D01*
X101371382Y-80628618D01*
X101659794Y-80821329D01*
X102000000Y-80889000D01*
X105472412Y-80889000D01*
X105551697Y-80968423D01*
X105971646Y-81142801D01*
X106311000Y-81143097D01*
X106311000Y-83822412D01*
X106231577Y-83901697D01*
X106057199Y-84321646D01*
X106056802Y-84776359D01*
X106230446Y-85196612D01*
X106551697Y-85518423D01*
X106971646Y-85692801D01*
X107061139Y-85692879D01*
X107060802Y-86078359D01*
X107234446Y-86498612D01*
X107555697Y-86820423D01*
X107975646Y-86994801D01*
X108068820Y-86994882D01*
X107998940Y-87064640D01*
X107739814Y-87688684D01*
X107739239Y-88347563D01*
X105160811Y-90925991D01*
X104505455Y-90925419D01*
X103880959Y-91183456D01*
X103402746Y-91660835D01*
X103143620Y-92284879D01*
X103143114Y-92864663D01*
X103107354Y-92849814D01*
X102431649Y-92849224D01*
X101807153Y-93107261D01*
X101328940Y-93584640D01*
X101069814Y-94208684D01*
X101069224Y-94884389D01*
X101108166Y-94978636D01*
X98602758Y-97484044D01*
X98511160Y-97446009D01*
X97835455Y-97445419D01*
X97210959Y-97703456D01*
X96732746Y-98180835D01*
X96531500Y-98665489D01*
X96531500Y-76258308D01*
X96714787Y-76498460D01*
X97299087Y-76837830D01*
X97968780Y-76927765D01*
X97977746Y-76927177D01*
X98201349Y-76718686D01*
X97815099Y-75277180D01*
X96531500Y-75621119D01*
X96531500Y-75489640D01*
X97447083Y-75244310D01*
X97937771Y-75244310D01*
X98324021Y-76685815D01*
X98621913Y-76754573D01*
X99159051Y-76344622D01*
X99498421Y-75760322D01*
X99588356Y-75090629D01*
X99587768Y-75081663D01*
X99379277Y-74858060D01*
X97937771Y-75244310D01*
X97447083Y-75244310D01*
X97782229Y-75154508D01*
X97395979Y-73713003D01*
X97253567Y-73680132D01*
X97518651Y-73680132D01*
X97904901Y-75121638D01*
X99346406Y-74735388D01*
X99415164Y-74437496D01*
X99005213Y-73900358D01*
X98420913Y-73560988D01*
X97751220Y-73471053D01*
X97742254Y-73471641D01*
X97518651Y-73680132D01*
X97253567Y-73680132D01*
X97098087Y-73644245D01*
X96570783Y-74046690D01*
X97453350Y-69609727D01*
X100035406Y-65745408D01*
X103899727Y-63163350D01*
X108534182Y-62241500D01*
X137796264Y-62241500D01*
X136199948Y-63837816D01*
X136199948Y-63837816D01*
G37*
X136199948Y-63837816D02*
X135750000Y-63837816D01*
X135491151Y-63886522D01*
X135253415Y-64039501D01*
X135093926Y-64272921D01*
X135037816Y-64550000D01*
X135037816Y-66550000D01*
X135086522Y-66808849D01*
X135239501Y-67046585D01*
X135472921Y-67206074D01*
X135744153Y-67261000D01*
X131650000Y-67261000D01*
X131309794Y-67328671D01*
X131021382Y-67521382D01*
X124571382Y-73971382D01*
X124378671Y-74259794D01*
X124311000Y-74600000D01*
X124311000Y-80272412D01*
X124231577Y-80351697D01*
X124057199Y-80771646D01*
X124056802Y-81226359D01*
X124230446Y-81646612D01*
X124311000Y-81727306D01*
X124311000Y-87095917D01*
X124159554Y-86729388D01*
X123838303Y-86407577D01*
X123418354Y-86233199D01*
X123245349Y-86233048D01*
X123204306Y-86169500D01*
X121475500Y-86169500D01*
X121475500Y-86189500D01*
X121348500Y-86189500D01*
X121348500Y-86169500D01*
X121328500Y-86169500D01*
X121328500Y-86042500D01*
X121348500Y-86042500D01*
X121348500Y-83629500D01*
X121475500Y-83629500D01*
X121475500Y-86042500D01*
X123204306Y-86042500D01*
X123351221Y-85815025D01*
X123293627Y-85605757D01*
X122997631Y-85118172D01*
X122612651Y-84836000D01*
X122997631Y-84553828D01*
X123293627Y-84066243D01*
X123351221Y-83856975D01*
X123204306Y-83629500D01*
X121475500Y-83629500D01*
X121348500Y-83629500D01*
X121328500Y-83629500D01*
X121328500Y-83502500D01*
X121348500Y-83502500D01*
X121348500Y-83482500D01*
X121475500Y-83482500D01*
X121475500Y-83502500D01*
X123204306Y-83502500D01*
X123351221Y-83275025D01*
X123293627Y-83065757D01*
X122997631Y-82578172D01*
X122623878Y-82304229D01*
X122991294Y-82058729D01*
X123307891Y-81584909D01*
X123419065Y-81026000D01*
X123307891Y-80467091D01*
X122991294Y-79993271D01*
X122636194Y-79756000D01*
X122991294Y-79518729D01*
X123307891Y-79044909D01*
X123419065Y-78486000D01*
X123307891Y-77927091D01*
X122991294Y-77453271D01*
X122636194Y-77216000D01*
X122991294Y-76978729D01*
X123307891Y-76504909D01*
X123419065Y-75946000D01*
X123307891Y-75387091D01*
X122991294Y-74913271D01*
X122517474Y-74596674D01*
X121958565Y-74485500D01*
X120865435Y-74485500D01*
X120523000Y-74553615D01*
X120523000Y-74387588D01*
X120602423Y-74308303D01*
X120776801Y-73888354D01*
X120777198Y-73433641D01*
X120603554Y-73013388D01*
X120282303Y-72691577D01*
X119862354Y-72517199D01*
X119407641Y-72516802D01*
X118987388Y-72690446D01*
X118665577Y-73011697D01*
X118491199Y-73431646D01*
X118490802Y-73886359D01*
X118664446Y-74306612D01*
X118745000Y-74387306D01*
X118745000Y-81216583D01*
X118592354Y-81153199D01*
X118137641Y-81152802D01*
X117717388Y-81326446D01*
X117395577Y-81647697D01*
X117221199Y-82067646D01*
X117220802Y-82522359D01*
X117394446Y-82942612D01*
X117475000Y-83023306D01*
X117475000Y-88934412D01*
X117395577Y-89013697D01*
X117221199Y-89433646D01*
X117220802Y-89888359D01*
X117394446Y-90308612D01*
X117715697Y-90630423D01*
X118135646Y-90804801D01*
X118590359Y-90805198D01*
X118745000Y-90741302D01*
X118745000Y-93218000D01*
X118812671Y-93558206D01*
X119005382Y-93846618D01*
X119513382Y-94354618D01*
X119602455Y-94414135D01*
X119832706Y-94758729D01*
X120187806Y-94996000D01*
X119832706Y-95233271D01*
X119516109Y-95707091D01*
X119452041Y-96029185D01*
X119169335Y-95911795D01*
X118493630Y-95911205D01*
X117869134Y-96169242D01*
X117390921Y-96646621D01*
X117131795Y-97270665D01*
X117131205Y-97946370D01*
X117152604Y-97998160D01*
X114622344Y-100528420D01*
X114573141Y-100507989D01*
X113897436Y-100507399D01*
X113272940Y-100765436D01*
X112794727Y-101242815D01*
X112535601Y-101866859D01*
X112535178Y-102351713D01*
X111953630Y-102351205D01*
X111329134Y-102609242D01*
X110850921Y-103086621D01*
X110591795Y-103710665D01*
X110591205Y-104386370D01*
X110641842Y-104508922D01*
X108153004Y-106997760D01*
X108033141Y-106947989D01*
X107357436Y-106947399D01*
X106732940Y-107205436D01*
X106254727Y-107682815D01*
X105995601Y-108306859D01*
X105995011Y-108982564D01*
X106253048Y-109607060D01*
X106730427Y-110085273D01*
X107354471Y-110344399D01*
X108030176Y-110344989D01*
X108654672Y-110086952D01*
X109132885Y-109609573D01*
X109392011Y-108985529D01*
X109392601Y-108309824D01*
X109381728Y-108283508D01*
X111926899Y-105738337D01*
X111950665Y-105748205D01*
X112626370Y-105748795D01*
X113250866Y-105490758D01*
X113729079Y-105013379D01*
X113988205Y-104389335D01*
X113988628Y-103904481D01*
X114570176Y-103904989D01*
X115194672Y-103646952D01*
X115672885Y-103169573D01*
X115932011Y-102545529D01*
X115932601Y-101869824D01*
X115892489Y-101772747D01*
X118396240Y-99268996D01*
X118490665Y-99308205D01*
X119166370Y-99308795D01*
X119479233Y-99179522D01*
X119516109Y-99364909D01*
X119832706Y-99838729D01*
X120187806Y-100076000D01*
X119832706Y-100313271D01*
X119516109Y-100787091D01*
X119404935Y-101346000D01*
X119516109Y-101904909D01*
X119832706Y-102378729D01*
X120187806Y-102616000D01*
X119832706Y-102853271D01*
X119516109Y-103327091D01*
X119404935Y-103886000D01*
X119516109Y-104444909D01*
X119832706Y-104918729D01*
X120187806Y-105156000D01*
X119832706Y-105393271D01*
X119516109Y-105867091D01*
X119404935Y-106426000D01*
X119516109Y-106984909D01*
X119832706Y-107458729D01*
X120306526Y-107775326D01*
X120865435Y-107886500D01*
X121958565Y-107886500D01*
X122517474Y-107775326D01*
X122991294Y-107458729D01*
X123098623Y-107298100D01*
X123998415Y-107289061D01*
X123993840Y-107293628D01*
X123544012Y-108376934D01*
X123542989Y-109549920D01*
X123990925Y-110634009D01*
X124408686Y-111052500D01*
X108534182Y-111052500D01*
X103899727Y-110130650D01*
X100035406Y-107548592D01*
X98867425Y-105800584D01*
X102813030Y-105800584D01*
X103071067Y-106425080D01*
X103548446Y-106903293D01*
X104172490Y-107162419D01*
X104848195Y-107163009D01*
X105472691Y-106904972D01*
X105950904Y-106427593D01*
X106210030Y-105803549D01*
X106210620Y-105127844D01*
X106199746Y-105101528D01*
X108744918Y-102556356D01*
X108768684Y-102566224D01*
X109444389Y-102566814D01*
X110068885Y-102308777D01*
X110547098Y-101831398D01*
X110806224Y-101207354D01*
X110806647Y-100722501D01*
X111388195Y-100723009D01*
X112012691Y-100464972D01*
X112490904Y-99987593D01*
X112750030Y-99363549D01*
X112750620Y-98687844D01*
X112710508Y-98590766D01*
X115214259Y-96087015D01*
X115308684Y-96126224D01*
X115984389Y-96126814D01*
X116608885Y-95868777D01*
X117087098Y-95391398D01*
X117346224Y-94767354D01*
X117346814Y-94091649D01*
X117088777Y-93467153D01*
X116611398Y-92988940D01*
X115987354Y-92729814D01*
X115311649Y-92729224D01*
X114687153Y-92987261D01*
X114208940Y-93464640D01*
X113949814Y-94088684D01*
X113949224Y-94764389D01*
X113970623Y-94816179D01*
X111440362Y-97346440D01*
X111391160Y-97326009D01*
X110715455Y-97325419D01*
X110090959Y-97583456D01*
X109612746Y-98060835D01*
X109353620Y-98684879D01*
X109353197Y-99169732D01*
X108771649Y-99169224D01*
X108147153Y-99427261D01*
X107668940Y-99904640D01*
X107409814Y-100528684D01*
X107409224Y-101204389D01*
X107459861Y-101326941D01*
X104971022Y-103815780D01*
X104851160Y-103766009D01*
X104175455Y-103765419D01*
X103550959Y-104023456D01*
X103072746Y-104500835D01*
X102813620Y-105124879D01*
X102813030Y-105800584D01*
X98867425Y-105800584D01*
X97453350Y-103684273D01*
X97250120Y-102662564D01*
X99655011Y-102662564D01*
X99913048Y-103287060D01*
X100390427Y-103765273D01*
X101014471Y-104024399D01*
X101690176Y-104024989D01*
X102314672Y-103766952D01*
X102792885Y-103289573D01*
X103052011Y-102665529D01*
X103052601Y-101989824D01*
X103030032Y-101935204D01*
X105558636Y-99406600D01*
X105610665Y-99428205D01*
X106286370Y-99428795D01*
X106910866Y-99170758D01*
X107389079Y-98693379D01*
X107648205Y-98069335D01*
X107648711Y-97489550D01*
X107684471Y-97504399D01*
X108360176Y-97504989D01*
X108984672Y-97246952D01*
X109462885Y-96769573D01*
X109722011Y-96145529D01*
X109722601Y-95469824D01*
X109656175Y-95309061D01*
X112122646Y-92842590D01*
X112280665Y-92908205D01*
X112956370Y-92908795D01*
X113580866Y-92650758D01*
X114059079Y-92173379D01*
X114318205Y-91549335D01*
X114318795Y-90873630D01*
X114060758Y-90249134D01*
X113583379Y-89770921D01*
X112959335Y-89511795D01*
X112283630Y-89511205D01*
X111659134Y-89769242D01*
X111180921Y-90246621D01*
X110921795Y-90870665D01*
X110921220Y-91529544D01*
X108342793Y-94107971D01*
X107687436Y-94107399D01*
X107062940Y-94365436D01*
X106584727Y-94842815D01*
X106325601Y-95466859D01*
X106325095Y-96046644D01*
X106289335Y-96031795D01*
X105613630Y-96031205D01*
X104989134Y-96289242D01*
X104510921Y-96766621D01*
X104251795Y-97390665D01*
X104251205Y-98066370D01*
X104290147Y-98160617D01*
X101784740Y-100666024D01*
X101693141Y-100627989D01*
X101017436Y-100627399D01*
X100392940Y-100885436D01*
X99914727Y-101362815D01*
X99655601Y-101986859D01*
X99655011Y-102662564D01*
X97250120Y-102662564D01*
X96743977Y-100118012D01*
X97208446Y-100583293D01*
X97832490Y-100842419D01*
X98508195Y-100843009D01*
X99132691Y-100584972D01*
X99610904Y-100107593D01*
X99870030Y-99483549D01*
X99870620Y-98807844D01*
X99848051Y-98753223D01*
X102376655Y-96224619D01*
X102428684Y-96246224D01*
X103104389Y-96246814D01*
X103728885Y-95988777D01*
X104207098Y-95511398D01*
X104466224Y-94887354D01*
X104466730Y-94307570D01*
X104502490Y-94322419D01*
X105178195Y-94323009D01*
X105802691Y-94064972D01*
X106280904Y-93587593D01*
X106540030Y-92963549D01*
X106540620Y-92287844D01*
X106474194Y-92127080D01*
X108940665Y-89660609D01*
X109098684Y-89726224D01*
X109774389Y-89726814D01*
X110398885Y-89468777D01*
X110877098Y-88991398D01*
X111136224Y-88367354D01*
X111136814Y-87691649D01*
X110878777Y-87067153D01*
X110401398Y-86588940D01*
X109777354Y-86329814D01*
X109243410Y-86329348D01*
X109346801Y-86080354D01*
X109347198Y-85625641D01*
X109173554Y-85205388D01*
X109093000Y-85124694D01*
X109093000Y-84630906D01*
X109121646Y-84642801D01*
X109576359Y-84643198D01*
X109996612Y-84469554D01*
X110318423Y-84148303D01*
X110492801Y-83728354D01*
X110493198Y-83273641D01*
X110319554Y-82853388D01*
X109998303Y-82531577D01*
X109939000Y-82506952D01*
X109939000Y-78798782D01*
X110288126Y-78799087D01*
X110728924Y-78616953D01*
X110799828Y-78546172D01*
X110869303Y-78615768D01*
X111309782Y-78798671D01*
X111786726Y-78799087D01*
X112227524Y-78616953D01*
X112565068Y-78279997D01*
X112747971Y-77839518D01*
X112748387Y-77362574D01*
X112566253Y-76921776D01*
X112229297Y-76584232D01*
X111788818Y-76401329D01*
X111311874Y-76400913D01*
X110871076Y-76583047D01*
X110800172Y-76653828D01*
X110730697Y-76584232D01*
X110290218Y-76401329D01*
X109939000Y-76401023D01*
X109939000Y-73740000D01*
X109871329Y-73399794D01*
X109678618Y-73111382D01*
X109266236Y-72699000D01*
X110631764Y-72699000D01*
X112211382Y-74278618D01*
X112499794Y-74471329D01*
X112840000Y-74539000D01*
X113181764Y-74539000D01*
X113919000Y-75276236D01*
X113919000Y-75644787D01*
X113899151Y-75648522D01*
X113661415Y-75801501D01*
X113501926Y-76034921D01*
X113445816Y-76312000D01*
X113445816Y-77612000D01*
X113494522Y-77870849D01*
X113647501Y-78108585D01*
X113880921Y-78268074D01*
X114072423Y-78306854D01*
X114045134Y-78318130D01*
X113665464Y-78697139D01*
X113459734Y-79192590D01*
X113459266Y-79729056D01*
X113664130Y-80224866D01*
X114043139Y-80604536D01*
X114538590Y-80810266D01*
X115035249Y-80810699D01*
X114935199Y-81051646D01*
X114934802Y-81506359D01*
X115108446Y-81926612D01*
X115429697Y-82248423D01*
X115849646Y-82422801D01*
X116304359Y-82423198D01*
X116724612Y-82249554D01*
X117046423Y-81928303D01*
X117220801Y-81508354D01*
X117221198Y-81053641D01*
X117047554Y-80633388D01*
X116967000Y-80552694D01*
X116967000Y-72868604D01*
X117160688Y-72578730D01*
X117248080Y-72139379D01*
X117248080Y-71480621D01*
X117160688Y-71041270D01*
X116911815Y-70668806D01*
X116539351Y-70419933D01*
X116100000Y-70332541D01*
X115660649Y-70419933D01*
X115465000Y-70550662D01*
X115269351Y-70419933D01*
X114830000Y-70332541D01*
X114390649Y-70419933D01*
X114176205Y-70563221D01*
X113940684Y-70424022D01*
X113802043Y-70386734D01*
X113623500Y-70537628D01*
X113623500Y-71746500D01*
X113643500Y-71746500D01*
X113643500Y-71873500D01*
X113623500Y-71873500D01*
X113623500Y-71893500D01*
X113496500Y-71893500D01*
X113496500Y-71873500D01*
X112411920Y-71873500D01*
X112411920Y-71964684D01*
X111892746Y-71445510D01*
X112411920Y-71445510D01*
X112411920Y-71746500D01*
X113496500Y-71746500D01*
X113496500Y-70537628D01*
X113317957Y-70386734D01*
X113179316Y-70424022D01*
X112793087Y-70652293D01*
X112523613Y-71010992D01*
X112411920Y-71445510D01*
X111892746Y-71445510D01*
X111628618Y-71181382D01*
X111536753Y-71120000D01*
X111340206Y-70988671D01*
X111000000Y-70921000D01*
X108117645Y-70921000D01*
X107740615Y-70543970D01*
X108230993Y-70341349D01*
X108709206Y-69863970D01*
X108968332Y-69239926D01*
X108968922Y-68564221D01*
X108710885Y-67939725D01*
X108233506Y-67461512D01*
X107609462Y-67202386D01*
X106933757Y-67201796D01*
X106309261Y-67459833D01*
X105831048Y-67937212D01*
X105626489Y-68429844D01*
X104432342Y-67235697D01*
X104638205Y-66739926D01*
X104638795Y-66064221D01*
X104620524Y-66020000D01*
X109877816Y-66020000D01*
X109877816Y-68020000D01*
X109926522Y-68278849D01*
X110079501Y-68516585D01*
X110312921Y-68676074D01*
X110590000Y-68732184D01*
X112090000Y-68732184D01*
X112348849Y-68683478D01*
X112586585Y-68530499D01*
X112746074Y-68297079D01*
X112764188Y-68207627D01*
X112860657Y-68339145D01*
X113344349Y-68632540D01*
X113550904Y-68689357D01*
X113776500Y-68542291D01*
X113776500Y-67083500D01*
X113756500Y-67083500D01*
X113756500Y-66956500D01*
X113776500Y-66956500D01*
X113776500Y-65497709D01*
X113903500Y-65497709D01*
X113903500Y-66956500D01*
X113923500Y-66956500D01*
X113923500Y-67083500D01*
X113903500Y-67083500D01*
X113903500Y-68542291D01*
X114129096Y-68689357D01*
X114335651Y-68632540D01*
X114819343Y-68339145D01*
X115135512Y-67908106D01*
X115415756Y-68327520D01*
X115885683Y-68641516D01*
X116440000Y-68751776D01*
X116994317Y-68641516D01*
X117464244Y-68327520D01*
X117690000Y-67989653D01*
X117915756Y-68327520D01*
X118385683Y-68641516D01*
X118940000Y-68751776D01*
X119494317Y-68641516D01*
X119964244Y-68327520D01*
X120278240Y-67857593D01*
X120388500Y-67303276D01*
X120388500Y-66736724D01*
X120315539Y-66369920D01*
X122399989Y-66369920D01*
X122847925Y-67454009D01*
X123676628Y-68284160D01*
X124759934Y-68733988D01*
X125932920Y-68735011D01*
X127017009Y-68287075D01*
X127847160Y-67458372D01*
X128296988Y-66375066D01*
X128298011Y-65202080D01*
X127850075Y-64117991D01*
X127021372Y-63287840D01*
X125938066Y-62838012D01*
X124765080Y-62836989D01*
X123680991Y-63284925D01*
X122850840Y-64113628D01*
X122401012Y-65196934D01*
X122399989Y-66369920D01*
X120315539Y-66369920D01*
X120278240Y-66182407D01*
X119964244Y-65712480D01*
X119494317Y-65398484D01*
X118940000Y-65288224D01*
X118385683Y-65398484D01*
X117915756Y-65712480D01*
X117690000Y-66050347D01*
X117464244Y-65712480D01*
X116994317Y-65398484D01*
X116440000Y-65288224D01*
X115885683Y-65398484D01*
X115415756Y-65712480D01*
X115135512Y-66131894D01*
X114819343Y-65700855D01*
X114335651Y-65407460D01*
X114129096Y-65350643D01*
X113903500Y-65497709D01*
X113776500Y-65497709D01*
X113550904Y-65350643D01*
X113344349Y-65407460D01*
X112860657Y-65700855D01*
X112766330Y-65829453D01*
X112753478Y-65761151D01*
X112600499Y-65523415D01*
X112367079Y-65363926D01*
X112090000Y-65307816D01*
X110590000Y-65307816D01*
X110331151Y-65356522D01*
X110093415Y-65509501D01*
X109933926Y-65742921D01*
X109877816Y-66020000D01*
X104620524Y-66020000D01*
X104380758Y-65439725D01*
X103903379Y-64961512D01*
X103279335Y-64702386D01*
X102603630Y-64701796D01*
X101979134Y-64959833D01*
X101500921Y-65437212D01*
X101241795Y-66061256D01*
X101241205Y-66736961D01*
X101499242Y-67361457D01*
X101976621Y-67839670D01*
X102600665Y-68098796D01*
X102781127Y-68098954D01*
X103051444Y-68369271D01*
X102903388Y-68430446D01*
X102581577Y-68751697D01*
X102407199Y-69171646D01*
X102407099Y-69285665D01*
X101844522Y-69848242D01*
X101840758Y-69839134D01*
X101363379Y-69360921D01*
X100739335Y-69101795D01*
X100063630Y-69101205D01*
X99439134Y-69359242D01*
X98960921Y-69836621D01*
X98701795Y-70460665D01*
X98701205Y-71136370D01*
X98959242Y-71760866D01*
X99436621Y-72239079D01*
X100060665Y-72498205D01*
X100736370Y-72498795D01*
X101360866Y-72240758D01*
X101486000Y-72115842D01*
X101486000Y-75225000D01*
X101553671Y-75565206D01*
X101720856Y-75815415D01*
X101746382Y-75853618D01*
X101893413Y-76000649D01*
X101853757Y-76000614D01*
X101229261Y-76258651D01*
X100751048Y-76736030D01*
X100491922Y-77360074D01*
X100491837Y-77457080D01*
X100173641Y-77456802D01*
X99753388Y-77630446D01*
X99431577Y-77951697D01*
X99257199Y-78371646D01*
X99256802Y-78826359D01*
X99430446Y-79246612D01*
X99751697Y-79568423D01*
X100171646Y-79742801D01*
X100485839Y-79743075D01*
X101371382Y-80628618D01*
X101659794Y-80821329D01*
X102000000Y-80889000D01*
X105472412Y-80889000D01*
X105551697Y-80968423D01*
X105971646Y-81142801D01*
X106311000Y-81143097D01*
X106311000Y-83822412D01*
X106231577Y-83901697D01*
X106057199Y-84321646D01*
X106056802Y-84776359D01*
X106230446Y-85196612D01*
X106551697Y-85518423D01*
X106971646Y-85692801D01*
X107061139Y-85692879D01*
X107060802Y-86078359D01*
X107234446Y-86498612D01*
X107555697Y-86820423D01*
X107975646Y-86994801D01*
X108068820Y-86994882D01*
X107998940Y-87064640D01*
X107739814Y-87688684D01*
X107739239Y-88347563D01*
X105160811Y-90925991D01*
X104505455Y-90925419D01*
X103880959Y-91183456D01*
X103402746Y-91660835D01*
X103143620Y-92284879D01*
X103143114Y-92864663D01*
X103107354Y-92849814D01*
X102431649Y-92849224D01*
X101807153Y-93107261D01*
X101328940Y-93584640D01*
X101069814Y-94208684D01*
X101069224Y-94884389D01*
X101108166Y-94978636D01*
X98602758Y-97484044D01*
X98511160Y-97446009D01*
X97835455Y-97445419D01*
X97210959Y-97703456D01*
X96732746Y-98180835D01*
X96531500Y-98665489D01*
X96531500Y-76258308D01*
X96714787Y-76498460D01*
X97299087Y-76837830D01*
X97968780Y-76927765D01*
X97977746Y-76927177D01*
X98201349Y-76718686D01*
X97815099Y-75277180D01*
X96531500Y-75621119D01*
X96531500Y-75489640D01*
X97447083Y-75244310D01*
X97937771Y-75244310D01*
X98324021Y-76685815D01*
X98621913Y-76754573D01*
X99159051Y-76344622D01*
X99498421Y-75760322D01*
X99588356Y-75090629D01*
X99587768Y-75081663D01*
X99379277Y-74858060D01*
X97937771Y-75244310D01*
X97447083Y-75244310D01*
X97782229Y-75154508D01*
X97395979Y-73713003D01*
X97253567Y-73680132D01*
X97518651Y-73680132D01*
X97904901Y-75121638D01*
X99346406Y-74735388D01*
X99415164Y-74437496D01*
X99005213Y-73900358D01*
X98420913Y-73560988D01*
X97751220Y-73471053D01*
X97742254Y-73471641D01*
X97518651Y-73680132D01*
X97253567Y-73680132D01*
X97098087Y-73644245D01*
X96570783Y-74046690D01*
X97453350Y-69609727D01*
X100035406Y-65745408D01*
X103899727Y-63163350D01*
X108534182Y-62241500D01*
X137796264Y-62241500D01*
X136199948Y-63837816D01*
G36*
X155942697Y-68722923D02*
X156362646Y-68897301D01*
X156476665Y-68897401D01*
X159948331Y-72369067D01*
X159877077Y-72440197D01*
X159702699Y-72860146D01*
X159702302Y-73314859D01*
X159875946Y-73735112D01*
X160197197Y-74056923D01*
X160617146Y-74231301D01*
X161071859Y-74231698D01*
X161380002Y-74104377D01*
X161290199Y-74320646D01*
X161289802Y-74775359D01*
X161463446Y-75195612D01*
X161544000Y-75276306D01*
X161544000Y-81187633D01*
X161337577Y-81393697D01*
X161163199Y-81813646D01*
X161162802Y-82268359D01*
X161336446Y-82688612D01*
X161657697Y-83010423D01*
X161993078Y-83149686D01*
X161671382Y-83471382D01*
X161478671Y-83759794D01*
X161411000Y-84100000D01*
X161411000Y-86131764D01*
X160377683Y-87165081D01*
X160269554Y-86903388D01*
X159948303Y-86581577D01*
X159528354Y-86407199D01*
X159414335Y-86407099D01*
X158701071Y-85693835D01*
X158775646Y-85724801D01*
X159230359Y-85725198D01*
X159650612Y-85551554D01*
X159972423Y-85230303D01*
X160146801Y-84810354D01*
X160147198Y-84355641D01*
X159973554Y-83935388D01*
X159779000Y-83740495D01*
X159779000Y-78200000D01*
X159711329Y-77859794D01*
X159518618Y-77571382D01*
X158818618Y-76871382D01*
X158565656Y-76702358D01*
X158549554Y-76663388D01*
X158228303Y-76341577D01*
X157808354Y-76167199D01*
X157353641Y-76166802D01*
X156933388Y-76340446D01*
X156611577Y-76661697D01*
X156437199Y-77081646D01*
X156436802Y-77536359D01*
X156610446Y-77956612D01*
X156889903Y-78236556D01*
X156817199Y-78411646D01*
X156816802Y-78866359D01*
X156921000Y-79118539D01*
X156921000Y-79767053D01*
X156633641Y-79766802D01*
X156213388Y-79940446D01*
X155891577Y-80261697D01*
X155717199Y-80681646D01*
X155716802Y-81136359D01*
X155890446Y-81556612D01*
X155971000Y-81637306D01*
X155971000Y-87820000D01*
X156038671Y-88160206D01*
X156175102Y-88364389D01*
X156231382Y-88448618D01*
X156943764Y-89161000D01*
X156450000Y-89161000D01*
X156109794Y-89228671D01*
X155821382Y-89421382D01*
X154311382Y-90931382D01*
X154118671Y-91219794D01*
X154051000Y-91560000D01*
X154051000Y-92423929D01*
X154010206Y-92396671D01*
X153670000Y-92329000D01*
X147320000Y-92329000D01*
X146979794Y-92396671D01*
X146766784Y-92539000D01*
X146691382Y-92589382D01*
X145427864Y-93852900D01*
X145315641Y-93852802D01*
X144895388Y-94026446D01*
X144573577Y-94347697D01*
X144399199Y-94767646D01*
X144398802Y-95222359D01*
X144572446Y-95642612D01*
X144893697Y-95964423D01*
X145313646Y-96138801D01*
X145768359Y-96139198D01*
X146188612Y-95965554D01*
X146510423Y-95644303D01*
X146684801Y-95224354D01*
X146684901Y-95110335D01*
X147688236Y-94107000D01*
X151138478Y-94107000D01*
X150941795Y-94580665D01*
X150941205Y-95256370D01*
X151199242Y-95880866D01*
X151676621Y-96359079D01*
X151765000Y-96395777D01*
X151765000Y-99943763D01*
X151679134Y-99979242D01*
X151200921Y-100456621D01*
X150941795Y-101080665D01*
X150941205Y-101756370D01*
X151199242Y-102380866D01*
X151676621Y-102859079D01*
X152300665Y-103118205D01*
X152976370Y-103118795D01*
X153600866Y-102860758D01*
X153627217Y-102834453D01*
X156003764Y-105211000D01*
X152900000Y-105211000D01*
X152663089Y-105258124D01*
X152663198Y-105133641D01*
X152489554Y-104713388D01*
X152168303Y-104391577D01*
X151748354Y-104217199D01*
X151293641Y-104216802D01*
X150873388Y-104390446D01*
X150551577Y-104711697D01*
X150377199Y-105131646D01*
X150376802Y-105586359D01*
X150550446Y-106006612D01*
X150628231Y-106084533D01*
X149319104Y-107393660D01*
X149245457Y-107215420D01*
X149033000Y-107002592D01*
X149033000Y-106806944D01*
X149324359Y-106807198D01*
X149744612Y-106633554D01*
X150066423Y-106312303D01*
X150240801Y-105892354D01*
X150241198Y-105437641D01*
X150067554Y-105017388D01*
X149987000Y-104936694D01*
X149987000Y-102581588D01*
X150066423Y-102502303D01*
X150240801Y-102082354D01*
X150241198Y-101627641D01*
X150067554Y-101207388D01*
X149746303Y-100885577D01*
X149326354Y-100711199D01*
X148871641Y-100710802D01*
X148451388Y-100884446D01*
X148129577Y-101205697D01*
X147955199Y-101625646D01*
X147954802Y-102080359D01*
X148128446Y-102500612D01*
X148209000Y-102581306D01*
X148209000Y-104936412D01*
X148129577Y-105015697D01*
X148070707Y-105157471D01*
X147701000Y-104787764D01*
X147701000Y-102327588D01*
X147780423Y-102248303D01*
X147954801Y-101828354D01*
X147955198Y-101373641D01*
X147781554Y-100953388D01*
X147460303Y-100631577D01*
X147040354Y-100457199D01*
X146585641Y-100456802D01*
X146165388Y-100630446D01*
X145843577Y-100951697D01*
X145669199Y-101371646D01*
X145668802Y-101826359D01*
X145842446Y-102246612D01*
X145923000Y-102327306D01*
X145923000Y-105156000D01*
X145990671Y-105496206D01*
X146153706Y-105740205D01*
X146183382Y-105784618D01*
X147255000Y-106856236D01*
X147255000Y-106971945D01*
X147254625Y-106971570D01*
X147132545Y-107093650D01*
X147091924Y-106842820D01*
X146612966Y-106649300D01*
X146096411Y-106653800D01*
X145640076Y-106842820D01*
X145599455Y-107093650D01*
X145477375Y-106971570D01*
X145461690Y-106987255D01*
X145324501Y-106849827D01*
X145161000Y-106781935D01*
X145161000Y-102073588D01*
X145240423Y-101994303D01*
X145414801Y-101574354D01*
X145415198Y-101119641D01*
X145241554Y-100699388D01*
X144920303Y-100377577D01*
X144500354Y-100203199D01*
X144045641Y-100202802D01*
X143625388Y-100376446D01*
X143303577Y-100697697D01*
X143129199Y-101117646D01*
X143129197Y-101119639D01*
X142955554Y-100699388D01*
X142634303Y-100377577D01*
X142214354Y-100203199D01*
X141759641Y-100202802D01*
X141339388Y-100376446D01*
X141017577Y-100697697D01*
X140843199Y-101117646D01*
X140842802Y-101572359D01*
X141016446Y-101992612D01*
X141097000Y-102073306D01*
X141097000Y-105635703D01*
X141028354Y-105607199D01*
X140573641Y-105606802D01*
X140153388Y-105780446D01*
X140072694Y-105861000D01*
X139518236Y-105861000D01*
X137033000Y-103375764D01*
X137033000Y-102147943D01*
X137129242Y-102380866D01*
X137606621Y-102859079D01*
X138230665Y-103118205D01*
X138906370Y-103118795D01*
X139530866Y-102860758D01*
X140009079Y-102383379D01*
X140268205Y-101759335D01*
X140268795Y-101083630D01*
X140010758Y-100459134D01*
X139533379Y-99980921D01*
X139247000Y-99862006D01*
X139247000Y-96478049D01*
X139530866Y-96360758D01*
X140009079Y-95883379D01*
X140268205Y-95259335D01*
X140268795Y-94583630D01*
X140010758Y-93959134D01*
X139533379Y-93480921D01*
X138909335Y-93221795D01*
X138233630Y-93221205D01*
X137609134Y-93479242D01*
X137130921Y-93956621D01*
X136871795Y-94580665D01*
X136871205Y-95256370D01*
X137129242Y-95880866D01*
X137469000Y-96221218D01*
X137469000Y-100119132D01*
X137130921Y-100456621D01*
X137033000Y-100692441D01*
X137033000Y-99787588D01*
X137112423Y-99708303D01*
X137286801Y-99288354D01*
X137287198Y-98833641D01*
X137113554Y-98413388D01*
X136792303Y-98091577D01*
X136372354Y-97917199D01*
X135917641Y-97916802D01*
X135497388Y-98090446D01*
X135175577Y-98411697D01*
X135001199Y-98831646D01*
X135000802Y-99286359D01*
X135174446Y-99706612D01*
X135255000Y-99787306D01*
X135255000Y-100202929D01*
X135033379Y-99980921D01*
X134747000Y-99862006D01*
X134747000Y-96478049D01*
X135030866Y-96360758D01*
X135509079Y-95883379D01*
X135768205Y-95259335D01*
X135768795Y-94583630D01*
X135510758Y-93959134D01*
X135033379Y-93480921D01*
X134409335Y-93221795D01*
X133733630Y-93221205D01*
X133109134Y-93479242D01*
X132630921Y-93956621D01*
X132371795Y-94580665D01*
X132371205Y-95256370D01*
X132629242Y-95880866D01*
X132969000Y-96221218D01*
X132969000Y-100119132D01*
X132630921Y-100456621D01*
X132371795Y-101080665D01*
X132371205Y-101756370D01*
X132629242Y-102380866D01*
X132857542Y-102609564D01*
X132613388Y-102710446D01*
X132291577Y-103031697D01*
X132117199Y-103451646D01*
X132116802Y-103906359D01*
X132290446Y-104326612D01*
X132371000Y-104407306D01*
X132371000Y-105730000D01*
X132438671Y-106070206D01*
X132592215Y-106300000D01*
X132631382Y-106358618D01*
X135733764Y-109461000D01*
X131218236Y-109461000D01*
X130589000Y-108831764D01*
X130589000Y-107846236D01*
X130703745Y-107960981D01*
X130780446Y-108146612D01*
X131101697Y-108468423D01*
X131521646Y-108642801D01*
X131976359Y-108643198D01*
X132396612Y-108469554D01*
X132718423Y-108148303D01*
X132892801Y-107728354D01*
X132893198Y-107273641D01*
X132719554Y-106853388D01*
X132398303Y-106531577D01*
X131978354Y-106357199D01*
X131614117Y-106356881D01*
X131445000Y-106187764D01*
X131445000Y-100549588D01*
X131524423Y-100470303D01*
X131698801Y-100050354D01*
X131699198Y-99595641D01*
X131525554Y-99175388D01*
X131204303Y-98853577D01*
X130784354Y-98679199D01*
X130670335Y-98679099D01*
X130374894Y-98383658D01*
X130694612Y-98251554D01*
X131016423Y-97930303D01*
X131190801Y-97510354D01*
X131190889Y-97409111D01*
X131290359Y-97409198D01*
X131710612Y-97235554D01*
X132032423Y-96914303D01*
X132206801Y-96494354D01*
X132207198Y-96039641D01*
X132033554Y-95619388D01*
X131953000Y-95538694D01*
X131953000Y-93598889D01*
X132306359Y-93599198D01*
X132726612Y-93425554D01*
X133048423Y-93104303D01*
X133222801Y-92684354D01*
X133223198Y-92229641D01*
X133049554Y-91809388D01*
X132964449Y-91724135D01*
X132962694Y-91442968D01*
X133226359Y-91443198D01*
X133646612Y-91269554D01*
X133968423Y-90948303D01*
X134142801Y-90528354D01*
X134143198Y-90073641D01*
X133969554Y-89653388D01*
X133893938Y-89577641D01*
X133982496Y-76570740D01*
X138217557Y-72335679D01*
X138313700Y-72431989D01*
X138882633Y-72668231D01*
X139498664Y-72668768D01*
X140068009Y-72433520D01*
X140462305Y-72039911D01*
X140843000Y-72421270D01*
X140843000Y-72932412D01*
X140763577Y-73011697D01*
X140589199Y-73431646D01*
X140588802Y-73886359D01*
X140762446Y-74306612D01*
X141083697Y-74628423D01*
X141503646Y-74802801D01*
X141871642Y-74803122D01*
X135515382Y-81159382D01*
X135322671Y-81447794D01*
X135255000Y-81788000D01*
X135255000Y-88934412D01*
X135175577Y-89013697D01*
X135001199Y-89433646D01*
X135000802Y-89888359D01*
X135174446Y-90308612D01*
X135495697Y-90630423D01*
X135915646Y-90804801D01*
X136370359Y-90805198D01*
X136790612Y-90631554D01*
X137112423Y-90310303D01*
X137286801Y-89890354D01*
X137286890Y-89788889D01*
X137640359Y-89789198D01*
X138060612Y-89615554D01*
X138382423Y-89294303D01*
X138556801Y-88874354D01*
X138557198Y-88419641D01*
X138383554Y-87999388D01*
X138303000Y-87918694D01*
X138303000Y-87661270D01*
X138313700Y-87671989D01*
X138882633Y-87908231D01*
X139498664Y-87908768D01*
X140068009Y-87673520D01*
X140462305Y-87279911D01*
X140853700Y-87671989D01*
X141422633Y-87908231D01*
X142038664Y-87908768D01*
X142608009Y-87673520D01*
X143002305Y-87279911D01*
X143393700Y-87671989D01*
X143962633Y-87908231D01*
X144578664Y-87908768D01*
X145148009Y-87673520D01*
X145542305Y-87279911D01*
X145933700Y-87671989D01*
X146502633Y-87908231D01*
X147118664Y-87908768D01*
X147688009Y-87673520D01*
X148082305Y-87279911D01*
X148473700Y-87671989D01*
X149042633Y-87908231D01*
X149658664Y-87908768D01*
X150228009Y-87673520D01*
X150622305Y-87279911D01*
X151013700Y-87671989D01*
X151582633Y-87908231D01*
X152198664Y-87908768D01*
X152527000Y-87773103D01*
X152527000Y-88680412D01*
X152447577Y-88759697D01*
X152273199Y-89179646D01*
X152272802Y-89634359D01*
X152446446Y-90054612D01*
X152767697Y-90376423D01*
X153187646Y-90550801D01*
X153642359Y-90551198D01*
X154062612Y-90377554D01*
X154384423Y-90056303D01*
X154558801Y-89636354D01*
X154559198Y-89181641D01*
X154385554Y-88761388D01*
X154305000Y-88680694D01*
X154305000Y-84293588D01*
X154384423Y-84214303D01*
X154558801Y-83794354D01*
X154559198Y-83339641D01*
X154385554Y-82919388D01*
X154064303Y-82597577D01*
X153644354Y-82423199D01*
X153189641Y-82422802D01*
X152769388Y-82596446D01*
X152447577Y-82917697D01*
X152273199Y-83337646D01*
X152272802Y-83792359D01*
X152446446Y-84212612D01*
X152527000Y-84293306D01*
X152527000Y-84946984D01*
X152201367Y-84811769D01*
X151585336Y-84811232D01*
X151015991Y-85046480D01*
X150621695Y-85440089D01*
X150241000Y-85058730D01*
X150241000Y-76673588D01*
X150320423Y-76594303D01*
X150494801Y-76174354D01*
X150495198Y-75719641D01*
X150321554Y-75299388D01*
X150000303Y-74977577D01*
X149580354Y-74803199D01*
X149125641Y-74802802D01*
X148705388Y-74976446D01*
X148383577Y-75297697D01*
X148209199Y-75717646D01*
X148208802Y-76172359D01*
X148382446Y-76592612D01*
X148463000Y-76673306D01*
X148463000Y-85059448D01*
X148081695Y-85440089D01*
X147701000Y-85058730D01*
X147701000Y-79213588D01*
X147780423Y-79134303D01*
X147954801Y-78714354D01*
X147955198Y-78259641D01*
X147781554Y-77839388D01*
X147460303Y-77517577D01*
X147040354Y-77343199D01*
X146585641Y-77342802D01*
X146165388Y-77516446D01*
X145843577Y-77837697D01*
X145669199Y-78257646D01*
X145668802Y-78712359D01*
X145842446Y-79132612D01*
X145923000Y-79213306D01*
X145923000Y-85059448D01*
X145541695Y-85440089D01*
X145161000Y-85058730D01*
X145161000Y-81753588D01*
X145240423Y-81674303D01*
X145414801Y-81254354D01*
X145415198Y-80799641D01*
X145241554Y-80379388D01*
X144920303Y-80057577D01*
X144500354Y-79883199D01*
X144045641Y-79882802D01*
X143625388Y-80056446D01*
X143303577Y-80377697D01*
X143129199Y-80797646D01*
X143128802Y-81252359D01*
X143302446Y-81672612D01*
X143383000Y-81753306D01*
X143383000Y-85059448D01*
X143001695Y-85440089D01*
X142621000Y-85058730D01*
X142621000Y-84293588D01*
X142700423Y-84214303D01*
X142874801Y-83794354D01*
X142875198Y-83339641D01*
X142701554Y-82919388D01*
X142380303Y-82597577D01*
X141960354Y-82423199D01*
X141505641Y-82422802D01*
X141085388Y-82596446D01*
X140763577Y-82917697D01*
X140589199Y-83337646D01*
X140588802Y-83792359D01*
X140762446Y-84212612D01*
X140843000Y-84293306D01*
X140843000Y-85059448D01*
X140461695Y-85440089D01*
X140070300Y-85048011D01*
X139501367Y-84811769D01*
X138885336Y-84811232D01*
X138315991Y-85046480D01*
X138303000Y-85059448D01*
X138303000Y-83426236D01*
X149060989Y-72668247D01*
X149658664Y-72668768D01*
X150228009Y-72433520D01*
X150622305Y-72039911D01*
X151013700Y-72431989D01*
X151582633Y-72668231D01*
X152198664Y-72668768D01*
X152527000Y-72533103D01*
X152527000Y-73694412D01*
X152447577Y-73773697D01*
X152273199Y-74193646D01*
X152272802Y-74648359D01*
X152446446Y-75068612D01*
X152767697Y-75390423D01*
X153187646Y-75564801D01*
X153642359Y-75565198D01*
X154062612Y-75391554D01*
X154384423Y-75070303D01*
X154558801Y-74650354D01*
X154559198Y-74195641D01*
X154385554Y-73775388D01*
X154305000Y-73694694D01*
X154305000Y-70612000D01*
X154237329Y-70271794D01*
X154044618Y-69983382D01*
X153100236Y-69039000D01*
X154798500Y-69039000D01*
X155138706Y-68971329D01*
X155427118Y-68778618D01*
X155712955Y-68492781D01*
X155942697Y-68722923D01*
X155942697Y-68722923D01*
G37*
X155942697Y-68722923D02*
X156362646Y-68897301D01*
X156476665Y-68897401D01*
X159948331Y-72369067D01*
X159877077Y-72440197D01*
X159702699Y-72860146D01*
X159702302Y-73314859D01*
X159875946Y-73735112D01*
X160197197Y-74056923D01*
X160617146Y-74231301D01*
X161071859Y-74231698D01*
X161380002Y-74104377D01*
X161290199Y-74320646D01*
X161289802Y-74775359D01*
X161463446Y-75195612D01*
X161544000Y-75276306D01*
X161544000Y-81187633D01*
X161337577Y-81393697D01*
X161163199Y-81813646D01*
X161162802Y-82268359D01*
X161336446Y-82688612D01*
X161657697Y-83010423D01*
X161993078Y-83149686D01*
X161671382Y-83471382D01*
X161478671Y-83759794D01*
X161411000Y-84100000D01*
X161411000Y-86131764D01*
X160377683Y-87165081D01*
X160269554Y-86903388D01*
X159948303Y-86581577D01*
X159528354Y-86407199D01*
X159414335Y-86407099D01*
X158701071Y-85693835D01*
X158775646Y-85724801D01*
X159230359Y-85725198D01*
X159650612Y-85551554D01*
X159972423Y-85230303D01*
X160146801Y-84810354D01*
X160147198Y-84355641D01*
X159973554Y-83935388D01*
X159779000Y-83740495D01*
X159779000Y-78200000D01*
X159711329Y-77859794D01*
X159518618Y-77571382D01*
X158818618Y-76871382D01*
X158565656Y-76702358D01*
X158549554Y-76663388D01*
X158228303Y-76341577D01*
X157808354Y-76167199D01*
X157353641Y-76166802D01*
X156933388Y-76340446D01*
X156611577Y-76661697D01*
X156437199Y-77081646D01*
X156436802Y-77536359D01*
X156610446Y-77956612D01*
X156889903Y-78236556D01*
X156817199Y-78411646D01*
X156816802Y-78866359D01*
X156921000Y-79118539D01*
X156921000Y-79767053D01*
X156633641Y-79766802D01*
X156213388Y-79940446D01*
X155891577Y-80261697D01*
X155717199Y-80681646D01*
X155716802Y-81136359D01*
X155890446Y-81556612D01*
X155971000Y-81637306D01*
X155971000Y-87820000D01*
X156038671Y-88160206D01*
X156175102Y-88364389D01*
X156231382Y-88448618D01*
X156943764Y-89161000D01*
X156450000Y-89161000D01*
X156109794Y-89228671D01*
X155821382Y-89421382D01*
X154311382Y-90931382D01*
X154118671Y-91219794D01*
X154051000Y-91560000D01*
X154051000Y-92423929D01*
X154010206Y-92396671D01*
X153670000Y-92329000D01*
X147320000Y-92329000D01*
X146979794Y-92396671D01*
X146766784Y-92539000D01*
X146691382Y-92589382D01*
X145427864Y-93852900D01*
X145315641Y-93852802D01*
X144895388Y-94026446D01*
X144573577Y-94347697D01*
X144399199Y-94767646D01*
X144398802Y-95222359D01*
X144572446Y-95642612D01*
X144893697Y-95964423D01*
X145313646Y-96138801D01*
X145768359Y-96139198D01*
X146188612Y-95965554D01*
X146510423Y-95644303D01*
X146684801Y-95224354D01*
X146684901Y-95110335D01*
X147688236Y-94107000D01*
X151138478Y-94107000D01*
X150941795Y-94580665D01*
X150941205Y-95256370D01*
X151199242Y-95880866D01*
X151676621Y-96359079D01*
X151765000Y-96395777D01*
X151765000Y-99943763D01*
X151679134Y-99979242D01*
X151200921Y-100456621D01*
X150941795Y-101080665D01*
X150941205Y-101756370D01*
X151199242Y-102380866D01*
X151676621Y-102859079D01*
X152300665Y-103118205D01*
X152976370Y-103118795D01*
X153600866Y-102860758D01*
X153627217Y-102834453D01*
X156003764Y-105211000D01*
X152900000Y-105211000D01*
X152663089Y-105258124D01*
X152663198Y-105133641D01*
X152489554Y-104713388D01*
X152168303Y-104391577D01*
X151748354Y-104217199D01*
X151293641Y-104216802D01*
X150873388Y-104390446D01*
X150551577Y-104711697D01*
X150377199Y-105131646D01*
X150376802Y-105586359D01*
X150550446Y-106006612D01*
X150628231Y-106084533D01*
X149319104Y-107393660D01*
X149245457Y-107215420D01*
X149033000Y-107002592D01*
X149033000Y-106806944D01*
X149324359Y-106807198D01*
X149744612Y-106633554D01*
X150066423Y-106312303D01*
X150240801Y-105892354D01*
X150241198Y-105437641D01*
X150067554Y-105017388D01*
X149987000Y-104936694D01*
X149987000Y-102581588D01*
X150066423Y-102502303D01*
X150240801Y-102082354D01*
X150241198Y-101627641D01*
X150067554Y-101207388D01*
X149746303Y-100885577D01*
X149326354Y-100711199D01*
X148871641Y-100710802D01*
X148451388Y-100884446D01*
X148129577Y-101205697D01*
X147955199Y-101625646D01*
X147954802Y-102080359D01*
X148128446Y-102500612D01*
X148209000Y-102581306D01*
X148209000Y-104936412D01*
X148129577Y-105015697D01*
X148070707Y-105157471D01*
X147701000Y-104787764D01*
X147701000Y-102327588D01*
X147780423Y-102248303D01*
X147954801Y-101828354D01*
X147955198Y-101373641D01*
X147781554Y-100953388D01*
X147460303Y-100631577D01*
X147040354Y-100457199D01*
X146585641Y-100456802D01*
X146165388Y-100630446D01*
X145843577Y-100951697D01*
X145669199Y-101371646D01*
X145668802Y-101826359D01*
X145842446Y-102246612D01*
X145923000Y-102327306D01*
X145923000Y-105156000D01*
X145990671Y-105496206D01*
X146153706Y-105740205D01*
X146183382Y-105784618D01*
X147255000Y-106856236D01*
X147255000Y-106971945D01*
X147254625Y-106971570D01*
X147132545Y-107093650D01*
X147091924Y-106842820D01*
X146612966Y-106649300D01*
X146096411Y-106653800D01*
X145640076Y-106842820D01*
X145599455Y-107093650D01*
X145477375Y-106971570D01*
X145461690Y-106987255D01*
X145324501Y-106849827D01*
X145161000Y-106781935D01*
X145161000Y-102073588D01*
X145240423Y-101994303D01*
X145414801Y-101574354D01*
X145415198Y-101119641D01*
X145241554Y-100699388D01*
X144920303Y-100377577D01*
X144500354Y-100203199D01*
X144045641Y-100202802D01*
X143625388Y-100376446D01*
X143303577Y-100697697D01*
X143129199Y-101117646D01*
X143129197Y-101119639D01*
X142955554Y-100699388D01*
X142634303Y-100377577D01*
X142214354Y-100203199D01*
X141759641Y-100202802D01*
X141339388Y-100376446D01*
X141017577Y-100697697D01*
X140843199Y-101117646D01*
X140842802Y-101572359D01*
X141016446Y-101992612D01*
X141097000Y-102073306D01*
X141097000Y-105635703D01*
X141028354Y-105607199D01*
X140573641Y-105606802D01*
X140153388Y-105780446D01*
X140072694Y-105861000D01*
X139518236Y-105861000D01*
X137033000Y-103375764D01*
X137033000Y-102147943D01*
X137129242Y-102380866D01*
X137606621Y-102859079D01*
X138230665Y-103118205D01*
X138906370Y-103118795D01*
X139530866Y-102860758D01*
X140009079Y-102383379D01*
X140268205Y-101759335D01*
X140268795Y-101083630D01*
X140010758Y-100459134D01*
X139533379Y-99980921D01*
X139247000Y-99862006D01*
X139247000Y-96478049D01*
X139530866Y-96360758D01*
X140009079Y-95883379D01*
X140268205Y-95259335D01*
X140268795Y-94583630D01*
X140010758Y-93959134D01*
X139533379Y-93480921D01*
X138909335Y-93221795D01*
X138233630Y-93221205D01*
X137609134Y-93479242D01*
X137130921Y-93956621D01*
X136871795Y-94580665D01*
X136871205Y-95256370D01*
X137129242Y-95880866D01*
X137469000Y-96221218D01*
X137469000Y-100119132D01*
X137130921Y-100456621D01*
X137033000Y-100692441D01*
X137033000Y-99787588D01*
X137112423Y-99708303D01*
X137286801Y-99288354D01*
X137287198Y-98833641D01*
X137113554Y-98413388D01*
X136792303Y-98091577D01*
X136372354Y-97917199D01*
X135917641Y-97916802D01*
X135497388Y-98090446D01*
X135175577Y-98411697D01*
X135001199Y-98831646D01*
X135000802Y-99286359D01*
X135174446Y-99706612D01*
X135255000Y-99787306D01*
X135255000Y-100202929D01*
X135033379Y-99980921D01*
X134747000Y-99862006D01*
X134747000Y-96478049D01*
X135030866Y-96360758D01*
X135509079Y-95883379D01*
X135768205Y-95259335D01*
X135768795Y-94583630D01*
X135510758Y-93959134D01*
X135033379Y-93480921D01*
X134409335Y-93221795D01*
X133733630Y-93221205D01*
X133109134Y-93479242D01*
X132630921Y-93956621D01*
X132371795Y-94580665D01*
X132371205Y-95256370D01*
X132629242Y-95880866D01*
X132969000Y-96221218D01*
X132969000Y-100119132D01*
X132630921Y-100456621D01*
X132371795Y-101080665D01*
X132371205Y-101756370D01*
X132629242Y-102380866D01*
X132857542Y-102609564D01*
X132613388Y-102710446D01*
X132291577Y-103031697D01*
X132117199Y-103451646D01*
X132116802Y-103906359D01*
X132290446Y-104326612D01*
X132371000Y-104407306D01*
X132371000Y-105730000D01*
X132438671Y-106070206D01*
X132592215Y-106300000D01*
X132631382Y-106358618D01*
X135733764Y-109461000D01*
X131218236Y-109461000D01*
X130589000Y-108831764D01*
X130589000Y-107846236D01*
X130703745Y-107960981D01*
X130780446Y-108146612D01*
X131101697Y-108468423D01*
X131521646Y-108642801D01*
X131976359Y-108643198D01*
X132396612Y-108469554D01*
X132718423Y-108148303D01*
X132892801Y-107728354D01*
X132893198Y-107273641D01*
X132719554Y-106853388D01*
X132398303Y-106531577D01*
X131978354Y-106357199D01*
X131614117Y-106356881D01*
X131445000Y-106187764D01*
X131445000Y-100549588D01*
X131524423Y-100470303D01*
X131698801Y-100050354D01*
X131699198Y-99595641D01*
X131525554Y-99175388D01*
X131204303Y-98853577D01*
X130784354Y-98679199D01*
X130670335Y-98679099D01*
X130374894Y-98383658D01*
X130694612Y-98251554D01*
X131016423Y-97930303D01*
X131190801Y-97510354D01*
X131190889Y-97409111D01*
X131290359Y-97409198D01*
X131710612Y-97235554D01*
X132032423Y-96914303D01*
X132206801Y-96494354D01*
X132207198Y-96039641D01*
X132033554Y-95619388D01*
X131953000Y-95538694D01*
X131953000Y-93598889D01*
X132306359Y-93599198D01*
X132726612Y-93425554D01*
X133048423Y-93104303D01*
X133222801Y-92684354D01*
X133223198Y-92229641D01*
X133049554Y-91809388D01*
X132964449Y-91724135D01*
X132962694Y-91442968D01*
X133226359Y-91443198D01*
X133646612Y-91269554D01*
X133968423Y-90948303D01*
X134142801Y-90528354D01*
X134143198Y-90073641D01*
X133969554Y-89653388D01*
X133893938Y-89577641D01*
X133982496Y-76570740D01*
X138217557Y-72335679D01*
X138313700Y-72431989D01*
X138882633Y-72668231D01*
X139498664Y-72668768D01*
X140068009Y-72433520D01*
X140462305Y-72039911D01*
X140843000Y-72421270D01*
X140843000Y-72932412D01*
X140763577Y-73011697D01*
X140589199Y-73431646D01*
X140588802Y-73886359D01*
X140762446Y-74306612D01*
X141083697Y-74628423D01*
X141503646Y-74802801D01*
X141871642Y-74803122D01*
X135515382Y-81159382D01*
X135322671Y-81447794D01*
X135255000Y-81788000D01*
X135255000Y-88934412D01*
X135175577Y-89013697D01*
X135001199Y-89433646D01*
X135000802Y-89888359D01*
X135174446Y-90308612D01*
X135495697Y-90630423D01*
X135915646Y-90804801D01*
X136370359Y-90805198D01*
X136790612Y-90631554D01*
X137112423Y-90310303D01*
X137286801Y-89890354D01*
X137286890Y-89788889D01*
X137640359Y-89789198D01*
X138060612Y-89615554D01*
X138382423Y-89294303D01*
X138556801Y-88874354D01*
X138557198Y-88419641D01*
X138383554Y-87999388D01*
X138303000Y-87918694D01*
X138303000Y-87661270D01*
X138313700Y-87671989D01*
X138882633Y-87908231D01*
X139498664Y-87908768D01*
X140068009Y-87673520D01*
X140462305Y-87279911D01*
X140853700Y-87671989D01*
X141422633Y-87908231D01*
X142038664Y-87908768D01*
X142608009Y-87673520D01*
X143002305Y-87279911D01*
X143393700Y-87671989D01*
X143962633Y-87908231D01*
X144578664Y-87908768D01*
X145148009Y-87673520D01*
X145542305Y-87279911D01*
X145933700Y-87671989D01*
X146502633Y-87908231D01*
X147118664Y-87908768D01*
X147688009Y-87673520D01*
X148082305Y-87279911D01*
X148473700Y-87671989D01*
X149042633Y-87908231D01*
X149658664Y-87908768D01*
X150228009Y-87673520D01*
X150622305Y-87279911D01*
X151013700Y-87671989D01*
X151582633Y-87908231D01*
X152198664Y-87908768D01*
X152527000Y-87773103D01*
X152527000Y-88680412D01*
X152447577Y-88759697D01*
X152273199Y-89179646D01*
X152272802Y-89634359D01*
X152446446Y-90054612D01*
X152767697Y-90376423D01*
X153187646Y-90550801D01*
X153642359Y-90551198D01*
X154062612Y-90377554D01*
X154384423Y-90056303D01*
X154558801Y-89636354D01*
X154559198Y-89181641D01*
X154385554Y-88761388D01*
X154305000Y-88680694D01*
X154305000Y-84293588D01*
X154384423Y-84214303D01*
X154558801Y-83794354D01*
X154559198Y-83339641D01*
X154385554Y-82919388D01*
X154064303Y-82597577D01*
X153644354Y-82423199D01*
X153189641Y-82422802D01*
X152769388Y-82596446D01*
X152447577Y-82917697D01*
X152273199Y-83337646D01*
X152272802Y-83792359D01*
X152446446Y-84212612D01*
X152527000Y-84293306D01*
X152527000Y-84946984D01*
X152201367Y-84811769D01*
X151585336Y-84811232D01*
X151015991Y-85046480D01*
X150621695Y-85440089D01*
X150241000Y-85058730D01*
X150241000Y-76673588D01*
X150320423Y-76594303D01*
X150494801Y-76174354D01*
X150495198Y-75719641D01*
X150321554Y-75299388D01*
X150000303Y-74977577D01*
X149580354Y-74803199D01*
X149125641Y-74802802D01*
X148705388Y-74976446D01*
X148383577Y-75297697D01*
X148209199Y-75717646D01*
X148208802Y-76172359D01*
X148382446Y-76592612D01*
X148463000Y-76673306D01*
X148463000Y-85059448D01*
X148081695Y-85440089D01*
X147701000Y-85058730D01*
X147701000Y-79213588D01*
X147780423Y-79134303D01*
X147954801Y-78714354D01*
X147955198Y-78259641D01*
X147781554Y-77839388D01*
X147460303Y-77517577D01*
X147040354Y-77343199D01*
X146585641Y-77342802D01*
X146165388Y-77516446D01*
X145843577Y-77837697D01*
X145669199Y-78257646D01*
X145668802Y-78712359D01*
X145842446Y-79132612D01*
X145923000Y-79213306D01*
X145923000Y-85059448D01*
X145541695Y-85440089D01*
X145161000Y-85058730D01*
X145161000Y-81753588D01*
X145240423Y-81674303D01*
X145414801Y-81254354D01*
X145415198Y-80799641D01*
X145241554Y-80379388D01*
X144920303Y-80057577D01*
X144500354Y-79883199D01*
X144045641Y-79882802D01*
X143625388Y-80056446D01*
X143303577Y-80377697D01*
X143129199Y-80797646D01*
X143128802Y-81252359D01*
X143302446Y-81672612D01*
X143383000Y-81753306D01*
X143383000Y-85059448D01*
X143001695Y-85440089D01*
X142621000Y-85058730D01*
X142621000Y-84293588D01*
X142700423Y-84214303D01*
X142874801Y-83794354D01*
X142875198Y-83339641D01*
X142701554Y-82919388D01*
X142380303Y-82597577D01*
X141960354Y-82423199D01*
X141505641Y-82422802D01*
X141085388Y-82596446D01*
X140763577Y-82917697D01*
X140589199Y-83337646D01*
X140588802Y-83792359D01*
X140762446Y-84212612D01*
X140843000Y-84293306D01*
X140843000Y-85059448D01*
X140461695Y-85440089D01*
X140070300Y-85048011D01*
X139501367Y-84811769D01*
X138885336Y-84811232D01*
X138315991Y-85046480D01*
X138303000Y-85059448D01*
X138303000Y-83426236D01*
X149060989Y-72668247D01*
X149658664Y-72668768D01*
X150228009Y-72433520D01*
X150622305Y-72039911D01*
X151013700Y-72431989D01*
X151582633Y-72668231D01*
X152198664Y-72668768D01*
X152527000Y-72533103D01*
X152527000Y-73694412D01*
X152447577Y-73773697D01*
X152273199Y-74193646D01*
X152272802Y-74648359D01*
X152446446Y-75068612D01*
X152767697Y-75390423D01*
X153187646Y-75564801D01*
X153642359Y-75565198D01*
X154062612Y-75391554D01*
X154384423Y-75070303D01*
X154558801Y-74650354D01*
X154559198Y-74195641D01*
X154385554Y-73775388D01*
X154305000Y-73694694D01*
X154305000Y-70612000D01*
X154237329Y-70271794D01*
X154044618Y-69983382D01*
X153100236Y-69039000D01*
X154798500Y-69039000D01*
X155138706Y-68971329D01*
X155427118Y-68778618D01*
X155712955Y-68492781D01*
X155942697Y-68722923D01*
G36*
X164951697Y-85568423D02*
X165371646Y-85742801D01*
X165826359Y-85743198D01*
X165871000Y-85724753D01*
X165871000Y-85871764D01*
X165531382Y-86211382D01*
X165338671Y-86499794D01*
X165271000Y-86840000D01*
X165271000Y-94329764D01*
X164731864Y-94868900D01*
X164619641Y-94868802D01*
X164199388Y-95042446D01*
X163877577Y-95363697D01*
X163703199Y-95783646D01*
X163702802Y-96238359D01*
X163876446Y-96658612D01*
X163957000Y-96739306D01*
X163957000Y-101126412D01*
X163877577Y-101205697D01*
X163703199Y-101625646D01*
X163702802Y-102080359D01*
X163876446Y-102500612D01*
X164197697Y-102822423D01*
X164444480Y-102924896D01*
X164385577Y-102983697D01*
X164211199Y-103403646D01*
X164210802Y-103858359D01*
X164384446Y-104278612D01*
X164465000Y-104359306D01*
X164465000Y-107222412D01*
X164385577Y-107301697D01*
X164211199Y-107721646D01*
X164210859Y-108111000D01*
X160942860Y-108111000D01*
X160942889Y-108077141D01*
X161008359Y-108077198D01*
X161428612Y-107903554D01*
X161750423Y-107582303D01*
X161924801Y-107162354D01*
X161925198Y-106707641D01*
X161751554Y-106287388D01*
X161671000Y-106206694D01*
X161671000Y-100549588D01*
X161750423Y-100470303D01*
X161924801Y-100050354D01*
X161925198Y-99595641D01*
X161751554Y-99175388D01*
X161430303Y-98853577D01*
X161010354Y-98679199D01*
X160555641Y-98678802D01*
X160135388Y-98852446D01*
X159813577Y-99173697D01*
X159639199Y-99593646D01*
X159638802Y-100048359D01*
X159812446Y-100468612D01*
X159893000Y-100549306D01*
X159893000Y-106206412D01*
X159813577Y-106285697D01*
X159748839Y-106441603D01*
X154302130Y-100994894D01*
X154080758Y-100459134D01*
X153603379Y-99980921D01*
X153543000Y-99955849D01*
X153543000Y-96384668D01*
X153600866Y-96360758D01*
X154051000Y-95911409D01*
X154051000Y-97824412D01*
X153971577Y-97903697D01*
X153797199Y-98323646D01*
X153796802Y-98778359D01*
X153970446Y-99198612D01*
X154291697Y-99520423D01*
X154711646Y-99694801D01*
X155166359Y-99695198D01*
X155586612Y-99521554D01*
X155908423Y-99200303D01*
X156082801Y-98780354D01*
X156083198Y-98325641D01*
X155909554Y-97905388D01*
X155829000Y-97824694D01*
X155829000Y-96010851D01*
X156176621Y-96359079D01*
X156265000Y-96395777D01*
X156265000Y-99943763D01*
X156179134Y-99979242D01*
X155700921Y-100456621D01*
X155441795Y-101080665D01*
X155441205Y-101756370D01*
X155699242Y-102380866D01*
X156176621Y-102859079D01*
X156800665Y-103118205D01*
X157476370Y-103118795D01*
X158100866Y-102860758D01*
X158579079Y-102383379D01*
X158838205Y-101759335D01*
X158838795Y-101083630D01*
X158580758Y-100459134D01*
X158103379Y-99980921D01*
X158043000Y-99955849D01*
X158043000Y-96384668D01*
X158100866Y-96360758D01*
X158579079Y-95883379D01*
X158838205Y-95259335D01*
X158838795Y-94583630D01*
X158580758Y-93959134D01*
X158103379Y-93480921D01*
X157479335Y-93221795D01*
X156803630Y-93221205D01*
X156179134Y-93479242D01*
X155829000Y-93828765D01*
X155829000Y-91928236D01*
X156818236Y-90939000D01*
X158750000Y-90939000D01*
X159090206Y-90871329D01*
X159378618Y-90678618D01*
X162687000Y-87370236D01*
X162687000Y-88934412D01*
X162607577Y-89013697D01*
X162433199Y-89433646D01*
X162432802Y-89888359D01*
X162606446Y-90308612D01*
X162927697Y-90630423D01*
X163347646Y-90804801D01*
X163802359Y-90805198D01*
X164222612Y-90631554D01*
X164544423Y-90310303D01*
X164718801Y-89890354D01*
X164719198Y-89435641D01*
X164545554Y-89015388D01*
X164465000Y-88934694D01*
X164465000Y-87341588D01*
X164544423Y-87262303D01*
X164718801Y-86842354D01*
X164719198Y-86387641D01*
X164545554Y-85967388D01*
X164231532Y-85652818D01*
X164476612Y-85551554D01*
X164706134Y-85322432D01*
X164951697Y-85568423D01*
X164951697Y-85568423D01*
G37*
X164951697Y-85568423D02*
X165371646Y-85742801D01*
X165826359Y-85743198D01*
X165871000Y-85724753D01*
X165871000Y-85871764D01*
X165531382Y-86211382D01*
X165338671Y-86499794D01*
X165271000Y-86840000D01*
X165271000Y-94329764D01*
X164731864Y-94868900D01*
X164619641Y-94868802D01*
X164199388Y-95042446D01*
X163877577Y-95363697D01*
X163703199Y-95783646D01*
X163702802Y-96238359D01*
X163876446Y-96658612D01*
X163957000Y-96739306D01*
X163957000Y-101126412D01*
X163877577Y-101205697D01*
X163703199Y-101625646D01*
X163702802Y-102080359D01*
X163876446Y-102500612D01*
X164197697Y-102822423D01*
X164444480Y-102924896D01*
X164385577Y-102983697D01*
X164211199Y-103403646D01*
X164210802Y-103858359D01*
X164384446Y-104278612D01*
X164465000Y-104359306D01*
X164465000Y-107222412D01*
X164385577Y-107301697D01*
X164211199Y-107721646D01*
X164210859Y-108111000D01*
X160942860Y-108111000D01*
X160942889Y-108077141D01*
X161008359Y-108077198D01*
X161428612Y-107903554D01*
X161750423Y-107582303D01*
X161924801Y-107162354D01*
X161925198Y-106707641D01*
X161751554Y-106287388D01*
X161671000Y-106206694D01*
X161671000Y-100549588D01*
X161750423Y-100470303D01*
X161924801Y-100050354D01*
X161925198Y-99595641D01*
X161751554Y-99175388D01*
X161430303Y-98853577D01*
X161010354Y-98679199D01*
X160555641Y-98678802D01*
X160135388Y-98852446D01*
X159813577Y-99173697D01*
X159639199Y-99593646D01*
X159638802Y-100048359D01*
X159812446Y-100468612D01*
X159893000Y-100549306D01*
X159893000Y-106206412D01*
X159813577Y-106285697D01*
X159748839Y-106441603D01*
X154302130Y-100994894D01*
X154080758Y-100459134D01*
X153603379Y-99980921D01*
X153543000Y-99955849D01*
X153543000Y-96384668D01*
X153600866Y-96360758D01*
X154051000Y-95911409D01*
X154051000Y-97824412D01*
X153971577Y-97903697D01*
X153797199Y-98323646D01*
X153796802Y-98778359D01*
X153970446Y-99198612D01*
X154291697Y-99520423D01*
X154711646Y-99694801D01*
X155166359Y-99695198D01*
X155586612Y-99521554D01*
X155908423Y-99200303D01*
X156082801Y-98780354D01*
X156083198Y-98325641D01*
X155909554Y-97905388D01*
X155829000Y-97824694D01*
X155829000Y-96010851D01*
X156176621Y-96359079D01*
X156265000Y-96395777D01*
X156265000Y-99943763D01*
X156179134Y-99979242D01*
X155700921Y-100456621D01*
X155441795Y-101080665D01*
X155441205Y-101756370D01*
X155699242Y-102380866D01*
X156176621Y-102859079D01*
X156800665Y-103118205D01*
X157476370Y-103118795D01*
X158100866Y-102860758D01*
X158579079Y-102383379D01*
X158838205Y-101759335D01*
X158838795Y-101083630D01*
X158580758Y-100459134D01*
X158103379Y-99980921D01*
X158043000Y-99955849D01*
X158043000Y-96384668D01*
X158100866Y-96360758D01*
X158579079Y-95883379D01*
X158838205Y-95259335D01*
X158838795Y-94583630D01*
X158580758Y-93959134D01*
X158103379Y-93480921D01*
X157479335Y-93221795D01*
X156803630Y-93221205D01*
X156179134Y-93479242D01*
X155829000Y-93828765D01*
X155829000Y-91928236D01*
X156818236Y-90939000D01*
X158750000Y-90939000D01*
X159090206Y-90871329D01*
X159378618Y-90678618D01*
X162687000Y-87370236D01*
X162687000Y-88934412D01*
X162607577Y-89013697D01*
X162433199Y-89433646D01*
X162432802Y-89888359D01*
X162606446Y-90308612D01*
X162927697Y-90630423D01*
X163347646Y-90804801D01*
X163802359Y-90805198D01*
X164222612Y-90631554D01*
X164544423Y-90310303D01*
X164718801Y-89890354D01*
X164719198Y-89435641D01*
X164545554Y-89015388D01*
X164465000Y-88934694D01*
X164465000Y-87341588D01*
X164544423Y-87262303D01*
X164718801Y-86842354D01*
X164719198Y-86387641D01*
X164545554Y-85967388D01*
X164231532Y-85652818D01*
X164476612Y-85551554D01*
X164706134Y-85322432D01*
X164951697Y-85568423D01*
G36*
X146469945Y-107935858D02*
X146455803Y-107950000D01*
X146469945Y-107964142D01*
X146380142Y-108053945D01*
X146366000Y-108039803D01*
X146351858Y-108053945D01*
X146262055Y-107964142D01*
X146276197Y-107950000D01*
X146262055Y-107935858D01*
X146351858Y-107846055D01*
X146366000Y-107860197D01*
X146380142Y-107846055D01*
X146469945Y-107935858D01*
X146469945Y-107935858D01*
G37*
X146469945Y-107935858D02*
X146455803Y-107950000D01*
X146469945Y-107964142D01*
X146380142Y-108053945D01*
X146366000Y-108039803D01*
X146351858Y-108053945D01*
X146262055Y-107964142D01*
X146276197Y-107950000D01*
X146262055Y-107935858D01*
X146351858Y-107846055D01*
X146366000Y-107860197D01*
X146380142Y-107846055D01*
X146469945Y-107935858D01*
G36*
X187184273Y-63163350D02*
X191048592Y-65745406D01*
X193630650Y-69609727D01*
X194495378Y-73957007D01*
X193879335Y-73701204D01*
X193203630Y-73700614D01*
X192579134Y-73958651D01*
X192100921Y-74436030D01*
X191841795Y-75060074D01*
X191841205Y-75735779D01*
X192099242Y-76360275D01*
X192576621Y-76838488D01*
X193200665Y-77097614D01*
X193876370Y-77098204D01*
X194500866Y-76840167D01*
X194552500Y-76788623D01*
X194552500Y-98276809D01*
X194135360Y-97858940D01*
X193511316Y-97599814D01*
X192850435Y-97599237D01*
X190274007Y-95022809D01*
X190274581Y-94365455D01*
X190016544Y-93740959D01*
X189769078Y-93493061D01*
X189926359Y-93493198D01*
X190346612Y-93319554D01*
X190668423Y-92998303D01*
X190842801Y-92578354D01*
X190843198Y-92123641D01*
X190669554Y-91703388D01*
X190348303Y-91381577D01*
X189928354Y-91207199D01*
X189814335Y-91207099D01*
X189639000Y-91031764D01*
X189639000Y-84825673D01*
X189662801Y-84768354D01*
X189663198Y-84313641D01*
X189489554Y-83893388D01*
X189168303Y-83571577D01*
X188748354Y-83397199D01*
X188339000Y-83396842D01*
X188339000Y-83200000D01*
X188271329Y-82859794D01*
X188078618Y-82571382D01*
X185683976Y-80176740D01*
X185845230Y-80176881D01*
X186653563Y-79842884D01*
X187272551Y-79224976D01*
X187596977Y-78443670D01*
X187769115Y-78860275D01*
X188246494Y-79338488D01*
X188870538Y-79597614D01*
X189546243Y-79598204D01*
X190170739Y-79340167D01*
X190648952Y-78862788D01*
X190908078Y-78238744D01*
X190908668Y-77563039D01*
X190650631Y-76938543D01*
X190173252Y-76460330D01*
X189549208Y-76201204D01*
X188873503Y-76200614D01*
X188249007Y-76458651D01*
X187770794Y-76936030D01*
X187563931Y-77434210D01*
X187274724Y-76734277D01*
X186656816Y-76115289D01*
X185849067Y-75779883D01*
X184974450Y-75779119D01*
X184166117Y-76113116D01*
X183889000Y-76389749D01*
X183889000Y-74168236D01*
X185024994Y-73032242D01*
X184971668Y-73160665D01*
X184971078Y-73836370D01*
X185229115Y-74460866D01*
X185706494Y-74939079D01*
X186330538Y-75198205D01*
X187006243Y-75198795D01*
X187630739Y-74940758D01*
X188108952Y-74463379D01*
X188368078Y-73839335D01*
X188368668Y-73163630D01*
X188110631Y-72539134D01*
X187765289Y-72193188D01*
X187776359Y-72193198D01*
X188196612Y-72019554D01*
X188518423Y-71698303D01*
X188668710Y-71336370D01*
X189301205Y-71336370D01*
X189559242Y-71960866D01*
X190036621Y-72439079D01*
X190660665Y-72698205D01*
X191336370Y-72698795D01*
X191960866Y-72440758D01*
X192439079Y-71963379D01*
X192698205Y-71339335D01*
X192698795Y-70663630D01*
X192440758Y-70039134D01*
X191963379Y-69560921D01*
X191339335Y-69301795D01*
X190663630Y-69301205D01*
X190039134Y-69559242D01*
X189560921Y-70036621D01*
X189301795Y-70660665D01*
X189301205Y-71336370D01*
X188668710Y-71336370D01*
X188692801Y-71278354D01*
X188693198Y-70823641D01*
X188519554Y-70403388D01*
X188198303Y-70081577D01*
X187778354Y-69907199D01*
X187323641Y-69906802D01*
X186903388Y-70080446D01*
X186822694Y-70161000D01*
X185750000Y-70161000D01*
X185409794Y-70228671D01*
X185392160Y-70240454D01*
X185568952Y-70063970D01*
X185828078Y-69439926D01*
X185828668Y-68764221D01*
X185570631Y-68139725D01*
X185093252Y-67661512D01*
X184469208Y-67402386D01*
X183793503Y-67401796D01*
X183169007Y-67659833D01*
X182690794Y-68137212D01*
X182589000Y-68382359D01*
X182589000Y-68350000D01*
X182584695Y-68328359D01*
X182521330Y-68009795D01*
X182328618Y-67721382D01*
X181090081Y-66482845D01*
X186732232Y-66482845D01*
X186818691Y-67152996D01*
X187155025Y-67739049D01*
X187690028Y-68151781D01*
X187698087Y-68155755D01*
X187853566Y-68119868D01*
X188118651Y-68119868D01*
X188342254Y-68328359D01*
X189012405Y-68241900D01*
X189598458Y-67905566D01*
X190011190Y-67370563D01*
X190015164Y-67362504D01*
X189946406Y-67064612D01*
X188504901Y-66678362D01*
X188118651Y-68119868D01*
X187853566Y-68119868D01*
X187995979Y-68086997D01*
X188382229Y-66645492D01*
X188047084Y-66555690D01*
X188537771Y-66555690D01*
X189979277Y-66941940D01*
X190187768Y-66718337D01*
X190101309Y-66048186D01*
X189764975Y-65462133D01*
X189229972Y-65049401D01*
X189221913Y-65045427D01*
X188924021Y-65114185D01*
X188537771Y-66555690D01*
X188047084Y-66555690D01*
X186940723Y-66259242D01*
X186732232Y-66482845D01*
X181090081Y-66482845D01*
X180445914Y-65838678D01*
X186904836Y-65838678D01*
X186973594Y-66136570D01*
X188415099Y-66522820D01*
X188801349Y-65081314D01*
X188577746Y-64872823D01*
X187907595Y-64959282D01*
X187321542Y-65295616D01*
X186908810Y-65830619D01*
X186904836Y-65838678D01*
X180445914Y-65838678D01*
X176848736Y-62241500D01*
X182549819Y-62241500D01*
X187184273Y-63163350D01*
X187184273Y-63163350D01*
G37*
X187184273Y-63163350D02*
X191048592Y-65745406D01*
X193630650Y-69609727D01*
X194495378Y-73957007D01*
X193879335Y-73701204D01*
X193203630Y-73700614D01*
X192579134Y-73958651D01*
X192100921Y-74436030D01*
X191841795Y-75060074D01*
X191841205Y-75735779D01*
X192099242Y-76360275D01*
X192576621Y-76838488D01*
X193200665Y-77097614D01*
X193876370Y-77098204D01*
X194500866Y-76840167D01*
X194552500Y-76788623D01*
X194552500Y-98276809D01*
X194135360Y-97858940D01*
X193511316Y-97599814D01*
X192850435Y-97599237D01*
X190274007Y-95022809D01*
X190274581Y-94365455D01*
X190016544Y-93740959D01*
X189769078Y-93493061D01*
X189926359Y-93493198D01*
X190346612Y-93319554D01*
X190668423Y-92998303D01*
X190842801Y-92578354D01*
X190843198Y-92123641D01*
X190669554Y-91703388D01*
X190348303Y-91381577D01*
X189928354Y-91207199D01*
X189814335Y-91207099D01*
X189639000Y-91031764D01*
X189639000Y-84825673D01*
X189662801Y-84768354D01*
X189663198Y-84313641D01*
X189489554Y-83893388D01*
X189168303Y-83571577D01*
X188748354Y-83397199D01*
X188339000Y-83396842D01*
X188339000Y-83200000D01*
X188271329Y-82859794D01*
X188078618Y-82571382D01*
X185683976Y-80176740D01*
X185845230Y-80176881D01*
X186653563Y-79842884D01*
X187272551Y-79224976D01*
X187596977Y-78443670D01*
X187769115Y-78860275D01*
X188246494Y-79338488D01*
X188870538Y-79597614D01*
X189546243Y-79598204D01*
X190170739Y-79340167D01*
X190648952Y-78862788D01*
X190908078Y-78238744D01*
X190908668Y-77563039D01*
X190650631Y-76938543D01*
X190173252Y-76460330D01*
X189549208Y-76201204D01*
X188873503Y-76200614D01*
X188249007Y-76458651D01*
X187770794Y-76936030D01*
X187563931Y-77434210D01*
X187274724Y-76734277D01*
X186656816Y-76115289D01*
X185849067Y-75779883D01*
X184974450Y-75779119D01*
X184166117Y-76113116D01*
X183889000Y-76389749D01*
X183889000Y-74168236D01*
X185024994Y-73032242D01*
X184971668Y-73160665D01*
X184971078Y-73836370D01*
X185229115Y-74460866D01*
X185706494Y-74939079D01*
X186330538Y-75198205D01*
X187006243Y-75198795D01*
X187630739Y-74940758D01*
X188108952Y-74463379D01*
X188368078Y-73839335D01*
X188368668Y-73163630D01*
X188110631Y-72539134D01*
X187765289Y-72193188D01*
X187776359Y-72193198D01*
X188196612Y-72019554D01*
X188518423Y-71698303D01*
X188668710Y-71336370D01*
X189301205Y-71336370D01*
X189559242Y-71960866D01*
X190036621Y-72439079D01*
X190660665Y-72698205D01*
X191336370Y-72698795D01*
X191960866Y-72440758D01*
X192439079Y-71963379D01*
X192698205Y-71339335D01*
X192698795Y-70663630D01*
X192440758Y-70039134D01*
X191963379Y-69560921D01*
X191339335Y-69301795D01*
X190663630Y-69301205D01*
X190039134Y-69559242D01*
X189560921Y-70036621D01*
X189301795Y-70660665D01*
X189301205Y-71336370D01*
X188668710Y-71336370D01*
X188692801Y-71278354D01*
X188693198Y-70823641D01*
X188519554Y-70403388D01*
X188198303Y-70081577D01*
X187778354Y-69907199D01*
X187323641Y-69906802D01*
X186903388Y-70080446D01*
X186822694Y-70161000D01*
X185750000Y-70161000D01*
X185409794Y-70228671D01*
X185392160Y-70240454D01*
X185568952Y-70063970D01*
X185828078Y-69439926D01*
X185828668Y-68764221D01*
X185570631Y-68139725D01*
X185093252Y-67661512D01*
X184469208Y-67402386D01*
X183793503Y-67401796D01*
X183169007Y-67659833D01*
X182690794Y-68137212D01*
X182589000Y-68382359D01*
X182589000Y-68350000D01*
X182584695Y-68328359D01*
X182521330Y-68009795D01*
X182328618Y-67721382D01*
X181090081Y-66482845D01*
X186732232Y-66482845D01*
X186818691Y-67152996D01*
X187155025Y-67739049D01*
X187690028Y-68151781D01*
X187698087Y-68155755D01*
X187853566Y-68119868D01*
X188118651Y-68119868D01*
X188342254Y-68328359D01*
X189012405Y-68241900D01*
X189598458Y-67905566D01*
X190011190Y-67370563D01*
X190015164Y-67362504D01*
X189946406Y-67064612D01*
X188504901Y-66678362D01*
X188118651Y-68119868D01*
X187853566Y-68119868D01*
X187995979Y-68086997D01*
X188382229Y-66645492D01*
X188047084Y-66555690D01*
X188537771Y-66555690D01*
X189979277Y-66941940D01*
X190187768Y-66718337D01*
X190101309Y-66048186D01*
X189764975Y-65462133D01*
X189229972Y-65049401D01*
X189221913Y-65045427D01*
X188924021Y-65114185D01*
X188537771Y-66555690D01*
X188047084Y-66555690D01*
X186940723Y-66259242D01*
X186732232Y-66482845D01*
X181090081Y-66482845D01*
X180445914Y-65838678D01*
X186904836Y-65838678D01*
X186973594Y-66136570D01*
X188415099Y-66522820D01*
X188801349Y-65081314D01*
X188577746Y-64872823D01*
X187907595Y-64959282D01*
X187321542Y-65295616D01*
X186908810Y-65830619D01*
X186904836Y-65838678D01*
X180445914Y-65838678D01*
X176848736Y-62241500D01*
X182549819Y-62241500D01*
X187184273Y-63163350D01*
G36*
X132714802Y-69314359D02*
X132888446Y-69734612D01*
X133209697Y-70056423D01*
X133629646Y-70230801D01*
X134084359Y-70231198D01*
X134504612Y-70057554D01*
X134585306Y-69977000D01*
X138145173Y-69977000D01*
X137880011Y-70241700D01*
X137858206Y-70294213D01*
X137835794Y-70298671D01*
X137593353Y-70460665D01*
X137547382Y-70491382D01*
X132467382Y-75571382D01*
X132372715Y-75713061D01*
X132277006Y-75854210D01*
X132276383Y-75857232D01*
X132274671Y-75859795D01*
X132241417Y-76026976D01*
X132207021Y-76193947D01*
X132187110Y-79118356D01*
X132143175Y-79089000D01*
X131912206Y-78934671D01*
X131572000Y-78867000D01*
X131029588Y-78867000D01*
X130950303Y-78787577D01*
X130530354Y-78613199D01*
X130075641Y-78612802D01*
X129655388Y-78786446D01*
X129333577Y-79107697D01*
X129159199Y-79527646D01*
X129158802Y-79982359D01*
X129332446Y-80402612D01*
X129653697Y-80724423D01*
X130073646Y-80898801D01*
X130528359Y-80899198D01*
X130937000Y-80730352D01*
X130937000Y-81322053D01*
X130530354Y-81153199D01*
X130075641Y-81152802D01*
X129655388Y-81326446D01*
X129333577Y-81647697D01*
X129159199Y-82067646D01*
X129158802Y-82522359D01*
X129332446Y-82942612D01*
X129413000Y-83023306D01*
X129413000Y-87772933D01*
X129226671Y-88051794D01*
X129159000Y-88392000D01*
X129159000Y-96554412D01*
X129079577Y-96633697D01*
X129039000Y-96731417D01*
X129039000Y-86063080D01*
X129221329Y-85790206D01*
X129289000Y-85450000D01*
X129289000Y-84450000D01*
X129221329Y-84109794D01*
X129089000Y-83911750D01*
X129089000Y-78957921D01*
X129142801Y-78828354D01*
X129143198Y-78373641D01*
X128969554Y-77953388D01*
X128774547Y-77758041D01*
X128904801Y-77444354D01*
X128905198Y-76989641D01*
X128731554Y-76569388D01*
X128410303Y-76247577D01*
X127990354Y-76073199D01*
X127535641Y-76072802D01*
X127115388Y-76246446D01*
X127000081Y-76361553D01*
X126886303Y-76247577D01*
X126466354Y-76073199D01*
X126089000Y-76072870D01*
X126089000Y-74968236D01*
X132018236Y-69039000D01*
X132715042Y-69039000D01*
X132714802Y-69314359D01*
X132714802Y-69314359D01*
G37*
X132714802Y-69314359D02*
X132888446Y-69734612D01*
X133209697Y-70056423D01*
X133629646Y-70230801D01*
X134084359Y-70231198D01*
X134504612Y-70057554D01*
X134585306Y-69977000D01*
X138145173Y-69977000D01*
X137880011Y-70241700D01*
X137858206Y-70294213D01*
X137835794Y-70298671D01*
X137593353Y-70460665D01*
X137547382Y-70491382D01*
X132467382Y-75571382D01*
X132372715Y-75713061D01*
X132277006Y-75854210D01*
X132276383Y-75857232D01*
X132274671Y-75859795D01*
X132241417Y-76026976D01*
X132207021Y-76193947D01*
X132187110Y-79118356D01*
X132143175Y-79089000D01*
X131912206Y-78934671D01*
X131572000Y-78867000D01*
X131029588Y-78867000D01*
X130950303Y-78787577D01*
X130530354Y-78613199D01*
X130075641Y-78612802D01*
X129655388Y-78786446D01*
X129333577Y-79107697D01*
X129159199Y-79527646D01*
X129158802Y-79982359D01*
X129332446Y-80402612D01*
X129653697Y-80724423D01*
X130073646Y-80898801D01*
X130528359Y-80899198D01*
X130937000Y-80730352D01*
X130937000Y-81322053D01*
X130530354Y-81153199D01*
X130075641Y-81152802D01*
X129655388Y-81326446D01*
X129333577Y-81647697D01*
X129159199Y-82067646D01*
X129158802Y-82522359D01*
X129332446Y-82942612D01*
X129413000Y-83023306D01*
X129413000Y-87772933D01*
X129226671Y-88051794D01*
X129159000Y-88392000D01*
X129159000Y-96554412D01*
X129079577Y-96633697D01*
X129039000Y-96731417D01*
X129039000Y-86063080D01*
X129221329Y-85790206D01*
X129289000Y-85450000D01*
X129289000Y-84450000D01*
X129221329Y-84109794D01*
X129089000Y-83911750D01*
X129089000Y-78957921D01*
X129142801Y-78828354D01*
X129143198Y-78373641D01*
X128969554Y-77953388D01*
X128774547Y-77758041D01*
X128904801Y-77444354D01*
X128905198Y-76989641D01*
X128731554Y-76569388D01*
X128410303Y-76247577D01*
X127990354Y-76073199D01*
X127535641Y-76072802D01*
X127115388Y-76246446D01*
X127000081Y-76361553D01*
X126886303Y-76247577D01*
X126466354Y-76073199D01*
X126089000Y-76072870D01*
X126089000Y-74968236D01*
X132018236Y-69039000D01*
X132715042Y-69039000D01*
X132714802Y-69314359D01*
G36*
X164457199Y-76871646D02*
X164456802Y-77326359D01*
X164630446Y-77746612D01*
X164711000Y-77827306D01*
X164711000Y-79689261D01*
X164566354Y-79629199D01*
X164289000Y-79628957D01*
X164289000Y-76822699D01*
X164296612Y-76819554D01*
X164607836Y-76508871D01*
X164457199Y-76871646D01*
X164457199Y-76871646D01*
G37*
X164457199Y-76871646D02*
X164456802Y-77326359D01*
X164630446Y-77746612D01*
X164711000Y-77827306D01*
X164711000Y-79689261D01*
X164566354Y-79629199D01*
X164289000Y-79628957D01*
X164289000Y-76822699D01*
X164296612Y-76819554D01*
X164607836Y-76508871D01*
X164457199Y-76871646D01*
G36*
X167732779Y-69632975D02*
X167790373Y-69842243D01*
X168086369Y-70329828D01*
X168460122Y-70603771D01*
X168092706Y-70849271D01*
X167776109Y-71323091D01*
X167664935Y-71882000D01*
X167776109Y-72440909D01*
X168092706Y-72914729D01*
X168447806Y-73152000D01*
X168092706Y-73389271D01*
X167776109Y-73863091D01*
X167757843Y-73954921D01*
X166031382Y-75681382D01*
X165843018Y-75963288D01*
X165828354Y-75957199D01*
X165373641Y-75956802D01*
X164953388Y-76130446D01*
X164642164Y-76441129D01*
X164792801Y-76078354D01*
X164793198Y-75623641D01*
X164619554Y-75203388D01*
X164298303Y-74881577D01*
X163878354Y-74707199D01*
X163575862Y-74706935D01*
X163576198Y-74322641D01*
X163402554Y-73902388D01*
X163322000Y-73821694D01*
X163322000Y-69532500D01*
X167576500Y-69532500D01*
X167830272Y-69482022D01*
X167732779Y-69632975D01*
X167732779Y-69632975D01*
G37*
X167732779Y-69632975D02*
X167790373Y-69842243D01*
X168086369Y-70329828D01*
X168460122Y-70603771D01*
X168092706Y-70849271D01*
X167776109Y-71323091D01*
X167664935Y-71882000D01*
X167776109Y-72440909D01*
X168092706Y-72914729D01*
X168447806Y-73152000D01*
X168092706Y-73389271D01*
X167776109Y-73863091D01*
X167757843Y-73954921D01*
X166031382Y-75681382D01*
X165843018Y-75963288D01*
X165828354Y-75957199D01*
X165373641Y-75956802D01*
X164953388Y-76130446D01*
X164642164Y-76441129D01*
X164792801Y-76078354D01*
X164793198Y-75623641D01*
X164619554Y-75203388D01*
X164298303Y-74881577D01*
X163878354Y-74707199D01*
X163575862Y-74706935D01*
X163576198Y-74322641D01*
X163402554Y-73902388D01*
X163322000Y-73821694D01*
X163322000Y-69532500D01*
X167576500Y-69532500D01*
X167830272Y-69482022D01*
X167732779Y-69632975D01*
G36*
X154363500Y-65486500D02*
X154383500Y-65486500D01*
X154383500Y-65613500D01*
X154363500Y-65613500D01*
X154363500Y-65633500D01*
X154236500Y-65633500D01*
X154236500Y-65613500D01*
X154216500Y-65613500D01*
X154216500Y-65486500D01*
X154236500Y-65486500D01*
X154236500Y-65466500D01*
X154363500Y-65466500D01*
X154363500Y-65486500D01*
X154363500Y-65486500D01*
G37*
X154363500Y-65486500D02*
X154383500Y-65486500D01*
X154383500Y-65613500D01*
X154363500Y-65613500D01*
X154363500Y-65633500D01*
X154236500Y-65633500D01*
X154236500Y-65613500D01*
X154216500Y-65613500D01*
X154216500Y-65486500D01*
X154236500Y-65486500D01*
X154236500Y-65466500D01*
X154363500Y-65466500D01*
X154363500Y-65486500D01*
M02*
