M48
INCH,TZ
T1C0.024
T2C0.024
T3C0.025
T4C0.031
T5C0.032
T6C0.039
T7C0.039
T8C0.043
T9C0.047
T10C0.150
%
G90
G05
T1
X40605Y-31200
X41195Y-31200
T2
X44700Y-28400
X45200Y-28400
X45700Y-28400
T3
X42600Y-29400
X42600Y-33800
X44300Y-29400
X45700Y-32000
X46600Y-32400
X46600Y-35300
X47100Y-29000
X48500Y-34400
X48600Y-36700
X49291Y-31890
X49291Y-35039
X49500Y-38900
X49700Y-30400
X50100Y-32400
X50200Y-33400
X50300Y-30400
X50394Y-30945
X50846Y-32913
X50866Y-34232
X51200Y-38300
X51300Y-31400
X51300Y-32400
X51400Y-39300
X51600Y-37900
X51900Y-43000
X51988Y-34508
X52000Y-36400
X52087Y-40945
X52362Y-35551
X52362Y-36024
X52700Y-27200
X53600Y-35300
X53600Y-37100
X53600Y-39000
X54100Y-34900
X55118Y-41417
X55433Y-42028
X55800Y-29000
X55800Y-32900
X55900Y-39900
X56800Y-31900
X56800Y-39900
X57100Y-36200
X57300Y-37400
X57800Y-30900
X57800Y-40000
X58700Y-40100
X58700Y-41600
X58800Y-29900
X59300Y-36100
X59646Y-41457
X60400Y-29300
X60400Y-32900
X60400Y-35200
X60500Y-38700
X60800Y-33400
X60800Y-34500
X61000Y-38800
X61300Y-33600
X61800Y-31400
X61800Y-33600
X62200Y-30900
X62200Y-34900
X62200Y-42500
X62300Y-40800
X62600Y-30400
X62600Y-33300
X63300Y-39300
X63300Y-42100
X63900Y-32300
X63950Y-29350
X64400Y-34100
X64400Y-35300
X64429Y-29862
X64500Y-33300
X64681Y-30850
X64700Y-31800
X64831Y-35669
X64900Y-37800
X64900Y-40100
X65100Y-40800
X65100Y-42500
X65197Y-30354
X65197Y-33307
X65669Y-41417
X65925Y-32264
X66000Y-32900
X66000Y-33700
X67205Y-25315
X67480Y-29803
X67697Y-29075
X67795Y-35965
X68622Y-31181
X69272Y-35177
X69469Y-26201
X70800Y-29200
X71535Y-28031
X72200Y-39100
X72224Y-26378
X72300Y-31800
X72300Y-34100
X72835Y-27539
X74200Y-33200
X74800Y-36600
X75472Y-31535
T4
X45200Y-30300
X45200Y-31284
X54800Y-28000
X54800Y-34000
X55800Y-28000
X55800Y-34000
X56800Y-28000
X56800Y-34000
X57800Y-28000
X57800Y-34000
X58800Y-28000
X58800Y-34000
X59800Y-28000
X59800Y-34000
T5
X56400Y-42500
X57100Y-42500
X57800Y-42500
X58500Y-42500
T6
X47800Y-29900
X47800Y-30900
X47800Y-31900
X47800Y-32900
X47800Y-33900
X47800Y-34900
X47800Y-36900
X47800Y-37900
X47800Y-38900
X47800Y-39900
X47800Y-40900
X47800Y-41900
X66800Y-26300
X66800Y-27300
X66800Y-28300
X66800Y-29300
X66800Y-30300
X66800Y-31300
X66800Y-32300
X66800Y-33300
X66800Y-34900
X66800Y-35900
X66800Y-36900
X66800Y-37900
X66800Y-38900
X66800Y-39900
X66800Y-40900
X66800Y-41900
T7
X53740Y-25807
X54724Y-25807
X55748Y-25807
X56732Y-25807
X57717Y-25807
X58740Y-25807
X59724Y-25807
X60748Y-25807
X70004Y-30700
X72996Y-30700
T8
X38638Y-39057
X39890Y-40310
X40447Y-37247
X41138Y-41557
X41238Y-36457
X41700Y-38500
X42390Y-42810
X42490Y-37710
X42947Y-39747
X43047Y-34647
X43738Y-38957
X44200Y-41000
X44300Y-35900
X44990Y-40210
X45547Y-37147
X46800Y-38400
X52700Y-37341
X52700Y-39900
X54472Y-37341
X54472Y-39900
X60100Y-37341
X60100Y-39900
X61872Y-37341
X61872Y-39900
X67890Y-38390
X69143Y-37138
X69700Y-40200
X70390Y-35890
X70490Y-40990
X70953Y-38947
X71643Y-34638
X71743Y-39738
X72200Y-37700
X72300Y-42800
X72990Y-38490
X73453Y-36447
X73553Y-41547
X74243Y-37238
X74800Y-40300
X76053Y-39047
T9
X38400Y-29732
X39400Y-28000
X40400Y-26268
X74200Y-26268
X75200Y-28000
X76200Y-29732
T10
X49800Y-42900
X60800Y-42900
T0
M30
