M48
INCH,TZ
T1C0.024
T2C0.024
T3C0.031
T4C0.032
T5C0.039
T6C0.039
T7C0.040
T8C0.045
T9C0.047
T10C0.079
T11C0.150
%
G90
G05
T1
X30306Y-41741
X30306Y-42741
T2
X68100Y-49200
X68600Y-48700
X68600Y-49700
T3
X30900Y-31500
X30900Y-37500
X31900Y-31500
X31900Y-37500
X32900Y-31500
X32900Y-37500
X33000Y-44500
X33000Y-45500
X33000Y-46500
X33000Y-47500
X33900Y-31500
X33900Y-37500
X34900Y-31500
X34900Y-37500
X35900Y-31500
X35900Y-37500
X36000Y-44500
X36000Y-45500
X36000Y-46500
X36000Y-47500
T4
X26500Y-28600
X27500Y-28600
X27500Y-29600
X27950Y-60369
X27950Y-62169
X28035Y-57394
X28035Y-58394
X29035Y-58394
X30220Y-28599
X31220Y-28599
X31220Y-29599
X31300Y-15100
X31300Y-16650
X31700Y-49454
X31950Y-60369
X31950Y-62169
X33700Y-49454
X33940Y-28599
X34940Y-28599
X34940Y-29599
X35300Y-15100
X35300Y-16650
X37716Y-28607
X38200Y-44100
X38200Y-48100
X38716Y-28607
X38716Y-29607
X40000Y-44100
X40000Y-48100
X42413Y-47879
X42413Y-51879
X47940Y-24993
X47943Y-26935
X47943Y-29035
X47943Y-30935
X47943Y-39535
X47943Y-41035
X47943Y-42535
X47943Y-44035
X47944Y-32824
X47944Y-37946
X47976Y-36080
X47999Y-34465
X51940Y-24993
X51943Y-26935
X51943Y-29035
X51943Y-30935
X51943Y-39535
X51943Y-41035
X51943Y-42535
X51943Y-44035
X51944Y-32824
X51944Y-37946
X51976Y-36080
X51999Y-34465
X55381Y-33485
X55381Y-34485
X55381Y-35485
X55381Y-36485
X55381Y-37485
X55381Y-38485
X55381Y-39485
X55381Y-40485
X58381Y-33485
X58381Y-34485
X58381Y-35485
X58381Y-36485
X58381Y-37485
X58381Y-38485
X58381Y-39485
X58381Y-40485
X60917Y-47891
X60917Y-51891
X63854Y-15851
X63854Y-19851
X64147Y-13757
X64330Y-11690
X64847Y-13757
X65413Y-10312
X65503Y-15851
X65503Y-19851
X65547Y-13757
X66247Y-13757
X67197Y-15849
X67197Y-19849
X67400Y-53469
X68330Y-11690
X69413Y-10312
X69950Y-60369
X71400Y-53469
X72137Y-16678
X72137Y-20678
X73900Y-55369
X73900Y-56369
X73950Y-60369
X74800Y-17900
X74800Y-18900
X74900Y-56369
X75800Y-18900
X76600Y-57569
X76600Y-61569
T5
X62300Y-27500
X62300Y-46500
X63300Y-27500
X63300Y-46500
X64300Y-27500
X64300Y-46500
X65300Y-27500
X65300Y-46500
X66300Y-27500
X66300Y-46500
X67300Y-27500
X67300Y-46500
X68300Y-27500
X69300Y-27500
X69300Y-46500
X70300Y-46500
X70900Y-27500
X71300Y-46500
X71900Y-27500
X72300Y-46500
X72900Y-27500
X73300Y-46500
X73900Y-27500
X74300Y-46500
X74900Y-27500
X75900Y-27500
X76900Y-27500
X77900Y-27500
T6
X26342Y-54194
X27326Y-54194
X28350Y-54194
X29334Y-54194
X32034Y-12654
X33034Y-12654
X34034Y-12654
X35034Y-12654
X36034Y-12654
X37034Y-12654
X38034Y-12654
X39034Y-12654
X40034Y-12654
X41034Y-12654
X42034Y-12654
X43034Y-12654
X44034Y-12654
X45034Y-12654
X46034Y-12654
X47034Y-12654
X62950Y-36447
X62950Y-42353
X65250Y-33547
X65250Y-39453
X71100Y-50400
X72100Y-50400
X74972Y-12477
X77964Y-12477
T7
X27267Y-39490
X27267Y-49690
T8
X44700Y-47300
X44700Y-53050
X46222Y-47313
X46222Y-53063
X47747Y-47313
X47747Y-53063
X49254Y-47313
X49254Y-53063
X50750Y-47313
X50750Y-53113
X52264Y-47313
X52264Y-53113
X53792Y-47313
X53792Y-53113
X55317Y-47313
X55317Y-53113
X56831Y-47313
X56831Y-53113
X58367Y-47313
X58367Y-53113
T9
X24575Y-17325
X24575Y-19325
X24575Y-21325
X26544Y-17325
X26544Y-19325
X26544Y-21325
X31950Y-55669
X31950Y-57169
X31950Y-58669
X33950Y-55669
X33950Y-57169
X33950Y-58669
X36450Y-52169
X36450Y-53669
X36450Y-55169
X36450Y-59169
X36450Y-60669
X36450Y-62169
X38450Y-52169
X38450Y-53669
X38450Y-55169
X38450Y-59169
X38450Y-60669
X38450Y-62169
X40950Y-55669
X40950Y-57169
X40950Y-58669
X42950Y-55669
X42950Y-57169
X42950Y-58669
X47450Y-55669
X47450Y-57169
X47450Y-58669
X49450Y-55669
X49450Y-57169
X49450Y-58669
X52450Y-55669
X52450Y-57169
X52450Y-58669
X54450Y-55669
X54450Y-57169
X54450Y-58669
X58950Y-55669
X58950Y-57169
X58950Y-58669
X60950Y-55669
X60950Y-57169
X60950Y-58669
X63450Y-52169
X63450Y-53669
X63450Y-55169
X63450Y-59169
X63450Y-60669
X63450Y-62169
X65450Y-52169
X65450Y-53669
X65450Y-55169
X65450Y-59169
X65450Y-60669
X65450Y-62169
X67950Y-55669
X67950Y-57169
X67950Y-58669
X69950Y-55669
X69950Y-57169
X69950Y-58669
X74431Y-49525
X74431Y-51525
X74431Y-53525
X76400Y-49525
X76400Y-51525
X76400Y-53525
T10
X29834Y-12654
X29834Y-24859
X59434Y-12654
X59434Y-24854
T11
X61300Y-33500
X61300Y-44500
T0
M30
